%TF.GenerationSoftware,KiCad,Pcbnew,7.0.7*%
%TF.CreationDate,2023-09-27T12:08:52-04:00*%
%TF.ProjectId,DataCollectionPrototype,44617461-436f-46c6-9c65-6374696f6e50,1*%
%TF.SameCoordinates,Original*%
%TF.FileFunction,Profile,NP*%
%FSLAX46Y46*%
G04 Gerber Fmt 4.6, Leading zero omitted, Abs format (unit mm)*
G04 Created by KiCad (PCBNEW 7.0.7) date 2023-09-27 12:08:52*
%MOMM*%
%LPD*%
G01*
G04 APERTURE LIST*
%ADD10C,0.100000*%
%ADD11C,0.150000*%
%ADD12C,0.300000*%
%ADD13C,0.400000*%
%TA.AperFunction,Profile*%
%ADD14C,0.100000*%
%TD*%
G04 APERTURE END LIST*
D10*
D11*
X90007200Y-104005800D02*
X198007200Y-104005800D01*
X198007200Y-136005800D01*
X90007200Y-136005800D01*
X90007200Y-104005800D01*
D10*
D11*
X10000000Y-10000000D02*
X200007200Y-10000000D01*
X200007200Y-138005800D01*
X10000000Y-138005800D01*
X10000000Y-10000000D01*
D10*
D11*
X12000000Y-12000000D02*
X198007200Y-12000000D01*
X198007200Y-136005800D01*
X12000000Y-136005800D01*
X12000000Y-12000000D01*
D10*
D11*
X60000000Y-12000000D02*
X60000000Y-10000000D01*
D10*
D11*
X110000000Y-12000000D02*
X110000000Y-10000000D01*
D10*
D11*
X160000000Y-12000000D02*
X160000000Y-10000000D01*
D10*
D11*
X36089160Y-11593604D02*
X35346303Y-11593604D01*
X35717731Y-11593604D02*
X35717731Y-10293604D01*
X35717731Y-10293604D02*
X35593922Y-10479319D01*
X35593922Y-10479319D02*
X35470112Y-10603128D01*
X35470112Y-10603128D02*
X35346303Y-10665033D01*
D10*
D11*
X85346303Y-10417414D02*
X85408207Y-10355509D01*
X85408207Y-10355509D02*
X85532017Y-10293604D01*
X85532017Y-10293604D02*
X85841541Y-10293604D01*
X85841541Y-10293604D02*
X85965350Y-10355509D01*
X85965350Y-10355509D02*
X86027255Y-10417414D01*
X86027255Y-10417414D02*
X86089160Y-10541223D01*
X86089160Y-10541223D02*
X86089160Y-10665033D01*
X86089160Y-10665033D02*
X86027255Y-10850747D01*
X86027255Y-10850747D02*
X85284398Y-11593604D01*
X85284398Y-11593604D02*
X86089160Y-11593604D01*
D10*
D11*
X135284398Y-10293604D02*
X136089160Y-10293604D01*
X136089160Y-10293604D02*
X135655826Y-10788842D01*
X135655826Y-10788842D02*
X135841541Y-10788842D01*
X135841541Y-10788842D02*
X135965350Y-10850747D01*
X135965350Y-10850747D02*
X136027255Y-10912652D01*
X136027255Y-10912652D02*
X136089160Y-11036461D01*
X136089160Y-11036461D02*
X136089160Y-11345985D01*
X136089160Y-11345985D02*
X136027255Y-11469795D01*
X136027255Y-11469795D02*
X135965350Y-11531700D01*
X135965350Y-11531700D02*
X135841541Y-11593604D01*
X135841541Y-11593604D02*
X135470112Y-11593604D01*
X135470112Y-11593604D02*
X135346303Y-11531700D01*
X135346303Y-11531700D02*
X135284398Y-11469795D01*
D10*
D11*
X185965350Y-10726938D02*
X185965350Y-11593604D01*
X185655826Y-10231700D02*
X185346303Y-11160271D01*
X185346303Y-11160271D02*
X186151064Y-11160271D01*
D10*
D11*
X60000000Y-136005800D02*
X60000000Y-138005800D01*
D10*
D11*
X110000000Y-136005800D02*
X110000000Y-138005800D01*
D10*
D11*
X160000000Y-136005800D02*
X160000000Y-138005800D01*
D10*
D11*
X36089160Y-137599404D02*
X35346303Y-137599404D01*
X35717731Y-137599404D02*
X35717731Y-136299404D01*
X35717731Y-136299404D02*
X35593922Y-136485119D01*
X35593922Y-136485119D02*
X35470112Y-136608928D01*
X35470112Y-136608928D02*
X35346303Y-136670833D01*
D10*
D11*
X85346303Y-136423214D02*
X85408207Y-136361309D01*
X85408207Y-136361309D02*
X85532017Y-136299404D01*
X85532017Y-136299404D02*
X85841541Y-136299404D01*
X85841541Y-136299404D02*
X85965350Y-136361309D01*
X85965350Y-136361309D02*
X86027255Y-136423214D01*
X86027255Y-136423214D02*
X86089160Y-136547023D01*
X86089160Y-136547023D02*
X86089160Y-136670833D01*
X86089160Y-136670833D02*
X86027255Y-136856547D01*
X86027255Y-136856547D02*
X85284398Y-137599404D01*
X85284398Y-137599404D02*
X86089160Y-137599404D01*
D10*
D11*
X135284398Y-136299404D02*
X136089160Y-136299404D01*
X136089160Y-136299404D02*
X135655826Y-136794642D01*
X135655826Y-136794642D02*
X135841541Y-136794642D01*
X135841541Y-136794642D02*
X135965350Y-136856547D01*
X135965350Y-136856547D02*
X136027255Y-136918452D01*
X136027255Y-136918452D02*
X136089160Y-137042261D01*
X136089160Y-137042261D02*
X136089160Y-137351785D01*
X136089160Y-137351785D02*
X136027255Y-137475595D01*
X136027255Y-137475595D02*
X135965350Y-137537500D01*
X135965350Y-137537500D02*
X135841541Y-137599404D01*
X135841541Y-137599404D02*
X135470112Y-137599404D01*
X135470112Y-137599404D02*
X135346303Y-137537500D01*
X135346303Y-137537500D02*
X135284398Y-137475595D01*
D10*
D11*
X185965350Y-136732738D02*
X185965350Y-137599404D01*
X185655826Y-136237500D02*
X185346303Y-137166071D01*
X185346303Y-137166071D02*
X186151064Y-137166071D01*
D10*
D11*
X10000000Y-60000000D02*
X12000000Y-60000000D01*
D10*
D11*
X10000000Y-110000000D02*
X12000000Y-110000000D01*
D10*
D11*
X10690476Y-35222176D02*
X11309523Y-35222176D01*
X10566666Y-35593604D02*
X10999999Y-34293604D01*
X10999999Y-34293604D02*
X11433333Y-35593604D01*
D10*
D11*
X11092857Y-84912652D02*
X11278571Y-84974557D01*
X11278571Y-84974557D02*
X11340476Y-85036461D01*
X11340476Y-85036461D02*
X11402380Y-85160271D01*
X11402380Y-85160271D02*
X11402380Y-85345985D01*
X11402380Y-85345985D02*
X11340476Y-85469795D01*
X11340476Y-85469795D02*
X11278571Y-85531700D01*
X11278571Y-85531700D02*
X11154761Y-85593604D01*
X11154761Y-85593604D02*
X10659523Y-85593604D01*
X10659523Y-85593604D02*
X10659523Y-84293604D01*
X10659523Y-84293604D02*
X11092857Y-84293604D01*
X11092857Y-84293604D02*
X11216666Y-84355509D01*
X11216666Y-84355509D02*
X11278571Y-84417414D01*
X11278571Y-84417414D02*
X11340476Y-84541223D01*
X11340476Y-84541223D02*
X11340476Y-84665033D01*
X11340476Y-84665033D02*
X11278571Y-84788842D01*
X11278571Y-84788842D02*
X11216666Y-84850747D01*
X11216666Y-84850747D02*
X11092857Y-84912652D01*
X11092857Y-84912652D02*
X10659523Y-84912652D01*
D10*
D11*
X11402380Y-135469795D02*
X11340476Y-135531700D01*
X11340476Y-135531700D02*
X11154761Y-135593604D01*
X11154761Y-135593604D02*
X11030952Y-135593604D01*
X11030952Y-135593604D02*
X10845238Y-135531700D01*
X10845238Y-135531700D02*
X10721428Y-135407890D01*
X10721428Y-135407890D02*
X10659523Y-135284080D01*
X10659523Y-135284080D02*
X10597619Y-135036461D01*
X10597619Y-135036461D02*
X10597619Y-134850747D01*
X10597619Y-134850747D02*
X10659523Y-134603128D01*
X10659523Y-134603128D02*
X10721428Y-134479319D01*
X10721428Y-134479319D02*
X10845238Y-134355509D01*
X10845238Y-134355509D02*
X11030952Y-134293604D01*
X11030952Y-134293604D02*
X11154761Y-134293604D01*
X11154761Y-134293604D02*
X11340476Y-134355509D01*
X11340476Y-134355509D02*
X11402380Y-134417414D01*
D10*
D11*
X200007200Y-60000000D02*
X198007200Y-60000000D01*
D10*
D11*
X200007200Y-110000000D02*
X198007200Y-110000000D01*
D10*
D11*
X198697676Y-35222176D02*
X199316723Y-35222176D01*
X198573866Y-35593604D02*
X199007199Y-34293604D01*
X199007199Y-34293604D02*
X199440533Y-35593604D01*
D10*
D11*
X199100057Y-84912652D02*
X199285771Y-84974557D01*
X199285771Y-84974557D02*
X199347676Y-85036461D01*
X199347676Y-85036461D02*
X199409580Y-85160271D01*
X199409580Y-85160271D02*
X199409580Y-85345985D01*
X199409580Y-85345985D02*
X199347676Y-85469795D01*
X199347676Y-85469795D02*
X199285771Y-85531700D01*
X199285771Y-85531700D02*
X199161961Y-85593604D01*
X199161961Y-85593604D02*
X198666723Y-85593604D01*
X198666723Y-85593604D02*
X198666723Y-84293604D01*
X198666723Y-84293604D02*
X199100057Y-84293604D01*
X199100057Y-84293604D02*
X199223866Y-84355509D01*
X199223866Y-84355509D02*
X199285771Y-84417414D01*
X199285771Y-84417414D02*
X199347676Y-84541223D01*
X199347676Y-84541223D02*
X199347676Y-84665033D01*
X199347676Y-84665033D02*
X199285771Y-84788842D01*
X199285771Y-84788842D02*
X199223866Y-84850747D01*
X199223866Y-84850747D02*
X199100057Y-84912652D01*
X199100057Y-84912652D02*
X198666723Y-84912652D01*
D10*
D11*
X199409580Y-135469795D02*
X199347676Y-135531700D01*
X199347676Y-135531700D02*
X199161961Y-135593604D01*
X199161961Y-135593604D02*
X199038152Y-135593604D01*
X199038152Y-135593604D02*
X198852438Y-135531700D01*
X198852438Y-135531700D02*
X198728628Y-135407890D01*
X198728628Y-135407890D02*
X198666723Y-135284080D01*
X198666723Y-135284080D02*
X198604819Y-135036461D01*
X198604819Y-135036461D02*
X198604819Y-134850747D01*
X198604819Y-134850747D02*
X198666723Y-134603128D01*
X198666723Y-134603128D02*
X198728628Y-134479319D01*
X198728628Y-134479319D02*
X198852438Y-134355509D01*
X198852438Y-134355509D02*
X199038152Y-134293604D01*
X199038152Y-134293604D02*
X199161961Y-134293604D01*
X199161961Y-134293604D02*
X199347676Y-134355509D01*
X199347676Y-134355509D02*
X199409580Y-134417414D01*
D10*
D11*
X113463026Y-131791928D02*
X113463026Y-130291928D01*
X113463026Y-130291928D02*
X113820169Y-130291928D01*
X113820169Y-130291928D02*
X114034455Y-130363357D01*
X114034455Y-130363357D02*
X114177312Y-130506214D01*
X114177312Y-130506214D02*
X114248741Y-130649071D01*
X114248741Y-130649071D02*
X114320169Y-130934785D01*
X114320169Y-130934785D02*
X114320169Y-131149071D01*
X114320169Y-131149071D02*
X114248741Y-131434785D01*
X114248741Y-131434785D02*
X114177312Y-131577642D01*
X114177312Y-131577642D02*
X114034455Y-131720500D01*
X114034455Y-131720500D02*
X113820169Y-131791928D01*
X113820169Y-131791928D02*
X113463026Y-131791928D01*
X115605884Y-131791928D02*
X115605884Y-131006214D01*
X115605884Y-131006214D02*
X115534455Y-130863357D01*
X115534455Y-130863357D02*
X115391598Y-130791928D01*
X115391598Y-130791928D02*
X115105884Y-130791928D01*
X115105884Y-130791928D02*
X114963026Y-130863357D01*
X115605884Y-131720500D02*
X115463026Y-131791928D01*
X115463026Y-131791928D02*
X115105884Y-131791928D01*
X115105884Y-131791928D02*
X114963026Y-131720500D01*
X114963026Y-131720500D02*
X114891598Y-131577642D01*
X114891598Y-131577642D02*
X114891598Y-131434785D01*
X114891598Y-131434785D02*
X114963026Y-131291928D01*
X114963026Y-131291928D02*
X115105884Y-131220500D01*
X115105884Y-131220500D02*
X115463026Y-131220500D01*
X115463026Y-131220500D02*
X115605884Y-131149071D01*
X116105884Y-130791928D02*
X116677312Y-130791928D01*
X116320169Y-130291928D02*
X116320169Y-131577642D01*
X116320169Y-131577642D02*
X116391598Y-131720500D01*
X116391598Y-131720500D02*
X116534455Y-131791928D01*
X116534455Y-131791928D02*
X116677312Y-131791928D01*
X117748741Y-131720500D02*
X117605884Y-131791928D01*
X117605884Y-131791928D02*
X117320170Y-131791928D01*
X117320170Y-131791928D02*
X117177312Y-131720500D01*
X117177312Y-131720500D02*
X117105884Y-131577642D01*
X117105884Y-131577642D02*
X117105884Y-131006214D01*
X117105884Y-131006214D02*
X117177312Y-130863357D01*
X117177312Y-130863357D02*
X117320170Y-130791928D01*
X117320170Y-130791928D02*
X117605884Y-130791928D01*
X117605884Y-130791928D02*
X117748741Y-130863357D01*
X117748741Y-130863357D02*
X117820170Y-131006214D01*
X117820170Y-131006214D02*
X117820170Y-131149071D01*
X117820170Y-131149071D02*
X117105884Y-131291928D01*
X118463026Y-131649071D02*
X118534455Y-131720500D01*
X118534455Y-131720500D02*
X118463026Y-131791928D01*
X118463026Y-131791928D02*
X118391598Y-131720500D01*
X118391598Y-131720500D02*
X118463026Y-131649071D01*
X118463026Y-131649071D02*
X118463026Y-131791928D01*
X118463026Y-130863357D02*
X118534455Y-130934785D01*
X118534455Y-130934785D02*
X118463026Y-131006214D01*
X118463026Y-131006214D02*
X118391598Y-130934785D01*
X118391598Y-130934785D02*
X118463026Y-130863357D01*
X118463026Y-130863357D02*
X118463026Y-131006214D01*
X120391598Y-131791928D02*
X120677312Y-131791928D01*
X120677312Y-131791928D02*
X120820169Y-131720500D01*
X120820169Y-131720500D02*
X120891598Y-131649071D01*
X120891598Y-131649071D02*
X121034455Y-131434785D01*
X121034455Y-131434785D02*
X121105884Y-131149071D01*
X121105884Y-131149071D02*
X121105884Y-130577642D01*
X121105884Y-130577642D02*
X121034455Y-130434785D01*
X121034455Y-130434785D02*
X120963027Y-130363357D01*
X120963027Y-130363357D02*
X120820169Y-130291928D01*
X120820169Y-130291928D02*
X120534455Y-130291928D01*
X120534455Y-130291928D02*
X120391598Y-130363357D01*
X120391598Y-130363357D02*
X120320169Y-130434785D01*
X120320169Y-130434785D02*
X120248741Y-130577642D01*
X120248741Y-130577642D02*
X120248741Y-130934785D01*
X120248741Y-130934785D02*
X120320169Y-131077642D01*
X120320169Y-131077642D02*
X120391598Y-131149071D01*
X120391598Y-131149071D02*
X120534455Y-131220500D01*
X120534455Y-131220500D02*
X120820169Y-131220500D01*
X120820169Y-131220500D02*
X120963027Y-131149071D01*
X120963027Y-131149071D02*
X121034455Y-131077642D01*
X121034455Y-131077642D02*
X121105884Y-130934785D01*
X122820169Y-130220500D02*
X121534455Y-132149071D01*
X123248741Y-130434785D02*
X123320169Y-130363357D01*
X123320169Y-130363357D02*
X123463027Y-130291928D01*
X123463027Y-130291928D02*
X123820169Y-130291928D01*
X123820169Y-130291928D02*
X123963027Y-130363357D01*
X123963027Y-130363357D02*
X124034455Y-130434785D01*
X124034455Y-130434785D02*
X124105884Y-130577642D01*
X124105884Y-130577642D02*
X124105884Y-130720500D01*
X124105884Y-130720500D02*
X124034455Y-130934785D01*
X124034455Y-130934785D02*
X123177312Y-131791928D01*
X123177312Y-131791928D02*
X124105884Y-131791928D01*
X125391598Y-130791928D02*
X125391598Y-131791928D01*
X125034455Y-130220500D02*
X124677312Y-131291928D01*
X124677312Y-131291928D02*
X125605883Y-131291928D01*
X127248740Y-130220500D02*
X125963026Y-132149071D01*
X127677312Y-130434785D02*
X127748740Y-130363357D01*
X127748740Y-130363357D02*
X127891598Y-130291928D01*
X127891598Y-130291928D02*
X128248740Y-130291928D01*
X128248740Y-130291928D02*
X128391598Y-130363357D01*
X128391598Y-130363357D02*
X128463026Y-130434785D01*
X128463026Y-130434785D02*
X128534455Y-130577642D01*
X128534455Y-130577642D02*
X128534455Y-130720500D01*
X128534455Y-130720500D02*
X128463026Y-130934785D01*
X128463026Y-130934785D02*
X127605883Y-131791928D01*
X127605883Y-131791928D02*
X128534455Y-131791928D01*
X129463026Y-130291928D02*
X129605883Y-130291928D01*
X129605883Y-130291928D02*
X129748740Y-130363357D01*
X129748740Y-130363357D02*
X129820169Y-130434785D01*
X129820169Y-130434785D02*
X129891597Y-130577642D01*
X129891597Y-130577642D02*
X129963026Y-130863357D01*
X129963026Y-130863357D02*
X129963026Y-131220500D01*
X129963026Y-131220500D02*
X129891597Y-131506214D01*
X129891597Y-131506214D02*
X129820169Y-131649071D01*
X129820169Y-131649071D02*
X129748740Y-131720500D01*
X129748740Y-131720500D02*
X129605883Y-131791928D01*
X129605883Y-131791928D02*
X129463026Y-131791928D01*
X129463026Y-131791928D02*
X129320169Y-131720500D01*
X129320169Y-131720500D02*
X129248740Y-131649071D01*
X129248740Y-131649071D02*
X129177311Y-131506214D01*
X129177311Y-131506214D02*
X129105883Y-131220500D01*
X129105883Y-131220500D02*
X129105883Y-130863357D01*
X129105883Y-130863357D02*
X129177311Y-130577642D01*
X129177311Y-130577642D02*
X129248740Y-130434785D01*
X129248740Y-130434785D02*
X129320169Y-130363357D01*
X129320169Y-130363357D02*
X129463026Y-130291928D01*
X130534454Y-130434785D02*
X130605882Y-130363357D01*
X130605882Y-130363357D02*
X130748740Y-130291928D01*
X130748740Y-130291928D02*
X131105882Y-130291928D01*
X131105882Y-130291928D02*
X131248740Y-130363357D01*
X131248740Y-130363357D02*
X131320168Y-130434785D01*
X131320168Y-130434785D02*
X131391597Y-130577642D01*
X131391597Y-130577642D02*
X131391597Y-130720500D01*
X131391597Y-130720500D02*
X131320168Y-130934785D01*
X131320168Y-130934785D02*
X130463025Y-131791928D01*
X130463025Y-131791928D02*
X131391597Y-131791928D01*
X131891596Y-130291928D02*
X132820168Y-130291928D01*
X132820168Y-130291928D02*
X132320168Y-130863357D01*
X132320168Y-130863357D02*
X132534453Y-130863357D01*
X132534453Y-130863357D02*
X132677311Y-130934785D01*
X132677311Y-130934785D02*
X132748739Y-131006214D01*
X132748739Y-131006214D02*
X132820168Y-131149071D01*
X132820168Y-131149071D02*
X132820168Y-131506214D01*
X132820168Y-131506214D02*
X132748739Y-131649071D01*
X132748739Y-131649071D02*
X132677311Y-131720500D01*
X132677311Y-131720500D02*
X132534453Y-131791928D01*
X132534453Y-131791928D02*
X132105882Y-131791928D01*
X132105882Y-131791928D02*
X131963025Y-131720500D01*
X131963025Y-131720500D02*
X131891596Y-131649071D01*
D10*
D11*
X90007200Y-132505800D02*
X198007200Y-132505800D01*
D10*
D11*
X91463026Y-134591928D02*
X91463026Y-133091928D01*
X92320169Y-134591928D02*
X91677312Y-133734785D01*
X92320169Y-133091928D02*
X91463026Y-133949071D01*
X92963026Y-134591928D02*
X92963026Y-133591928D01*
X92963026Y-133091928D02*
X92891598Y-133163357D01*
X92891598Y-133163357D02*
X92963026Y-133234785D01*
X92963026Y-133234785D02*
X93034455Y-133163357D01*
X93034455Y-133163357D02*
X92963026Y-133091928D01*
X92963026Y-133091928D02*
X92963026Y-133234785D01*
X94534455Y-134449071D02*
X94463027Y-134520500D01*
X94463027Y-134520500D02*
X94248741Y-134591928D01*
X94248741Y-134591928D02*
X94105884Y-134591928D01*
X94105884Y-134591928D02*
X93891598Y-134520500D01*
X93891598Y-134520500D02*
X93748741Y-134377642D01*
X93748741Y-134377642D02*
X93677312Y-134234785D01*
X93677312Y-134234785D02*
X93605884Y-133949071D01*
X93605884Y-133949071D02*
X93605884Y-133734785D01*
X93605884Y-133734785D02*
X93677312Y-133449071D01*
X93677312Y-133449071D02*
X93748741Y-133306214D01*
X93748741Y-133306214D02*
X93891598Y-133163357D01*
X93891598Y-133163357D02*
X94105884Y-133091928D01*
X94105884Y-133091928D02*
X94248741Y-133091928D01*
X94248741Y-133091928D02*
X94463027Y-133163357D01*
X94463027Y-133163357D02*
X94534455Y-133234785D01*
X95820170Y-134591928D02*
X95820170Y-133806214D01*
X95820170Y-133806214D02*
X95748741Y-133663357D01*
X95748741Y-133663357D02*
X95605884Y-133591928D01*
X95605884Y-133591928D02*
X95320170Y-133591928D01*
X95320170Y-133591928D02*
X95177312Y-133663357D01*
X95820170Y-134520500D02*
X95677312Y-134591928D01*
X95677312Y-134591928D02*
X95320170Y-134591928D01*
X95320170Y-134591928D02*
X95177312Y-134520500D01*
X95177312Y-134520500D02*
X95105884Y-134377642D01*
X95105884Y-134377642D02*
X95105884Y-134234785D01*
X95105884Y-134234785D02*
X95177312Y-134091928D01*
X95177312Y-134091928D02*
X95320170Y-134020500D01*
X95320170Y-134020500D02*
X95677312Y-134020500D01*
X95677312Y-134020500D02*
X95820170Y-133949071D01*
X97177313Y-134591928D02*
X97177313Y-133091928D01*
X97177313Y-134520500D02*
X97034455Y-134591928D01*
X97034455Y-134591928D02*
X96748741Y-134591928D01*
X96748741Y-134591928D02*
X96605884Y-134520500D01*
X96605884Y-134520500D02*
X96534455Y-134449071D01*
X96534455Y-134449071D02*
X96463027Y-134306214D01*
X96463027Y-134306214D02*
X96463027Y-133877642D01*
X96463027Y-133877642D02*
X96534455Y-133734785D01*
X96534455Y-133734785D02*
X96605884Y-133663357D01*
X96605884Y-133663357D02*
X96748741Y-133591928D01*
X96748741Y-133591928D02*
X97034455Y-133591928D01*
X97034455Y-133591928D02*
X97177313Y-133663357D01*
X99034455Y-133806214D02*
X99534455Y-133806214D01*
X99748741Y-134591928D02*
X99034455Y-134591928D01*
X99034455Y-134591928D02*
X99034455Y-133091928D01*
X99034455Y-133091928D02*
X99748741Y-133091928D01*
X100391598Y-134449071D02*
X100463027Y-134520500D01*
X100463027Y-134520500D02*
X100391598Y-134591928D01*
X100391598Y-134591928D02*
X100320170Y-134520500D01*
X100320170Y-134520500D02*
X100391598Y-134449071D01*
X100391598Y-134449071D02*
X100391598Y-134591928D01*
X101105884Y-134591928D02*
X101105884Y-133091928D01*
X101105884Y-133091928D02*
X101463027Y-133091928D01*
X101463027Y-133091928D02*
X101677313Y-133163357D01*
X101677313Y-133163357D02*
X101820170Y-133306214D01*
X101820170Y-133306214D02*
X101891599Y-133449071D01*
X101891599Y-133449071D02*
X101963027Y-133734785D01*
X101963027Y-133734785D02*
X101963027Y-133949071D01*
X101963027Y-133949071D02*
X101891599Y-134234785D01*
X101891599Y-134234785D02*
X101820170Y-134377642D01*
X101820170Y-134377642D02*
X101677313Y-134520500D01*
X101677313Y-134520500D02*
X101463027Y-134591928D01*
X101463027Y-134591928D02*
X101105884Y-134591928D01*
X102605884Y-134449071D02*
X102677313Y-134520500D01*
X102677313Y-134520500D02*
X102605884Y-134591928D01*
X102605884Y-134591928D02*
X102534456Y-134520500D01*
X102534456Y-134520500D02*
X102605884Y-134449071D01*
X102605884Y-134449071D02*
X102605884Y-134591928D01*
X103248742Y-134163357D02*
X103963028Y-134163357D01*
X103105885Y-134591928D02*
X103605885Y-133091928D01*
X103605885Y-133091928D02*
X104105885Y-134591928D01*
X104605884Y-134449071D02*
X104677313Y-134520500D01*
X104677313Y-134520500D02*
X104605884Y-134591928D01*
X104605884Y-134591928D02*
X104534456Y-134520500D01*
X104534456Y-134520500D02*
X104605884Y-134449071D01*
X104605884Y-134449071D02*
X104605884Y-134591928D01*
X107605884Y-134591928D02*
X107605884Y-133091928D01*
X107748742Y-134020500D02*
X108177313Y-134591928D01*
X108177313Y-133591928D02*
X107605884Y-134163357D01*
X108820170Y-134591928D02*
X108820170Y-133591928D01*
X108820170Y-133091928D02*
X108748742Y-133163357D01*
X108748742Y-133163357D02*
X108820170Y-133234785D01*
X108820170Y-133234785D02*
X108891599Y-133163357D01*
X108891599Y-133163357D02*
X108820170Y-133091928D01*
X108820170Y-133091928D02*
X108820170Y-133234785D01*
X110177314Y-134520500D02*
X110034456Y-134591928D01*
X110034456Y-134591928D02*
X109748742Y-134591928D01*
X109748742Y-134591928D02*
X109605885Y-134520500D01*
X109605885Y-134520500D02*
X109534456Y-134449071D01*
X109534456Y-134449071D02*
X109463028Y-134306214D01*
X109463028Y-134306214D02*
X109463028Y-133877642D01*
X109463028Y-133877642D02*
X109534456Y-133734785D01*
X109534456Y-133734785D02*
X109605885Y-133663357D01*
X109605885Y-133663357D02*
X109748742Y-133591928D01*
X109748742Y-133591928D02*
X110034456Y-133591928D01*
X110034456Y-133591928D02*
X110177314Y-133663357D01*
X111463028Y-134591928D02*
X111463028Y-133806214D01*
X111463028Y-133806214D02*
X111391599Y-133663357D01*
X111391599Y-133663357D02*
X111248742Y-133591928D01*
X111248742Y-133591928D02*
X110963028Y-133591928D01*
X110963028Y-133591928D02*
X110820170Y-133663357D01*
X111463028Y-134520500D02*
X111320170Y-134591928D01*
X111320170Y-134591928D02*
X110963028Y-134591928D01*
X110963028Y-134591928D02*
X110820170Y-134520500D01*
X110820170Y-134520500D02*
X110748742Y-134377642D01*
X110748742Y-134377642D02*
X110748742Y-134234785D01*
X110748742Y-134234785D02*
X110820170Y-134091928D01*
X110820170Y-134091928D02*
X110963028Y-134020500D01*
X110963028Y-134020500D02*
X111320170Y-134020500D01*
X111320170Y-134020500D02*
X111463028Y-133949071D01*
X112820171Y-134591928D02*
X112820171Y-133091928D01*
X112820171Y-134520500D02*
X112677313Y-134591928D01*
X112677313Y-134591928D02*
X112391599Y-134591928D01*
X112391599Y-134591928D02*
X112248742Y-134520500D01*
X112248742Y-134520500D02*
X112177313Y-134449071D01*
X112177313Y-134449071D02*
X112105885Y-134306214D01*
X112105885Y-134306214D02*
X112105885Y-133877642D01*
X112105885Y-133877642D02*
X112177313Y-133734785D01*
X112177313Y-133734785D02*
X112248742Y-133663357D01*
X112248742Y-133663357D02*
X112391599Y-133591928D01*
X112391599Y-133591928D02*
X112677313Y-133591928D01*
X112677313Y-133591928D02*
X112820171Y-133663357D01*
X114534456Y-133091928D02*
X115534456Y-133091928D01*
X115534456Y-133091928D02*
X114891599Y-134591928D01*
X116105884Y-134449071D02*
X116177313Y-134520500D01*
X116177313Y-134520500D02*
X116105884Y-134591928D01*
X116105884Y-134591928D02*
X116034456Y-134520500D01*
X116034456Y-134520500D02*
X116105884Y-134449071D01*
X116105884Y-134449071D02*
X116105884Y-134591928D01*
X117105885Y-133091928D02*
X117248742Y-133091928D01*
X117248742Y-133091928D02*
X117391599Y-133163357D01*
X117391599Y-133163357D02*
X117463028Y-133234785D01*
X117463028Y-133234785D02*
X117534456Y-133377642D01*
X117534456Y-133377642D02*
X117605885Y-133663357D01*
X117605885Y-133663357D02*
X117605885Y-134020500D01*
X117605885Y-134020500D02*
X117534456Y-134306214D01*
X117534456Y-134306214D02*
X117463028Y-134449071D01*
X117463028Y-134449071D02*
X117391599Y-134520500D01*
X117391599Y-134520500D02*
X117248742Y-134591928D01*
X117248742Y-134591928D02*
X117105885Y-134591928D01*
X117105885Y-134591928D02*
X116963028Y-134520500D01*
X116963028Y-134520500D02*
X116891599Y-134449071D01*
X116891599Y-134449071D02*
X116820170Y-134306214D01*
X116820170Y-134306214D02*
X116748742Y-134020500D01*
X116748742Y-134020500D02*
X116748742Y-133663357D01*
X116748742Y-133663357D02*
X116820170Y-133377642D01*
X116820170Y-133377642D02*
X116891599Y-133234785D01*
X116891599Y-133234785D02*
X116963028Y-133163357D01*
X116963028Y-133163357D02*
X117105885Y-133091928D01*
X118248741Y-134449071D02*
X118320170Y-134520500D01*
X118320170Y-134520500D02*
X118248741Y-134591928D01*
X118248741Y-134591928D02*
X118177313Y-134520500D01*
X118177313Y-134520500D02*
X118248741Y-134449071D01*
X118248741Y-134449071D02*
X118248741Y-134591928D01*
X118820170Y-133091928D02*
X119820170Y-133091928D01*
X119820170Y-133091928D02*
X119177313Y-134591928D01*
D10*
D11*
X90007200Y-129505800D02*
X198007200Y-129505800D01*
D10*
D12*
X177418853Y-131784128D02*
X176918853Y-131069842D01*
X176561710Y-131784128D02*
X176561710Y-130284128D01*
X176561710Y-130284128D02*
X177133139Y-130284128D01*
X177133139Y-130284128D02*
X177275996Y-130355557D01*
X177275996Y-130355557D02*
X177347425Y-130426985D01*
X177347425Y-130426985D02*
X177418853Y-130569842D01*
X177418853Y-130569842D02*
X177418853Y-130784128D01*
X177418853Y-130784128D02*
X177347425Y-130926985D01*
X177347425Y-130926985D02*
X177275996Y-130998414D01*
X177275996Y-130998414D02*
X177133139Y-131069842D01*
X177133139Y-131069842D02*
X176561710Y-131069842D01*
X178633139Y-131712700D02*
X178490282Y-131784128D01*
X178490282Y-131784128D02*
X178204568Y-131784128D01*
X178204568Y-131784128D02*
X178061710Y-131712700D01*
X178061710Y-131712700D02*
X177990282Y-131569842D01*
X177990282Y-131569842D02*
X177990282Y-130998414D01*
X177990282Y-130998414D02*
X178061710Y-130855557D01*
X178061710Y-130855557D02*
X178204568Y-130784128D01*
X178204568Y-130784128D02*
X178490282Y-130784128D01*
X178490282Y-130784128D02*
X178633139Y-130855557D01*
X178633139Y-130855557D02*
X178704568Y-130998414D01*
X178704568Y-130998414D02*
X178704568Y-131141271D01*
X178704568Y-131141271D02*
X177990282Y-131284128D01*
X179204567Y-130784128D02*
X179561710Y-131784128D01*
X179561710Y-131784128D02*
X179918853Y-130784128D01*
X180490281Y-131641271D02*
X180561710Y-131712700D01*
X180561710Y-131712700D02*
X180490281Y-131784128D01*
X180490281Y-131784128D02*
X180418853Y-131712700D01*
X180418853Y-131712700D02*
X180490281Y-131641271D01*
X180490281Y-131641271D02*
X180490281Y-131784128D01*
X180490281Y-130855557D02*
X180561710Y-130926985D01*
X180561710Y-130926985D02*
X180490281Y-130998414D01*
X180490281Y-130998414D02*
X180418853Y-130926985D01*
X180418853Y-130926985D02*
X180490281Y-130855557D01*
X180490281Y-130855557D02*
X180490281Y-130998414D01*
X183133139Y-131784128D02*
X182275996Y-131784128D01*
X182704567Y-131784128D02*
X182704567Y-130284128D01*
X182704567Y-130284128D02*
X182561710Y-130498414D01*
X182561710Y-130498414D02*
X182418853Y-130641271D01*
X182418853Y-130641271D02*
X182275996Y-130712700D01*
D10*
D11*
X91391598Y-131720500D02*
X91605884Y-131791928D01*
X91605884Y-131791928D02*
X91963026Y-131791928D01*
X91963026Y-131791928D02*
X92105884Y-131720500D01*
X92105884Y-131720500D02*
X92177312Y-131649071D01*
X92177312Y-131649071D02*
X92248741Y-131506214D01*
X92248741Y-131506214D02*
X92248741Y-131363357D01*
X92248741Y-131363357D02*
X92177312Y-131220500D01*
X92177312Y-131220500D02*
X92105884Y-131149071D01*
X92105884Y-131149071D02*
X91963026Y-131077642D01*
X91963026Y-131077642D02*
X91677312Y-131006214D01*
X91677312Y-131006214D02*
X91534455Y-130934785D01*
X91534455Y-130934785D02*
X91463026Y-130863357D01*
X91463026Y-130863357D02*
X91391598Y-130720500D01*
X91391598Y-130720500D02*
X91391598Y-130577642D01*
X91391598Y-130577642D02*
X91463026Y-130434785D01*
X91463026Y-130434785D02*
X91534455Y-130363357D01*
X91534455Y-130363357D02*
X91677312Y-130291928D01*
X91677312Y-130291928D02*
X92034455Y-130291928D01*
X92034455Y-130291928D02*
X92248741Y-130363357D01*
X92891597Y-131791928D02*
X92891597Y-130791928D01*
X92891597Y-130291928D02*
X92820169Y-130363357D01*
X92820169Y-130363357D02*
X92891597Y-130434785D01*
X92891597Y-130434785D02*
X92963026Y-130363357D01*
X92963026Y-130363357D02*
X92891597Y-130291928D01*
X92891597Y-130291928D02*
X92891597Y-130434785D01*
X93463026Y-130791928D02*
X94248741Y-130791928D01*
X94248741Y-130791928D02*
X93463026Y-131791928D01*
X93463026Y-131791928D02*
X94248741Y-131791928D01*
X95391598Y-131720500D02*
X95248741Y-131791928D01*
X95248741Y-131791928D02*
X94963027Y-131791928D01*
X94963027Y-131791928D02*
X94820169Y-131720500D01*
X94820169Y-131720500D02*
X94748741Y-131577642D01*
X94748741Y-131577642D02*
X94748741Y-131006214D01*
X94748741Y-131006214D02*
X94820169Y-130863357D01*
X94820169Y-130863357D02*
X94963027Y-130791928D01*
X94963027Y-130791928D02*
X95248741Y-130791928D01*
X95248741Y-130791928D02*
X95391598Y-130863357D01*
X95391598Y-130863357D02*
X95463027Y-131006214D01*
X95463027Y-131006214D02*
X95463027Y-131149071D01*
X95463027Y-131149071D02*
X94748741Y-131291928D01*
X96105883Y-131649071D02*
X96177312Y-131720500D01*
X96177312Y-131720500D02*
X96105883Y-131791928D01*
X96105883Y-131791928D02*
X96034455Y-131720500D01*
X96034455Y-131720500D02*
X96105883Y-131649071D01*
X96105883Y-131649071D02*
X96105883Y-131791928D01*
X96105883Y-130863357D02*
X96177312Y-130934785D01*
X96177312Y-130934785D02*
X96105883Y-131006214D01*
X96105883Y-131006214D02*
X96034455Y-130934785D01*
X96034455Y-130934785D02*
X96105883Y-130863357D01*
X96105883Y-130863357D02*
X96105883Y-131006214D01*
X97891598Y-131363357D02*
X98605884Y-131363357D01*
X97748741Y-131791928D02*
X98248741Y-130291928D01*
X98248741Y-130291928D02*
X98748741Y-131791928D01*
X99963026Y-130291928D02*
X99248740Y-130291928D01*
X99248740Y-130291928D02*
X99177312Y-131006214D01*
X99177312Y-131006214D02*
X99248740Y-130934785D01*
X99248740Y-130934785D02*
X99391598Y-130863357D01*
X99391598Y-130863357D02*
X99748740Y-130863357D01*
X99748740Y-130863357D02*
X99891598Y-130934785D01*
X99891598Y-130934785D02*
X99963026Y-131006214D01*
X99963026Y-131006214D02*
X100034455Y-131149071D01*
X100034455Y-131149071D02*
X100034455Y-131506214D01*
X100034455Y-131506214D02*
X99963026Y-131649071D01*
X99963026Y-131649071D02*
X99891598Y-131720500D01*
X99891598Y-131720500D02*
X99748740Y-131791928D01*
X99748740Y-131791928D02*
X99391598Y-131791928D01*
X99391598Y-131791928D02*
X99248740Y-131720500D01*
X99248740Y-131720500D02*
X99177312Y-131649071D01*
D10*
D11*
X176463026Y-134591928D02*
X176463026Y-133091928D01*
X177820170Y-134591928D02*
X177820170Y-133091928D01*
X177820170Y-134520500D02*
X177677312Y-134591928D01*
X177677312Y-134591928D02*
X177391598Y-134591928D01*
X177391598Y-134591928D02*
X177248741Y-134520500D01*
X177248741Y-134520500D02*
X177177312Y-134449071D01*
X177177312Y-134449071D02*
X177105884Y-134306214D01*
X177105884Y-134306214D02*
X177105884Y-133877642D01*
X177105884Y-133877642D02*
X177177312Y-133734785D01*
X177177312Y-133734785D02*
X177248741Y-133663357D01*
X177248741Y-133663357D02*
X177391598Y-133591928D01*
X177391598Y-133591928D02*
X177677312Y-133591928D01*
X177677312Y-133591928D02*
X177820170Y-133663357D01*
X178534455Y-134449071D02*
X178605884Y-134520500D01*
X178605884Y-134520500D02*
X178534455Y-134591928D01*
X178534455Y-134591928D02*
X178463027Y-134520500D01*
X178463027Y-134520500D02*
X178534455Y-134449071D01*
X178534455Y-134449071D02*
X178534455Y-134591928D01*
X178534455Y-133663357D02*
X178605884Y-133734785D01*
X178605884Y-133734785D02*
X178534455Y-133806214D01*
X178534455Y-133806214D02*
X178463027Y-133734785D01*
X178463027Y-133734785D02*
X178534455Y-133663357D01*
X178534455Y-133663357D02*
X178534455Y-133806214D01*
X181177313Y-134591928D02*
X180320170Y-134591928D01*
X180748741Y-134591928D02*
X180748741Y-133091928D01*
X180748741Y-133091928D02*
X180605884Y-133306214D01*
X180605884Y-133306214D02*
X180463027Y-133449071D01*
X180463027Y-133449071D02*
X180320170Y-133520500D01*
X182891598Y-133020500D02*
X181605884Y-134949071D01*
X184177313Y-134591928D02*
X183320170Y-134591928D01*
X183748741Y-134591928D02*
X183748741Y-133091928D01*
X183748741Y-133091928D02*
X183605884Y-133306214D01*
X183605884Y-133306214D02*
X183463027Y-133449071D01*
X183463027Y-133449071D02*
X183320170Y-133520500D01*
D10*
D11*
X90007200Y-125505800D02*
X198007200Y-125505800D01*
D10*
D13*
X91698928Y-126210238D02*
X92841785Y-126210238D01*
X92020357Y-128210238D02*
X92270357Y-126210238D01*
X93258452Y-128210238D02*
X93425119Y-126876904D01*
X93508452Y-126210238D02*
X93401309Y-126305476D01*
X93401309Y-126305476D02*
X93484643Y-126400714D01*
X93484643Y-126400714D02*
X93591786Y-126305476D01*
X93591786Y-126305476D02*
X93508452Y-126210238D01*
X93508452Y-126210238D02*
X93484643Y-126400714D01*
X94091786Y-126876904D02*
X94853690Y-126876904D01*
X94460833Y-126210238D02*
X94246548Y-127924523D01*
X94246548Y-127924523D02*
X94317976Y-128115000D01*
X94317976Y-128115000D02*
X94496548Y-128210238D01*
X94496548Y-128210238D02*
X94687024Y-128210238D01*
X95639405Y-128210238D02*
X95460833Y-128115000D01*
X95460833Y-128115000D02*
X95389405Y-127924523D01*
X95389405Y-127924523D02*
X95603690Y-126210238D01*
X97175119Y-128115000D02*
X96972738Y-128210238D01*
X96972738Y-128210238D02*
X96591785Y-128210238D01*
X96591785Y-128210238D02*
X96413214Y-128115000D01*
X96413214Y-128115000D02*
X96341785Y-127924523D01*
X96341785Y-127924523D02*
X96437024Y-127162619D01*
X96437024Y-127162619D02*
X96556071Y-126972142D01*
X96556071Y-126972142D02*
X96758452Y-126876904D01*
X96758452Y-126876904D02*
X97139404Y-126876904D01*
X97139404Y-126876904D02*
X97317976Y-126972142D01*
X97317976Y-126972142D02*
X97389404Y-127162619D01*
X97389404Y-127162619D02*
X97365595Y-127353095D01*
X97365595Y-127353095D02*
X96389404Y-127543571D01*
X98139405Y-128019761D02*
X98222738Y-128115000D01*
X98222738Y-128115000D02*
X98115595Y-128210238D01*
X98115595Y-128210238D02*
X98032262Y-128115000D01*
X98032262Y-128115000D02*
X98139405Y-128019761D01*
X98139405Y-128019761D02*
X98115595Y-128210238D01*
X98270357Y-126972142D02*
X98353690Y-127067380D01*
X98353690Y-127067380D02*
X98246548Y-127162619D01*
X98246548Y-127162619D02*
X98163214Y-127067380D01*
X98163214Y-127067380D02*
X98270357Y-126972142D01*
X98270357Y-126972142D02*
X98246548Y-127162619D01*
X100591786Y-128210238D02*
X100841786Y-126210238D01*
X100841786Y-126210238D02*
X101317977Y-126210238D01*
X101317977Y-126210238D02*
X101591786Y-126305476D01*
X101591786Y-126305476D02*
X101758453Y-126495952D01*
X101758453Y-126495952D02*
X101829881Y-126686428D01*
X101829881Y-126686428D02*
X101877501Y-127067380D01*
X101877501Y-127067380D02*
X101841786Y-127353095D01*
X101841786Y-127353095D02*
X101698929Y-127734047D01*
X101698929Y-127734047D02*
X101579881Y-127924523D01*
X101579881Y-127924523D02*
X101365596Y-128115000D01*
X101365596Y-128115000D02*
X101067977Y-128210238D01*
X101067977Y-128210238D02*
X100591786Y-128210238D01*
X103448929Y-128210238D02*
X103579881Y-127162619D01*
X103579881Y-127162619D02*
X103508453Y-126972142D01*
X103508453Y-126972142D02*
X103329881Y-126876904D01*
X103329881Y-126876904D02*
X102948929Y-126876904D01*
X102948929Y-126876904D02*
X102746548Y-126972142D01*
X103460834Y-128115000D02*
X103258453Y-128210238D01*
X103258453Y-128210238D02*
X102782262Y-128210238D01*
X102782262Y-128210238D02*
X102603691Y-128115000D01*
X102603691Y-128115000D02*
X102532262Y-127924523D01*
X102532262Y-127924523D02*
X102556072Y-127734047D01*
X102556072Y-127734047D02*
X102675120Y-127543571D01*
X102675120Y-127543571D02*
X102877501Y-127448333D01*
X102877501Y-127448333D02*
X103353691Y-127448333D01*
X103353691Y-127448333D02*
X103556072Y-127353095D01*
X104282263Y-126876904D02*
X105044167Y-126876904D01*
X104651310Y-126210238D02*
X104437025Y-127924523D01*
X104437025Y-127924523D02*
X104508453Y-128115000D01*
X104508453Y-128115000D02*
X104687025Y-128210238D01*
X104687025Y-128210238D02*
X104877501Y-128210238D01*
X106401310Y-128210238D02*
X106532262Y-127162619D01*
X106532262Y-127162619D02*
X106460834Y-126972142D01*
X106460834Y-126972142D02*
X106282262Y-126876904D01*
X106282262Y-126876904D02*
X105901310Y-126876904D01*
X105901310Y-126876904D02*
X105698929Y-126972142D01*
X106413215Y-128115000D02*
X106210834Y-128210238D01*
X106210834Y-128210238D02*
X105734643Y-128210238D01*
X105734643Y-128210238D02*
X105556072Y-128115000D01*
X105556072Y-128115000D02*
X105484643Y-127924523D01*
X105484643Y-127924523D02*
X105508453Y-127734047D01*
X105508453Y-127734047D02*
X105627501Y-127543571D01*
X105627501Y-127543571D02*
X105829882Y-127448333D01*
X105829882Y-127448333D02*
X106306072Y-127448333D01*
X106306072Y-127448333D02*
X106508453Y-127353095D01*
X110044168Y-128019761D02*
X109937025Y-128115000D01*
X109937025Y-128115000D02*
X109639406Y-128210238D01*
X109639406Y-128210238D02*
X109448930Y-128210238D01*
X109448930Y-128210238D02*
X109175120Y-128115000D01*
X109175120Y-128115000D02*
X109008454Y-127924523D01*
X109008454Y-127924523D02*
X108937025Y-127734047D01*
X108937025Y-127734047D02*
X108889406Y-127353095D01*
X108889406Y-127353095D02*
X108925120Y-127067380D01*
X108925120Y-127067380D02*
X109067977Y-126686428D01*
X109067977Y-126686428D02*
X109187025Y-126495952D01*
X109187025Y-126495952D02*
X109401311Y-126305476D01*
X109401311Y-126305476D02*
X109698930Y-126210238D01*
X109698930Y-126210238D02*
X109889406Y-126210238D01*
X109889406Y-126210238D02*
X110163216Y-126305476D01*
X110163216Y-126305476D02*
X110246549Y-126400714D01*
X111163216Y-128210238D02*
X110984644Y-128115000D01*
X110984644Y-128115000D02*
X110901311Y-128019761D01*
X110901311Y-128019761D02*
X110829882Y-127829285D01*
X110829882Y-127829285D02*
X110901311Y-127257857D01*
X110901311Y-127257857D02*
X111020358Y-127067380D01*
X111020358Y-127067380D02*
X111127501Y-126972142D01*
X111127501Y-126972142D02*
X111329882Y-126876904D01*
X111329882Y-126876904D02*
X111615596Y-126876904D01*
X111615596Y-126876904D02*
X111794168Y-126972142D01*
X111794168Y-126972142D02*
X111877501Y-127067380D01*
X111877501Y-127067380D02*
X111948930Y-127257857D01*
X111948930Y-127257857D02*
X111877501Y-127829285D01*
X111877501Y-127829285D02*
X111758454Y-128019761D01*
X111758454Y-128019761D02*
X111651311Y-128115000D01*
X111651311Y-128115000D02*
X111448930Y-128210238D01*
X111448930Y-128210238D02*
X111163216Y-128210238D01*
X112972740Y-128210238D02*
X112794168Y-128115000D01*
X112794168Y-128115000D02*
X112722740Y-127924523D01*
X112722740Y-127924523D02*
X112937025Y-126210238D01*
X114020359Y-128210238D02*
X113841787Y-128115000D01*
X113841787Y-128115000D02*
X113770359Y-127924523D01*
X113770359Y-127924523D02*
X113984644Y-126210238D01*
X115556073Y-128115000D02*
X115353692Y-128210238D01*
X115353692Y-128210238D02*
X114972739Y-128210238D01*
X114972739Y-128210238D02*
X114794168Y-128115000D01*
X114794168Y-128115000D02*
X114722739Y-127924523D01*
X114722739Y-127924523D02*
X114817978Y-127162619D01*
X114817978Y-127162619D02*
X114937025Y-126972142D01*
X114937025Y-126972142D02*
X115139406Y-126876904D01*
X115139406Y-126876904D02*
X115520358Y-126876904D01*
X115520358Y-126876904D02*
X115698930Y-126972142D01*
X115698930Y-126972142D02*
X115770358Y-127162619D01*
X115770358Y-127162619D02*
X115746549Y-127353095D01*
X115746549Y-127353095D02*
X114770358Y-127543571D01*
X117365597Y-128115000D02*
X117163216Y-128210238D01*
X117163216Y-128210238D02*
X116782264Y-128210238D01*
X116782264Y-128210238D02*
X116603692Y-128115000D01*
X116603692Y-128115000D02*
X116520359Y-128019761D01*
X116520359Y-128019761D02*
X116448930Y-127829285D01*
X116448930Y-127829285D02*
X116520359Y-127257857D01*
X116520359Y-127257857D02*
X116639406Y-127067380D01*
X116639406Y-127067380D02*
X116746549Y-126972142D01*
X116746549Y-126972142D02*
X116948930Y-126876904D01*
X116948930Y-126876904D02*
X117329883Y-126876904D01*
X117329883Y-126876904D02*
X117508454Y-126972142D01*
X118091788Y-126876904D02*
X118853692Y-126876904D01*
X118460835Y-126210238D02*
X118246550Y-127924523D01*
X118246550Y-127924523D02*
X118317978Y-128115000D01*
X118317978Y-128115000D02*
X118496550Y-128210238D01*
X118496550Y-128210238D02*
X118687026Y-128210238D01*
X119353692Y-128210238D02*
X119520359Y-126876904D01*
X119603692Y-126210238D02*
X119496549Y-126305476D01*
X119496549Y-126305476D02*
X119579883Y-126400714D01*
X119579883Y-126400714D02*
X119687026Y-126305476D01*
X119687026Y-126305476D02*
X119603692Y-126210238D01*
X119603692Y-126210238D02*
X119579883Y-126400714D01*
X120591788Y-128210238D02*
X120413216Y-128115000D01*
X120413216Y-128115000D02*
X120329883Y-128019761D01*
X120329883Y-128019761D02*
X120258454Y-127829285D01*
X120258454Y-127829285D02*
X120329883Y-127257857D01*
X120329883Y-127257857D02*
X120448930Y-127067380D01*
X120448930Y-127067380D02*
X120556073Y-126972142D01*
X120556073Y-126972142D02*
X120758454Y-126876904D01*
X120758454Y-126876904D02*
X121044168Y-126876904D01*
X121044168Y-126876904D02*
X121222740Y-126972142D01*
X121222740Y-126972142D02*
X121306073Y-127067380D01*
X121306073Y-127067380D02*
X121377502Y-127257857D01*
X121377502Y-127257857D02*
X121306073Y-127829285D01*
X121306073Y-127829285D02*
X121187026Y-128019761D01*
X121187026Y-128019761D02*
X121079883Y-128115000D01*
X121079883Y-128115000D02*
X120877502Y-128210238D01*
X120877502Y-128210238D02*
X120591788Y-128210238D01*
X122282264Y-126876904D02*
X122115597Y-128210238D01*
X122258454Y-127067380D02*
X122365597Y-126972142D01*
X122365597Y-126972142D02*
X122567978Y-126876904D01*
X122567978Y-126876904D02*
X122853692Y-126876904D01*
X122853692Y-126876904D02*
X123032264Y-126972142D01*
X123032264Y-126972142D02*
X123103692Y-127162619D01*
X123103692Y-127162619D02*
X122972740Y-128210238D01*
X125448931Y-128210238D02*
X125698931Y-126210238D01*
X125698931Y-126210238D02*
X126460836Y-126210238D01*
X126460836Y-126210238D02*
X126639407Y-126305476D01*
X126639407Y-126305476D02*
X126722741Y-126400714D01*
X126722741Y-126400714D02*
X126794169Y-126591190D01*
X126794169Y-126591190D02*
X126758455Y-126876904D01*
X126758455Y-126876904D02*
X126639407Y-127067380D01*
X126639407Y-127067380D02*
X126532265Y-127162619D01*
X126532265Y-127162619D02*
X126329884Y-127257857D01*
X126329884Y-127257857D02*
X125567979Y-127257857D01*
X127448931Y-128210238D02*
X127615598Y-126876904D01*
X127567979Y-127257857D02*
X127687026Y-127067380D01*
X127687026Y-127067380D02*
X127794169Y-126972142D01*
X127794169Y-126972142D02*
X127996550Y-126876904D01*
X127996550Y-126876904D02*
X128187026Y-126876904D01*
X128972741Y-128210238D02*
X128794169Y-128115000D01*
X128794169Y-128115000D02*
X128710836Y-128019761D01*
X128710836Y-128019761D02*
X128639407Y-127829285D01*
X128639407Y-127829285D02*
X128710836Y-127257857D01*
X128710836Y-127257857D02*
X128829883Y-127067380D01*
X128829883Y-127067380D02*
X128937026Y-126972142D01*
X128937026Y-126972142D02*
X129139407Y-126876904D01*
X129139407Y-126876904D02*
X129425121Y-126876904D01*
X129425121Y-126876904D02*
X129603693Y-126972142D01*
X129603693Y-126972142D02*
X129687026Y-127067380D01*
X129687026Y-127067380D02*
X129758455Y-127257857D01*
X129758455Y-127257857D02*
X129687026Y-127829285D01*
X129687026Y-127829285D02*
X129567979Y-128019761D01*
X129567979Y-128019761D02*
X129460836Y-128115000D01*
X129460836Y-128115000D02*
X129258455Y-128210238D01*
X129258455Y-128210238D02*
X128972741Y-128210238D01*
X130377503Y-126876904D02*
X131139407Y-126876904D01*
X130746550Y-126210238D02*
X130532265Y-127924523D01*
X130532265Y-127924523D02*
X130603693Y-128115000D01*
X130603693Y-128115000D02*
X130782265Y-128210238D01*
X130782265Y-128210238D02*
X130972741Y-128210238D01*
X131925122Y-128210238D02*
X131746550Y-128115000D01*
X131746550Y-128115000D02*
X131663217Y-128019761D01*
X131663217Y-128019761D02*
X131591788Y-127829285D01*
X131591788Y-127829285D02*
X131663217Y-127257857D01*
X131663217Y-127257857D02*
X131782264Y-127067380D01*
X131782264Y-127067380D02*
X131889407Y-126972142D01*
X131889407Y-126972142D02*
X132091788Y-126876904D01*
X132091788Y-126876904D02*
X132377502Y-126876904D01*
X132377502Y-126876904D02*
X132556074Y-126972142D01*
X132556074Y-126972142D02*
X132639407Y-127067380D01*
X132639407Y-127067380D02*
X132710836Y-127257857D01*
X132710836Y-127257857D02*
X132639407Y-127829285D01*
X132639407Y-127829285D02*
X132520360Y-128019761D01*
X132520360Y-128019761D02*
X132413217Y-128115000D01*
X132413217Y-128115000D02*
X132210836Y-128210238D01*
X132210836Y-128210238D02*
X131925122Y-128210238D01*
X133329884Y-126876904D02*
X134091788Y-126876904D01*
X133698931Y-126210238D02*
X133484646Y-127924523D01*
X133484646Y-127924523D02*
X133556074Y-128115000D01*
X133556074Y-128115000D02*
X133734646Y-128210238D01*
X133734646Y-128210238D02*
X133925122Y-128210238D01*
X134567979Y-126876904D02*
X134877503Y-128210238D01*
X135520360Y-126876904D02*
X134877503Y-128210238D01*
X134877503Y-128210238D02*
X134627503Y-128686428D01*
X134627503Y-128686428D02*
X134520360Y-128781666D01*
X134520360Y-128781666D02*
X134317979Y-128876904D01*
X136282265Y-126876904D02*
X136032265Y-128876904D01*
X136270360Y-126972142D02*
X136472741Y-126876904D01*
X136472741Y-126876904D02*
X136853693Y-126876904D01*
X136853693Y-126876904D02*
X137032265Y-126972142D01*
X137032265Y-126972142D02*
X137115598Y-127067380D01*
X137115598Y-127067380D02*
X137187027Y-127257857D01*
X137187027Y-127257857D02*
X137115598Y-127829285D01*
X137115598Y-127829285D02*
X136996551Y-128019761D01*
X136996551Y-128019761D02*
X136889408Y-128115000D01*
X136889408Y-128115000D02*
X136687027Y-128210238D01*
X136687027Y-128210238D02*
X136306074Y-128210238D01*
X136306074Y-128210238D02*
X136127503Y-128115000D01*
X138698932Y-128115000D02*
X138496551Y-128210238D01*
X138496551Y-128210238D02*
X138115598Y-128210238D01*
X138115598Y-128210238D02*
X137937027Y-128115000D01*
X137937027Y-128115000D02*
X137865598Y-127924523D01*
X137865598Y-127924523D02*
X137960837Y-127162619D01*
X137960837Y-127162619D02*
X138079884Y-126972142D01*
X138079884Y-126972142D02*
X138282265Y-126876904D01*
X138282265Y-126876904D02*
X138663217Y-126876904D01*
X138663217Y-126876904D02*
X138841789Y-126972142D01*
X138841789Y-126972142D02*
X138913217Y-127162619D01*
X138913217Y-127162619D02*
X138889408Y-127353095D01*
X138889408Y-127353095D02*
X137913217Y-127543571D01*
D10*
D11*
X91963026Y-123606214D02*
X91463026Y-123606214D01*
X91463026Y-124391928D02*
X91463026Y-122891928D01*
X91463026Y-122891928D02*
X92177312Y-122891928D01*
X92748740Y-124391928D02*
X92748740Y-123391928D01*
X92748740Y-122891928D02*
X92677312Y-122963357D01*
X92677312Y-122963357D02*
X92748740Y-123034785D01*
X92748740Y-123034785D02*
X92820169Y-122963357D01*
X92820169Y-122963357D02*
X92748740Y-122891928D01*
X92748740Y-122891928D02*
X92748740Y-123034785D01*
X93677312Y-124391928D02*
X93534455Y-124320500D01*
X93534455Y-124320500D02*
X93463026Y-124177642D01*
X93463026Y-124177642D02*
X93463026Y-122891928D01*
X94820169Y-124320500D02*
X94677312Y-124391928D01*
X94677312Y-124391928D02*
X94391598Y-124391928D01*
X94391598Y-124391928D02*
X94248740Y-124320500D01*
X94248740Y-124320500D02*
X94177312Y-124177642D01*
X94177312Y-124177642D02*
X94177312Y-123606214D01*
X94177312Y-123606214D02*
X94248740Y-123463357D01*
X94248740Y-123463357D02*
X94391598Y-123391928D01*
X94391598Y-123391928D02*
X94677312Y-123391928D01*
X94677312Y-123391928D02*
X94820169Y-123463357D01*
X94820169Y-123463357D02*
X94891598Y-123606214D01*
X94891598Y-123606214D02*
X94891598Y-123749071D01*
X94891598Y-123749071D02*
X94177312Y-123891928D01*
X95534454Y-124249071D02*
X95605883Y-124320500D01*
X95605883Y-124320500D02*
X95534454Y-124391928D01*
X95534454Y-124391928D02*
X95463026Y-124320500D01*
X95463026Y-124320500D02*
X95534454Y-124249071D01*
X95534454Y-124249071D02*
X95534454Y-124391928D01*
X95534454Y-123463357D02*
X95605883Y-123534785D01*
X95605883Y-123534785D02*
X95534454Y-123606214D01*
X95534454Y-123606214D02*
X95463026Y-123534785D01*
X95463026Y-123534785D02*
X95534454Y-123463357D01*
X95534454Y-123463357D02*
X95534454Y-123606214D01*
X97391597Y-124391928D02*
X97391597Y-122891928D01*
X97391597Y-122891928D02*
X97748740Y-122891928D01*
X97748740Y-122891928D02*
X97963026Y-122963357D01*
X97963026Y-122963357D02*
X98105883Y-123106214D01*
X98105883Y-123106214D02*
X98177312Y-123249071D01*
X98177312Y-123249071D02*
X98248740Y-123534785D01*
X98248740Y-123534785D02*
X98248740Y-123749071D01*
X98248740Y-123749071D02*
X98177312Y-124034785D01*
X98177312Y-124034785D02*
X98105883Y-124177642D01*
X98105883Y-124177642D02*
X97963026Y-124320500D01*
X97963026Y-124320500D02*
X97748740Y-124391928D01*
X97748740Y-124391928D02*
X97391597Y-124391928D01*
X99534455Y-124391928D02*
X99534455Y-123606214D01*
X99534455Y-123606214D02*
X99463026Y-123463357D01*
X99463026Y-123463357D02*
X99320169Y-123391928D01*
X99320169Y-123391928D02*
X99034455Y-123391928D01*
X99034455Y-123391928D02*
X98891597Y-123463357D01*
X99534455Y-124320500D02*
X99391597Y-124391928D01*
X99391597Y-124391928D02*
X99034455Y-124391928D01*
X99034455Y-124391928D02*
X98891597Y-124320500D01*
X98891597Y-124320500D02*
X98820169Y-124177642D01*
X98820169Y-124177642D02*
X98820169Y-124034785D01*
X98820169Y-124034785D02*
X98891597Y-123891928D01*
X98891597Y-123891928D02*
X99034455Y-123820500D01*
X99034455Y-123820500D02*
X99391597Y-123820500D01*
X99391597Y-123820500D02*
X99534455Y-123749071D01*
X100034455Y-123391928D02*
X100605883Y-123391928D01*
X100248740Y-122891928D02*
X100248740Y-124177642D01*
X100248740Y-124177642D02*
X100320169Y-124320500D01*
X100320169Y-124320500D02*
X100463026Y-124391928D01*
X100463026Y-124391928D02*
X100605883Y-124391928D01*
X101748741Y-124391928D02*
X101748741Y-123606214D01*
X101748741Y-123606214D02*
X101677312Y-123463357D01*
X101677312Y-123463357D02*
X101534455Y-123391928D01*
X101534455Y-123391928D02*
X101248741Y-123391928D01*
X101248741Y-123391928D02*
X101105883Y-123463357D01*
X101748741Y-124320500D02*
X101605883Y-124391928D01*
X101605883Y-124391928D02*
X101248741Y-124391928D01*
X101248741Y-124391928D02*
X101105883Y-124320500D01*
X101105883Y-124320500D02*
X101034455Y-124177642D01*
X101034455Y-124177642D02*
X101034455Y-124034785D01*
X101034455Y-124034785D02*
X101105883Y-123891928D01*
X101105883Y-123891928D02*
X101248741Y-123820500D01*
X101248741Y-123820500D02*
X101605883Y-123820500D01*
X101605883Y-123820500D02*
X101748741Y-123749071D01*
X103320169Y-124249071D02*
X103248741Y-124320500D01*
X103248741Y-124320500D02*
X103034455Y-124391928D01*
X103034455Y-124391928D02*
X102891598Y-124391928D01*
X102891598Y-124391928D02*
X102677312Y-124320500D01*
X102677312Y-124320500D02*
X102534455Y-124177642D01*
X102534455Y-124177642D02*
X102463026Y-124034785D01*
X102463026Y-124034785D02*
X102391598Y-123749071D01*
X102391598Y-123749071D02*
X102391598Y-123534785D01*
X102391598Y-123534785D02*
X102463026Y-123249071D01*
X102463026Y-123249071D02*
X102534455Y-123106214D01*
X102534455Y-123106214D02*
X102677312Y-122963357D01*
X102677312Y-122963357D02*
X102891598Y-122891928D01*
X102891598Y-122891928D02*
X103034455Y-122891928D01*
X103034455Y-122891928D02*
X103248741Y-122963357D01*
X103248741Y-122963357D02*
X103320169Y-123034785D01*
X104177312Y-124391928D02*
X104034455Y-124320500D01*
X104034455Y-124320500D02*
X103963026Y-124249071D01*
X103963026Y-124249071D02*
X103891598Y-124106214D01*
X103891598Y-124106214D02*
X103891598Y-123677642D01*
X103891598Y-123677642D02*
X103963026Y-123534785D01*
X103963026Y-123534785D02*
X104034455Y-123463357D01*
X104034455Y-123463357D02*
X104177312Y-123391928D01*
X104177312Y-123391928D02*
X104391598Y-123391928D01*
X104391598Y-123391928D02*
X104534455Y-123463357D01*
X104534455Y-123463357D02*
X104605884Y-123534785D01*
X104605884Y-123534785D02*
X104677312Y-123677642D01*
X104677312Y-123677642D02*
X104677312Y-124106214D01*
X104677312Y-124106214D02*
X104605884Y-124249071D01*
X104605884Y-124249071D02*
X104534455Y-124320500D01*
X104534455Y-124320500D02*
X104391598Y-124391928D01*
X104391598Y-124391928D02*
X104177312Y-124391928D01*
X105534455Y-124391928D02*
X105391598Y-124320500D01*
X105391598Y-124320500D02*
X105320169Y-124177642D01*
X105320169Y-124177642D02*
X105320169Y-122891928D01*
X106320169Y-124391928D02*
X106177312Y-124320500D01*
X106177312Y-124320500D02*
X106105883Y-124177642D01*
X106105883Y-124177642D02*
X106105883Y-122891928D01*
X107463026Y-124320500D02*
X107320169Y-124391928D01*
X107320169Y-124391928D02*
X107034455Y-124391928D01*
X107034455Y-124391928D02*
X106891597Y-124320500D01*
X106891597Y-124320500D02*
X106820169Y-124177642D01*
X106820169Y-124177642D02*
X106820169Y-123606214D01*
X106820169Y-123606214D02*
X106891597Y-123463357D01*
X106891597Y-123463357D02*
X107034455Y-123391928D01*
X107034455Y-123391928D02*
X107320169Y-123391928D01*
X107320169Y-123391928D02*
X107463026Y-123463357D01*
X107463026Y-123463357D02*
X107534455Y-123606214D01*
X107534455Y-123606214D02*
X107534455Y-123749071D01*
X107534455Y-123749071D02*
X106820169Y-123891928D01*
X108820169Y-124320500D02*
X108677311Y-124391928D01*
X108677311Y-124391928D02*
X108391597Y-124391928D01*
X108391597Y-124391928D02*
X108248740Y-124320500D01*
X108248740Y-124320500D02*
X108177311Y-124249071D01*
X108177311Y-124249071D02*
X108105883Y-124106214D01*
X108105883Y-124106214D02*
X108105883Y-123677642D01*
X108105883Y-123677642D02*
X108177311Y-123534785D01*
X108177311Y-123534785D02*
X108248740Y-123463357D01*
X108248740Y-123463357D02*
X108391597Y-123391928D01*
X108391597Y-123391928D02*
X108677311Y-123391928D01*
X108677311Y-123391928D02*
X108820169Y-123463357D01*
X109248740Y-123391928D02*
X109820168Y-123391928D01*
X109463025Y-122891928D02*
X109463025Y-124177642D01*
X109463025Y-124177642D02*
X109534454Y-124320500D01*
X109534454Y-124320500D02*
X109677311Y-124391928D01*
X109677311Y-124391928D02*
X109820168Y-124391928D01*
X110320168Y-124391928D02*
X110320168Y-123391928D01*
X110320168Y-122891928D02*
X110248740Y-122963357D01*
X110248740Y-122963357D02*
X110320168Y-123034785D01*
X110320168Y-123034785D02*
X110391597Y-122963357D01*
X110391597Y-122963357D02*
X110320168Y-122891928D01*
X110320168Y-122891928D02*
X110320168Y-123034785D01*
X111248740Y-124391928D02*
X111105883Y-124320500D01*
X111105883Y-124320500D02*
X111034454Y-124249071D01*
X111034454Y-124249071D02*
X110963026Y-124106214D01*
X110963026Y-124106214D02*
X110963026Y-123677642D01*
X110963026Y-123677642D02*
X111034454Y-123534785D01*
X111034454Y-123534785D02*
X111105883Y-123463357D01*
X111105883Y-123463357D02*
X111248740Y-123391928D01*
X111248740Y-123391928D02*
X111463026Y-123391928D01*
X111463026Y-123391928D02*
X111605883Y-123463357D01*
X111605883Y-123463357D02*
X111677312Y-123534785D01*
X111677312Y-123534785D02*
X111748740Y-123677642D01*
X111748740Y-123677642D02*
X111748740Y-124106214D01*
X111748740Y-124106214D02*
X111677312Y-124249071D01*
X111677312Y-124249071D02*
X111605883Y-124320500D01*
X111605883Y-124320500D02*
X111463026Y-124391928D01*
X111463026Y-124391928D02*
X111248740Y-124391928D01*
X112391597Y-123391928D02*
X112391597Y-124391928D01*
X112391597Y-123534785D02*
X112463026Y-123463357D01*
X112463026Y-123463357D02*
X112605883Y-123391928D01*
X112605883Y-123391928D02*
X112820169Y-123391928D01*
X112820169Y-123391928D02*
X112963026Y-123463357D01*
X112963026Y-123463357D02*
X113034455Y-123606214D01*
X113034455Y-123606214D02*
X113034455Y-124391928D01*
X113748740Y-124391928D02*
X113748740Y-122891928D01*
X113748740Y-122891928D02*
X114320169Y-122891928D01*
X114320169Y-122891928D02*
X114463026Y-122963357D01*
X114463026Y-122963357D02*
X114534455Y-123034785D01*
X114534455Y-123034785D02*
X114605883Y-123177642D01*
X114605883Y-123177642D02*
X114605883Y-123391928D01*
X114605883Y-123391928D02*
X114534455Y-123534785D01*
X114534455Y-123534785D02*
X114463026Y-123606214D01*
X114463026Y-123606214D02*
X114320169Y-123677642D01*
X114320169Y-123677642D02*
X113748740Y-123677642D01*
X115248740Y-124391928D02*
X115248740Y-123391928D01*
X115248740Y-123677642D02*
X115320169Y-123534785D01*
X115320169Y-123534785D02*
X115391598Y-123463357D01*
X115391598Y-123463357D02*
X115534455Y-123391928D01*
X115534455Y-123391928D02*
X115677312Y-123391928D01*
X116391597Y-124391928D02*
X116248740Y-124320500D01*
X116248740Y-124320500D02*
X116177311Y-124249071D01*
X116177311Y-124249071D02*
X116105883Y-124106214D01*
X116105883Y-124106214D02*
X116105883Y-123677642D01*
X116105883Y-123677642D02*
X116177311Y-123534785D01*
X116177311Y-123534785D02*
X116248740Y-123463357D01*
X116248740Y-123463357D02*
X116391597Y-123391928D01*
X116391597Y-123391928D02*
X116605883Y-123391928D01*
X116605883Y-123391928D02*
X116748740Y-123463357D01*
X116748740Y-123463357D02*
X116820169Y-123534785D01*
X116820169Y-123534785D02*
X116891597Y-123677642D01*
X116891597Y-123677642D02*
X116891597Y-124106214D01*
X116891597Y-124106214D02*
X116820169Y-124249071D01*
X116820169Y-124249071D02*
X116748740Y-124320500D01*
X116748740Y-124320500D02*
X116605883Y-124391928D01*
X116605883Y-124391928D02*
X116391597Y-124391928D01*
X117320169Y-123391928D02*
X117891597Y-123391928D01*
X117534454Y-122891928D02*
X117534454Y-124177642D01*
X117534454Y-124177642D02*
X117605883Y-124320500D01*
X117605883Y-124320500D02*
X117748740Y-124391928D01*
X117748740Y-124391928D02*
X117891597Y-124391928D01*
X118605883Y-124391928D02*
X118463026Y-124320500D01*
X118463026Y-124320500D02*
X118391597Y-124249071D01*
X118391597Y-124249071D02*
X118320169Y-124106214D01*
X118320169Y-124106214D02*
X118320169Y-123677642D01*
X118320169Y-123677642D02*
X118391597Y-123534785D01*
X118391597Y-123534785D02*
X118463026Y-123463357D01*
X118463026Y-123463357D02*
X118605883Y-123391928D01*
X118605883Y-123391928D02*
X118820169Y-123391928D01*
X118820169Y-123391928D02*
X118963026Y-123463357D01*
X118963026Y-123463357D02*
X119034455Y-123534785D01*
X119034455Y-123534785D02*
X119105883Y-123677642D01*
X119105883Y-123677642D02*
X119105883Y-124106214D01*
X119105883Y-124106214D02*
X119034455Y-124249071D01*
X119034455Y-124249071D02*
X118963026Y-124320500D01*
X118963026Y-124320500D02*
X118820169Y-124391928D01*
X118820169Y-124391928D02*
X118605883Y-124391928D01*
X119534455Y-123391928D02*
X120105883Y-123391928D01*
X119748740Y-122891928D02*
X119748740Y-124177642D01*
X119748740Y-124177642D02*
X119820169Y-124320500D01*
X119820169Y-124320500D02*
X119963026Y-124391928D01*
X119963026Y-124391928D02*
X120105883Y-124391928D01*
X120463026Y-123391928D02*
X120820169Y-124391928D01*
X121177312Y-123391928D02*
X120820169Y-124391928D01*
X120820169Y-124391928D02*
X120677312Y-124749071D01*
X120677312Y-124749071D02*
X120605883Y-124820500D01*
X120605883Y-124820500D02*
X120463026Y-124891928D01*
X121748740Y-123391928D02*
X121748740Y-124891928D01*
X121748740Y-123463357D02*
X121891598Y-123391928D01*
X121891598Y-123391928D02*
X122177312Y-123391928D01*
X122177312Y-123391928D02*
X122320169Y-123463357D01*
X122320169Y-123463357D02*
X122391598Y-123534785D01*
X122391598Y-123534785D02*
X122463026Y-123677642D01*
X122463026Y-123677642D02*
X122463026Y-124106214D01*
X122463026Y-124106214D02*
X122391598Y-124249071D01*
X122391598Y-124249071D02*
X122320169Y-124320500D01*
X122320169Y-124320500D02*
X122177312Y-124391928D01*
X122177312Y-124391928D02*
X121891598Y-124391928D01*
X121891598Y-124391928D02*
X121748740Y-124320500D01*
X123677312Y-124320500D02*
X123534455Y-124391928D01*
X123534455Y-124391928D02*
X123248741Y-124391928D01*
X123248741Y-124391928D02*
X123105883Y-124320500D01*
X123105883Y-124320500D02*
X123034455Y-124177642D01*
X123034455Y-124177642D02*
X123034455Y-123606214D01*
X123034455Y-123606214D02*
X123105883Y-123463357D01*
X123105883Y-123463357D02*
X123248741Y-123391928D01*
X123248741Y-123391928D02*
X123534455Y-123391928D01*
X123534455Y-123391928D02*
X123677312Y-123463357D01*
X123677312Y-123463357D02*
X123748741Y-123606214D01*
X123748741Y-123606214D02*
X123748741Y-123749071D01*
X123748741Y-123749071D02*
X123034455Y-123891928D01*
X124391597Y-124249071D02*
X124463026Y-124320500D01*
X124463026Y-124320500D02*
X124391597Y-124391928D01*
X124391597Y-124391928D02*
X124320169Y-124320500D01*
X124320169Y-124320500D02*
X124391597Y-124249071D01*
X124391597Y-124249071D02*
X124391597Y-124391928D01*
X125105883Y-124391928D02*
X125105883Y-122891928D01*
X125248741Y-123820500D02*
X125677312Y-124391928D01*
X125677312Y-123391928D02*
X125105883Y-123963357D01*
X126320169Y-124391928D02*
X126320169Y-123391928D01*
X126320169Y-122891928D02*
X126248741Y-122963357D01*
X126248741Y-122963357D02*
X126320169Y-123034785D01*
X126320169Y-123034785D02*
X126391598Y-122963357D01*
X126391598Y-122963357D02*
X126320169Y-122891928D01*
X126320169Y-122891928D02*
X126320169Y-123034785D01*
X127677313Y-124320500D02*
X127534455Y-124391928D01*
X127534455Y-124391928D02*
X127248741Y-124391928D01*
X127248741Y-124391928D02*
X127105884Y-124320500D01*
X127105884Y-124320500D02*
X127034455Y-124249071D01*
X127034455Y-124249071D02*
X126963027Y-124106214D01*
X126963027Y-124106214D02*
X126963027Y-123677642D01*
X126963027Y-123677642D02*
X127034455Y-123534785D01*
X127034455Y-123534785D02*
X127105884Y-123463357D01*
X127105884Y-123463357D02*
X127248741Y-123391928D01*
X127248741Y-123391928D02*
X127534455Y-123391928D01*
X127534455Y-123391928D02*
X127677313Y-123463357D01*
X128963027Y-124391928D02*
X128963027Y-123606214D01*
X128963027Y-123606214D02*
X128891598Y-123463357D01*
X128891598Y-123463357D02*
X128748741Y-123391928D01*
X128748741Y-123391928D02*
X128463027Y-123391928D01*
X128463027Y-123391928D02*
X128320169Y-123463357D01*
X128963027Y-124320500D02*
X128820169Y-124391928D01*
X128820169Y-124391928D02*
X128463027Y-124391928D01*
X128463027Y-124391928D02*
X128320169Y-124320500D01*
X128320169Y-124320500D02*
X128248741Y-124177642D01*
X128248741Y-124177642D02*
X128248741Y-124034785D01*
X128248741Y-124034785D02*
X128320169Y-123891928D01*
X128320169Y-123891928D02*
X128463027Y-123820500D01*
X128463027Y-123820500D02*
X128820169Y-123820500D01*
X128820169Y-123820500D02*
X128963027Y-123749071D01*
X130320170Y-124391928D02*
X130320170Y-122891928D01*
X130320170Y-124320500D02*
X130177312Y-124391928D01*
X130177312Y-124391928D02*
X129891598Y-124391928D01*
X129891598Y-124391928D02*
X129748741Y-124320500D01*
X129748741Y-124320500D02*
X129677312Y-124249071D01*
X129677312Y-124249071D02*
X129605884Y-124106214D01*
X129605884Y-124106214D02*
X129605884Y-123677642D01*
X129605884Y-123677642D02*
X129677312Y-123534785D01*
X129677312Y-123534785D02*
X129748741Y-123463357D01*
X129748741Y-123463357D02*
X129891598Y-123391928D01*
X129891598Y-123391928D02*
X130177312Y-123391928D01*
X130177312Y-123391928D02*
X130320170Y-123463357D01*
X130677313Y-124534785D02*
X131820170Y-124534785D01*
X132177312Y-123391928D02*
X132177312Y-124891928D01*
X132177312Y-123463357D02*
X132320170Y-123391928D01*
X132320170Y-123391928D02*
X132605884Y-123391928D01*
X132605884Y-123391928D02*
X132748741Y-123463357D01*
X132748741Y-123463357D02*
X132820170Y-123534785D01*
X132820170Y-123534785D02*
X132891598Y-123677642D01*
X132891598Y-123677642D02*
X132891598Y-124106214D01*
X132891598Y-124106214D02*
X132820170Y-124249071D01*
X132820170Y-124249071D02*
X132748741Y-124320500D01*
X132748741Y-124320500D02*
X132605884Y-124391928D01*
X132605884Y-124391928D02*
X132320170Y-124391928D01*
X132320170Y-124391928D02*
X132177312Y-124320500D01*
X134177313Y-124320500D02*
X134034455Y-124391928D01*
X134034455Y-124391928D02*
X133748741Y-124391928D01*
X133748741Y-124391928D02*
X133605884Y-124320500D01*
X133605884Y-124320500D02*
X133534455Y-124249071D01*
X133534455Y-124249071D02*
X133463027Y-124106214D01*
X133463027Y-124106214D02*
X133463027Y-123677642D01*
X133463027Y-123677642D02*
X133534455Y-123534785D01*
X133534455Y-123534785D02*
X133605884Y-123463357D01*
X133605884Y-123463357D02*
X133748741Y-123391928D01*
X133748741Y-123391928D02*
X134034455Y-123391928D01*
X134034455Y-123391928D02*
X134177313Y-123463357D01*
X134820169Y-124391928D02*
X134820169Y-122891928D01*
X134820169Y-123463357D02*
X134963027Y-123391928D01*
X134963027Y-123391928D02*
X135248741Y-123391928D01*
X135248741Y-123391928D02*
X135391598Y-123463357D01*
X135391598Y-123463357D02*
X135463027Y-123534785D01*
X135463027Y-123534785D02*
X135534455Y-123677642D01*
X135534455Y-123677642D02*
X135534455Y-124106214D01*
X135534455Y-124106214D02*
X135463027Y-124249071D01*
X135463027Y-124249071D02*
X135391598Y-124320500D01*
X135391598Y-124320500D02*
X135248741Y-124391928D01*
X135248741Y-124391928D02*
X134963027Y-124391928D01*
X134963027Y-124391928D02*
X134820169Y-124320500D01*
D10*
D11*
X90007200Y-119505800D02*
X198007200Y-119505800D01*
D10*
D11*
X91391598Y-121620500D02*
X91605884Y-121691928D01*
X91605884Y-121691928D02*
X91963026Y-121691928D01*
X91963026Y-121691928D02*
X92105884Y-121620500D01*
X92105884Y-121620500D02*
X92177312Y-121549071D01*
X92177312Y-121549071D02*
X92248741Y-121406214D01*
X92248741Y-121406214D02*
X92248741Y-121263357D01*
X92248741Y-121263357D02*
X92177312Y-121120500D01*
X92177312Y-121120500D02*
X92105884Y-121049071D01*
X92105884Y-121049071D02*
X91963026Y-120977642D01*
X91963026Y-120977642D02*
X91677312Y-120906214D01*
X91677312Y-120906214D02*
X91534455Y-120834785D01*
X91534455Y-120834785D02*
X91463026Y-120763357D01*
X91463026Y-120763357D02*
X91391598Y-120620500D01*
X91391598Y-120620500D02*
X91391598Y-120477642D01*
X91391598Y-120477642D02*
X91463026Y-120334785D01*
X91463026Y-120334785D02*
X91534455Y-120263357D01*
X91534455Y-120263357D02*
X91677312Y-120191928D01*
X91677312Y-120191928D02*
X92034455Y-120191928D01*
X92034455Y-120191928D02*
X92248741Y-120263357D01*
X92891597Y-121691928D02*
X92891597Y-120191928D01*
X93534455Y-121691928D02*
X93534455Y-120906214D01*
X93534455Y-120906214D02*
X93463026Y-120763357D01*
X93463026Y-120763357D02*
X93320169Y-120691928D01*
X93320169Y-120691928D02*
X93105883Y-120691928D01*
X93105883Y-120691928D02*
X92963026Y-120763357D01*
X92963026Y-120763357D02*
X92891597Y-120834785D01*
X94820169Y-121620500D02*
X94677312Y-121691928D01*
X94677312Y-121691928D02*
X94391598Y-121691928D01*
X94391598Y-121691928D02*
X94248740Y-121620500D01*
X94248740Y-121620500D02*
X94177312Y-121477642D01*
X94177312Y-121477642D02*
X94177312Y-120906214D01*
X94177312Y-120906214D02*
X94248740Y-120763357D01*
X94248740Y-120763357D02*
X94391598Y-120691928D01*
X94391598Y-120691928D02*
X94677312Y-120691928D01*
X94677312Y-120691928D02*
X94820169Y-120763357D01*
X94820169Y-120763357D02*
X94891598Y-120906214D01*
X94891598Y-120906214D02*
X94891598Y-121049071D01*
X94891598Y-121049071D02*
X94177312Y-121191928D01*
X96105883Y-121620500D02*
X95963026Y-121691928D01*
X95963026Y-121691928D02*
X95677312Y-121691928D01*
X95677312Y-121691928D02*
X95534454Y-121620500D01*
X95534454Y-121620500D02*
X95463026Y-121477642D01*
X95463026Y-121477642D02*
X95463026Y-120906214D01*
X95463026Y-120906214D02*
X95534454Y-120763357D01*
X95534454Y-120763357D02*
X95677312Y-120691928D01*
X95677312Y-120691928D02*
X95963026Y-120691928D01*
X95963026Y-120691928D02*
X96105883Y-120763357D01*
X96105883Y-120763357D02*
X96177312Y-120906214D01*
X96177312Y-120906214D02*
X96177312Y-121049071D01*
X96177312Y-121049071D02*
X95463026Y-121191928D01*
X96605883Y-120691928D02*
X97177311Y-120691928D01*
X96820168Y-120191928D02*
X96820168Y-121477642D01*
X96820168Y-121477642D02*
X96891597Y-121620500D01*
X96891597Y-121620500D02*
X97034454Y-121691928D01*
X97034454Y-121691928D02*
X97177311Y-121691928D01*
X97677311Y-121549071D02*
X97748740Y-121620500D01*
X97748740Y-121620500D02*
X97677311Y-121691928D01*
X97677311Y-121691928D02*
X97605883Y-121620500D01*
X97605883Y-121620500D02*
X97677311Y-121549071D01*
X97677311Y-121549071D02*
X97677311Y-121691928D01*
X97677311Y-120763357D02*
X97748740Y-120834785D01*
X97748740Y-120834785D02*
X97677311Y-120906214D01*
X97677311Y-120906214D02*
X97605883Y-120834785D01*
X97605883Y-120834785D02*
X97677311Y-120763357D01*
X97677311Y-120763357D02*
X97677311Y-120906214D01*
D10*
D12*
X91490282Y-118255557D02*
X92204568Y-118255557D01*
X91347425Y-118684128D02*
X91847425Y-117184128D01*
X91847425Y-117184128D02*
X92347425Y-118684128D01*
X92847424Y-118684128D02*
X92847424Y-117684128D01*
X92847424Y-117184128D02*
X92775996Y-117255557D01*
X92775996Y-117255557D02*
X92847424Y-117326985D01*
X92847424Y-117326985D02*
X92918853Y-117255557D01*
X92918853Y-117255557D02*
X92847424Y-117184128D01*
X92847424Y-117184128D02*
X92847424Y-117326985D01*
X94204568Y-118684128D02*
X94204568Y-117184128D01*
X94204568Y-118612700D02*
X94061710Y-118684128D01*
X94061710Y-118684128D02*
X93775996Y-118684128D01*
X93775996Y-118684128D02*
X93633139Y-118612700D01*
X93633139Y-118612700D02*
X93561710Y-118541271D01*
X93561710Y-118541271D02*
X93490282Y-118398414D01*
X93490282Y-118398414D02*
X93490282Y-117969842D01*
X93490282Y-117969842D02*
X93561710Y-117826985D01*
X93561710Y-117826985D02*
X93633139Y-117755557D01*
X93633139Y-117755557D02*
X93775996Y-117684128D01*
X93775996Y-117684128D02*
X94061710Y-117684128D01*
X94061710Y-117684128D02*
X94204568Y-117755557D01*
X95490282Y-118612700D02*
X95347425Y-118684128D01*
X95347425Y-118684128D02*
X95061711Y-118684128D01*
X95061711Y-118684128D02*
X94918853Y-118612700D01*
X94918853Y-118612700D02*
X94847425Y-118469842D01*
X94847425Y-118469842D02*
X94847425Y-117898414D01*
X94847425Y-117898414D02*
X94918853Y-117755557D01*
X94918853Y-117755557D02*
X95061711Y-117684128D01*
X95061711Y-117684128D02*
X95347425Y-117684128D01*
X95347425Y-117684128D02*
X95490282Y-117755557D01*
X95490282Y-117755557D02*
X95561711Y-117898414D01*
X95561711Y-117898414D02*
X95561711Y-118041271D01*
X95561711Y-118041271D02*
X94847425Y-118184128D01*
X96204567Y-117684128D02*
X96204567Y-118684128D01*
X96204567Y-117826985D02*
X96275996Y-117755557D01*
X96275996Y-117755557D02*
X96418853Y-117684128D01*
X96418853Y-117684128D02*
X96633139Y-117684128D01*
X96633139Y-117684128D02*
X96775996Y-117755557D01*
X96775996Y-117755557D02*
X96847425Y-117898414D01*
X96847425Y-117898414D02*
X96847425Y-118684128D01*
X99561710Y-118541271D02*
X99490282Y-118612700D01*
X99490282Y-118612700D02*
X99275996Y-118684128D01*
X99275996Y-118684128D02*
X99133139Y-118684128D01*
X99133139Y-118684128D02*
X98918853Y-118612700D01*
X98918853Y-118612700D02*
X98775996Y-118469842D01*
X98775996Y-118469842D02*
X98704567Y-118326985D01*
X98704567Y-118326985D02*
X98633139Y-118041271D01*
X98633139Y-118041271D02*
X98633139Y-117826985D01*
X98633139Y-117826985D02*
X98704567Y-117541271D01*
X98704567Y-117541271D02*
X98775996Y-117398414D01*
X98775996Y-117398414D02*
X98918853Y-117255557D01*
X98918853Y-117255557D02*
X99133139Y-117184128D01*
X99133139Y-117184128D02*
X99275996Y-117184128D01*
X99275996Y-117184128D02*
X99490282Y-117255557D01*
X99490282Y-117255557D02*
X99561710Y-117326985D01*
X100204567Y-118684128D02*
X100204567Y-117184128D01*
X100847425Y-118684128D02*
X100847425Y-117898414D01*
X100847425Y-117898414D02*
X100775996Y-117755557D01*
X100775996Y-117755557D02*
X100633139Y-117684128D01*
X100633139Y-117684128D02*
X100418853Y-117684128D01*
X100418853Y-117684128D02*
X100275996Y-117755557D01*
X100275996Y-117755557D02*
X100204567Y-117826985D01*
X102133139Y-118612700D02*
X101990282Y-118684128D01*
X101990282Y-118684128D02*
X101704568Y-118684128D01*
X101704568Y-118684128D02*
X101561710Y-118612700D01*
X101561710Y-118612700D02*
X101490282Y-118469842D01*
X101490282Y-118469842D02*
X101490282Y-117898414D01*
X101490282Y-117898414D02*
X101561710Y-117755557D01*
X101561710Y-117755557D02*
X101704568Y-117684128D01*
X101704568Y-117684128D02*
X101990282Y-117684128D01*
X101990282Y-117684128D02*
X102133139Y-117755557D01*
X102133139Y-117755557D02*
X102204568Y-117898414D01*
X102204568Y-117898414D02*
X102204568Y-118041271D01*
X102204568Y-118041271D02*
X101490282Y-118184128D01*
X102847424Y-118684128D02*
X102847424Y-117684128D01*
X102847424Y-117969842D02*
X102918853Y-117826985D01*
X102918853Y-117826985D02*
X102990282Y-117755557D01*
X102990282Y-117755557D02*
X103133139Y-117684128D01*
X103133139Y-117684128D02*
X103275996Y-117684128D01*
X103775995Y-117684128D02*
X103775995Y-118684128D01*
X103775995Y-117826985D02*
X103847424Y-117755557D01*
X103847424Y-117755557D02*
X103990281Y-117684128D01*
X103990281Y-117684128D02*
X104204567Y-117684128D01*
X104204567Y-117684128D02*
X104347424Y-117755557D01*
X104347424Y-117755557D02*
X104418853Y-117898414D01*
X104418853Y-117898414D02*
X104418853Y-118684128D01*
X105133138Y-118684128D02*
X105133138Y-117684128D01*
X105133138Y-117184128D02*
X105061710Y-117255557D01*
X105061710Y-117255557D02*
X105133138Y-117326985D01*
X105133138Y-117326985D02*
X105204567Y-117255557D01*
X105204567Y-117255557D02*
X105133138Y-117184128D01*
X105133138Y-117184128D02*
X105133138Y-117326985D01*
X105775996Y-118612700D02*
X105918853Y-118684128D01*
X105918853Y-118684128D02*
X106204567Y-118684128D01*
X106204567Y-118684128D02*
X106347424Y-118612700D01*
X106347424Y-118612700D02*
X106418853Y-118469842D01*
X106418853Y-118469842D02*
X106418853Y-118398414D01*
X106418853Y-118398414D02*
X106347424Y-118255557D01*
X106347424Y-118255557D02*
X106204567Y-118184128D01*
X106204567Y-118184128D02*
X105990282Y-118184128D01*
X105990282Y-118184128D02*
X105847424Y-118112700D01*
X105847424Y-118112700D02*
X105775996Y-117969842D01*
X105775996Y-117969842D02*
X105775996Y-117898414D01*
X105775996Y-117898414D02*
X105847424Y-117755557D01*
X105847424Y-117755557D02*
X105990282Y-117684128D01*
X105990282Y-117684128D02*
X106204567Y-117684128D01*
X106204567Y-117684128D02*
X106347424Y-117755557D01*
X107061710Y-118684128D02*
X107061710Y-117184128D01*
X107204568Y-118112700D02*
X107633139Y-118684128D01*
X107633139Y-117684128D02*
X107061710Y-118255557D01*
X108847425Y-118612700D02*
X108704568Y-118684128D01*
X108704568Y-118684128D02*
X108418854Y-118684128D01*
X108418854Y-118684128D02*
X108275996Y-118612700D01*
X108275996Y-118612700D02*
X108204568Y-118469842D01*
X108204568Y-118469842D02*
X108204568Y-117898414D01*
X108204568Y-117898414D02*
X108275996Y-117755557D01*
X108275996Y-117755557D02*
X108418854Y-117684128D01*
X108418854Y-117684128D02*
X108704568Y-117684128D01*
X108704568Y-117684128D02*
X108847425Y-117755557D01*
X108847425Y-117755557D02*
X108918854Y-117898414D01*
X108918854Y-117898414D02*
X108918854Y-118041271D01*
X108918854Y-118041271D02*
X108204568Y-118184128D01*
X110775996Y-117184128D02*
X110633139Y-117469842D01*
X111347425Y-117326985D02*
X111418853Y-117255557D01*
X111418853Y-117255557D02*
X111561711Y-117184128D01*
X111561711Y-117184128D02*
X111918853Y-117184128D01*
X111918853Y-117184128D02*
X112061711Y-117255557D01*
X112061711Y-117255557D02*
X112133139Y-117326985D01*
X112133139Y-117326985D02*
X112204568Y-117469842D01*
X112204568Y-117469842D02*
X112204568Y-117612700D01*
X112204568Y-117612700D02*
X112133139Y-117826985D01*
X112133139Y-117826985D02*
X111275996Y-118684128D01*
X111275996Y-118684128D02*
X112204568Y-118684128D01*
X112704567Y-117184128D02*
X113704567Y-117184128D01*
X113704567Y-117184128D02*
X113061710Y-118684128D01*
D10*
D11*
X91963026Y-114906214D02*
X92177312Y-114977642D01*
X92177312Y-114977642D02*
X92248741Y-115049071D01*
X92248741Y-115049071D02*
X92320169Y-115191928D01*
X92320169Y-115191928D02*
X92320169Y-115406214D01*
X92320169Y-115406214D02*
X92248741Y-115549071D01*
X92248741Y-115549071D02*
X92177312Y-115620500D01*
X92177312Y-115620500D02*
X92034455Y-115691928D01*
X92034455Y-115691928D02*
X91463026Y-115691928D01*
X91463026Y-115691928D02*
X91463026Y-114191928D01*
X91463026Y-114191928D02*
X91963026Y-114191928D01*
X91963026Y-114191928D02*
X92105884Y-114263357D01*
X92105884Y-114263357D02*
X92177312Y-114334785D01*
X92177312Y-114334785D02*
X92248741Y-114477642D01*
X92248741Y-114477642D02*
X92248741Y-114620500D01*
X92248741Y-114620500D02*
X92177312Y-114763357D01*
X92177312Y-114763357D02*
X92105884Y-114834785D01*
X92105884Y-114834785D02*
X91963026Y-114906214D01*
X91963026Y-114906214D02*
X91463026Y-114906214D01*
X93605884Y-114691928D02*
X93605884Y-115691928D01*
X92963026Y-114691928D02*
X92963026Y-115477642D01*
X92963026Y-115477642D02*
X93034455Y-115620500D01*
X93034455Y-115620500D02*
X93177312Y-115691928D01*
X93177312Y-115691928D02*
X93391598Y-115691928D01*
X93391598Y-115691928D02*
X93534455Y-115620500D01*
X93534455Y-115620500D02*
X93605884Y-115549071D01*
X94963027Y-115620500D02*
X94820169Y-115691928D01*
X94820169Y-115691928D02*
X94534455Y-115691928D01*
X94534455Y-115691928D02*
X94391598Y-115620500D01*
X94391598Y-115620500D02*
X94320169Y-115549071D01*
X94320169Y-115549071D02*
X94248741Y-115406214D01*
X94248741Y-115406214D02*
X94248741Y-114977642D01*
X94248741Y-114977642D02*
X94320169Y-114834785D01*
X94320169Y-114834785D02*
X94391598Y-114763357D01*
X94391598Y-114763357D02*
X94534455Y-114691928D01*
X94534455Y-114691928D02*
X94820169Y-114691928D01*
X94820169Y-114691928D02*
X94963027Y-114763357D01*
X95605883Y-115691928D02*
X95605883Y-114191928D01*
X95748741Y-115120500D02*
X96177312Y-115691928D01*
X96177312Y-114691928D02*
X95605883Y-115263357D01*
X96820169Y-114691928D02*
X96820169Y-115691928D01*
X96820169Y-114834785D02*
X96891598Y-114763357D01*
X96891598Y-114763357D02*
X97034455Y-114691928D01*
X97034455Y-114691928D02*
X97248741Y-114691928D01*
X97248741Y-114691928D02*
X97391598Y-114763357D01*
X97391598Y-114763357D02*
X97463027Y-114906214D01*
X97463027Y-114906214D02*
X97463027Y-115691928D01*
X98748741Y-115620500D02*
X98605884Y-115691928D01*
X98605884Y-115691928D02*
X98320170Y-115691928D01*
X98320170Y-115691928D02*
X98177312Y-115620500D01*
X98177312Y-115620500D02*
X98105884Y-115477642D01*
X98105884Y-115477642D02*
X98105884Y-114906214D01*
X98105884Y-114906214D02*
X98177312Y-114763357D01*
X98177312Y-114763357D02*
X98320170Y-114691928D01*
X98320170Y-114691928D02*
X98605884Y-114691928D01*
X98605884Y-114691928D02*
X98748741Y-114763357D01*
X98748741Y-114763357D02*
X98820170Y-114906214D01*
X98820170Y-114906214D02*
X98820170Y-115049071D01*
X98820170Y-115049071D02*
X98105884Y-115191928D01*
X99677312Y-115691928D02*
X99534455Y-115620500D01*
X99534455Y-115620500D02*
X99463026Y-115477642D01*
X99463026Y-115477642D02*
X99463026Y-114191928D01*
X100463026Y-115691928D02*
X100320169Y-115620500D01*
X100320169Y-115620500D02*
X100248740Y-115477642D01*
X100248740Y-115477642D02*
X100248740Y-114191928D01*
X102177311Y-114191928D02*
X102177311Y-115406214D01*
X102177311Y-115406214D02*
X102248740Y-115549071D01*
X102248740Y-115549071D02*
X102320169Y-115620500D01*
X102320169Y-115620500D02*
X102463026Y-115691928D01*
X102463026Y-115691928D02*
X102748740Y-115691928D01*
X102748740Y-115691928D02*
X102891597Y-115620500D01*
X102891597Y-115620500D02*
X102963026Y-115549071D01*
X102963026Y-115549071D02*
X103034454Y-115406214D01*
X103034454Y-115406214D02*
X103034454Y-114191928D01*
X103748740Y-114691928D02*
X103748740Y-115691928D01*
X103748740Y-114834785D02*
X103820169Y-114763357D01*
X103820169Y-114763357D02*
X103963026Y-114691928D01*
X103963026Y-114691928D02*
X104177312Y-114691928D01*
X104177312Y-114691928D02*
X104320169Y-114763357D01*
X104320169Y-114763357D02*
X104391598Y-114906214D01*
X104391598Y-114906214D02*
X104391598Y-115691928D01*
X105105883Y-115691928D02*
X105105883Y-114691928D01*
X105105883Y-114191928D02*
X105034455Y-114263357D01*
X105034455Y-114263357D02*
X105105883Y-114334785D01*
X105105883Y-114334785D02*
X105177312Y-114263357D01*
X105177312Y-114263357D02*
X105105883Y-114191928D01*
X105105883Y-114191928D02*
X105105883Y-114334785D01*
X105677312Y-114691928D02*
X106034455Y-115691928D01*
X106034455Y-115691928D02*
X106391598Y-114691928D01*
X107534455Y-115620500D02*
X107391598Y-115691928D01*
X107391598Y-115691928D02*
X107105884Y-115691928D01*
X107105884Y-115691928D02*
X106963026Y-115620500D01*
X106963026Y-115620500D02*
X106891598Y-115477642D01*
X106891598Y-115477642D02*
X106891598Y-114906214D01*
X106891598Y-114906214D02*
X106963026Y-114763357D01*
X106963026Y-114763357D02*
X107105884Y-114691928D01*
X107105884Y-114691928D02*
X107391598Y-114691928D01*
X107391598Y-114691928D02*
X107534455Y-114763357D01*
X107534455Y-114763357D02*
X107605884Y-114906214D01*
X107605884Y-114906214D02*
X107605884Y-115049071D01*
X107605884Y-115049071D02*
X106891598Y-115191928D01*
X108248740Y-115691928D02*
X108248740Y-114691928D01*
X108248740Y-114977642D02*
X108320169Y-114834785D01*
X108320169Y-114834785D02*
X108391598Y-114763357D01*
X108391598Y-114763357D02*
X108534455Y-114691928D01*
X108534455Y-114691928D02*
X108677312Y-114691928D01*
X109105883Y-115620500D02*
X109248740Y-115691928D01*
X109248740Y-115691928D02*
X109534454Y-115691928D01*
X109534454Y-115691928D02*
X109677311Y-115620500D01*
X109677311Y-115620500D02*
X109748740Y-115477642D01*
X109748740Y-115477642D02*
X109748740Y-115406214D01*
X109748740Y-115406214D02*
X109677311Y-115263357D01*
X109677311Y-115263357D02*
X109534454Y-115191928D01*
X109534454Y-115191928D02*
X109320169Y-115191928D01*
X109320169Y-115191928D02*
X109177311Y-115120500D01*
X109177311Y-115120500D02*
X109105883Y-114977642D01*
X109105883Y-114977642D02*
X109105883Y-114906214D01*
X109105883Y-114906214D02*
X109177311Y-114763357D01*
X109177311Y-114763357D02*
X109320169Y-114691928D01*
X109320169Y-114691928D02*
X109534454Y-114691928D01*
X109534454Y-114691928D02*
X109677311Y-114763357D01*
X110391597Y-115691928D02*
X110391597Y-114691928D01*
X110391597Y-114191928D02*
X110320169Y-114263357D01*
X110320169Y-114263357D02*
X110391597Y-114334785D01*
X110391597Y-114334785D02*
X110463026Y-114263357D01*
X110463026Y-114263357D02*
X110391597Y-114191928D01*
X110391597Y-114191928D02*
X110391597Y-114334785D01*
X110891598Y-114691928D02*
X111463026Y-114691928D01*
X111105883Y-114191928D02*
X111105883Y-115477642D01*
X111105883Y-115477642D02*
X111177312Y-115620500D01*
X111177312Y-115620500D02*
X111320169Y-115691928D01*
X111320169Y-115691928D02*
X111463026Y-115691928D01*
X111820169Y-114691928D02*
X112177312Y-115691928D01*
X112534455Y-114691928D02*
X112177312Y-115691928D01*
X112177312Y-115691928D02*
X112034455Y-116049071D01*
X112034455Y-116049071D02*
X111963026Y-116120500D01*
X111963026Y-116120500D02*
X111820169Y-116191928D01*
D10*
D11*
X91463026Y-111906214D02*
X91963026Y-111906214D01*
X92177312Y-112691928D02*
X91463026Y-112691928D01*
X91463026Y-112691928D02*
X91463026Y-111191928D01*
X91463026Y-111191928D02*
X92177312Y-111191928D01*
X93034455Y-112691928D02*
X92891598Y-112620500D01*
X92891598Y-112620500D02*
X92820169Y-112477642D01*
X92820169Y-112477642D02*
X92820169Y-111191928D01*
X94177312Y-112620500D02*
X94034455Y-112691928D01*
X94034455Y-112691928D02*
X93748741Y-112691928D01*
X93748741Y-112691928D02*
X93605883Y-112620500D01*
X93605883Y-112620500D02*
X93534455Y-112477642D01*
X93534455Y-112477642D02*
X93534455Y-111906214D01*
X93534455Y-111906214D02*
X93605883Y-111763357D01*
X93605883Y-111763357D02*
X93748741Y-111691928D01*
X93748741Y-111691928D02*
X94034455Y-111691928D01*
X94034455Y-111691928D02*
X94177312Y-111763357D01*
X94177312Y-111763357D02*
X94248741Y-111906214D01*
X94248741Y-111906214D02*
X94248741Y-112049071D01*
X94248741Y-112049071D02*
X93534455Y-112191928D01*
X95534455Y-112620500D02*
X95391597Y-112691928D01*
X95391597Y-112691928D02*
X95105883Y-112691928D01*
X95105883Y-112691928D02*
X94963026Y-112620500D01*
X94963026Y-112620500D02*
X94891597Y-112549071D01*
X94891597Y-112549071D02*
X94820169Y-112406214D01*
X94820169Y-112406214D02*
X94820169Y-111977642D01*
X94820169Y-111977642D02*
X94891597Y-111834785D01*
X94891597Y-111834785D02*
X94963026Y-111763357D01*
X94963026Y-111763357D02*
X95105883Y-111691928D01*
X95105883Y-111691928D02*
X95391597Y-111691928D01*
X95391597Y-111691928D02*
X95534455Y-111763357D01*
X95963026Y-111691928D02*
X96534454Y-111691928D01*
X96177311Y-111191928D02*
X96177311Y-112477642D01*
X96177311Y-112477642D02*
X96248740Y-112620500D01*
X96248740Y-112620500D02*
X96391597Y-112691928D01*
X96391597Y-112691928D02*
X96534454Y-112691928D01*
X97034454Y-112691928D02*
X97034454Y-111691928D01*
X97034454Y-111977642D02*
X97105883Y-111834785D01*
X97105883Y-111834785D02*
X97177312Y-111763357D01*
X97177312Y-111763357D02*
X97320169Y-111691928D01*
X97320169Y-111691928D02*
X97463026Y-111691928D01*
X97963025Y-112691928D02*
X97963025Y-111691928D01*
X97963025Y-111191928D02*
X97891597Y-111263357D01*
X97891597Y-111263357D02*
X97963025Y-111334785D01*
X97963025Y-111334785D02*
X98034454Y-111263357D01*
X98034454Y-111263357D02*
X97963025Y-111191928D01*
X97963025Y-111191928D02*
X97963025Y-111334785D01*
X99320169Y-112620500D02*
X99177311Y-112691928D01*
X99177311Y-112691928D02*
X98891597Y-112691928D01*
X98891597Y-112691928D02*
X98748740Y-112620500D01*
X98748740Y-112620500D02*
X98677311Y-112549071D01*
X98677311Y-112549071D02*
X98605883Y-112406214D01*
X98605883Y-112406214D02*
X98605883Y-111977642D01*
X98605883Y-111977642D02*
X98677311Y-111834785D01*
X98677311Y-111834785D02*
X98748740Y-111763357D01*
X98748740Y-111763357D02*
X98891597Y-111691928D01*
X98891597Y-111691928D02*
X99177311Y-111691928D01*
X99177311Y-111691928D02*
X99320169Y-111763357D01*
X100605883Y-112691928D02*
X100605883Y-111906214D01*
X100605883Y-111906214D02*
X100534454Y-111763357D01*
X100534454Y-111763357D02*
X100391597Y-111691928D01*
X100391597Y-111691928D02*
X100105883Y-111691928D01*
X100105883Y-111691928D02*
X99963025Y-111763357D01*
X100605883Y-112620500D02*
X100463025Y-112691928D01*
X100463025Y-112691928D02*
X100105883Y-112691928D01*
X100105883Y-112691928D02*
X99963025Y-112620500D01*
X99963025Y-112620500D02*
X99891597Y-112477642D01*
X99891597Y-112477642D02*
X99891597Y-112334785D01*
X99891597Y-112334785D02*
X99963025Y-112191928D01*
X99963025Y-112191928D02*
X100105883Y-112120500D01*
X100105883Y-112120500D02*
X100463025Y-112120500D01*
X100463025Y-112120500D02*
X100605883Y-112049071D01*
X101534454Y-112691928D02*
X101391597Y-112620500D01*
X101391597Y-112620500D02*
X101320168Y-112477642D01*
X101320168Y-112477642D02*
X101320168Y-111191928D01*
X103891597Y-112691928D02*
X103891597Y-111906214D01*
X103891597Y-111906214D02*
X103820168Y-111763357D01*
X103820168Y-111763357D02*
X103677311Y-111691928D01*
X103677311Y-111691928D02*
X103391597Y-111691928D01*
X103391597Y-111691928D02*
X103248739Y-111763357D01*
X103891597Y-112620500D02*
X103748739Y-112691928D01*
X103748739Y-112691928D02*
X103391597Y-112691928D01*
X103391597Y-112691928D02*
X103248739Y-112620500D01*
X103248739Y-112620500D02*
X103177311Y-112477642D01*
X103177311Y-112477642D02*
X103177311Y-112334785D01*
X103177311Y-112334785D02*
X103248739Y-112191928D01*
X103248739Y-112191928D02*
X103391597Y-112120500D01*
X103391597Y-112120500D02*
X103748739Y-112120500D01*
X103748739Y-112120500D02*
X103891597Y-112049071D01*
X104605882Y-111691928D02*
X104605882Y-112691928D01*
X104605882Y-111834785D02*
X104677311Y-111763357D01*
X104677311Y-111763357D02*
X104820168Y-111691928D01*
X104820168Y-111691928D02*
X105034454Y-111691928D01*
X105034454Y-111691928D02*
X105177311Y-111763357D01*
X105177311Y-111763357D02*
X105248740Y-111906214D01*
X105248740Y-111906214D02*
X105248740Y-112691928D01*
X106605883Y-112691928D02*
X106605883Y-111191928D01*
X106605883Y-112620500D02*
X106463025Y-112691928D01*
X106463025Y-112691928D02*
X106177311Y-112691928D01*
X106177311Y-112691928D02*
X106034454Y-112620500D01*
X106034454Y-112620500D02*
X105963025Y-112549071D01*
X105963025Y-112549071D02*
X105891597Y-112406214D01*
X105891597Y-112406214D02*
X105891597Y-111977642D01*
X105891597Y-111977642D02*
X105963025Y-111834785D01*
X105963025Y-111834785D02*
X106034454Y-111763357D01*
X106034454Y-111763357D02*
X106177311Y-111691928D01*
X106177311Y-111691928D02*
X106463025Y-111691928D01*
X106463025Y-111691928D02*
X106605883Y-111763357D01*
X109320168Y-112549071D02*
X109248740Y-112620500D01*
X109248740Y-112620500D02*
X109034454Y-112691928D01*
X109034454Y-112691928D02*
X108891597Y-112691928D01*
X108891597Y-112691928D02*
X108677311Y-112620500D01*
X108677311Y-112620500D02*
X108534454Y-112477642D01*
X108534454Y-112477642D02*
X108463025Y-112334785D01*
X108463025Y-112334785D02*
X108391597Y-112049071D01*
X108391597Y-112049071D02*
X108391597Y-111834785D01*
X108391597Y-111834785D02*
X108463025Y-111549071D01*
X108463025Y-111549071D02*
X108534454Y-111406214D01*
X108534454Y-111406214D02*
X108677311Y-111263357D01*
X108677311Y-111263357D02*
X108891597Y-111191928D01*
X108891597Y-111191928D02*
X109034454Y-111191928D01*
X109034454Y-111191928D02*
X109248740Y-111263357D01*
X109248740Y-111263357D02*
X109320168Y-111334785D01*
X110177311Y-112691928D02*
X110034454Y-112620500D01*
X110034454Y-112620500D02*
X109963025Y-112549071D01*
X109963025Y-112549071D02*
X109891597Y-112406214D01*
X109891597Y-112406214D02*
X109891597Y-111977642D01*
X109891597Y-111977642D02*
X109963025Y-111834785D01*
X109963025Y-111834785D02*
X110034454Y-111763357D01*
X110034454Y-111763357D02*
X110177311Y-111691928D01*
X110177311Y-111691928D02*
X110391597Y-111691928D01*
X110391597Y-111691928D02*
X110534454Y-111763357D01*
X110534454Y-111763357D02*
X110605883Y-111834785D01*
X110605883Y-111834785D02*
X110677311Y-111977642D01*
X110677311Y-111977642D02*
X110677311Y-112406214D01*
X110677311Y-112406214D02*
X110605883Y-112549071D01*
X110605883Y-112549071D02*
X110534454Y-112620500D01*
X110534454Y-112620500D02*
X110391597Y-112691928D01*
X110391597Y-112691928D02*
X110177311Y-112691928D01*
X111320168Y-112691928D02*
X111320168Y-111691928D01*
X111320168Y-111834785D02*
X111391597Y-111763357D01*
X111391597Y-111763357D02*
X111534454Y-111691928D01*
X111534454Y-111691928D02*
X111748740Y-111691928D01*
X111748740Y-111691928D02*
X111891597Y-111763357D01*
X111891597Y-111763357D02*
X111963026Y-111906214D01*
X111963026Y-111906214D02*
X111963026Y-112691928D01*
X111963026Y-111906214D02*
X112034454Y-111763357D01*
X112034454Y-111763357D02*
X112177311Y-111691928D01*
X112177311Y-111691928D02*
X112391597Y-111691928D01*
X112391597Y-111691928D02*
X112534454Y-111763357D01*
X112534454Y-111763357D02*
X112605883Y-111906214D01*
X112605883Y-111906214D02*
X112605883Y-112691928D01*
X113320168Y-111691928D02*
X113320168Y-113191928D01*
X113320168Y-111763357D02*
X113463026Y-111691928D01*
X113463026Y-111691928D02*
X113748740Y-111691928D01*
X113748740Y-111691928D02*
X113891597Y-111763357D01*
X113891597Y-111763357D02*
X113963026Y-111834785D01*
X113963026Y-111834785D02*
X114034454Y-111977642D01*
X114034454Y-111977642D02*
X114034454Y-112406214D01*
X114034454Y-112406214D02*
X113963026Y-112549071D01*
X113963026Y-112549071D02*
X113891597Y-112620500D01*
X113891597Y-112620500D02*
X113748740Y-112691928D01*
X113748740Y-112691928D02*
X113463026Y-112691928D01*
X113463026Y-112691928D02*
X113320168Y-112620500D01*
X115320169Y-111691928D02*
X115320169Y-112691928D01*
X114677311Y-111691928D02*
X114677311Y-112477642D01*
X114677311Y-112477642D02*
X114748740Y-112620500D01*
X114748740Y-112620500D02*
X114891597Y-112691928D01*
X114891597Y-112691928D02*
X115105883Y-112691928D01*
X115105883Y-112691928D02*
X115248740Y-112620500D01*
X115248740Y-112620500D02*
X115320169Y-112549071D01*
X115820169Y-111691928D02*
X116391597Y-111691928D01*
X116034454Y-111191928D02*
X116034454Y-112477642D01*
X116034454Y-112477642D02*
X116105883Y-112620500D01*
X116105883Y-112620500D02*
X116248740Y-112691928D01*
X116248740Y-112691928D02*
X116391597Y-112691928D01*
X117463026Y-112620500D02*
X117320169Y-112691928D01*
X117320169Y-112691928D02*
X117034455Y-112691928D01*
X117034455Y-112691928D02*
X116891597Y-112620500D01*
X116891597Y-112620500D02*
X116820169Y-112477642D01*
X116820169Y-112477642D02*
X116820169Y-111906214D01*
X116820169Y-111906214D02*
X116891597Y-111763357D01*
X116891597Y-111763357D02*
X117034455Y-111691928D01*
X117034455Y-111691928D02*
X117320169Y-111691928D01*
X117320169Y-111691928D02*
X117463026Y-111763357D01*
X117463026Y-111763357D02*
X117534455Y-111906214D01*
X117534455Y-111906214D02*
X117534455Y-112049071D01*
X117534455Y-112049071D02*
X116820169Y-112191928D01*
X118177311Y-112691928D02*
X118177311Y-111691928D01*
X118177311Y-111977642D02*
X118248740Y-111834785D01*
X118248740Y-111834785D02*
X118320169Y-111763357D01*
X118320169Y-111763357D02*
X118463026Y-111691928D01*
X118463026Y-111691928D02*
X118605883Y-111691928D01*
X120248739Y-111906214D02*
X120748739Y-111906214D01*
X120963025Y-112691928D02*
X120248739Y-112691928D01*
X120248739Y-112691928D02*
X120248739Y-111191928D01*
X120248739Y-111191928D02*
X120963025Y-111191928D01*
X121605882Y-111691928D02*
X121605882Y-112691928D01*
X121605882Y-111834785D02*
X121677311Y-111763357D01*
X121677311Y-111763357D02*
X121820168Y-111691928D01*
X121820168Y-111691928D02*
X122034454Y-111691928D01*
X122034454Y-111691928D02*
X122177311Y-111763357D01*
X122177311Y-111763357D02*
X122248740Y-111906214D01*
X122248740Y-111906214D02*
X122248740Y-112691928D01*
X123605883Y-111691928D02*
X123605883Y-112906214D01*
X123605883Y-112906214D02*
X123534454Y-113049071D01*
X123534454Y-113049071D02*
X123463025Y-113120500D01*
X123463025Y-113120500D02*
X123320168Y-113191928D01*
X123320168Y-113191928D02*
X123105883Y-113191928D01*
X123105883Y-113191928D02*
X122963025Y-113120500D01*
X123605883Y-112620500D02*
X123463025Y-112691928D01*
X123463025Y-112691928D02*
X123177311Y-112691928D01*
X123177311Y-112691928D02*
X123034454Y-112620500D01*
X123034454Y-112620500D02*
X122963025Y-112549071D01*
X122963025Y-112549071D02*
X122891597Y-112406214D01*
X122891597Y-112406214D02*
X122891597Y-111977642D01*
X122891597Y-111977642D02*
X122963025Y-111834785D01*
X122963025Y-111834785D02*
X123034454Y-111763357D01*
X123034454Y-111763357D02*
X123177311Y-111691928D01*
X123177311Y-111691928D02*
X123463025Y-111691928D01*
X123463025Y-111691928D02*
X123605883Y-111763357D01*
X124320168Y-112691928D02*
X124320168Y-111691928D01*
X124320168Y-111191928D02*
X124248740Y-111263357D01*
X124248740Y-111263357D02*
X124320168Y-111334785D01*
X124320168Y-111334785D02*
X124391597Y-111263357D01*
X124391597Y-111263357D02*
X124320168Y-111191928D01*
X124320168Y-111191928D02*
X124320168Y-111334785D01*
X125034454Y-111691928D02*
X125034454Y-112691928D01*
X125034454Y-111834785D02*
X125105883Y-111763357D01*
X125105883Y-111763357D02*
X125248740Y-111691928D01*
X125248740Y-111691928D02*
X125463026Y-111691928D01*
X125463026Y-111691928D02*
X125605883Y-111763357D01*
X125605883Y-111763357D02*
X125677312Y-111906214D01*
X125677312Y-111906214D02*
X125677312Y-112691928D01*
X126963026Y-112620500D02*
X126820169Y-112691928D01*
X126820169Y-112691928D02*
X126534455Y-112691928D01*
X126534455Y-112691928D02*
X126391597Y-112620500D01*
X126391597Y-112620500D02*
X126320169Y-112477642D01*
X126320169Y-112477642D02*
X126320169Y-111906214D01*
X126320169Y-111906214D02*
X126391597Y-111763357D01*
X126391597Y-111763357D02*
X126534455Y-111691928D01*
X126534455Y-111691928D02*
X126820169Y-111691928D01*
X126820169Y-111691928D02*
X126963026Y-111763357D01*
X126963026Y-111763357D02*
X127034455Y-111906214D01*
X127034455Y-111906214D02*
X127034455Y-112049071D01*
X127034455Y-112049071D02*
X126320169Y-112191928D01*
X128248740Y-112620500D02*
X128105883Y-112691928D01*
X128105883Y-112691928D02*
X127820169Y-112691928D01*
X127820169Y-112691928D02*
X127677311Y-112620500D01*
X127677311Y-112620500D02*
X127605883Y-112477642D01*
X127605883Y-112477642D02*
X127605883Y-111906214D01*
X127605883Y-111906214D02*
X127677311Y-111763357D01*
X127677311Y-111763357D02*
X127820169Y-111691928D01*
X127820169Y-111691928D02*
X128105883Y-111691928D01*
X128105883Y-111691928D02*
X128248740Y-111763357D01*
X128248740Y-111763357D02*
X128320169Y-111906214D01*
X128320169Y-111906214D02*
X128320169Y-112049071D01*
X128320169Y-112049071D02*
X127605883Y-112191928D01*
X128963025Y-112691928D02*
X128963025Y-111691928D01*
X128963025Y-111977642D02*
X129034454Y-111834785D01*
X129034454Y-111834785D02*
X129105883Y-111763357D01*
X129105883Y-111763357D02*
X129248740Y-111691928D01*
X129248740Y-111691928D02*
X129391597Y-111691928D01*
X129891596Y-112691928D02*
X129891596Y-111691928D01*
X129891596Y-111191928D02*
X129820168Y-111263357D01*
X129820168Y-111263357D02*
X129891596Y-111334785D01*
X129891596Y-111334785D02*
X129963025Y-111263357D01*
X129963025Y-111263357D02*
X129891596Y-111191928D01*
X129891596Y-111191928D02*
X129891596Y-111334785D01*
X130605882Y-111691928D02*
X130605882Y-112691928D01*
X130605882Y-111834785D02*
X130677311Y-111763357D01*
X130677311Y-111763357D02*
X130820168Y-111691928D01*
X130820168Y-111691928D02*
X131034454Y-111691928D01*
X131034454Y-111691928D02*
X131177311Y-111763357D01*
X131177311Y-111763357D02*
X131248740Y-111906214D01*
X131248740Y-111906214D02*
X131248740Y-112691928D01*
X132605883Y-111691928D02*
X132605883Y-112906214D01*
X132605883Y-112906214D02*
X132534454Y-113049071D01*
X132534454Y-113049071D02*
X132463025Y-113120500D01*
X132463025Y-113120500D02*
X132320168Y-113191928D01*
X132320168Y-113191928D02*
X132105883Y-113191928D01*
X132105883Y-113191928D02*
X131963025Y-113120500D01*
X132605883Y-112620500D02*
X132463025Y-112691928D01*
X132463025Y-112691928D02*
X132177311Y-112691928D01*
X132177311Y-112691928D02*
X132034454Y-112620500D01*
X132034454Y-112620500D02*
X131963025Y-112549071D01*
X131963025Y-112549071D02*
X131891597Y-112406214D01*
X131891597Y-112406214D02*
X131891597Y-111977642D01*
X131891597Y-111977642D02*
X131963025Y-111834785D01*
X131963025Y-111834785D02*
X132034454Y-111763357D01*
X132034454Y-111763357D02*
X132177311Y-111691928D01*
X132177311Y-111691928D02*
X132463025Y-111691928D01*
X132463025Y-111691928D02*
X132605883Y-111763357D01*
D10*
D11*
D10*
D11*
D10*
D11*
X110007200Y-129505800D02*
X110007200Y-132505800D01*
D10*
D11*
X174007200Y-129505800D02*
X174007200Y-136005800D01*
D14*
X137654651Y-80085233D02*
G75*
G03*
X140194651Y-77545233I0J2540000D01*
G01*
X66534651Y-57225233D02*
G75*
G03*
X63994651Y-59765233I1J-2540001D01*
G01*
X140202142Y-59757741D02*
G75*
G03*
X137662142Y-57217741I-2540001J-1D01*
G01*
X140202142Y-59757741D02*
X140194651Y-77545233D01*
X66534651Y-57225233D02*
X137662142Y-57217741D01*
X63994651Y-69925233D02*
X63994651Y-59765233D01*
X74154651Y-80085233D02*
X63994651Y-69925233D01*
X137654651Y-80085233D02*
X74154651Y-80085233D01*
M02*
