%TF.GenerationSoftware,KiCad,Pcbnew,7.0.7*%
%TF.CreationDate,2023-09-27T12:08:52-04:00*%
%TF.ProjectId,DataCollectionPrototype,44617461-436f-46c6-9c65-6374696f6e50,1*%
%TF.SameCoordinates,Original*%
%TF.FileFunction,Copper,L1,Top*%
%TF.FilePolarity,Positive*%
%FSLAX46Y46*%
G04 Gerber Fmt 4.6, Leading zero omitted, Abs format (unit mm)*
G04 Created by KiCad (PCBNEW 7.0.7) date 2023-09-27 12:08:52*
%MOMM*%
%LPD*%
G01*
G04 APERTURE LIST*
%ADD10C,0.100000*%
%ADD11C,0.150000*%
%ADD12C,0.300000*%
%ADD13C,0.400000*%
%TA.AperFunction,ComponentPad*%
%ADD14C,1.400000*%
%TD*%
%TA.AperFunction,ComponentPad*%
%ADD15O,1.400000X1.400000*%
%TD*%
%TA.AperFunction,ComponentPad*%
%ADD16C,1.778000*%
%TD*%
%TA.AperFunction,ComponentPad*%
%ADD17C,1.676400*%
%TD*%
%TA.AperFunction,ViaPad*%
%ADD18C,0.800000*%
%TD*%
%TA.AperFunction,Conductor*%
%ADD19C,0.250000*%
%TD*%
G04 APERTURE END LIST*
D10*
D11*
X90007200Y-104005800D02*
X198007200Y-104005800D01*
X198007200Y-136005800D01*
X90007200Y-136005800D01*
X90007200Y-104005800D01*
D10*
D11*
X10000000Y-10000000D02*
X200007200Y-10000000D01*
X200007200Y-138005800D01*
X10000000Y-138005800D01*
X10000000Y-10000000D01*
D10*
D11*
X12000000Y-12000000D02*
X198007200Y-12000000D01*
X198007200Y-136005800D01*
X12000000Y-136005800D01*
X12000000Y-12000000D01*
D10*
D11*
X60000000Y-12000000D02*
X60000000Y-10000000D01*
D10*
D11*
X110000000Y-12000000D02*
X110000000Y-10000000D01*
D10*
D11*
X160000000Y-12000000D02*
X160000000Y-10000000D01*
D10*
D11*
X36089160Y-11593604D02*
X35346303Y-11593604D01*
X35717731Y-11593604D02*
X35717731Y-10293604D01*
X35717731Y-10293604D02*
X35593922Y-10479319D01*
X35593922Y-10479319D02*
X35470112Y-10603128D01*
X35470112Y-10603128D02*
X35346303Y-10665033D01*
D10*
D11*
X85346303Y-10417414D02*
X85408207Y-10355509D01*
X85408207Y-10355509D02*
X85532017Y-10293604D01*
X85532017Y-10293604D02*
X85841541Y-10293604D01*
X85841541Y-10293604D02*
X85965350Y-10355509D01*
X85965350Y-10355509D02*
X86027255Y-10417414D01*
X86027255Y-10417414D02*
X86089160Y-10541223D01*
X86089160Y-10541223D02*
X86089160Y-10665033D01*
X86089160Y-10665033D02*
X86027255Y-10850747D01*
X86027255Y-10850747D02*
X85284398Y-11593604D01*
X85284398Y-11593604D02*
X86089160Y-11593604D01*
D10*
D11*
X135284398Y-10293604D02*
X136089160Y-10293604D01*
X136089160Y-10293604D02*
X135655826Y-10788842D01*
X135655826Y-10788842D02*
X135841541Y-10788842D01*
X135841541Y-10788842D02*
X135965350Y-10850747D01*
X135965350Y-10850747D02*
X136027255Y-10912652D01*
X136027255Y-10912652D02*
X136089160Y-11036461D01*
X136089160Y-11036461D02*
X136089160Y-11345985D01*
X136089160Y-11345985D02*
X136027255Y-11469795D01*
X136027255Y-11469795D02*
X135965350Y-11531700D01*
X135965350Y-11531700D02*
X135841541Y-11593604D01*
X135841541Y-11593604D02*
X135470112Y-11593604D01*
X135470112Y-11593604D02*
X135346303Y-11531700D01*
X135346303Y-11531700D02*
X135284398Y-11469795D01*
D10*
D11*
X185965350Y-10726938D02*
X185965350Y-11593604D01*
X185655826Y-10231700D02*
X185346303Y-11160271D01*
X185346303Y-11160271D02*
X186151064Y-11160271D01*
D10*
D11*
X60000000Y-136005800D02*
X60000000Y-138005800D01*
D10*
D11*
X110000000Y-136005800D02*
X110000000Y-138005800D01*
D10*
D11*
X160000000Y-136005800D02*
X160000000Y-138005800D01*
D10*
D11*
X36089160Y-137599404D02*
X35346303Y-137599404D01*
X35717731Y-137599404D02*
X35717731Y-136299404D01*
X35717731Y-136299404D02*
X35593922Y-136485119D01*
X35593922Y-136485119D02*
X35470112Y-136608928D01*
X35470112Y-136608928D02*
X35346303Y-136670833D01*
D10*
D11*
X85346303Y-136423214D02*
X85408207Y-136361309D01*
X85408207Y-136361309D02*
X85532017Y-136299404D01*
X85532017Y-136299404D02*
X85841541Y-136299404D01*
X85841541Y-136299404D02*
X85965350Y-136361309D01*
X85965350Y-136361309D02*
X86027255Y-136423214D01*
X86027255Y-136423214D02*
X86089160Y-136547023D01*
X86089160Y-136547023D02*
X86089160Y-136670833D01*
X86089160Y-136670833D02*
X86027255Y-136856547D01*
X86027255Y-136856547D02*
X85284398Y-137599404D01*
X85284398Y-137599404D02*
X86089160Y-137599404D01*
D10*
D11*
X135284398Y-136299404D02*
X136089160Y-136299404D01*
X136089160Y-136299404D02*
X135655826Y-136794642D01*
X135655826Y-136794642D02*
X135841541Y-136794642D01*
X135841541Y-136794642D02*
X135965350Y-136856547D01*
X135965350Y-136856547D02*
X136027255Y-136918452D01*
X136027255Y-136918452D02*
X136089160Y-137042261D01*
X136089160Y-137042261D02*
X136089160Y-137351785D01*
X136089160Y-137351785D02*
X136027255Y-137475595D01*
X136027255Y-137475595D02*
X135965350Y-137537500D01*
X135965350Y-137537500D02*
X135841541Y-137599404D01*
X135841541Y-137599404D02*
X135470112Y-137599404D01*
X135470112Y-137599404D02*
X135346303Y-137537500D01*
X135346303Y-137537500D02*
X135284398Y-137475595D01*
D10*
D11*
X185965350Y-136732738D02*
X185965350Y-137599404D01*
X185655826Y-136237500D02*
X185346303Y-137166071D01*
X185346303Y-137166071D02*
X186151064Y-137166071D01*
D10*
D11*
X10000000Y-60000000D02*
X12000000Y-60000000D01*
D10*
D11*
X10000000Y-110000000D02*
X12000000Y-110000000D01*
D10*
D11*
X10690476Y-35222176D02*
X11309523Y-35222176D01*
X10566666Y-35593604D02*
X10999999Y-34293604D01*
X10999999Y-34293604D02*
X11433333Y-35593604D01*
D10*
D11*
X11092857Y-84912652D02*
X11278571Y-84974557D01*
X11278571Y-84974557D02*
X11340476Y-85036461D01*
X11340476Y-85036461D02*
X11402380Y-85160271D01*
X11402380Y-85160271D02*
X11402380Y-85345985D01*
X11402380Y-85345985D02*
X11340476Y-85469795D01*
X11340476Y-85469795D02*
X11278571Y-85531700D01*
X11278571Y-85531700D02*
X11154761Y-85593604D01*
X11154761Y-85593604D02*
X10659523Y-85593604D01*
X10659523Y-85593604D02*
X10659523Y-84293604D01*
X10659523Y-84293604D02*
X11092857Y-84293604D01*
X11092857Y-84293604D02*
X11216666Y-84355509D01*
X11216666Y-84355509D02*
X11278571Y-84417414D01*
X11278571Y-84417414D02*
X11340476Y-84541223D01*
X11340476Y-84541223D02*
X11340476Y-84665033D01*
X11340476Y-84665033D02*
X11278571Y-84788842D01*
X11278571Y-84788842D02*
X11216666Y-84850747D01*
X11216666Y-84850747D02*
X11092857Y-84912652D01*
X11092857Y-84912652D02*
X10659523Y-84912652D01*
D10*
D11*
X11402380Y-135469795D02*
X11340476Y-135531700D01*
X11340476Y-135531700D02*
X11154761Y-135593604D01*
X11154761Y-135593604D02*
X11030952Y-135593604D01*
X11030952Y-135593604D02*
X10845238Y-135531700D01*
X10845238Y-135531700D02*
X10721428Y-135407890D01*
X10721428Y-135407890D02*
X10659523Y-135284080D01*
X10659523Y-135284080D02*
X10597619Y-135036461D01*
X10597619Y-135036461D02*
X10597619Y-134850747D01*
X10597619Y-134850747D02*
X10659523Y-134603128D01*
X10659523Y-134603128D02*
X10721428Y-134479319D01*
X10721428Y-134479319D02*
X10845238Y-134355509D01*
X10845238Y-134355509D02*
X11030952Y-134293604D01*
X11030952Y-134293604D02*
X11154761Y-134293604D01*
X11154761Y-134293604D02*
X11340476Y-134355509D01*
X11340476Y-134355509D02*
X11402380Y-134417414D01*
D10*
D11*
X200007200Y-60000000D02*
X198007200Y-60000000D01*
D10*
D11*
X200007200Y-110000000D02*
X198007200Y-110000000D01*
D10*
D11*
X198697676Y-35222176D02*
X199316723Y-35222176D01*
X198573866Y-35593604D02*
X199007199Y-34293604D01*
X199007199Y-34293604D02*
X199440533Y-35593604D01*
D10*
D11*
X199100057Y-84912652D02*
X199285771Y-84974557D01*
X199285771Y-84974557D02*
X199347676Y-85036461D01*
X199347676Y-85036461D02*
X199409580Y-85160271D01*
X199409580Y-85160271D02*
X199409580Y-85345985D01*
X199409580Y-85345985D02*
X199347676Y-85469795D01*
X199347676Y-85469795D02*
X199285771Y-85531700D01*
X199285771Y-85531700D02*
X199161961Y-85593604D01*
X199161961Y-85593604D02*
X198666723Y-85593604D01*
X198666723Y-85593604D02*
X198666723Y-84293604D01*
X198666723Y-84293604D02*
X199100057Y-84293604D01*
X199100057Y-84293604D02*
X199223866Y-84355509D01*
X199223866Y-84355509D02*
X199285771Y-84417414D01*
X199285771Y-84417414D02*
X199347676Y-84541223D01*
X199347676Y-84541223D02*
X199347676Y-84665033D01*
X199347676Y-84665033D02*
X199285771Y-84788842D01*
X199285771Y-84788842D02*
X199223866Y-84850747D01*
X199223866Y-84850747D02*
X199100057Y-84912652D01*
X199100057Y-84912652D02*
X198666723Y-84912652D01*
D10*
D11*
X199409580Y-135469795D02*
X199347676Y-135531700D01*
X199347676Y-135531700D02*
X199161961Y-135593604D01*
X199161961Y-135593604D02*
X199038152Y-135593604D01*
X199038152Y-135593604D02*
X198852438Y-135531700D01*
X198852438Y-135531700D02*
X198728628Y-135407890D01*
X198728628Y-135407890D02*
X198666723Y-135284080D01*
X198666723Y-135284080D02*
X198604819Y-135036461D01*
X198604819Y-135036461D02*
X198604819Y-134850747D01*
X198604819Y-134850747D02*
X198666723Y-134603128D01*
X198666723Y-134603128D02*
X198728628Y-134479319D01*
X198728628Y-134479319D02*
X198852438Y-134355509D01*
X198852438Y-134355509D02*
X199038152Y-134293604D01*
X199038152Y-134293604D02*
X199161961Y-134293604D01*
X199161961Y-134293604D02*
X199347676Y-134355509D01*
X199347676Y-134355509D02*
X199409580Y-134417414D01*
D10*
D11*
X113463026Y-131791928D02*
X113463026Y-130291928D01*
X113463026Y-130291928D02*
X113820169Y-130291928D01*
X113820169Y-130291928D02*
X114034455Y-130363357D01*
X114034455Y-130363357D02*
X114177312Y-130506214D01*
X114177312Y-130506214D02*
X114248741Y-130649071D01*
X114248741Y-130649071D02*
X114320169Y-130934785D01*
X114320169Y-130934785D02*
X114320169Y-131149071D01*
X114320169Y-131149071D02*
X114248741Y-131434785D01*
X114248741Y-131434785D02*
X114177312Y-131577642D01*
X114177312Y-131577642D02*
X114034455Y-131720500D01*
X114034455Y-131720500D02*
X113820169Y-131791928D01*
X113820169Y-131791928D02*
X113463026Y-131791928D01*
X115605884Y-131791928D02*
X115605884Y-131006214D01*
X115605884Y-131006214D02*
X115534455Y-130863357D01*
X115534455Y-130863357D02*
X115391598Y-130791928D01*
X115391598Y-130791928D02*
X115105884Y-130791928D01*
X115105884Y-130791928D02*
X114963026Y-130863357D01*
X115605884Y-131720500D02*
X115463026Y-131791928D01*
X115463026Y-131791928D02*
X115105884Y-131791928D01*
X115105884Y-131791928D02*
X114963026Y-131720500D01*
X114963026Y-131720500D02*
X114891598Y-131577642D01*
X114891598Y-131577642D02*
X114891598Y-131434785D01*
X114891598Y-131434785D02*
X114963026Y-131291928D01*
X114963026Y-131291928D02*
X115105884Y-131220500D01*
X115105884Y-131220500D02*
X115463026Y-131220500D01*
X115463026Y-131220500D02*
X115605884Y-131149071D01*
X116105884Y-130791928D02*
X116677312Y-130791928D01*
X116320169Y-130291928D02*
X116320169Y-131577642D01*
X116320169Y-131577642D02*
X116391598Y-131720500D01*
X116391598Y-131720500D02*
X116534455Y-131791928D01*
X116534455Y-131791928D02*
X116677312Y-131791928D01*
X117748741Y-131720500D02*
X117605884Y-131791928D01*
X117605884Y-131791928D02*
X117320170Y-131791928D01*
X117320170Y-131791928D02*
X117177312Y-131720500D01*
X117177312Y-131720500D02*
X117105884Y-131577642D01*
X117105884Y-131577642D02*
X117105884Y-131006214D01*
X117105884Y-131006214D02*
X117177312Y-130863357D01*
X117177312Y-130863357D02*
X117320170Y-130791928D01*
X117320170Y-130791928D02*
X117605884Y-130791928D01*
X117605884Y-130791928D02*
X117748741Y-130863357D01*
X117748741Y-130863357D02*
X117820170Y-131006214D01*
X117820170Y-131006214D02*
X117820170Y-131149071D01*
X117820170Y-131149071D02*
X117105884Y-131291928D01*
X118463026Y-131649071D02*
X118534455Y-131720500D01*
X118534455Y-131720500D02*
X118463026Y-131791928D01*
X118463026Y-131791928D02*
X118391598Y-131720500D01*
X118391598Y-131720500D02*
X118463026Y-131649071D01*
X118463026Y-131649071D02*
X118463026Y-131791928D01*
X118463026Y-130863357D02*
X118534455Y-130934785D01*
X118534455Y-130934785D02*
X118463026Y-131006214D01*
X118463026Y-131006214D02*
X118391598Y-130934785D01*
X118391598Y-130934785D02*
X118463026Y-130863357D01*
X118463026Y-130863357D02*
X118463026Y-131006214D01*
X120391598Y-131791928D02*
X120677312Y-131791928D01*
X120677312Y-131791928D02*
X120820169Y-131720500D01*
X120820169Y-131720500D02*
X120891598Y-131649071D01*
X120891598Y-131649071D02*
X121034455Y-131434785D01*
X121034455Y-131434785D02*
X121105884Y-131149071D01*
X121105884Y-131149071D02*
X121105884Y-130577642D01*
X121105884Y-130577642D02*
X121034455Y-130434785D01*
X121034455Y-130434785D02*
X120963027Y-130363357D01*
X120963027Y-130363357D02*
X120820169Y-130291928D01*
X120820169Y-130291928D02*
X120534455Y-130291928D01*
X120534455Y-130291928D02*
X120391598Y-130363357D01*
X120391598Y-130363357D02*
X120320169Y-130434785D01*
X120320169Y-130434785D02*
X120248741Y-130577642D01*
X120248741Y-130577642D02*
X120248741Y-130934785D01*
X120248741Y-130934785D02*
X120320169Y-131077642D01*
X120320169Y-131077642D02*
X120391598Y-131149071D01*
X120391598Y-131149071D02*
X120534455Y-131220500D01*
X120534455Y-131220500D02*
X120820169Y-131220500D01*
X120820169Y-131220500D02*
X120963027Y-131149071D01*
X120963027Y-131149071D02*
X121034455Y-131077642D01*
X121034455Y-131077642D02*
X121105884Y-130934785D01*
X122820169Y-130220500D02*
X121534455Y-132149071D01*
X123248741Y-130434785D02*
X123320169Y-130363357D01*
X123320169Y-130363357D02*
X123463027Y-130291928D01*
X123463027Y-130291928D02*
X123820169Y-130291928D01*
X123820169Y-130291928D02*
X123963027Y-130363357D01*
X123963027Y-130363357D02*
X124034455Y-130434785D01*
X124034455Y-130434785D02*
X124105884Y-130577642D01*
X124105884Y-130577642D02*
X124105884Y-130720500D01*
X124105884Y-130720500D02*
X124034455Y-130934785D01*
X124034455Y-130934785D02*
X123177312Y-131791928D01*
X123177312Y-131791928D02*
X124105884Y-131791928D01*
X125391598Y-130791928D02*
X125391598Y-131791928D01*
X125034455Y-130220500D02*
X124677312Y-131291928D01*
X124677312Y-131291928D02*
X125605883Y-131291928D01*
X127248740Y-130220500D02*
X125963026Y-132149071D01*
X127677312Y-130434785D02*
X127748740Y-130363357D01*
X127748740Y-130363357D02*
X127891598Y-130291928D01*
X127891598Y-130291928D02*
X128248740Y-130291928D01*
X128248740Y-130291928D02*
X128391598Y-130363357D01*
X128391598Y-130363357D02*
X128463026Y-130434785D01*
X128463026Y-130434785D02*
X128534455Y-130577642D01*
X128534455Y-130577642D02*
X128534455Y-130720500D01*
X128534455Y-130720500D02*
X128463026Y-130934785D01*
X128463026Y-130934785D02*
X127605883Y-131791928D01*
X127605883Y-131791928D02*
X128534455Y-131791928D01*
X129463026Y-130291928D02*
X129605883Y-130291928D01*
X129605883Y-130291928D02*
X129748740Y-130363357D01*
X129748740Y-130363357D02*
X129820169Y-130434785D01*
X129820169Y-130434785D02*
X129891597Y-130577642D01*
X129891597Y-130577642D02*
X129963026Y-130863357D01*
X129963026Y-130863357D02*
X129963026Y-131220500D01*
X129963026Y-131220500D02*
X129891597Y-131506214D01*
X129891597Y-131506214D02*
X129820169Y-131649071D01*
X129820169Y-131649071D02*
X129748740Y-131720500D01*
X129748740Y-131720500D02*
X129605883Y-131791928D01*
X129605883Y-131791928D02*
X129463026Y-131791928D01*
X129463026Y-131791928D02*
X129320169Y-131720500D01*
X129320169Y-131720500D02*
X129248740Y-131649071D01*
X129248740Y-131649071D02*
X129177311Y-131506214D01*
X129177311Y-131506214D02*
X129105883Y-131220500D01*
X129105883Y-131220500D02*
X129105883Y-130863357D01*
X129105883Y-130863357D02*
X129177311Y-130577642D01*
X129177311Y-130577642D02*
X129248740Y-130434785D01*
X129248740Y-130434785D02*
X129320169Y-130363357D01*
X129320169Y-130363357D02*
X129463026Y-130291928D01*
X130534454Y-130434785D02*
X130605882Y-130363357D01*
X130605882Y-130363357D02*
X130748740Y-130291928D01*
X130748740Y-130291928D02*
X131105882Y-130291928D01*
X131105882Y-130291928D02*
X131248740Y-130363357D01*
X131248740Y-130363357D02*
X131320168Y-130434785D01*
X131320168Y-130434785D02*
X131391597Y-130577642D01*
X131391597Y-130577642D02*
X131391597Y-130720500D01*
X131391597Y-130720500D02*
X131320168Y-130934785D01*
X131320168Y-130934785D02*
X130463025Y-131791928D01*
X130463025Y-131791928D02*
X131391597Y-131791928D01*
X131891596Y-130291928D02*
X132820168Y-130291928D01*
X132820168Y-130291928D02*
X132320168Y-130863357D01*
X132320168Y-130863357D02*
X132534453Y-130863357D01*
X132534453Y-130863357D02*
X132677311Y-130934785D01*
X132677311Y-130934785D02*
X132748739Y-131006214D01*
X132748739Y-131006214D02*
X132820168Y-131149071D01*
X132820168Y-131149071D02*
X132820168Y-131506214D01*
X132820168Y-131506214D02*
X132748739Y-131649071D01*
X132748739Y-131649071D02*
X132677311Y-131720500D01*
X132677311Y-131720500D02*
X132534453Y-131791928D01*
X132534453Y-131791928D02*
X132105882Y-131791928D01*
X132105882Y-131791928D02*
X131963025Y-131720500D01*
X131963025Y-131720500D02*
X131891596Y-131649071D01*
D10*
D11*
X90007200Y-132505800D02*
X198007200Y-132505800D01*
D10*
D11*
X91463026Y-134591928D02*
X91463026Y-133091928D01*
X92320169Y-134591928D02*
X91677312Y-133734785D01*
X92320169Y-133091928D02*
X91463026Y-133949071D01*
X92963026Y-134591928D02*
X92963026Y-133591928D01*
X92963026Y-133091928D02*
X92891598Y-133163357D01*
X92891598Y-133163357D02*
X92963026Y-133234785D01*
X92963026Y-133234785D02*
X93034455Y-133163357D01*
X93034455Y-133163357D02*
X92963026Y-133091928D01*
X92963026Y-133091928D02*
X92963026Y-133234785D01*
X94534455Y-134449071D02*
X94463027Y-134520500D01*
X94463027Y-134520500D02*
X94248741Y-134591928D01*
X94248741Y-134591928D02*
X94105884Y-134591928D01*
X94105884Y-134591928D02*
X93891598Y-134520500D01*
X93891598Y-134520500D02*
X93748741Y-134377642D01*
X93748741Y-134377642D02*
X93677312Y-134234785D01*
X93677312Y-134234785D02*
X93605884Y-133949071D01*
X93605884Y-133949071D02*
X93605884Y-133734785D01*
X93605884Y-133734785D02*
X93677312Y-133449071D01*
X93677312Y-133449071D02*
X93748741Y-133306214D01*
X93748741Y-133306214D02*
X93891598Y-133163357D01*
X93891598Y-133163357D02*
X94105884Y-133091928D01*
X94105884Y-133091928D02*
X94248741Y-133091928D01*
X94248741Y-133091928D02*
X94463027Y-133163357D01*
X94463027Y-133163357D02*
X94534455Y-133234785D01*
X95820170Y-134591928D02*
X95820170Y-133806214D01*
X95820170Y-133806214D02*
X95748741Y-133663357D01*
X95748741Y-133663357D02*
X95605884Y-133591928D01*
X95605884Y-133591928D02*
X95320170Y-133591928D01*
X95320170Y-133591928D02*
X95177312Y-133663357D01*
X95820170Y-134520500D02*
X95677312Y-134591928D01*
X95677312Y-134591928D02*
X95320170Y-134591928D01*
X95320170Y-134591928D02*
X95177312Y-134520500D01*
X95177312Y-134520500D02*
X95105884Y-134377642D01*
X95105884Y-134377642D02*
X95105884Y-134234785D01*
X95105884Y-134234785D02*
X95177312Y-134091928D01*
X95177312Y-134091928D02*
X95320170Y-134020500D01*
X95320170Y-134020500D02*
X95677312Y-134020500D01*
X95677312Y-134020500D02*
X95820170Y-133949071D01*
X97177313Y-134591928D02*
X97177313Y-133091928D01*
X97177313Y-134520500D02*
X97034455Y-134591928D01*
X97034455Y-134591928D02*
X96748741Y-134591928D01*
X96748741Y-134591928D02*
X96605884Y-134520500D01*
X96605884Y-134520500D02*
X96534455Y-134449071D01*
X96534455Y-134449071D02*
X96463027Y-134306214D01*
X96463027Y-134306214D02*
X96463027Y-133877642D01*
X96463027Y-133877642D02*
X96534455Y-133734785D01*
X96534455Y-133734785D02*
X96605884Y-133663357D01*
X96605884Y-133663357D02*
X96748741Y-133591928D01*
X96748741Y-133591928D02*
X97034455Y-133591928D01*
X97034455Y-133591928D02*
X97177313Y-133663357D01*
X99034455Y-133806214D02*
X99534455Y-133806214D01*
X99748741Y-134591928D02*
X99034455Y-134591928D01*
X99034455Y-134591928D02*
X99034455Y-133091928D01*
X99034455Y-133091928D02*
X99748741Y-133091928D01*
X100391598Y-134449071D02*
X100463027Y-134520500D01*
X100463027Y-134520500D02*
X100391598Y-134591928D01*
X100391598Y-134591928D02*
X100320170Y-134520500D01*
X100320170Y-134520500D02*
X100391598Y-134449071D01*
X100391598Y-134449071D02*
X100391598Y-134591928D01*
X101105884Y-134591928D02*
X101105884Y-133091928D01*
X101105884Y-133091928D02*
X101463027Y-133091928D01*
X101463027Y-133091928D02*
X101677313Y-133163357D01*
X101677313Y-133163357D02*
X101820170Y-133306214D01*
X101820170Y-133306214D02*
X101891599Y-133449071D01*
X101891599Y-133449071D02*
X101963027Y-133734785D01*
X101963027Y-133734785D02*
X101963027Y-133949071D01*
X101963027Y-133949071D02*
X101891599Y-134234785D01*
X101891599Y-134234785D02*
X101820170Y-134377642D01*
X101820170Y-134377642D02*
X101677313Y-134520500D01*
X101677313Y-134520500D02*
X101463027Y-134591928D01*
X101463027Y-134591928D02*
X101105884Y-134591928D01*
X102605884Y-134449071D02*
X102677313Y-134520500D01*
X102677313Y-134520500D02*
X102605884Y-134591928D01*
X102605884Y-134591928D02*
X102534456Y-134520500D01*
X102534456Y-134520500D02*
X102605884Y-134449071D01*
X102605884Y-134449071D02*
X102605884Y-134591928D01*
X103248742Y-134163357D02*
X103963028Y-134163357D01*
X103105885Y-134591928D02*
X103605885Y-133091928D01*
X103605885Y-133091928D02*
X104105885Y-134591928D01*
X104605884Y-134449071D02*
X104677313Y-134520500D01*
X104677313Y-134520500D02*
X104605884Y-134591928D01*
X104605884Y-134591928D02*
X104534456Y-134520500D01*
X104534456Y-134520500D02*
X104605884Y-134449071D01*
X104605884Y-134449071D02*
X104605884Y-134591928D01*
X107605884Y-134591928D02*
X107605884Y-133091928D01*
X107748742Y-134020500D02*
X108177313Y-134591928D01*
X108177313Y-133591928D02*
X107605884Y-134163357D01*
X108820170Y-134591928D02*
X108820170Y-133591928D01*
X108820170Y-133091928D02*
X108748742Y-133163357D01*
X108748742Y-133163357D02*
X108820170Y-133234785D01*
X108820170Y-133234785D02*
X108891599Y-133163357D01*
X108891599Y-133163357D02*
X108820170Y-133091928D01*
X108820170Y-133091928D02*
X108820170Y-133234785D01*
X110177314Y-134520500D02*
X110034456Y-134591928D01*
X110034456Y-134591928D02*
X109748742Y-134591928D01*
X109748742Y-134591928D02*
X109605885Y-134520500D01*
X109605885Y-134520500D02*
X109534456Y-134449071D01*
X109534456Y-134449071D02*
X109463028Y-134306214D01*
X109463028Y-134306214D02*
X109463028Y-133877642D01*
X109463028Y-133877642D02*
X109534456Y-133734785D01*
X109534456Y-133734785D02*
X109605885Y-133663357D01*
X109605885Y-133663357D02*
X109748742Y-133591928D01*
X109748742Y-133591928D02*
X110034456Y-133591928D01*
X110034456Y-133591928D02*
X110177314Y-133663357D01*
X111463028Y-134591928D02*
X111463028Y-133806214D01*
X111463028Y-133806214D02*
X111391599Y-133663357D01*
X111391599Y-133663357D02*
X111248742Y-133591928D01*
X111248742Y-133591928D02*
X110963028Y-133591928D01*
X110963028Y-133591928D02*
X110820170Y-133663357D01*
X111463028Y-134520500D02*
X111320170Y-134591928D01*
X111320170Y-134591928D02*
X110963028Y-134591928D01*
X110963028Y-134591928D02*
X110820170Y-134520500D01*
X110820170Y-134520500D02*
X110748742Y-134377642D01*
X110748742Y-134377642D02*
X110748742Y-134234785D01*
X110748742Y-134234785D02*
X110820170Y-134091928D01*
X110820170Y-134091928D02*
X110963028Y-134020500D01*
X110963028Y-134020500D02*
X111320170Y-134020500D01*
X111320170Y-134020500D02*
X111463028Y-133949071D01*
X112820171Y-134591928D02*
X112820171Y-133091928D01*
X112820171Y-134520500D02*
X112677313Y-134591928D01*
X112677313Y-134591928D02*
X112391599Y-134591928D01*
X112391599Y-134591928D02*
X112248742Y-134520500D01*
X112248742Y-134520500D02*
X112177313Y-134449071D01*
X112177313Y-134449071D02*
X112105885Y-134306214D01*
X112105885Y-134306214D02*
X112105885Y-133877642D01*
X112105885Y-133877642D02*
X112177313Y-133734785D01*
X112177313Y-133734785D02*
X112248742Y-133663357D01*
X112248742Y-133663357D02*
X112391599Y-133591928D01*
X112391599Y-133591928D02*
X112677313Y-133591928D01*
X112677313Y-133591928D02*
X112820171Y-133663357D01*
X114534456Y-133091928D02*
X115534456Y-133091928D01*
X115534456Y-133091928D02*
X114891599Y-134591928D01*
X116105884Y-134449071D02*
X116177313Y-134520500D01*
X116177313Y-134520500D02*
X116105884Y-134591928D01*
X116105884Y-134591928D02*
X116034456Y-134520500D01*
X116034456Y-134520500D02*
X116105884Y-134449071D01*
X116105884Y-134449071D02*
X116105884Y-134591928D01*
X117105885Y-133091928D02*
X117248742Y-133091928D01*
X117248742Y-133091928D02*
X117391599Y-133163357D01*
X117391599Y-133163357D02*
X117463028Y-133234785D01*
X117463028Y-133234785D02*
X117534456Y-133377642D01*
X117534456Y-133377642D02*
X117605885Y-133663357D01*
X117605885Y-133663357D02*
X117605885Y-134020500D01*
X117605885Y-134020500D02*
X117534456Y-134306214D01*
X117534456Y-134306214D02*
X117463028Y-134449071D01*
X117463028Y-134449071D02*
X117391599Y-134520500D01*
X117391599Y-134520500D02*
X117248742Y-134591928D01*
X117248742Y-134591928D02*
X117105885Y-134591928D01*
X117105885Y-134591928D02*
X116963028Y-134520500D01*
X116963028Y-134520500D02*
X116891599Y-134449071D01*
X116891599Y-134449071D02*
X116820170Y-134306214D01*
X116820170Y-134306214D02*
X116748742Y-134020500D01*
X116748742Y-134020500D02*
X116748742Y-133663357D01*
X116748742Y-133663357D02*
X116820170Y-133377642D01*
X116820170Y-133377642D02*
X116891599Y-133234785D01*
X116891599Y-133234785D02*
X116963028Y-133163357D01*
X116963028Y-133163357D02*
X117105885Y-133091928D01*
X118248741Y-134449071D02*
X118320170Y-134520500D01*
X118320170Y-134520500D02*
X118248741Y-134591928D01*
X118248741Y-134591928D02*
X118177313Y-134520500D01*
X118177313Y-134520500D02*
X118248741Y-134449071D01*
X118248741Y-134449071D02*
X118248741Y-134591928D01*
X118820170Y-133091928D02*
X119820170Y-133091928D01*
X119820170Y-133091928D02*
X119177313Y-134591928D01*
D10*
D11*
X90007200Y-129505800D02*
X198007200Y-129505800D01*
D10*
D12*
X177418853Y-131784128D02*
X176918853Y-131069842D01*
X176561710Y-131784128D02*
X176561710Y-130284128D01*
X176561710Y-130284128D02*
X177133139Y-130284128D01*
X177133139Y-130284128D02*
X177275996Y-130355557D01*
X177275996Y-130355557D02*
X177347425Y-130426985D01*
X177347425Y-130426985D02*
X177418853Y-130569842D01*
X177418853Y-130569842D02*
X177418853Y-130784128D01*
X177418853Y-130784128D02*
X177347425Y-130926985D01*
X177347425Y-130926985D02*
X177275996Y-130998414D01*
X177275996Y-130998414D02*
X177133139Y-131069842D01*
X177133139Y-131069842D02*
X176561710Y-131069842D01*
X178633139Y-131712700D02*
X178490282Y-131784128D01*
X178490282Y-131784128D02*
X178204568Y-131784128D01*
X178204568Y-131784128D02*
X178061710Y-131712700D01*
X178061710Y-131712700D02*
X177990282Y-131569842D01*
X177990282Y-131569842D02*
X177990282Y-130998414D01*
X177990282Y-130998414D02*
X178061710Y-130855557D01*
X178061710Y-130855557D02*
X178204568Y-130784128D01*
X178204568Y-130784128D02*
X178490282Y-130784128D01*
X178490282Y-130784128D02*
X178633139Y-130855557D01*
X178633139Y-130855557D02*
X178704568Y-130998414D01*
X178704568Y-130998414D02*
X178704568Y-131141271D01*
X178704568Y-131141271D02*
X177990282Y-131284128D01*
X179204567Y-130784128D02*
X179561710Y-131784128D01*
X179561710Y-131784128D02*
X179918853Y-130784128D01*
X180490281Y-131641271D02*
X180561710Y-131712700D01*
X180561710Y-131712700D02*
X180490281Y-131784128D01*
X180490281Y-131784128D02*
X180418853Y-131712700D01*
X180418853Y-131712700D02*
X180490281Y-131641271D01*
X180490281Y-131641271D02*
X180490281Y-131784128D01*
X180490281Y-130855557D02*
X180561710Y-130926985D01*
X180561710Y-130926985D02*
X180490281Y-130998414D01*
X180490281Y-130998414D02*
X180418853Y-130926985D01*
X180418853Y-130926985D02*
X180490281Y-130855557D01*
X180490281Y-130855557D02*
X180490281Y-130998414D01*
X183133139Y-131784128D02*
X182275996Y-131784128D01*
X182704567Y-131784128D02*
X182704567Y-130284128D01*
X182704567Y-130284128D02*
X182561710Y-130498414D01*
X182561710Y-130498414D02*
X182418853Y-130641271D01*
X182418853Y-130641271D02*
X182275996Y-130712700D01*
D10*
D11*
X91391598Y-131720500D02*
X91605884Y-131791928D01*
X91605884Y-131791928D02*
X91963026Y-131791928D01*
X91963026Y-131791928D02*
X92105884Y-131720500D01*
X92105884Y-131720500D02*
X92177312Y-131649071D01*
X92177312Y-131649071D02*
X92248741Y-131506214D01*
X92248741Y-131506214D02*
X92248741Y-131363357D01*
X92248741Y-131363357D02*
X92177312Y-131220500D01*
X92177312Y-131220500D02*
X92105884Y-131149071D01*
X92105884Y-131149071D02*
X91963026Y-131077642D01*
X91963026Y-131077642D02*
X91677312Y-131006214D01*
X91677312Y-131006214D02*
X91534455Y-130934785D01*
X91534455Y-130934785D02*
X91463026Y-130863357D01*
X91463026Y-130863357D02*
X91391598Y-130720500D01*
X91391598Y-130720500D02*
X91391598Y-130577642D01*
X91391598Y-130577642D02*
X91463026Y-130434785D01*
X91463026Y-130434785D02*
X91534455Y-130363357D01*
X91534455Y-130363357D02*
X91677312Y-130291928D01*
X91677312Y-130291928D02*
X92034455Y-130291928D01*
X92034455Y-130291928D02*
X92248741Y-130363357D01*
X92891597Y-131791928D02*
X92891597Y-130791928D01*
X92891597Y-130291928D02*
X92820169Y-130363357D01*
X92820169Y-130363357D02*
X92891597Y-130434785D01*
X92891597Y-130434785D02*
X92963026Y-130363357D01*
X92963026Y-130363357D02*
X92891597Y-130291928D01*
X92891597Y-130291928D02*
X92891597Y-130434785D01*
X93463026Y-130791928D02*
X94248741Y-130791928D01*
X94248741Y-130791928D02*
X93463026Y-131791928D01*
X93463026Y-131791928D02*
X94248741Y-131791928D01*
X95391598Y-131720500D02*
X95248741Y-131791928D01*
X95248741Y-131791928D02*
X94963027Y-131791928D01*
X94963027Y-131791928D02*
X94820169Y-131720500D01*
X94820169Y-131720500D02*
X94748741Y-131577642D01*
X94748741Y-131577642D02*
X94748741Y-131006214D01*
X94748741Y-131006214D02*
X94820169Y-130863357D01*
X94820169Y-130863357D02*
X94963027Y-130791928D01*
X94963027Y-130791928D02*
X95248741Y-130791928D01*
X95248741Y-130791928D02*
X95391598Y-130863357D01*
X95391598Y-130863357D02*
X95463027Y-131006214D01*
X95463027Y-131006214D02*
X95463027Y-131149071D01*
X95463027Y-131149071D02*
X94748741Y-131291928D01*
X96105883Y-131649071D02*
X96177312Y-131720500D01*
X96177312Y-131720500D02*
X96105883Y-131791928D01*
X96105883Y-131791928D02*
X96034455Y-131720500D01*
X96034455Y-131720500D02*
X96105883Y-131649071D01*
X96105883Y-131649071D02*
X96105883Y-131791928D01*
X96105883Y-130863357D02*
X96177312Y-130934785D01*
X96177312Y-130934785D02*
X96105883Y-131006214D01*
X96105883Y-131006214D02*
X96034455Y-130934785D01*
X96034455Y-130934785D02*
X96105883Y-130863357D01*
X96105883Y-130863357D02*
X96105883Y-131006214D01*
X97891598Y-131363357D02*
X98605884Y-131363357D01*
X97748741Y-131791928D02*
X98248741Y-130291928D01*
X98248741Y-130291928D02*
X98748741Y-131791928D01*
X99963026Y-130291928D02*
X99248740Y-130291928D01*
X99248740Y-130291928D02*
X99177312Y-131006214D01*
X99177312Y-131006214D02*
X99248740Y-130934785D01*
X99248740Y-130934785D02*
X99391598Y-130863357D01*
X99391598Y-130863357D02*
X99748740Y-130863357D01*
X99748740Y-130863357D02*
X99891598Y-130934785D01*
X99891598Y-130934785D02*
X99963026Y-131006214D01*
X99963026Y-131006214D02*
X100034455Y-131149071D01*
X100034455Y-131149071D02*
X100034455Y-131506214D01*
X100034455Y-131506214D02*
X99963026Y-131649071D01*
X99963026Y-131649071D02*
X99891598Y-131720500D01*
X99891598Y-131720500D02*
X99748740Y-131791928D01*
X99748740Y-131791928D02*
X99391598Y-131791928D01*
X99391598Y-131791928D02*
X99248740Y-131720500D01*
X99248740Y-131720500D02*
X99177312Y-131649071D01*
D10*
D11*
X176463026Y-134591928D02*
X176463026Y-133091928D01*
X177820170Y-134591928D02*
X177820170Y-133091928D01*
X177820170Y-134520500D02*
X177677312Y-134591928D01*
X177677312Y-134591928D02*
X177391598Y-134591928D01*
X177391598Y-134591928D02*
X177248741Y-134520500D01*
X177248741Y-134520500D02*
X177177312Y-134449071D01*
X177177312Y-134449071D02*
X177105884Y-134306214D01*
X177105884Y-134306214D02*
X177105884Y-133877642D01*
X177105884Y-133877642D02*
X177177312Y-133734785D01*
X177177312Y-133734785D02*
X177248741Y-133663357D01*
X177248741Y-133663357D02*
X177391598Y-133591928D01*
X177391598Y-133591928D02*
X177677312Y-133591928D01*
X177677312Y-133591928D02*
X177820170Y-133663357D01*
X178534455Y-134449071D02*
X178605884Y-134520500D01*
X178605884Y-134520500D02*
X178534455Y-134591928D01*
X178534455Y-134591928D02*
X178463027Y-134520500D01*
X178463027Y-134520500D02*
X178534455Y-134449071D01*
X178534455Y-134449071D02*
X178534455Y-134591928D01*
X178534455Y-133663357D02*
X178605884Y-133734785D01*
X178605884Y-133734785D02*
X178534455Y-133806214D01*
X178534455Y-133806214D02*
X178463027Y-133734785D01*
X178463027Y-133734785D02*
X178534455Y-133663357D01*
X178534455Y-133663357D02*
X178534455Y-133806214D01*
X181177313Y-134591928D02*
X180320170Y-134591928D01*
X180748741Y-134591928D02*
X180748741Y-133091928D01*
X180748741Y-133091928D02*
X180605884Y-133306214D01*
X180605884Y-133306214D02*
X180463027Y-133449071D01*
X180463027Y-133449071D02*
X180320170Y-133520500D01*
X182891598Y-133020500D02*
X181605884Y-134949071D01*
X184177313Y-134591928D02*
X183320170Y-134591928D01*
X183748741Y-134591928D02*
X183748741Y-133091928D01*
X183748741Y-133091928D02*
X183605884Y-133306214D01*
X183605884Y-133306214D02*
X183463027Y-133449071D01*
X183463027Y-133449071D02*
X183320170Y-133520500D01*
D10*
D11*
X90007200Y-125505800D02*
X198007200Y-125505800D01*
D10*
D13*
X91698928Y-126210238D02*
X92841785Y-126210238D01*
X92020357Y-128210238D02*
X92270357Y-126210238D01*
X93258452Y-128210238D02*
X93425119Y-126876904D01*
X93508452Y-126210238D02*
X93401309Y-126305476D01*
X93401309Y-126305476D02*
X93484643Y-126400714D01*
X93484643Y-126400714D02*
X93591786Y-126305476D01*
X93591786Y-126305476D02*
X93508452Y-126210238D01*
X93508452Y-126210238D02*
X93484643Y-126400714D01*
X94091786Y-126876904D02*
X94853690Y-126876904D01*
X94460833Y-126210238D02*
X94246548Y-127924523D01*
X94246548Y-127924523D02*
X94317976Y-128115000D01*
X94317976Y-128115000D02*
X94496548Y-128210238D01*
X94496548Y-128210238D02*
X94687024Y-128210238D01*
X95639405Y-128210238D02*
X95460833Y-128115000D01*
X95460833Y-128115000D02*
X95389405Y-127924523D01*
X95389405Y-127924523D02*
X95603690Y-126210238D01*
X97175119Y-128115000D02*
X96972738Y-128210238D01*
X96972738Y-128210238D02*
X96591785Y-128210238D01*
X96591785Y-128210238D02*
X96413214Y-128115000D01*
X96413214Y-128115000D02*
X96341785Y-127924523D01*
X96341785Y-127924523D02*
X96437024Y-127162619D01*
X96437024Y-127162619D02*
X96556071Y-126972142D01*
X96556071Y-126972142D02*
X96758452Y-126876904D01*
X96758452Y-126876904D02*
X97139404Y-126876904D01*
X97139404Y-126876904D02*
X97317976Y-126972142D01*
X97317976Y-126972142D02*
X97389404Y-127162619D01*
X97389404Y-127162619D02*
X97365595Y-127353095D01*
X97365595Y-127353095D02*
X96389404Y-127543571D01*
X98139405Y-128019761D02*
X98222738Y-128115000D01*
X98222738Y-128115000D02*
X98115595Y-128210238D01*
X98115595Y-128210238D02*
X98032262Y-128115000D01*
X98032262Y-128115000D02*
X98139405Y-128019761D01*
X98139405Y-128019761D02*
X98115595Y-128210238D01*
X98270357Y-126972142D02*
X98353690Y-127067380D01*
X98353690Y-127067380D02*
X98246548Y-127162619D01*
X98246548Y-127162619D02*
X98163214Y-127067380D01*
X98163214Y-127067380D02*
X98270357Y-126972142D01*
X98270357Y-126972142D02*
X98246548Y-127162619D01*
X100591786Y-128210238D02*
X100841786Y-126210238D01*
X100841786Y-126210238D02*
X101317977Y-126210238D01*
X101317977Y-126210238D02*
X101591786Y-126305476D01*
X101591786Y-126305476D02*
X101758453Y-126495952D01*
X101758453Y-126495952D02*
X101829881Y-126686428D01*
X101829881Y-126686428D02*
X101877501Y-127067380D01*
X101877501Y-127067380D02*
X101841786Y-127353095D01*
X101841786Y-127353095D02*
X101698929Y-127734047D01*
X101698929Y-127734047D02*
X101579881Y-127924523D01*
X101579881Y-127924523D02*
X101365596Y-128115000D01*
X101365596Y-128115000D02*
X101067977Y-128210238D01*
X101067977Y-128210238D02*
X100591786Y-128210238D01*
X103448929Y-128210238D02*
X103579881Y-127162619D01*
X103579881Y-127162619D02*
X103508453Y-126972142D01*
X103508453Y-126972142D02*
X103329881Y-126876904D01*
X103329881Y-126876904D02*
X102948929Y-126876904D01*
X102948929Y-126876904D02*
X102746548Y-126972142D01*
X103460834Y-128115000D02*
X103258453Y-128210238D01*
X103258453Y-128210238D02*
X102782262Y-128210238D01*
X102782262Y-128210238D02*
X102603691Y-128115000D01*
X102603691Y-128115000D02*
X102532262Y-127924523D01*
X102532262Y-127924523D02*
X102556072Y-127734047D01*
X102556072Y-127734047D02*
X102675120Y-127543571D01*
X102675120Y-127543571D02*
X102877501Y-127448333D01*
X102877501Y-127448333D02*
X103353691Y-127448333D01*
X103353691Y-127448333D02*
X103556072Y-127353095D01*
X104282263Y-126876904D02*
X105044167Y-126876904D01*
X104651310Y-126210238D02*
X104437025Y-127924523D01*
X104437025Y-127924523D02*
X104508453Y-128115000D01*
X104508453Y-128115000D02*
X104687025Y-128210238D01*
X104687025Y-128210238D02*
X104877501Y-128210238D01*
X106401310Y-128210238D02*
X106532262Y-127162619D01*
X106532262Y-127162619D02*
X106460834Y-126972142D01*
X106460834Y-126972142D02*
X106282262Y-126876904D01*
X106282262Y-126876904D02*
X105901310Y-126876904D01*
X105901310Y-126876904D02*
X105698929Y-126972142D01*
X106413215Y-128115000D02*
X106210834Y-128210238D01*
X106210834Y-128210238D02*
X105734643Y-128210238D01*
X105734643Y-128210238D02*
X105556072Y-128115000D01*
X105556072Y-128115000D02*
X105484643Y-127924523D01*
X105484643Y-127924523D02*
X105508453Y-127734047D01*
X105508453Y-127734047D02*
X105627501Y-127543571D01*
X105627501Y-127543571D02*
X105829882Y-127448333D01*
X105829882Y-127448333D02*
X106306072Y-127448333D01*
X106306072Y-127448333D02*
X106508453Y-127353095D01*
X110044168Y-128019761D02*
X109937025Y-128115000D01*
X109937025Y-128115000D02*
X109639406Y-128210238D01*
X109639406Y-128210238D02*
X109448930Y-128210238D01*
X109448930Y-128210238D02*
X109175120Y-128115000D01*
X109175120Y-128115000D02*
X109008454Y-127924523D01*
X109008454Y-127924523D02*
X108937025Y-127734047D01*
X108937025Y-127734047D02*
X108889406Y-127353095D01*
X108889406Y-127353095D02*
X108925120Y-127067380D01*
X108925120Y-127067380D02*
X109067977Y-126686428D01*
X109067977Y-126686428D02*
X109187025Y-126495952D01*
X109187025Y-126495952D02*
X109401311Y-126305476D01*
X109401311Y-126305476D02*
X109698930Y-126210238D01*
X109698930Y-126210238D02*
X109889406Y-126210238D01*
X109889406Y-126210238D02*
X110163216Y-126305476D01*
X110163216Y-126305476D02*
X110246549Y-126400714D01*
X111163216Y-128210238D02*
X110984644Y-128115000D01*
X110984644Y-128115000D02*
X110901311Y-128019761D01*
X110901311Y-128019761D02*
X110829882Y-127829285D01*
X110829882Y-127829285D02*
X110901311Y-127257857D01*
X110901311Y-127257857D02*
X111020358Y-127067380D01*
X111020358Y-127067380D02*
X111127501Y-126972142D01*
X111127501Y-126972142D02*
X111329882Y-126876904D01*
X111329882Y-126876904D02*
X111615596Y-126876904D01*
X111615596Y-126876904D02*
X111794168Y-126972142D01*
X111794168Y-126972142D02*
X111877501Y-127067380D01*
X111877501Y-127067380D02*
X111948930Y-127257857D01*
X111948930Y-127257857D02*
X111877501Y-127829285D01*
X111877501Y-127829285D02*
X111758454Y-128019761D01*
X111758454Y-128019761D02*
X111651311Y-128115000D01*
X111651311Y-128115000D02*
X111448930Y-128210238D01*
X111448930Y-128210238D02*
X111163216Y-128210238D01*
X112972740Y-128210238D02*
X112794168Y-128115000D01*
X112794168Y-128115000D02*
X112722740Y-127924523D01*
X112722740Y-127924523D02*
X112937025Y-126210238D01*
X114020359Y-128210238D02*
X113841787Y-128115000D01*
X113841787Y-128115000D02*
X113770359Y-127924523D01*
X113770359Y-127924523D02*
X113984644Y-126210238D01*
X115556073Y-128115000D02*
X115353692Y-128210238D01*
X115353692Y-128210238D02*
X114972739Y-128210238D01*
X114972739Y-128210238D02*
X114794168Y-128115000D01*
X114794168Y-128115000D02*
X114722739Y-127924523D01*
X114722739Y-127924523D02*
X114817978Y-127162619D01*
X114817978Y-127162619D02*
X114937025Y-126972142D01*
X114937025Y-126972142D02*
X115139406Y-126876904D01*
X115139406Y-126876904D02*
X115520358Y-126876904D01*
X115520358Y-126876904D02*
X115698930Y-126972142D01*
X115698930Y-126972142D02*
X115770358Y-127162619D01*
X115770358Y-127162619D02*
X115746549Y-127353095D01*
X115746549Y-127353095D02*
X114770358Y-127543571D01*
X117365597Y-128115000D02*
X117163216Y-128210238D01*
X117163216Y-128210238D02*
X116782264Y-128210238D01*
X116782264Y-128210238D02*
X116603692Y-128115000D01*
X116603692Y-128115000D02*
X116520359Y-128019761D01*
X116520359Y-128019761D02*
X116448930Y-127829285D01*
X116448930Y-127829285D02*
X116520359Y-127257857D01*
X116520359Y-127257857D02*
X116639406Y-127067380D01*
X116639406Y-127067380D02*
X116746549Y-126972142D01*
X116746549Y-126972142D02*
X116948930Y-126876904D01*
X116948930Y-126876904D02*
X117329883Y-126876904D01*
X117329883Y-126876904D02*
X117508454Y-126972142D01*
X118091788Y-126876904D02*
X118853692Y-126876904D01*
X118460835Y-126210238D02*
X118246550Y-127924523D01*
X118246550Y-127924523D02*
X118317978Y-128115000D01*
X118317978Y-128115000D02*
X118496550Y-128210238D01*
X118496550Y-128210238D02*
X118687026Y-128210238D01*
X119353692Y-128210238D02*
X119520359Y-126876904D01*
X119603692Y-126210238D02*
X119496549Y-126305476D01*
X119496549Y-126305476D02*
X119579883Y-126400714D01*
X119579883Y-126400714D02*
X119687026Y-126305476D01*
X119687026Y-126305476D02*
X119603692Y-126210238D01*
X119603692Y-126210238D02*
X119579883Y-126400714D01*
X120591788Y-128210238D02*
X120413216Y-128115000D01*
X120413216Y-128115000D02*
X120329883Y-128019761D01*
X120329883Y-128019761D02*
X120258454Y-127829285D01*
X120258454Y-127829285D02*
X120329883Y-127257857D01*
X120329883Y-127257857D02*
X120448930Y-127067380D01*
X120448930Y-127067380D02*
X120556073Y-126972142D01*
X120556073Y-126972142D02*
X120758454Y-126876904D01*
X120758454Y-126876904D02*
X121044168Y-126876904D01*
X121044168Y-126876904D02*
X121222740Y-126972142D01*
X121222740Y-126972142D02*
X121306073Y-127067380D01*
X121306073Y-127067380D02*
X121377502Y-127257857D01*
X121377502Y-127257857D02*
X121306073Y-127829285D01*
X121306073Y-127829285D02*
X121187026Y-128019761D01*
X121187026Y-128019761D02*
X121079883Y-128115000D01*
X121079883Y-128115000D02*
X120877502Y-128210238D01*
X120877502Y-128210238D02*
X120591788Y-128210238D01*
X122282264Y-126876904D02*
X122115597Y-128210238D01*
X122258454Y-127067380D02*
X122365597Y-126972142D01*
X122365597Y-126972142D02*
X122567978Y-126876904D01*
X122567978Y-126876904D02*
X122853692Y-126876904D01*
X122853692Y-126876904D02*
X123032264Y-126972142D01*
X123032264Y-126972142D02*
X123103692Y-127162619D01*
X123103692Y-127162619D02*
X122972740Y-128210238D01*
X125448931Y-128210238D02*
X125698931Y-126210238D01*
X125698931Y-126210238D02*
X126460836Y-126210238D01*
X126460836Y-126210238D02*
X126639407Y-126305476D01*
X126639407Y-126305476D02*
X126722741Y-126400714D01*
X126722741Y-126400714D02*
X126794169Y-126591190D01*
X126794169Y-126591190D02*
X126758455Y-126876904D01*
X126758455Y-126876904D02*
X126639407Y-127067380D01*
X126639407Y-127067380D02*
X126532265Y-127162619D01*
X126532265Y-127162619D02*
X126329884Y-127257857D01*
X126329884Y-127257857D02*
X125567979Y-127257857D01*
X127448931Y-128210238D02*
X127615598Y-126876904D01*
X127567979Y-127257857D02*
X127687026Y-127067380D01*
X127687026Y-127067380D02*
X127794169Y-126972142D01*
X127794169Y-126972142D02*
X127996550Y-126876904D01*
X127996550Y-126876904D02*
X128187026Y-126876904D01*
X128972741Y-128210238D02*
X128794169Y-128115000D01*
X128794169Y-128115000D02*
X128710836Y-128019761D01*
X128710836Y-128019761D02*
X128639407Y-127829285D01*
X128639407Y-127829285D02*
X128710836Y-127257857D01*
X128710836Y-127257857D02*
X128829883Y-127067380D01*
X128829883Y-127067380D02*
X128937026Y-126972142D01*
X128937026Y-126972142D02*
X129139407Y-126876904D01*
X129139407Y-126876904D02*
X129425121Y-126876904D01*
X129425121Y-126876904D02*
X129603693Y-126972142D01*
X129603693Y-126972142D02*
X129687026Y-127067380D01*
X129687026Y-127067380D02*
X129758455Y-127257857D01*
X129758455Y-127257857D02*
X129687026Y-127829285D01*
X129687026Y-127829285D02*
X129567979Y-128019761D01*
X129567979Y-128019761D02*
X129460836Y-128115000D01*
X129460836Y-128115000D02*
X129258455Y-128210238D01*
X129258455Y-128210238D02*
X128972741Y-128210238D01*
X130377503Y-126876904D02*
X131139407Y-126876904D01*
X130746550Y-126210238D02*
X130532265Y-127924523D01*
X130532265Y-127924523D02*
X130603693Y-128115000D01*
X130603693Y-128115000D02*
X130782265Y-128210238D01*
X130782265Y-128210238D02*
X130972741Y-128210238D01*
X131925122Y-128210238D02*
X131746550Y-128115000D01*
X131746550Y-128115000D02*
X131663217Y-128019761D01*
X131663217Y-128019761D02*
X131591788Y-127829285D01*
X131591788Y-127829285D02*
X131663217Y-127257857D01*
X131663217Y-127257857D02*
X131782264Y-127067380D01*
X131782264Y-127067380D02*
X131889407Y-126972142D01*
X131889407Y-126972142D02*
X132091788Y-126876904D01*
X132091788Y-126876904D02*
X132377502Y-126876904D01*
X132377502Y-126876904D02*
X132556074Y-126972142D01*
X132556074Y-126972142D02*
X132639407Y-127067380D01*
X132639407Y-127067380D02*
X132710836Y-127257857D01*
X132710836Y-127257857D02*
X132639407Y-127829285D01*
X132639407Y-127829285D02*
X132520360Y-128019761D01*
X132520360Y-128019761D02*
X132413217Y-128115000D01*
X132413217Y-128115000D02*
X132210836Y-128210238D01*
X132210836Y-128210238D02*
X131925122Y-128210238D01*
X133329884Y-126876904D02*
X134091788Y-126876904D01*
X133698931Y-126210238D02*
X133484646Y-127924523D01*
X133484646Y-127924523D02*
X133556074Y-128115000D01*
X133556074Y-128115000D02*
X133734646Y-128210238D01*
X133734646Y-128210238D02*
X133925122Y-128210238D01*
X134567979Y-126876904D02*
X134877503Y-128210238D01*
X135520360Y-126876904D02*
X134877503Y-128210238D01*
X134877503Y-128210238D02*
X134627503Y-128686428D01*
X134627503Y-128686428D02*
X134520360Y-128781666D01*
X134520360Y-128781666D02*
X134317979Y-128876904D01*
X136282265Y-126876904D02*
X136032265Y-128876904D01*
X136270360Y-126972142D02*
X136472741Y-126876904D01*
X136472741Y-126876904D02*
X136853693Y-126876904D01*
X136853693Y-126876904D02*
X137032265Y-126972142D01*
X137032265Y-126972142D02*
X137115598Y-127067380D01*
X137115598Y-127067380D02*
X137187027Y-127257857D01*
X137187027Y-127257857D02*
X137115598Y-127829285D01*
X137115598Y-127829285D02*
X136996551Y-128019761D01*
X136996551Y-128019761D02*
X136889408Y-128115000D01*
X136889408Y-128115000D02*
X136687027Y-128210238D01*
X136687027Y-128210238D02*
X136306074Y-128210238D01*
X136306074Y-128210238D02*
X136127503Y-128115000D01*
X138698932Y-128115000D02*
X138496551Y-128210238D01*
X138496551Y-128210238D02*
X138115598Y-128210238D01*
X138115598Y-128210238D02*
X137937027Y-128115000D01*
X137937027Y-128115000D02*
X137865598Y-127924523D01*
X137865598Y-127924523D02*
X137960837Y-127162619D01*
X137960837Y-127162619D02*
X138079884Y-126972142D01*
X138079884Y-126972142D02*
X138282265Y-126876904D01*
X138282265Y-126876904D02*
X138663217Y-126876904D01*
X138663217Y-126876904D02*
X138841789Y-126972142D01*
X138841789Y-126972142D02*
X138913217Y-127162619D01*
X138913217Y-127162619D02*
X138889408Y-127353095D01*
X138889408Y-127353095D02*
X137913217Y-127543571D01*
D10*
D11*
X91963026Y-123606214D02*
X91463026Y-123606214D01*
X91463026Y-124391928D02*
X91463026Y-122891928D01*
X91463026Y-122891928D02*
X92177312Y-122891928D01*
X92748740Y-124391928D02*
X92748740Y-123391928D01*
X92748740Y-122891928D02*
X92677312Y-122963357D01*
X92677312Y-122963357D02*
X92748740Y-123034785D01*
X92748740Y-123034785D02*
X92820169Y-122963357D01*
X92820169Y-122963357D02*
X92748740Y-122891928D01*
X92748740Y-122891928D02*
X92748740Y-123034785D01*
X93677312Y-124391928D02*
X93534455Y-124320500D01*
X93534455Y-124320500D02*
X93463026Y-124177642D01*
X93463026Y-124177642D02*
X93463026Y-122891928D01*
X94820169Y-124320500D02*
X94677312Y-124391928D01*
X94677312Y-124391928D02*
X94391598Y-124391928D01*
X94391598Y-124391928D02*
X94248740Y-124320500D01*
X94248740Y-124320500D02*
X94177312Y-124177642D01*
X94177312Y-124177642D02*
X94177312Y-123606214D01*
X94177312Y-123606214D02*
X94248740Y-123463357D01*
X94248740Y-123463357D02*
X94391598Y-123391928D01*
X94391598Y-123391928D02*
X94677312Y-123391928D01*
X94677312Y-123391928D02*
X94820169Y-123463357D01*
X94820169Y-123463357D02*
X94891598Y-123606214D01*
X94891598Y-123606214D02*
X94891598Y-123749071D01*
X94891598Y-123749071D02*
X94177312Y-123891928D01*
X95534454Y-124249071D02*
X95605883Y-124320500D01*
X95605883Y-124320500D02*
X95534454Y-124391928D01*
X95534454Y-124391928D02*
X95463026Y-124320500D01*
X95463026Y-124320500D02*
X95534454Y-124249071D01*
X95534454Y-124249071D02*
X95534454Y-124391928D01*
X95534454Y-123463357D02*
X95605883Y-123534785D01*
X95605883Y-123534785D02*
X95534454Y-123606214D01*
X95534454Y-123606214D02*
X95463026Y-123534785D01*
X95463026Y-123534785D02*
X95534454Y-123463357D01*
X95534454Y-123463357D02*
X95534454Y-123606214D01*
X97391597Y-124391928D02*
X97391597Y-122891928D01*
X97391597Y-122891928D02*
X97748740Y-122891928D01*
X97748740Y-122891928D02*
X97963026Y-122963357D01*
X97963026Y-122963357D02*
X98105883Y-123106214D01*
X98105883Y-123106214D02*
X98177312Y-123249071D01*
X98177312Y-123249071D02*
X98248740Y-123534785D01*
X98248740Y-123534785D02*
X98248740Y-123749071D01*
X98248740Y-123749071D02*
X98177312Y-124034785D01*
X98177312Y-124034785D02*
X98105883Y-124177642D01*
X98105883Y-124177642D02*
X97963026Y-124320500D01*
X97963026Y-124320500D02*
X97748740Y-124391928D01*
X97748740Y-124391928D02*
X97391597Y-124391928D01*
X99534455Y-124391928D02*
X99534455Y-123606214D01*
X99534455Y-123606214D02*
X99463026Y-123463357D01*
X99463026Y-123463357D02*
X99320169Y-123391928D01*
X99320169Y-123391928D02*
X99034455Y-123391928D01*
X99034455Y-123391928D02*
X98891597Y-123463357D01*
X99534455Y-124320500D02*
X99391597Y-124391928D01*
X99391597Y-124391928D02*
X99034455Y-124391928D01*
X99034455Y-124391928D02*
X98891597Y-124320500D01*
X98891597Y-124320500D02*
X98820169Y-124177642D01*
X98820169Y-124177642D02*
X98820169Y-124034785D01*
X98820169Y-124034785D02*
X98891597Y-123891928D01*
X98891597Y-123891928D02*
X99034455Y-123820500D01*
X99034455Y-123820500D02*
X99391597Y-123820500D01*
X99391597Y-123820500D02*
X99534455Y-123749071D01*
X100034455Y-123391928D02*
X100605883Y-123391928D01*
X100248740Y-122891928D02*
X100248740Y-124177642D01*
X100248740Y-124177642D02*
X100320169Y-124320500D01*
X100320169Y-124320500D02*
X100463026Y-124391928D01*
X100463026Y-124391928D02*
X100605883Y-124391928D01*
X101748741Y-124391928D02*
X101748741Y-123606214D01*
X101748741Y-123606214D02*
X101677312Y-123463357D01*
X101677312Y-123463357D02*
X101534455Y-123391928D01*
X101534455Y-123391928D02*
X101248741Y-123391928D01*
X101248741Y-123391928D02*
X101105883Y-123463357D01*
X101748741Y-124320500D02*
X101605883Y-124391928D01*
X101605883Y-124391928D02*
X101248741Y-124391928D01*
X101248741Y-124391928D02*
X101105883Y-124320500D01*
X101105883Y-124320500D02*
X101034455Y-124177642D01*
X101034455Y-124177642D02*
X101034455Y-124034785D01*
X101034455Y-124034785D02*
X101105883Y-123891928D01*
X101105883Y-123891928D02*
X101248741Y-123820500D01*
X101248741Y-123820500D02*
X101605883Y-123820500D01*
X101605883Y-123820500D02*
X101748741Y-123749071D01*
X103320169Y-124249071D02*
X103248741Y-124320500D01*
X103248741Y-124320500D02*
X103034455Y-124391928D01*
X103034455Y-124391928D02*
X102891598Y-124391928D01*
X102891598Y-124391928D02*
X102677312Y-124320500D01*
X102677312Y-124320500D02*
X102534455Y-124177642D01*
X102534455Y-124177642D02*
X102463026Y-124034785D01*
X102463026Y-124034785D02*
X102391598Y-123749071D01*
X102391598Y-123749071D02*
X102391598Y-123534785D01*
X102391598Y-123534785D02*
X102463026Y-123249071D01*
X102463026Y-123249071D02*
X102534455Y-123106214D01*
X102534455Y-123106214D02*
X102677312Y-122963357D01*
X102677312Y-122963357D02*
X102891598Y-122891928D01*
X102891598Y-122891928D02*
X103034455Y-122891928D01*
X103034455Y-122891928D02*
X103248741Y-122963357D01*
X103248741Y-122963357D02*
X103320169Y-123034785D01*
X104177312Y-124391928D02*
X104034455Y-124320500D01*
X104034455Y-124320500D02*
X103963026Y-124249071D01*
X103963026Y-124249071D02*
X103891598Y-124106214D01*
X103891598Y-124106214D02*
X103891598Y-123677642D01*
X103891598Y-123677642D02*
X103963026Y-123534785D01*
X103963026Y-123534785D02*
X104034455Y-123463357D01*
X104034455Y-123463357D02*
X104177312Y-123391928D01*
X104177312Y-123391928D02*
X104391598Y-123391928D01*
X104391598Y-123391928D02*
X104534455Y-123463357D01*
X104534455Y-123463357D02*
X104605884Y-123534785D01*
X104605884Y-123534785D02*
X104677312Y-123677642D01*
X104677312Y-123677642D02*
X104677312Y-124106214D01*
X104677312Y-124106214D02*
X104605884Y-124249071D01*
X104605884Y-124249071D02*
X104534455Y-124320500D01*
X104534455Y-124320500D02*
X104391598Y-124391928D01*
X104391598Y-124391928D02*
X104177312Y-124391928D01*
X105534455Y-124391928D02*
X105391598Y-124320500D01*
X105391598Y-124320500D02*
X105320169Y-124177642D01*
X105320169Y-124177642D02*
X105320169Y-122891928D01*
X106320169Y-124391928D02*
X106177312Y-124320500D01*
X106177312Y-124320500D02*
X106105883Y-124177642D01*
X106105883Y-124177642D02*
X106105883Y-122891928D01*
X107463026Y-124320500D02*
X107320169Y-124391928D01*
X107320169Y-124391928D02*
X107034455Y-124391928D01*
X107034455Y-124391928D02*
X106891597Y-124320500D01*
X106891597Y-124320500D02*
X106820169Y-124177642D01*
X106820169Y-124177642D02*
X106820169Y-123606214D01*
X106820169Y-123606214D02*
X106891597Y-123463357D01*
X106891597Y-123463357D02*
X107034455Y-123391928D01*
X107034455Y-123391928D02*
X107320169Y-123391928D01*
X107320169Y-123391928D02*
X107463026Y-123463357D01*
X107463026Y-123463357D02*
X107534455Y-123606214D01*
X107534455Y-123606214D02*
X107534455Y-123749071D01*
X107534455Y-123749071D02*
X106820169Y-123891928D01*
X108820169Y-124320500D02*
X108677311Y-124391928D01*
X108677311Y-124391928D02*
X108391597Y-124391928D01*
X108391597Y-124391928D02*
X108248740Y-124320500D01*
X108248740Y-124320500D02*
X108177311Y-124249071D01*
X108177311Y-124249071D02*
X108105883Y-124106214D01*
X108105883Y-124106214D02*
X108105883Y-123677642D01*
X108105883Y-123677642D02*
X108177311Y-123534785D01*
X108177311Y-123534785D02*
X108248740Y-123463357D01*
X108248740Y-123463357D02*
X108391597Y-123391928D01*
X108391597Y-123391928D02*
X108677311Y-123391928D01*
X108677311Y-123391928D02*
X108820169Y-123463357D01*
X109248740Y-123391928D02*
X109820168Y-123391928D01*
X109463025Y-122891928D02*
X109463025Y-124177642D01*
X109463025Y-124177642D02*
X109534454Y-124320500D01*
X109534454Y-124320500D02*
X109677311Y-124391928D01*
X109677311Y-124391928D02*
X109820168Y-124391928D01*
X110320168Y-124391928D02*
X110320168Y-123391928D01*
X110320168Y-122891928D02*
X110248740Y-122963357D01*
X110248740Y-122963357D02*
X110320168Y-123034785D01*
X110320168Y-123034785D02*
X110391597Y-122963357D01*
X110391597Y-122963357D02*
X110320168Y-122891928D01*
X110320168Y-122891928D02*
X110320168Y-123034785D01*
X111248740Y-124391928D02*
X111105883Y-124320500D01*
X111105883Y-124320500D02*
X111034454Y-124249071D01*
X111034454Y-124249071D02*
X110963026Y-124106214D01*
X110963026Y-124106214D02*
X110963026Y-123677642D01*
X110963026Y-123677642D02*
X111034454Y-123534785D01*
X111034454Y-123534785D02*
X111105883Y-123463357D01*
X111105883Y-123463357D02*
X111248740Y-123391928D01*
X111248740Y-123391928D02*
X111463026Y-123391928D01*
X111463026Y-123391928D02*
X111605883Y-123463357D01*
X111605883Y-123463357D02*
X111677312Y-123534785D01*
X111677312Y-123534785D02*
X111748740Y-123677642D01*
X111748740Y-123677642D02*
X111748740Y-124106214D01*
X111748740Y-124106214D02*
X111677312Y-124249071D01*
X111677312Y-124249071D02*
X111605883Y-124320500D01*
X111605883Y-124320500D02*
X111463026Y-124391928D01*
X111463026Y-124391928D02*
X111248740Y-124391928D01*
X112391597Y-123391928D02*
X112391597Y-124391928D01*
X112391597Y-123534785D02*
X112463026Y-123463357D01*
X112463026Y-123463357D02*
X112605883Y-123391928D01*
X112605883Y-123391928D02*
X112820169Y-123391928D01*
X112820169Y-123391928D02*
X112963026Y-123463357D01*
X112963026Y-123463357D02*
X113034455Y-123606214D01*
X113034455Y-123606214D02*
X113034455Y-124391928D01*
X113748740Y-124391928D02*
X113748740Y-122891928D01*
X113748740Y-122891928D02*
X114320169Y-122891928D01*
X114320169Y-122891928D02*
X114463026Y-122963357D01*
X114463026Y-122963357D02*
X114534455Y-123034785D01*
X114534455Y-123034785D02*
X114605883Y-123177642D01*
X114605883Y-123177642D02*
X114605883Y-123391928D01*
X114605883Y-123391928D02*
X114534455Y-123534785D01*
X114534455Y-123534785D02*
X114463026Y-123606214D01*
X114463026Y-123606214D02*
X114320169Y-123677642D01*
X114320169Y-123677642D02*
X113748740Y-123677642D01*
X115248740Y-124391928D02*
X115248740Y-123391928D01*
X115248740Y-123677642D02*
X115320169Y-123534785D01*
X115320169Y-123534785D02*
X115391598Y-123463357D01*
X115391598Y-123463357D02*
X115534455Y-123391928D01*
X115534455Y-123391928D02*
X115677312Y-123391928D01*
X116391597Y-124391928D02*
X116248740Y-124320500D01*
X116248740Y-124320500D02*
X116177311Y-124249071D01*
X116177311Y-124249071D02*
X116105883Y-124106214D01*
X116105883Y-124106214D02*
X116105883Y-123677642D01*
X116105883Y-123677642D02*
X116177311Y-123534785D01*
X116177311Y-123534785D02*
X116248740Y-123463357D01*
X116248740Y-123463357D02*
X116391597Y-123391928D01*
X116391597Y-123391928D02*
X116605883Y-123391928D01*
X116605883Y-123391928D02*
X116748740Y-123463357D01*
X116748740Y-123463357D02*
X116820169Y-123534785D01*
X116820169Y-123534785D02*
X116891597Y-123677642D01*
X116891597Y-123677642D02*
X116891597Y-124106214D01*
X116891597Y-124106214D02*
X116820169Y-124249071D01*
X116820169Y-124249071D02*
X116748740Y-124320500D01*
X116748740Y-124320500D02*
X116605883Y-124391928D01*
X116605883Y-124391928D02*
X116391597Y-124391928D01*
X117320169Y-123391928D02*
X117891597Y-123391928D01*
X117534454Y-122891928D02*
X117534454Y-124177642D01*
X117534454Y-124177642D02*
X117605883Y-124320500D01*
X117605883Y-124320500D02*
X117748740Y-124391928D01*
X117748740Y-124391928D02*
X117891597Y-124391928D01*
X118605883Y-124391928D02*
X118463026Y-124320500D01*
X118463026Y-124320500D02*
X118391597Y-124249071D01*
X118391597Y-124249071D02*
X118320169Y-124106214D01*
X118320169Y-124106214D02*
X118320169Y-123677642D01*
X118320169Y-123677642D02*
X118391597Y-123534785D01*
X118391597Y-123534785D02*
X118463026Y-123463357D01*
X118463026Y-123463357D02*
X118605883Y-123391928D01*
X118605883Y-123391928D02*
X118820169Y-123391928D01*
X118820169Y-123391928D02*
X118963026Y-123463357D01*
X118963026Y-123463357D02*
X119034455Y-123534785D01*
X119034455Y-123534785D02*
X119105883Y-123677642D01*
X119105883Y-123677642D02*
X119105883Y-124106214D01*
X119105883Y-124106214D02*
X119034455Y-124249071D01*
X119034455Y-124249071D02*
X118963026Y-124320500D01*
X118963026Y-124320500D02*
X118820169Y-124391928D01*
X118820169Y-124391928D02*
X118605883Y-124391928D01*
X119534455Y-123391928D02*
X120105883Y-123391928D01*
X119748740Y-122891928D02*
X119748740Y-124177642D01*
X119748740Y-124177642D02*
X119820169Y-124320500D01*
X119820169Y-124320500D02*
X119963026Y-124391928D01*
X119963026Y-124391928D02*
X120105883Y-124391928D01*
X120463026Y-123391928D02*
X120820169Y-124391928D01*
X121177312Y-123391928D02*
X120820169Y-124391928D01*
X120820169Y-124391928D02*
X120677312Y-124749071D01*
X120677312Y-124749071D02*
X120605883Y-124820500D01*
X120605883Y-124820500D02*
X120463026Y-124891928D01*
X121748740Y-123391928D02*
X121748740Y-124891928D01*
X121748740Y-123463357D02*
X121891598Y-123391928D01*
X121891598Y-123391928D02*
X122177312Y-123391928D01*
X122177312Y-123391928D02*
X122320169Y-123463357D01*
X122320169Y-123463357D02*
X122391598Y-123534785D01*
X122391598Y-123534785D02*
X122463026Y-123677642D01*
X122463026Y-123677642D02*
X122463026Y-124106214D01*
X122463026Y-124106214D02*
X122391598Y-124249071D01*
X122391598Y-124249071D02*
X122320169Y-124320500D01*
X122320169Y-124320500D02*
X122177312Y-124391928D01*
X122177312Y-124391928D02*
X121891598Y-124391928D01*
X121891598Y-124391928D02*
X121748740Y-124320500D01*
X123677312Y-124320500D02*
X123534455Y-124391928D01*
X123534455Y-124391928D02*
X123248741Y-124391928D01*
X123248741Y-124391928D02*
X123105883Y-124320500D01*
X123105883Y-124320500D02*
X123034455Y-124177642D01*
X123034455Y-124177642D02*
X123034455Y-123606214D01*
X123034455Y-123606214D02*
X123105883Y-123463357D01*
X123105883Y-123463357D02*
X123248741Y-123391928D01*
X123248741Y-123391928D02*
X123534455Y-123391928D01*
X123534455Y-123391928D02*
X123677312Y-123463357D01*
X123677312Y-123463357D02*
X123748741Y-123606214D01*
X123748741Y-123606214D02*
X123748741Y-123749071D01*
X123748741Y-123749071D02*
X123034455Y-123891928D01*
X124391597Y-124249071D02*
X124463026Y-124320500D01*
X124463026Y-124320500D02*
X124391597Y-124391928D01*
X124391597Y-124391928D02*
X124320169Y-124320500D01*
X124320169Y-124320500D02*
X124391597Y-124249071D01*
X124391597Y-124249071D02*
X124391597Y-124391928D01*
X125105883Y-124391928D02*
X125105883Y-122891928D01*
X125248741Y-123820500D02*
X125677312Y-124391928D01*
X125677312Y-123391928D02*
X125105883Y-123963357D01*
X126320169Y-124391928D02*
X126320169Y-123391928D01*
X126320169Y-122891928D02*
X126248741Y-122963357D01*
X126248741Y-122963357D02*
X126320169Y-123034785D01*
X126320169Y-123034785D02*
X126391598Y-122963357D01*
X126391598Y-122963357D02*
X126320169Y-122891928D01*
X126320169Y-122891928D02*
X126320169Y-123034785D01*
X127677313Y-124320500D02*
X127534455Y-124391928D01*
X127534455Y-124391928D02*
X127248741Y-124391928D01*
X127248741Y-124391928D02*
X127105884Y-124320500D01*
X127105884Y-124320500D02*
X127034455Y-124249071D01*
X127034455Y-124249071D02*
X126963027Y-124106214D01*
X126963027Y-124106214D02*
X126963027Y-123677642D01*
X126963027Y-123677642D02*
X127034455Y-123534785D01*
X127034455Y-123534785D02*
X127105884Y-123463357D01*
X127105884Y-123463357D02*
X127248741Y-123391928D01*
X127248741Y-123391928D02*
X127534455Y-123391928D01*
X127534455Y-123391928D02*
X127677313Y-123463357D01*
X128963027Y-124391928D02*
X128963027Y-123606214D01*
X128963027Y-123606214D02*
X128891598Y-123463357D01*
X128891598Y-123463357D02*
X128748741Y-123391928D01*
X128748741Y-123391928D02*
X128463027Y-123391928D01*
X128463027Y-123391928D02*
X128320169Y-123463357D01*
X128963027Y-124320500D02*
X128820169Y-124391928D01*
X128820169Y-124391928D02*
X128463027Y-124391928D01*
X128463027Y-124391928D02*
X128320169Y-124320500D01*
X128320169Y-124320500D02*
X128248741Y-124177642D01*
X128248741Y-124177642D02*
X128248741Y-124034785D01*
X128248741Y-124034785D02*
X128320169Y-123891928D01*
X128320169Y-123891928D02*
X128463027Y-123820500D01*
X128463027Y-123820500D02*
X128820169Y-123820500D01*
X128820169Y-123820500D02*
X128963027Y-123749071D01*
X130320170Y-124391928D02*
X130320170Y-122891928D01*
X130320170Y-124320500D02*
X130177312Y-124391928D01*
X130177312Y-124391928D02*
X129891598Y-124391928D01*
X129891598Y-124391928D02*
X129748741Y-124320500D01*
X129748741Y-124320500D02*
X129677312Y-124249071D01*
X129677312Y-124249071D02*
X129605884Y-124106214D01*
X129605884Y-124106214D02*
X129605884Y-123677642D01*
X129605884Y-123677642D02*
X129677312Y-123534785D01*
X129677312Y-123534785D02*
X129748741Y-123463357D01*
X129748741Y-123463357D02*
X129891598Y-123391928D01*
X129891598Y-123391928D02*
X130177312Y-123391928D01*
X130177312Y-123391928D02*
X130320170Y-123463357D01*
X130677313Y-124534785D02*
X131820170Y-124534785D01*
X132177312Y-123391928D02*
X132177312Y-124891928D01*
X132177312Y-123463357D02*
X132320170Y-123391928D01*
X132320170Y-123391928D02*
X132605884Y-123391928D01*
X132605884Y-123391928D02*
X132748741Y-123463357D01*
X132748741Y-123463357D02*
X132820170Y-123534785D01*
X132820170Y-123534785D02*
X132891598Y-123677642D01*
X132891598Y-123677642D02*
X132891598Y-124106214D01*
X132891598Y-124106214D02*
X132820170Y-124249071D01*
X132820170Y-124249071D02*
X132748741Y-124320500D01*
X132748741Y-124320500D02*
X132605884Y-124391928D01*
X132605884Y-124391928D02*
X132320170Y-124391928D01*
X132320170Y-124391928D02*
X132177312Y-124320500D01*
X134177313Y-124320500D02*
X134034455Y-124391928D01*
X134034455Y-124391928D02*
X133748741Y-124391928D01*
X133748741Y-124391928D02*
X133605884Y-124320500D01*
X133605884Y-124320500D02*
X133534455Y-124249071D01*
X133534455Y-124249071D02*
X133463027Y-124106214D01*
X133463027Y-124106214D02*
X133463027Y-123677642D01*
X133463027Y-123677642D02*
X133534455Y-123534785D01*
X133534455Y-123534785D02*
X133605884Y-123463357D01*
X133605884Y-123463357D02*
X133748741Y-123391928D01*
X133748741Y-123391928D02*
X134034455Y-123391928D01*
X134034455Y-123391928D02*
X134177313Y-123463357D01*
X134820169Y-124391928D02*
X134820169Y-122891928D01*
X134820169Y-123463357D02*
X134963027Y-123391928D01*
X134963027Y-123391928D02*
X135248741Y-123391928D01*
X135248741Y-123391928D02*
X135391598Y-123463357D01*
X135391598Y-123463357D02*
X135463027Y-123534785D01*
X135463027Y-123534785D02*
X135534455Y-123677642D01*
X135534455Y-123677642D02*
X135534455Y-124106214D01*
X135534455Y-124106214D02*
X135463027Y-124249071D01*
X135463027Y-124249071D02*
X135391598Y-124320500D01*
X135391598Y-124320500D02*
X135248741Y-124391928D01*
X135248741Y-124391928D02*
X134963027Y-124391928D01*
X134963027Y-124391928D02*
X134820169Y-124320500D01*
D10*
D11*
X90007200Y-119505800D02*
X198007200Y-119505800D01*
D10*
D11*
X91391598Y-121620500D02*
X91605884Y-121691928D01*
X91605884Y-121691928D02*
X91963026Y-121691928D01*
X91963026Y-121691928D02*
X92105884Y-121620500D01*
X92105884Y-121620500D02*
X92177312Y-121549071D01*
X92177312Y-121549071D02*
X92248741Y-121406214D01*
X92248741Y-121406214D02*
X92248741Y-121263357D01*
X92248741Y-121263357D02*
X92177312Y-121120500D01*
X92177312Y-121120500D02*
X92105884Y-121049071D01*
X92105884Y-121049071D02*
X91963026Y-120977642D01*
X91963026Y-120977642D02*
X91677312Y-120906214D01*
X91677312Y-120906214D02*
X91534455Y-120834785D01*
X91534455Y-120834785D02*
X91463026Y-120763357D01*
X91463026Y-120763357D02*
X91391598Y-120620500D01*
X91391598Y-120620500D02*
X91391598Y-120477642D01*
X91391598Y-120477642D02*
X91463026Y-120334785D01*
X91463026Y-120334785D02*
X91534455Y-120263357D01*
X91534455Y-120263357D02*
X91677312Y-120191928D01*
X91677312Y-120191928D02*
X92034455Y-120191928D01*
X92034455Y-120191928D02*
X92248741Y-120263357D01*
X92891597Y-121691928D02*
X92891597Y-120191928D01*
X93534455Y-121691928D02*
X93534455Y-120906214D01*
X93534455Y-120906214D02*
X93463026Y-120763357D01*
X93463026Y-120763357D02*
X93320169Y-120691928D01*
X93320169Y-120691928D02*
X93105883Y-120691928D01*
X93105883Y-120691928D02*
X92963026Y-120763357D01*
X92963026Y-120763357D02*
X92891597Y-120834785D01*
X94820169Y-121620500D02*
X94677312Y-121691928D01*
X94677312Y-121691928D02*
X94391598Y-121691928D01*
X94391598Y-121691928D02*
X94248740Y-121620500D01*
X94248740Y-121620500D02*
X94177312Y-121477642D01*
X94177312Y-121477642D02*
X94177312Y-120906214D01*
X94177312Y-120906214D02*
X94248740Y-120763357D01*
X94248740Y-120763357D02*
X94391598Y-120691928D01*
X94391598Y-120691928D02*
X94677312Y-120691928D01*
X94677312Y-120691928D02*
X94820169Y-120763357D01*
X94820169Y-120763357D02*
X94891598Y-120906214D01*
X94891598Y-120906214D02*
X94891598Y-121049071D01*
X94891598Y-121049071D02*
X94177312Y-121191928D01*
X96105883Y-121620500D02*
X95963026Y-121691928D01*
X95963026Y-121691928D02*
X95677312Y-121691928D01*
X95677312Y-121691928D02*
X95534454Y-121620500D01*
X95534454Y-121620500D02*
X95463026Y-121477642D01*
X95463026Y-121477642D02*
X95463026Y-120906214D01*
X95463026Y-120906214D02*
X95534454Y-120763357D01*
X95534454Y-120763357D02*
X95677312Y-120691928D01*
X95677312Y-120691928D02*
X95963026Y-120691928D01*
X95963026Y-120691928D02*
X96105883Y-120763357D01*
X96105883Y-120763357D02*
X96177312Y-120906214D01*
X96177312Y-120906214D02*
X96177312Y-121049071D01*
X96177312Y-121049071D02*
X95463026Y-121191928D01*
X96605883Y-120691928D02*
X97177311Y-120691928D01*
X96820168Y-120191928D02*
X96820168Y-121477642D01*
X96820168Y-121477642D02*
X96891597Y-121620500D01*
X96891597Y-121620500D02*
X97034454Y-121691928D01*
X97034454Y-121691928D02*
X97177311Y-121691928D01*
X97677311Y-121549071D02*
X97748740Y-121620500D01*
X97748740Y-121620500D02*
X97677311Y-121691928D01*
X97677311Y-121691928D02*
X97605883Y-121620500D01*
X97605883Y-121620500D02*
X97677311Y-121549071D01*
X97677311Y-121549071D02*
X97677311Y-121691928D01*
X97677311Y-120763357D02*
X97748740Y-120834785D01*
X97748740Y-120834785D02*
X97677311Y-120906214D01*
X97677311Y-120906214D02*
X97605883Y-120834785D01*
X97605883Y-120834785D02*
X97677311Y-120763357D01*
X97677311Y-120763357D02*
X97677311Y-120906214D01*
D10*
D12*
X91490282Y-118255557D02*
X92204568Y-118255557D01*
X91347425Y-118684128D02*
X91847425Y-117184128D01*
X91847425Y-117184128D02*
X92347425Y-118684128D01*
X92847424Y-118684128D02*
X92847424Y-117684128D01*
X92847424Y-117184128D02*
X92775996Y-117255557D01*
X92775996Y-117255557D02*
X92847424Y-117326985D01*
X92847424Y-117326985D02*
X92918853Y-117255557D01*
X92918853Y-117255557D02*
X92847424Y-117184128D01*
X92847424Y-117184128D02*
X92847424Y-117326985D01*
X94204568Y-118684128D02*
X94204568Y-117184128D01*
X94204568Y-118612700D02*
X94061710Y-118684128D01*
X94061710Y-118684128D02*
X93775996Y-118684128D01*
X93775996Y-118684128D02*
X93633139Y-118612700D01*
X93633139Y-118612700D02*
X93561710Y-118541271D01*
X93561710Y-118541271D02*
X93490282Y-118398414D01*
X93490282Y-118398414D02*
X93490282Y-117969842D01*
X93490282Y-117969842D02*
X93561710Y-117826985D01*
X93561710Y-117826985D02*
X93633139Y-117755557D01*
X93633139Y-117755557D02*
X93775996Y-117684128D01*
X93775996Y-117684128D02*
X94061710Y-117684128D01*
X94061710Y-117684128D02*
X94204568Y-117755557D01*
X95490282Y-118612700D02*
X95347425Y-118684128D01*
X95347425Y-118684128D02*
X95061711Y-118684128D01*
X95061711Y-118684128D02*
X94918853Y-118612700D01*
X94918853Y-118612700D02*
X94847425Y-118469842D01*
X94847425Y-118469842D02*
X94847425Y-117898414D01*
X94847425Y-117898414D02*
X94918853Y-117755557D01*
X94918853Y-117755557D02*
X95061711Y-117684128D01*
X95061711Y-117684128D02*
X95347425Y-117684128D01*
X95347425Y-117684128D02*
X95490282Y-117755557D01*
X95490282Y-117755557D02*
X95561711Y-117898414D01*
X95561711Y-117898414D02*
X95561711Y-118041271D01*
X95561711Y-118041271D02*
X94847425Y-118184128D01*
X96204567Y-117684128D02*
X96204567Y-118684128D01*
X96204567Y-117826985D02*
X96275996Y-117755557D01*
X96275996Y-117755557D02*
X96418853Y-117684128D01*
X96418853Y-117684128D02*
X96633139Y-117684128D01*
X96633139Y-117684128D02*
X96775996Y-117755557D01*
X96775996Y-117755557D02*
X96847425Y-117898414D01*
X96847425Y-117898414D02*
X96847425Y-118684128D01*
X99561710Y-118541271D02*
X99490282Y-118612700D01*
X99490282Y-118612700D02*
X99275996Y-118684128D01*
X99275996Y-118684128D02*
X99133139Y-118684128D01*
X99133139Y-118684128D02*
X98918853Y-118612700D01*
X98918853Y-118612700D02*
X98775996Y-118469842D01*
X98775996Y-118469842D02*
X98704567Y-118326985D01*
X98704567Y-118326985D02*
X98633139Y-118041271D01*
X98633139Y-118041271D02*
X98633139Y-117826985D01*
X98633139Y-117826985D02*
X98704567Y-117541271D01*
X98704567Y-117541271D02*
X98775996Y-117398414D01*
X98775996Y-117398414D02*
X98918853Y-117255557D01*
X98918853Y-117255557D02*
X99133139Y-117184128D01*
X99133139Y-117184128D02*
X99275996Y-117184128D01*
X99275996Y-117184128D02*
X99490282Y-117255557D01*
X99490282Y-117255557D02*
X99561710Y-117326985D01*
X100204567Y-118684128D02*
X100204567Y-117184128D01*
X100847425Y-118684128D02*
X100847425Y-117898414D01*
X100847425Y-117898414D02*
X100775996Y-117755557D01*
X100775996Y-117755557D02*
X100633139Y-117684128D01*
X100633139Y-117684128D02*
X100418853Y-117684128D01*
X100418853Y-117684128D02*
X100275996Y-117755557D01*
X100275996Y-117755557D02*
X100204567Y-117826985D01*
X102133139Y-118612700D02*
X101990282Y-118684128D01*
X101990282Y-118684128D02*
X101704568Y-118684128D01*
X101704568Y-118684128D02*
X101561710Y-118612700D01*
X101561710Y-118612700D02*
X101490282Y-118469842D01*
X101490282Y-118469842D02*
X101490282Y-117898414D01*
X101490282Y-117898414D02*
X101561710Y-117755557D01*
X101561710Y-117755557D02*
X101704568Y-117684128D01*
X101704568Y-117684128D02*
X101990282Y-117684128D01*
X101990282Y-117684128D02*
X102133139Y-117755557D01*
X102133139Y-117755557D02*
X102204568Y-117898414D01*
X102204568Y-117898414D02*
X102204568Y-118041271D01*
X102204568Y-118041271D02*
X101490282Y-118184128D01*
X102847424Y-118684128D02*
X102847424Y-117684128D01*
X102847424Y-117969842D02*
X102918853Y-117826985D01*
X102918853Y-117826985D02*
X102990282Y-117755557D01*
X102990282Y-117755557D02*
X103133139Y-117684128D01*
X103133139Y-117684128D02*
X103275996Y-117684128D01*
X103775995Y-117684128D02*
X103775995Y-118684128D01*
X103775995Y-117826985D02*
X103847424Y-117755557D01*
X103847424Y-117755557D02*
X103990281Y-117684128D01*
X103990281Y-117684128D02*
X104204567Y-117684128D01*
X104204567Y-117684128D02*
X104347424Y-117755557D01*
X104347424Y-117755557D02*
X104418853Y-117898414D01*
X104418853Y-117898414D02*
X104418853Y-118684128D01*
X105133138Y-118684128D02*
X105133138Y-117684128D01*
X105133138Y-117184128D02*
X105061710Y-117255557D01*
X105061710Y-117255557D02*
X105133138Y-117326985D01*
X105133138Y-117326985D02*
X105204567Y-117255557D01*
X105204567Y-117255557D02*
X105133138Y-117184128D01*
X105133138Y-117184128D02*
X105133138Y-117326985D01*
X105775996Y-118612700D02*
X105918853Y-118684128D01*
X105918853Y-118684128D02*
X106204567Y-118684128D01*
X106204567Y-118684128D02*
X106347424Y-118612700D01*
X106347424Y-118612700D02*
X106418853Y-118469842D01*
X106418853Y-118469842D02*
X106418853Y-118398414D01*
X106418853Y-118398414D02*
X106347424Y-118255557D01*
X106347424Y-118255557D02*
X106204567Y-118184128D01*
X106204567Y-118184128D02*
X105990282Y-118184128D01*
X105990282Y-118184128D02*
X105847424Y-118112700D01*
X105847424Y-118112700D02*
X105775996Y-117969842D01*
X105775996Y-117969842D02*
X105775996Y-117898414D01*
X105775996Y-117898414D02*
X105847424Y-117755557D01*
X105847424Y-117755557D02*
X105990282Y-117684128D01*
X105990282Y-117684128D02*
X106204567Y-117684128D01*
X106204567Y-117684128D02*
X106347424Y-117755557D01*
X107061710Y-118684128D02*
X107061710Y-117184128D01*
X107204568Y-118112700D02*
X107633139Y-118684128D01*
X107633139Y-117684128D02*
X107061710Y-118255557D01*
X108847425Y-118612700D02*
X108704568Y-118684128D01*
X108704568Y-118684128D02*
X108418854Y-118684128D01*
X108418854Y-118684128D02*
X108275996Y-118612700D01*
X108275996Y-118612700D02*
X108204568Y-118469842D01*
X108204568Y-118469842D02*
X108204568Y-117898414D01*
X108204568Y-117898414D02*
X108275996Y-117755557D01*
X108275996Y-117755557D02*
X108418854Y-117684128D01*
X108418854Y-117684128D02*
X108704568Y-117684128D01*
X108704568Y-117684128D02*
X108847425Y-117755557D01*
X108847425Y-117755557D02*
X108918854Y-117898414D01*
X108918854Y-117898414D02*
X108918854Y-118041271D01*
X108918854Y-118041271D02*
X108204568Y-118184128D01*
X110775996Y-117184128D02*
X110633139Y-117469842D01*
X111347425Y-117326985D02*
X111418853Y-117255557D01*
X111418853Y-117255557D02*
X111561711Y-117184128D01*
X111561711Y-117184128D02*
X111918853Y-117184128D01*
X111918853Y-117184128D02*
X112061711Y-117255557D01*
X112061711Y-117255557D02*
X112133139Y-117326985D01*
X112133139Y-117326985D02*
X112204568Y-117469842D01*
X112204568Y-117469842D02*
X112204568Y-117612700D01*
X112204568Y-117612700D02*
X112133139Y-117826985D01*
X112133139Y-117826985D02*
X111275996Y-118684128D01*
X111275996Y-118684128D02*
X112204568Y-118684128D01*
X112704567Y-117184128D02*
X113704567Y-117184128D01*
X113704567Y-117184128D02*
X113061710Y-118684128D01*
D10*
D11*
X91963026Y-114906214D02*
X92177312Y-114977642D01*
X92177312Y-114977642D02*
X92248741Y-115049071D01*
X92248741Y-115049071D02*
X92320169Y-115191928D01*
X92320169Y-115191928D02*
X92320169Y-115406214D01*
X92320169Y-115406214D02*
X92248741Y-115549071D01*
X92248741Y-115549071D02*
X92177312Y-115620500D01*
X92177312Y-115620500D02*
X92034455Y-115691928D01*
X92034455Y-115691928D02*
X91463026Y-115691928D01*
X91463026Y-115691928D02*
X91463026Y-114191928D01*
X91463026Y-114191928D02*
X91963026Y-114191928D01*
X91963026Y-114191928D02*
X92105884Y-114263357D01*
X92105884Y-114263357D02*
X92177312Y-114334785D01*
X92177312Y-114334785D02*
X92248741Y-114477642D01*
X92248741Y-114477642D02*
X92248741Y-114620500D01*
X92248741Y-114620500D02*
X92177312Y-114763357D01*
X92177312Y-114763357D02*
X92105884Y-114834785D01*
X92105884Y-114834785D02*
X91963026Y-114906214D01*
X91963026Y-114906214D02*
X91463026Y-114906214D01*
X93605884Y-114691928D02*
X93605884Y-115691928D01*
X92963026Y-114691928D02*
X92963026Y-115477642D01*
X92963026Y-115477642D02*
X93034455Y-115620500D01*
X93034455Y-115620500D02*
X93177312Y-115691928D01*
X93177312Y-115691928D02*
X93391598Y-115691928D01*
X93391598Y-115691928D02*
X93534455Y-115620500D01*
X93534455Y-115620500D02*
X93605884Y-115549071D01*
X94963027Y-115620500D02*
X94820169Y-115691928D01*
X94820169Y-115691928D02*
X94534455Y-115691928D01*
X94534455Y-115691928D02*
X94391598Y-115620500D01*
X94391598Y-115620500D02*
X94320169Y-115549071D01*
X94320169Y-115549071D02*
X94248741Y-115406214D01*
X94248741Y-115406214D02*
X94248741Y-114977642D01*
X94248741Y-114977642D02*
X94320169Y-114834785D01*
X94320169Y-114834785D02*
X94391598Y-114763357D01*
X94391598Y-114763357D02*
X94534455Y-114691928D01*
X94534455Y-114691928D02*
X94820169Y-114691928D01*
X94820169Y-114691928D02*
X94963027Y-114763357D01*
X95605883Y-115691928D02*
X95605883Y-114191928D01*
X95748741Y-115120500D02*
X96177312Y-115691928D01*
X96177312Y-114691928D02*
X95605883Y-115263357D01*
X96820169Y-114691928D02*
X96820169Y-115691928D01*
X96820169Y-114834785D02*
X96891598Y-114763357D01*
X96891598Y-114763357D02*
X97034455Y-114691928D01*
X97034455Y-114691928D02*
X97248741Y-114691928D01*
X97248741Y-114691928D02*
X97391598Y-114763357D01*
X97391598Y-114763357D02*
X97463027Y-114906214D01*
X97463027Y-114906214D02*
X97463027Y-115691928D01*
X98748741Y-115620500D02*
X98605884Y-115691928D01*
X98605884Y-115691928D02*
X98320170Y-115691928D01*
X98320170Y-115691928D02*
X98177312Y-115620500D01*
X98177312Y-115620500D02*
X98105884Y-115477642D01*
X98105884Y-115477642D02*
X98105884Y-114906214D01*
X98105884Y-114906214D02*
X98177312Y-114763357D01*
X98177312Y-114763357D02*
X98320170Y-114691928D01*
X98320170Y-114691928D02*
X98605884Y-114691928D01*
X98605884Y-114691928D02*
X98748741Y-114763357D01*
X98748741Y-114763357D02*
X98820170Y-114906214D01*
X98820170Y-114906214D02*
X98820170Y-115049071D01*
X98820170Y-115049071D02*
X98105884Y-115191928D01*
X99677312Y-115691928D02*
X99534455Y-115620500D01*
X99534455Y-115620500D02*
X99463026Y-115477642D01*
X99463026Y-115477642D02*
X99463026Y-114191928D01*
X100463026Y-115691928D02*
X100320169Y-115620500D01*
X100320169Y-115620500D02*
X100248740Y-115477642D01*
X100248740Y-115477642D02*
X100248740Y-114191928D01*
X102177311Y-114191928D02*
X102177311Y-115406214D01*
X102177311Y-115406214D02*
X102248740Y-115549071D01*
X102248740Y-115549071D02*
X102320169Y-115620500D01*
X102320169Y-115620500D02*
X102463026Y-115691928D01*
X102463026Y-115691928D02*
X102748740Y-115691928D01*
X102748740Y-115691928D02*
X102891597Y-115620500D01*
X102891597Y-115620500D02*
X102963026Y-115549071D01*
X102963026Y-115549071D02*
X103034454Y-115406214D01*
X103034454Y-115406214D02*
X103034454Y-114191928D01*
X103748740Y-114691928D02*
X103748740Y-115691928D01*
X103748740Y-114834785D02*
X103820169Y-114763357D01*
X103820169Y-114763357D02*
X103963026Y-114691928D01*
X103963026Y-114691928D02*
X104177312Y-114691928D01*
X104177312Y-114691928D02*
X104320169Y-114763357D01*
X104320169Y-114763357D02*
X104391598Y-114906214D01*
X104391598Y-114906214D02*
X104391598Y-115691928D01*
X105105883Y-115691928D02*
X105105883Y-114691928D01*
X105105883Y-114191928D02*
X105034455Y-114263357D01*
X105034455Y-114263357D02*
X105105883Y-114334785D01*
X105105883Y-114334785D02*
X105177312Y-114263357D01*
X105177312Y-114263357D02*
X105105883Y-114191928D01*
X105105883Y-114191928D02*
X105105883Y-114334785D01*
X105677312Y-114691928D02*
X106034455Y-115691928D01*
X106034455Y-115691928D02*
X106391598Y-114691928D01*
X107534455Y-115620500D02*
X107391598Y-115691928D01*
X107391598Y-115691928D02*
X107105884Y-115691928D01*
X107105884Y-115691928D02*
X106963026Y-115620500D01*
X106963026Y-115620500D02*
X106891598Y-115477642D01*
X106891598Y-115477642D02*
X106891598Y-114906214D01*
X106891598Y-114906214D02*
X106963026Y-114763357D01*
X106963026Y-114763357D02*
X107105884Y-114691928D01*
X107105884Y-114691928D02*
X107391598Y-114691928D01*
X107391598Y-114691928D02*
X107534455Y-114763357D01*
X107534455Y-114763357D02*
X107605884Y-114906214D01*
X107605884Y-114906214D02*
X107605884Y-115049071D01*
X107605884Y-115049071D02*
X106891598Y-115191928D01*
X108248740Y-115691928D02*
X108248740Y-114691928D01*
X108248740Y-114977642D02*
X108320169Y-114834785D01*
X108320169Y-114834785D02*
X108391598Y-114763357D01*
X108391598Y-114763357D02*
X108534455Y-114691928D01*
X108534455Y-114691928D02*
X108677312Y-114691928D01*
X109105883Y-115620500D02*
X109248740Y-115691928D01*
X109248740Y-115691928D02*
X109534454Y-115691928D01*
X109534454Y-115691928D02*
X109677311Y-115620500D01*
X109677311Y-115620500D02*
X109748740Y-115477642D01*
X109748740Y-115477642D02*
X109748740Y-115406214D01*
X109748740Y-115406214D02*
X109677311Y-115263357D01*
X109677311Y-115263357D02*
X109534454Y-115191928D01*
X109534454Y-115191928D02*
X109320169Y-115191928D01*
X109320169Y-115191928D02*
X109177311Y-115120500D01*
X109177311Y-115120500D02*
X109105883Y-114977642D01*
X109105883Y-114977642D02*
X109105883Y-114906214D01*
X109105883Y-114906214D02*
X109177311Y-114763357D01*
X109177311Y-114763357D02*
X109320169Y-114691928D01*
X109320169Y-114691928D02*
X109534454Y-114691928D01*
X109534454Y-114691928D02*
X109677311Y-114763357D01*
X110391597Y-115691928D02*
X110391597Y-114691928D01*
X110391597Y-114191928D02*
X110320169Y-114263357D01*
X110320169Y-114263357D02*
X110391597Y-114334785D01*
X110391597Y-114334785D02*
X110463026Y-114263357D01*
X110463026Y-114263357D02*
X110391597Y-114191928D01*
X110391597Y-114191928D02*
X110391597Y-114334785D01*
X110891598Y-114691928D02*
X111463026Y-114691928D01*
X111105883Y-114191928D02*
X111105883Y-115477642D01*
X111105883Y-115477642D02*
X111177312Y-115620500D01*
X111177312Y-115620500D02*
X111320169Y-115691928D01*
X111320169Y-115691928D02*
X111463026Y-115691928D01*
X111820169Y-114691928D02*
X112177312Y-115691928D01*
X112534455Y-114691928D02*
X112177312Y-115691928D01*
X112177312Y-115691928D02*
X112034455Y-116049071D01*
X112034455Y-116049071D02*
X111963026Y-116120500D01*
X111963026Y-116120500D02*
X111820169Y-116191928D01*
D10*
D11*
X91463026Y-111906214D02*
X91963026Y-111906214D01*
X92177312Y-112691928D02*
X91463026Y-112691928D01*
X91463026Y-112691928D02*
X91463026Y-111191928D01*
X91463026Y-111191928D02*
X92177312Y-111191928D01*
X93034455Y-112691928D02*
X92891598Y-112620500D01*
X92891598Y-112620500D02*
X92820169Y-112477642D01*
X92820169Y-112477642D02*
X92820169Y-111191928D01*
X94177312Y-112620500D02*
X94034455Y-112691928D01*
X94034455Y-112691928D02*
X93748741Y-112691928D01*
X93748741Y-112691928D02*
X93605883Y-112620500D01*
X93605883Y-112620500D02*
X93534455Y-112477642D01*
X93534455Y-112477642D02*
X93534455Y-111906214D01*
X93534455Y-111906214D02*
X93605883Y-111763357D01*
X93605883Y-111763357D02*
X93748741Y-111691928D01*
X93748741Y-111691928D02*
X94034455Y-111691928D01*
X94034455Y-111691928D02*
X94177312Y-111763357D01*
X94177312Y-111763357D02*
X94248741Y-111906214D01*
X94248741Y-111906214D02*
X94248741Y-112049071D01*
X94248741Y-112049071D02*
X93534455Y-112191928D01*
X95534455Y-112620500D02*
X95391597Y-112691928D01*
X95391597Y-112691928D02*
X95105883Y-112691928D01*
X95105883Y-112691928D02*
X94963026Y-112620500D01*
X94963026Y-112620500D02*
X94891597Y-112549071D01*
X94891597Y-112549071D02*
X94820169Y-112406214D01*
X94820169Y-112406214D02*
X94820169Y-111977642D01*
X94820169Y-111977642D02*
X94891597Y-111834785D01*
X94891597Y-111834785D02*
X94963026Y-111763357D01*
X94963026Y-111763357D02*
X95105883Y-111691928D01*
X95105883Y-111691928D02*
X95391597Y-111691928D01*
X95391597Y-111691928D02*
X95534455Y-111763357D01*
X95963026Y-111691928D02*
X96534454Y-111691928D01*
X96177311Y-111191928D02*
X96177311Y-112477642D01*
X96177311Y-112477642D02*
X96248740Y-112620500D01*
X96248740Y-112620500D02*
X96391597Y-112691928D01*
X96391597Y-112691928D02*
X96534454Y-112691928D01*
X97034454Y-112691928D02*
X97034454Y-111691928D01*
X97034454Y-111977642D02*
X97105883Y-111834785D01*
X97105883Y-111834785D02*
X97177312Y-111763357D01*
X97177312Y-111763357D02*
X97320169Y-111691928D01*
X97320169Y-111691928D02*
X97463026Y-111691928D01*
X97963025Y-112691928D02*
X97963025Y-111691928D01*
X97963025Y-111191928D02*
X97891597Y-111263357D01*
X97891597Y-111263357D02*
X97963025Y-111334785D01*
X97963025Y-111334785D02*
X98034454Y-111263357D01*
X98034454Y-111263357D02*
X97963025Y-111191928D01*
X97963025Y-111191928D02*
X97963025Y-111334785D01*
X99320169Y-112620500D02*
X99177311Y-112691928D01*
X99177311Y-112691928D02*
X98891597Y-112691928D01*
X98891597Y-112691928D02*
X98748740Y-112620500D01*
X98748740Y-112620500D02*
X98677311Y-112549071D01*
X98677311Y-112549071D02*
X98605883Y-112406214D01*
X98605883Y-112406214D02*
X98605883Y-111977642D01*
X98605883Y-111977642D02*
X98677311Y-111834785D01*
X98677311Y-111834785D02*
X98748740Y-111763357D01*
X98748740Y-111763357D02*
X98891597Y-111691928D01*
X98891597Y-111691928D02*
X99177311Y-111691928D01*
X99177311Y-111691928D02*
X99320169Y-111763357D01*
X100605883Y-112691928D02*
X100605883Y-111906214D01*
X100605883Y-111906214D02*
X100534454Y-111763357D01*
X100534454Y-111763357D02*
X100391597Y-111691928D01*
X100391597Y-111691928D02*
X100105883Y-111691928D01*
X100105883Y-111691928D02*
X99963025Y-111763357D01*
X100605883Y-112620500D02*
X100463025Y-112691928D01*
X100463025Y-112691928D02*
X100105883Y-112691928D01*
X100105883Y-112691928D02*
X99963025Y-112620500D01*
X99963025Y-112620500D02*
X99891597Y-112477642D01*
X99891597Y-112477642D02*
X99891597Y-112334785D01*
X99891597Y-112334785D02*
X99963025Y-112191928D01*
X99963025Y-112191928D02*
X100105883Y-112120500D01*
X100105883Y-112120500D02*
X100463025Y-112120500D01*
X100463025Y-112120500D02*
X100605883Y-112049071D01*
X101534454Y-112691928D02*
X101391597Y-112620500D01*
X101391597Y-112620500D02*
X101320168Y-112477642D01*
X101320168Y-112477642D02*
X101320168Y-111191928D01*
X103891597Y-112691928D02*
X103891597Y-111906214D01*
X103891597Y-111906214D02*
X103820168Y-111763357D01*
X103820168Y-111763357D02*
X103677311Y-111691928D01*
X103677311Y-111691928D02*
X103391597Y-111691928D01*
X103391597Y-111691928D02*
X103248739Y-111763357D01*
X103891597Y-112620500D02*
X103748739Y-112691928D01*
X103748739Y-112691928D02*
X103391597Y-112691928D01*
X103391597Y-112691928D02*
X103248739Y-112620500D01*
X103248739Y-112620500D02*
X103177311Y-112477642D01*
X103177311Y-112477642D02*
X103177311Y-112334785D01*
X103177311Y-112334785D02*
X103248739Y-112191928D01*
X103248739Y-112191928D02*
X103391597Y-112120500D01*
X103391597Y-112120500D02*
X103748739Y-112120500D01*
X103748739Y-112120500D02*
X103891597Y-112049071D01*
X104605882Y-111691928D02*
X104605882Y-112691928D01*
X104605882Y-111834785D02*
X104677311Y-111763357D01*
X104677311Y-111763357D02*
X104820168Y-111691928D01*
X104820168Y-111691928D02*
X105034454Y-111691928D01*
X105034454Y-111691928D02*
X105177311Y-111763357D01*
X105177311Y-111763357D02*
X105248740Y-111906214D01*
X105248740Y-111906214D02*
X105248740Y-112691928D01*
X106605883Y-112691928D02*
X106605883Y-111191928D01*
X106605883Y-112620500D02*
X106463025Y-112691928D01*
X106463025Y-112691928D02*
X106177311Y-112691928D01*
X106177311Y-112691928D02*
X106034454Y-112620500D01*
X106034454Y-112620500D02*
X105963025Y-112549071D01*
X105963025Y-112549071D02*
X105891597Y-112406214D01*
X105891597Y-112406214D02*
X105891597Y-111977642D01*
X105891597Y-111977642D02*
X105963025Y-111834785D01*
X105963025Y-111834785D02*
X106034454Y-111763357D01*
X106034454Y-111763357D02*
X106177311Y-111691928D01*
X106177311Y-111691928D02*
X106463025Y-111691928D01*
X106463025Y-111691928D02*
X106605883Y-111763357D01*
X109320168Y-112549071D02*
X109248740Y-112620500D01*
X109248740Y-112620500D02*
X109034454Y-112691928D01*
X109034454Y-112691928D02*
X108891597Y-112691928D01*
X108891597Y-112691928D02*
X108677311Y-112620500D01*
X108677311Y-112620500D02*
X108534454Y-112477642D01*
X108534454Y-112477642D02*
X108463025Y-112334785D01*
X108463025Y-112334785D02*
X108391597Y-112049071D01*
X108391597Y-112049071D02*
X108391597Y-111834785D01*
X108391597Y-111834785D02*
X108463025Y-111549071D01*
X108463025Y-111549071D02*
X108534454Y-111406214D01*
X108534454Y-111406214D02*
X108677311Y-111263357D01*
X108677311Y-111263357D02*
X108891597Y-111191928D01*
X108891597Y-111191928D02*
X109034454Y-111191928D01*
X109034454Y-111191928D02*
X109248740Y-111263357D01*
X109248740Y-111263357D02*
X109320168Y-111334785D01*
X110177311Y-112691928D02*
X110034454Y-112620500D01*
X110034454Y-112620500D02*
X109963025Y-112549071D01*
X109963025Y-112549071D02*
X109891597Y-112406214D01*
X109891597Y-112406214D02*
X109891597Y-111977642D01*
X109891597Y-111977642D02*
X109963025Y-111834785D01*
X109963025Y-111834785D02*
X110034454Y-111763357D01*
X110034454Y-111763357D02*
X110177311Y-111691928D01*
X110177311Y-111691928D02*
X110391597Y-111691928D01*
X110391597Y-111691928D02*
X110534454Y-111763357D01*
X110534454Y-111763357D02*
X110605883Y-111834785D01*
X110605883Y-111834785D02*
X110677311Y-111977642D01*
X110677311Y-111977642D02*
X110677311Y-112406214D01*
X110677311Y-112406214D02*
X110605883Y-112549071D01*
X110605883Y-112549071D02*
X110534454Y-112620500D01*
X110534454Y-112620500D02*
X110391597Y-112691928D01*
X110391597Y-112691928D02*
X110177311Y-112691928D01*
X111320168Y-112691928D02*
X111320168Y-111691928D01*
X111320168Y-111834785D02*
X111391597Y-111763357D01*
X111391597Y-111763357D02*
X111534454Y-111691928D01*
X111534454Y-111691928D02*
X111748740Y-111691928D01*
X111748740Y-111691928D02*
X111891597Y-111763357D01*
X111891597Y-111763357D02*
X111963026Y-111906214D01*
X111963026Y-111906214D02*
X111963026Y-112691928D01*
X111963026Y-111906214D02*
X112034454Y-111763357D01*
X112034454Y-111763357D02*
X112177311Y-111691928D01*
X112177311Y-111691928D02*
X112391597Y-111691928D01*
X112391597Y-111691928D02*
X112534454Y-111763357D01*
X112534454Y-111763357D02*
X112605883Y-111906214D01*
X112605883Y-111906214D02*
X112605883Y-112691928D01*
X113320168Y-111691928D02*
X113320168Y-113191928D01*
X113320168Y-111763357D02*
X113463026Y-111691928D01*
X113463026Y-111691928D02*
X113748740Y-111691928D01*
X113748740Y-111691928D02*
X113891597Y-111763357D01*
X113891597Y-111763357D02*
X113963026Y-111834785D01*
X113963026Y-111834785D02*
X114034454Y-111977642D01*
X114034454Y-111977642D02*
X114034454Y-112406214D01*
X114034454Y-112406214D02*
X113963026Y-112549071D01*
X113963026Y-112549071D02*
X113891597Y-112620500D01*
X113891597Y-112620500D02*
X113748740Y-112691928D01*
X113748740Y-112691928D02*
X113463026Y-112691928D01*
X113463026Y-112691928D02*
X113320168Y-112620500D01*
X115320169Y-111691928D02*
X115320169Y-112691928D01*
X114677311Y-111691928D02*
X114677311Y-112477642D01*
X114677311Y-112477642D02*
X114748740Y-112620500D01*
X114748740Y-112620500D02*
X114891597Y-112691928D01*
X114891597Y-112691928D02*
X115105883Y-112691928D01*
X115105883Y-112691928D02*
X115248740Y-112620500D01*
X115248740Y-112620500D02*
X115320169Y-112549071D01*
X115820169Y-111691928D02*
X116391597Y-111691928D01*
X116034454Y-111191928D02*
X116034454Y-112477642D01*
X116034454Y-112477642D02*
X116105883Y-112620500D01*
X116105883Y-112620500D02*
X116248740Y-112691928D01*
X116248740Y-112691928D02*
X116391597Y-112691928D01*
X117463026Y-112620500D02*
X117320169Y-112691928D01*
X117320169Y-112691928D02*
X117034455Y-112691928D01*
X117034455Y-112691928D02*
X116891597Y-112620500D01*
X116891597Y-112620500D02*
X116820169Y-112477642D01*
X116820169Y-112477642D02*
X116820169Y-111906214D01*
X116820169Y-111906214D02*
X116891597Y-111763357D01*
X116891597Y-111763357D02*
X117034455Y-111691928D01*
X117034455Y-111691928D02*
X117320169Y-111691928D01*
X117320169Y-111691928D02*
X117463026Y-111763357D01*
X117463026Y-111763357D02*
X117534455Y-111906214D01*
X117534455Y-111906214D02*
X117534455Y-112049071D01*
X117534455Y-112049071D02*
X116820169Y-112191928D01*
X118177311Y-112691928D02*
X118177311Y-111691928D01*
X118177311Y-111977642D02*
X118248740Y-111834785D01*
X118248740Y-111834785D02*
X118320169Y-111763357D01*
X118320169Y-111763357D02*
X118463026Y-111691928D01*
X118463026Y-111691928D02*
X118605883Y-111691928D01*
X120248739Y-111906214D02*
X120748739Y-111906214D01*
X120963025Y-112691928D02*
X120248739Y-112691928D01*
X120248739Y-112691928D02*
X120248739Y-111191928D01*
X120248739Y-111191928D02*
X120963025Y-111191928D01*
X121605882Y-111691928D02*
X121605882Y-112691928D01*
X121605882Y-111834785D02*
X121677311Y-111763357D01*
X121677311Y-111763357D02*
X121820168Y-111691928D01*
X121820168Y-111691928D02*
X122034454Y-111691928D01*
X122034454Y-111691928D02*
X122177311Y-111763357D01*
X122177311Y-111763357D02*
X122248740Y-111906214D01*
X122248740Y-111906214D02*
X122248740Y-112691928D01*
X123605883Y-111691928D02*
X123605883Y-112906214D01*
X123605883Y-112906214D02*
X123534454Y-113049071D01*
X123534454Y-113049071D02*
X123463025Y-113120500D01*
X123463025Y-113120500D02*
X123320168Y-113191928D01*
X123320168Y-113191928D02*
X123105883Y-113191928D01*
X123105883Y-113191928D02*
X122963025Y-113120500D01*
X123605883Y-112620500D02*
X123463025Y-112691928D01*
X123463025Y-112691928D02*
X123177311Y-112691928D01*
X123177311Y-112691928D02*
X123034454Y-112620500D01*
X123034454Y-112620500D02*
X122963025Y-112549071D01*
X122963025Y-112549071D02*
X122891597Y-112406214D01*
X122891597Y-112406214D02*
X122891597Y-111977642D01*
X122891597Y-111977642D02*
X122963025Y-111834785D01*
X122963025Y-111834785D02*
X123034454Y-111763357D01*
X123034454Y-111763357D02*
X123177311Y-111691928D01*
X123177311Y-111691928D02*
X123463025Y-111691928D01*
X123463025Y-111691928D02*
X123605883Y-111763357D01*
X124320168Y-112691928D02*
X124320168Y-111691928D01*
X124320168Y-111191928D02*
X124248740Y-111263357D01*
X124248740Y-111263357D02*
X124320168Y-111334785D01*
X124320168Y-111334785D02*
X124391597Y-111263357D01*
X124391597Y-111263357D02*
X124320168Y-111191928D01*
X124320168Y-111191928D02*
X124320168Y-111334785D01*
X125034454Y-111691928D02*
X125034454Y-112691928D01*
X125034454Y-111834785D02*
X125105883Y-111763357D01*
X125105883Y-111763357D02*
X125248740Y-111691928D01*
X125248740Y-111691928D02*
X125463026Y-111691928D01*
X125463026Y-111691928D02*
X125605883Y-111763357D01*
X125605883Y-111763357D02*
X125677312Y-111906214D01*
X125677312Y-111906214D02*
X125677312Y-112691928D01*
X126963026Y-112620500D02*
X126820169Y-112691928D01*
X126820169Y-112691928D02*
X126534455Y-112691928D01*
X126534455Y-112691928D02*
X126391597Y-112620500D01*
X126391597Y-112620500D02*
X126320169Y-112477642D01*
X126320169Y-112477642D02*
X126320169Y-111906214D01*
X126320169Y-111906214D02*
X126391597Y-111763357D01*
X126391597Y-111763357D02*
X126534455Y-111691928D01*
X126534455Y-111691928D02*
X126820169Y-111691928D01*
X126820169Y-111691928D02*
X126963026Y-111763357D01*
X126963026Y-111763357D02*
X127034455Y-111906214D01*
X127034455Y-111906214D02*
X127034455Y-112049071D01*
X127034455Y-112049071D02*
X126320169Y-112191928D01*
X128248740Y-112620500D02*
X128105883Y-112691928D01*
X128105883Y-112691928D02*
X127820169Y-112691928D01*
X127820169Y-112691928D02*
X127677311Y-112620500D01*
X127677311Y-112620500D02*
X127605883Y-112477642D01*
X127605883Y-112477642D02*
X127605883Y-111906214D01*
X127605883Y-111906214D02*
X127677311Y-111763357D01*
X127677311Y-111763357D02*
X127820169Y-111691928D01*
X127820169Y-111691928D02*
X128105883Y-111691928D01*
X128105883Y-111691928D02*
X128248740Y-111763357D01*
X128248740Y-111763357D02*
X128320169Y-111906214D01*
X128320169Y-111906214D02*
X128320169Y-112049071D01*
X128320169Y-112049071D02*
X127605883Y-112191928D01*
X128963025Y-112691928D02*
X128963025Y-111691928D01*
X128963025Y-111977642D02*
X129034454Y-111834785D01*
X129034454Y-111834785D02*
X129105883Y-111763357D01*
X129105883Y-111763357D02*
X129248740Y-111691928D01*
X129248740Y-111691928D02*
X129391597Y-111691928D01*
X129891596Y-112691928D02*
X129891596Y-111691928D01*
X129891596Y-111191928D02*
X129820168Y-111263357D01*
X129820168Y-111263357D02*
X129891596Y-111334785D01*
X129891596Y-111334785D02*
X129963025Y-111263357D01*
X129963025Y-111263357D02*
X129891596Y-111191928D01*
X129891596Y-111191928D02*
X129891596Y-111334785D01*
X130605882Y-111691928D02*
X130605882Y-112691928D01*
X130605882Y-111834785D02*
X130677311Y-111763357D01*
X130677311Y-111763357D02*
X130820168Y-111691928D01*
X130820168Y-111691928D02*
X131034454Y-111691928D01*
X131034454Y-111691928D02*
X131177311Y-111763357D01*
X131177311Y-111763357D02*
X131248740Y-111906214D01*
X131248740Y-111906214D02*
X131248740Y-112691928D01*
X132605883Y-111691928D02*
X132605883Y-112906214D01*
X132605883Y-112906214D02*
X132534454Y-113049071D01*
X132534454Y-113049071D02*
X132463025Y-113120500D01*
X132463025Y-113120500D02*
X132320168Y-113191928D01*
X132320168Y-113191928D02*
X132105883Y-113191928D01*
X132105883Y-113191928D02*
X131963025Y-113120500D01*
X132605883Y-112620500D02*
X132463025Y-112691928D01*
X132463025Y-112691928D02*
X132177311Y-112691928D01*
X132177311Y-112691928D02*
X132034454Y-112620500D01*
X132034454Y-112620500D02*
X131963025Y-112549071D01*
X131963025Y-112549071D02*
X131891597Y-112406214D01*
X131891597Y-112406214D02*
X131891597Y-111977642D01*
X131891597Y-111977642D02*
X131963025Y-111834785D01*
X131963025Y-111834785D02*
X132034454Y-111763357D01*
X132034454Y-111763357D02*
X132177311Y-111691928D01*
X132177311Y-111691928D02*
X132463025Y-111691928D01*
X132463025Y-111691928D02*
X132605883Y-111763357D01*
D10*
D11*
D10*
D11*
D10*
D11*
X110007200Y-129505800D02*
X110007200Y-132505800D01*
D10*
D11*
X174007200Y-129505800D02*
X174007200Y-136005800D01*
D14*
%TO.P,R2,1*%
%TO.N,SCL*%
X69050277Y-69730769D03*
D15*
%TO.P,R2,2*%
%TO.N,+5V*%
X69050277Y-64650769D03*
%TD*%
%TO.P,R1,2*%
%TO.N,+5V*%
X74130277Y-64650769D03*
D14*
%TO.P,R1,1*%
%TO.N,SDA*%
X74130277Y-69730769D03*
%TD*%
D16*
%TO.P,U1,1,D1/TX*%
%TO.N,N/C*%
X81750277Y-74810769D03*
D17*
X102070277Y-74810769D03*
X94450277Y-59570769D03*
X96990277Y-59570769D03*
D16*
%TO.P,U1,2,D2/INT0*%
X84290277Y-74810769D03*
D17*
X104610277Y-74810769D03*
X91910277Y-59570769D03*
X99530277Y-59570769D03*
D16*
%TO.P,U1,3,3V3*%
X86830277Y-74810769D03*
D17*
X107150277Y-74810769D03*
X89370277Y-59570769D03*
X102070277Y-59570769D03*
D16*
%TO.P,U1,4,+5V*%
%TO.N,+5V*%
X89370277Y-74810769D03*
D17*
%TO.N,N/C*%
X109690277Y-74810769D03*
%TO.N,DTR*%
X86830277Y-59570769D03*
%TO.N,XTAL1*%
X104610277Y-59570769D03*
D16*
%TO.P,U1,5,GND*%
%TO.N,GND*%
X91910277Y-74810769D03*
D17*
%TO.N,SDA*%
X112230277Y-74810769D03*
%TO.N,SS*%
X84290277Y-59570769D03*
%TO.N,N/C*%
X107150277Y-59570769D03*
D16*
%TO.P,U1,6,GND*%
%TO.N,GND*%
X94450277Y-74810769D03*
D17*
%TO.N,SCL*%
X114770277Y-74810769D03*
%TO.N,XTAL2*%
X81750277Y-59570769D03*
%TO.N,N/C*%
X109690277Y-59570769D03*
D16*
%TO.P,U1,7,D7*%
X96990277Y-74810769D03*
D17*
X112230277Y-59570769D03*
D16*
%TO.P,U1,8,AREF*%
X99530277Y-74810769D03*
D17*
X114770277Y-59570769D03*
%TD*%
D18*
%TO.N,GND*%
X119874651Y-59765233D03*
X128210548Y-65701305D03*
%TO.N,+5V*%
X91910277Y-69730769D03*
X124930277Y-69730769D03*
X109690277Y-64650769D03*
X109045936Y-68016845D03*
%TO.N,XTAL1*%
X104610277Y-64650769D03*
X115951275Y-70419094D03*
%TO.N,DTR*%
X107150277Y-67190769D03*
X116007610Y-66972107D03*
%TO.N,SS*%
X127470277Y-62110769D03*
%TO.N,AREF*%
X135819558Y-58610806D03*
X109690277Y-69730769D03*
%TO.N,VIN*%
X130739558Y-61150806D03*
X128199558Y-68770806D03*
%TD*%
D19*
%TO.N,GND*%
X125902884Y-61385769D02*
X124282348Y-59765233D01*
X127770582Y-61385769D02*
X125902884Y-61385769D01*
X128210548Y-61825735D02*
X127770582Y-61385769D01*
X128210548Y-65701305D02*
X128210548Y-61825735D01*
X124282348Y-59765233D02*
X119874651Y-59765233D01*
%TO.N,+5V*%
X89370277Y-74810769D02*
X89370277Y-72270769D01*
X89370277Y-72270769D02*
X91910277Y-69730769D01*
X79210277Y-64650769D02*
X74130277Y-64650769D01*
X89370277Y-74810769D02*
X79210277Y-64650769D01*
%TO.N,DTR*%
X107368939Y-66972107D02*
X116007610Y-66972107D01*
X107150277Y-67190769D02*
X107368939Y-66972107D01*
%TO.N,XTAL1*%
X114480058Y-68947877D02*
X115951275Y-70419094D01*
X106367385Y-68947877D02*
X114480058Y-68947877D01*
X104610277Y-67190769D02*
X106367385Y-68947877D01*
X104610277Y-64650769D02*
X104610277Y-67190769D01*
%TO.N,SS*%
X88475030Y-63755522D02*
X84290277Y-59570769D01*
X125825524Y-63755522D02*
X88475030Y-63755522D01*
X127470277Y-62110769D02*
X125825524Y-63755522D01*
%TO.N,AREF*%
X109829948Y-72410440D02*
X132179924Y-72410440D01*
X109690277Y-69730769D02*
X109690277Y-72270769D01*
X109690277Y-72270769D02*
X109829948Y-72410440D01*
X136671013Y-67919351D02*
X136671013Y-59462261D01*
X132179924Y-72410440D02*
X136671013Y-67919351D01*
X136671013Y-59462261D02*
X135819558Y-58610806D01*
%TO.N,SDA*%
X110140277Y-76900769D02*
X112230277Y-74810769D01*
X81300277Y-76900769D02*
X110140277Y-76900769D01*
X74130277Y-69730769D02*
X81300277Y-76900769D01*
%TO.N,SCL*%
X112230277Y-77350769D02*
X114770277Y-74810769D01*
X76670277Y-77350769D02*
X112230277Y-77350769D01*
X69050277Y-69730769D02*
X76670277Y-77350769D01*
%TO.N,+5V*%
X74130277Y-64650769D02*
X69050277Y-64650769D01*
%TO.N,VIN*%
X130739558Y-66230806D02*
X128199558Y-68770806D01*
X130739558Y-61150806D02*
X130739558Y-66230806D01*
%TD*%
%TA.AperFunction,Conductor*%
%TO.N,+5V*%
G36*
X88892341Y-75037663D02*
G01*
X88948275Y-75079534D01*
X88953316Y-75086794D01*
X88988515Y-75141566D01*
X88988516Y-75141567D01*
X89103879Y-75241528D01*
X89101570Y-75244191D01*
X89136283Y-75284268D01*
X89146212Y-75353429D01*
X89117175Y-75416979D01*
X89111159Y-75423438D01*
X88579315Y-75955281D01*
X88579316Y-75955282D01*
X88607960Y-75977576D01*
X88607962Y-75977577D01*
X88727400Y-76042214D01*
X88776990Y-76091434D01*
X88792098Y-76159650D01*
X88767928Y-76225206D01*
X88712152Y-76267287D01*
X88668382Y-76275269D01*
X87533223Y-76275269D01*
X87466184Y-76255584D01*
X87420429Y-76202780D01*
X87410485Y-76133622D01*
X87439510Y-76070066D01*
X87474203Y-76042215D01*
X87592866Y-75977998D01*
X87774585Y-75836561D01*
X87930546Y-75667142D01*
X87996767Y-75565782D01*
X88049913Y-75520426D01*
X88119145Y-75511002D01*
X88182480Y-75540504D01*
X88204385Y-75565783D01*
X88227037Y-75600454D01*
X88761327Y-75066164D01*
X88822650Y-75032679D01*
X88892341Y-75037663D01*
G37*
%TD.AperFunction*%
%TA.AperFunction,Conductor*%
G36*
X89972747Y-75060132D02*
G01*
X89979226Y-75066165D01*
X90513515Y-75600455D01*
X90536168Y-75565782D01*
X90589314Y-75520425D01*
X90658546Y-75511001D01*
X90721882Y-75540503D01*
X90743786Y-75565782D01*
X90810005Y-75667139D01*
X90810008Y-75667142D01*
X90965969Y-75836561D01*
X90970632Y-75840190D01*
X91147145Y-75977576D01*
X91147688Y-75977998D01*
X91266350Y-76042215D01*
X91315939Y-76091434D01*
X91331047Y-76159650D01*
X91306877Y-76225206D01*
X91251101Y-76267287D01*
X91207331Y-76275269D01*
X90072172Y-76275269D01*
X90005133Y-76255584D01*
X89959378Y-76202780D01*
X89949434Y-76133622D01*
X89978459Y-76070066D01*
X90013154Y-76042214D01*
X90132593Y-75977576D01*
X90132599Y-75977572D01*
X90161236Y-75955283D01*
X90161236Y-75955281D01*
X89629393Y-75423438D01*
X89595908Y-75362115D01*
X89600892Y-75292423D01*
X89637918Y-75242962D01*
X89636675Y-75241528D01*
X89643377Y-75235721D01*
X89752038Y-75141567D01*
X89787231Y-75086806D01*
X89840032Y-75041052D01*
X89909191Y-75031108D01*
X89972747Y-75060132D01*
G37*
%TD.AperFunction*%
%TA.AperFunction,Conductor*%
G36*
X137787862Y-57225346D02*
G01*
X137808205Y-57226576D01*
X137949786Y-57235140D01*
X137956411Y-57235902D01*
X138093064Y-57259122D01*
X138241265Y-57286282D01*
X138247250Y-57287689D01*
X138334036Y-57312694D01*
X138384739Y-57327302D01*
X138524794Y-57370945D01*
X138530026Y-57372838D01*
X138664181Y-57428410D01*
X138759413Y-57471271D01*
X138796494Y-57487960D01*
X138801034Y-57490231D01*
X138929168Y-57561051D01*
X139052741Y-57635755D01*
X139056513Y-57638227D01*
X139175433Y-57722609D01*
X139177725Y-57724318D01*
X139260269Y-57788987D01*
X139290026Y-57812301D01*
X139293104Y-57814877D01*
X139402066Y-57912254D01*
X139404574Y-57914625D01*
X139505188Y-58015239D01*
X139505189Y-58015240D01*
X139507565Y-58017753D01*
X139561932Y-58078591D01*
X139605087Y-58126883D01*
X139607662Y-58129959D01*
X139695297Y-58241816D01*
X139697057Y-58244176D01*
X139781803Y-58363619D01*
X139784296Y-58367421D01*
X139817621Y-58422546D01*
X139858427Y-58490048D01*
X139925165Y-58610805D01*
X139929829Y-58619244D01*
X139932100Y-58623782D01*
X139969543Y-58706977D01*
X139990888Y-58754404D01*
X140047187Y-58890329D01*
X140049100Y-58895612D01*
X140091811Y-59032675D01*
X140132302Y-59173230D01*
X140133710Y-59179221D01*
X140159831Y-59321756D01*
X140184019Y-59464133D01*
X140184782Y-59470778D01*
X140194030Y-59623653D01*
X140194553Y-59632976D01*
X140194650Y-59636446D01*
X140194650Y-76357542D01*
X140194151Y-77543505D01*
X140194054Y-77546957D01*
X140187644Y-77661066D01*
X140177252Y-77832863D01*
X140176488Y-77839511D01*
X140153294Y-77976014D01*
X140126106Y-78124368D01*
X140124697Y-78130359D01*
X140085116Y-78267745D01*
X140041442Y-78407895D01*
X140039529Y-78413179D01*
X139984029Y-78547163D01*
X139924416Y-78679620D01*
X139922140Y-78684168D01*
X139851393Y-78812169D01*
X139776620Y-78935859D01*
X139774125Y-78939664D01*
X139689856Y-79058427D01*
X139688097Y-79060785D01*
X139600046Y-79173174D01*
X139597469Y-79176252D01*
X139500190Y-79285104D01*
X139497801Y-79287631D01*
X139397106Y-79388325D01*
X139394578Y-79390716D01*
X139285555Y-79488141D01*
X139282478Y-79490716D01*
X139170495Y-79578450D01*
X139168135Y-79580210D01*
X139048829Y-79664859D01*
X139045027Y-79667352D01*
X138922251Y-79741574D01*
X138793185Y-79812902D01*
X138788640Y-79815176D01*
X138657874Y-79874030D01*
X138522092Y-79930269D01*
X138516810Y-79932182D01*
X138379599Y-79974939D01*
X138239173Y-80015390D01*
X138233183Y-80016798D01*
X138090522Y-80042943D01*
X137948268Y-80067110D01*
X137941623Y-80067873D01*
X137788493Y-80077137D01*
X137707214Y-80081700D01*
X137654915Y-80084636D01*
X137651446Y-80084733D01*
X74206220Y-80084733D01*
X74139181Y-80065048D01*
X74118539Y-80048414D01*
X64031470Y-69961344D01*
X63997985Y-69900021D01*
X63995151Y-69873663D01*
X63995151Y-69730769D01*
X67844634Y-69730769D01*
X67865161Y-69952304D01*
X67865162Y-69952306D01*
X67926046Y-70166292D01*
X67926052Y-70166307D01*
X68025215Y-70365452D01*
X68025220Y-70365460D01*
X68159297Y-70543007D01*
X68323714Y-70692892D01*
X68323716Y-70692894D01*
X68512872Y-70810014D01*
X68512873Y-70810014D01*
X68512876Y-70810016D01*
X68720337Y-70890387D01*
X68939034Y-70931269D01*
X68939036Y-70931269D01*
X69161518Y-70931269D01*
X69161520Y-70931269D01*
X69269706Y-70911045D01*
X69339220Y-70918076D01*
X69380170Y-70945252D01*
X72786073Y-74351156D01*
X76169474Y-77734557D01*
X76179299Y-77746820D01*
X76179520Y-77746638D01*
X76184491Y-77752647D01*
X76205320Y-77772206D01*
X76234912Y-77799995D01*
X76255806Y-77820889D01*
X76261288Y-77825142D01*
X76265720Y-77828926D01*
X76299695Y-77860831D01*
X76317253Y-77870483D01*
X76333512Y-77881164D01*
X76349341Y-77893442D01*
X76392115Y-77911951D01*
X76397333Y-77914507D01*
X76438185Y-77936966D01*
X76457593Y-77941949D01*
X76475994Y-77948249D01*
X76494381Y-77956206D01*
X76537765Y-77963077D01*
X76540396Y-77963494D01*
X76546116Y-77964678D01*
X76591258Y-77976269D01*
X76611293Y-77976269D01*
X76630691Y-77977795D01*
X76650471Y-77980928D01*
X76650472Y-77980929D01*
X76650472Y-77980928D01*
X76650473Y-77980929D01*
X76696860Y-77976544D01*
X76702699Y-77976269D01*
X112147534Y-77976269D01*
X112163154Y-77977993D01*
X112163181Y-77977708D01*
X112170937Y-77978440D01*
X112170944Y-77978442D01*
X112240091Y-77976269D01*
X112269627Y-77976269D01*
X112276505Y-77975399D01*
X112282318Y-77974941D01*
X112328904Y-77973478D01*
X112348146Y-77967886D01*
X112367189Y-77963943D01*
X112387069Y-77961433D01*
X112430399Y-77944276D01*
X112435923Y-77942386D01*
X112439673Y-77941296D01*
X112480667Y-77929387D01*
X112497906Y-77919191D01*
X112515380Y-77910631D01*
X112534004Y-77903257D01*
X112534004Y-77903256D01*
X112534009Y-77903255D01*
X112571726Y-77875851D01*
X112576582Y-77872661D01*
X112616697Y-77848939D01*
X112630866Y-77834768D01*
X112645656Y-77822137D01*
X112661864Y-77810363D01*
X112691576Y-77774445D01*
X112695489Y-77770145D01*
X114324266Y-76141369D01*
X114385587Y-76107886D01*
X114444034Y-76109276D01*
X114536926Y-76134167D01*
X114723606Y-76150499D01*
X114770276Y-76154583D01*
X114770277Y-76154583D01*
X114770278Y-76154583D01*
X114809168Y-76151180D01*
X115003628Y-76134167D01*
X115229888Y-76073541D01*
X115442184Y-75974546D01*
X115634064Y-75840190D01*
X115799698Y-75674556D01*
X115934054Y-75482676D01*
X116033049Y-75270380D01*
X116093675Y-75044120D01*
X116114091Y-74810769D01*
X116093675Y-74577418D01*
X116033049Y-74351158D01*
X115934054Y-74138862D01*
X115799698Y-73946982D01*
X115634064Y-73781348D01*
X115442184Y-73646992D01*
X115229888Y-73547997D01*
X115229884Y-73547996D01*
X115229880Y-73547994D01*
X115003633Y-73487372D01*
X115003623Y-73487370D01*
X114770278Y-73466955D01*
X114770276Y-73466955D01*
X114536930Y-73487370D01*
X114536920Y-73487372D01*
X114310673Y-73547994D01*
X114310666Y-73547996D01*
X114310666Y-73547997D01*
X114098370Y-73646992D01*
X113906490Y-73781348D01*
X113906488Y-73781349D01*
X113906485Y-73781352D01*
X113740860Y-73946977D01*
X113740857Y-73946980D01*
X113740856Y-73946982D01*
X113606500Y-74138862D01*
X113603395Y-74143297D01*
X113601957Y-74142290D01*
X113557087Y-74185066D01*
X113488479Y-74198282D01*
X113423617Y-74172309D01*
X113397979Y-74142722D01*
X113397159Y-74143297D01*
X113394054Y-74138862D01*
X113259698Y-73946982D01*
X113094064Y-73781348D01*
X112902184Y-73646992D01*
X112689888Y-73547997D01*
X112689884Y-73547996D01*
X112689880Y-73547994D01*
X112463633Y-73487372D01*
X112463623Y-73487370D01*
X112230278Y-73466955D01*
X112230276Y-73466955D01*
X111996930Y-73487370D01*
X111996920Y-73487372D01*
X111770673Y-73547994D01*
X111770666Y-73547996D01*
X111770666Y-73547997D01*
X111558370Y-73646992D01*
X111366490Y-73781348D01*
X111366488Y-73781349D01*
X111366485Y-73781352D01*
X111200860Y-73946977D01*
X111200857Y-73946980D01*
X111200856Y-73946982D01*
X111066500Y-74138862D01*
X111063395Y-74143297D01*
X111061957Y-74142290D01*
X111017087Y-74185066D01*
X110948479Y-74198282D01*
X110883617Y-74172309D01*
X110857979Y-74142722D01*
X110857159Y-74143297D01*
X110854054Y-74138862D01*
X110719698Y-73946982D01*
X110554064Y-73781348D01*
X110362184Y-73646992D01*
X110149888Y-73547997D01*
X110149884Y-73547996D01*
X110149880Y-73547994D01*
X109923633Y-73487372D01*
X109923623Y-73487370D01*
X109690278Y-73466955D01*
X109690276Y-73466955D01*
X109456930Y-73487370D01*
X109456920Y-73487372D01*
X109230673Y-73547994D01*
X109230666Y-73547996D01*
X109230666Y-73547997D01*
X109018370Y-73646992D01*
X108826490Y-73781348D01*
X108826488Y-73781349D01*
X108826485Y-73781352D01*
X108660860Y-73946977D01*
X108660857Y-73946980D01*
X108660856Y-73946982D01*
X108526500Y-74138862D01*
X108523395Y-74143297D01*
X108521957Y-74142290D01*
X108477087Y-74185066D01*
X108408479Y-74198282D01*
X108343617Y-74172309D01*
X108317979Y-74142722D01*
X108317159Y-74143297D01*
X108314054Y-74138862D01*
X108179698Y-73946982D01*
X108014064Y-73781348D01*
X107822184Y-73646992D01*
X107609888Y-73547997D01*
X107609884Y-73547996D01*
X107609880Y-73547994D01*
X107383633Y-73487372D01*
X107383623Y-73487370D01*
X107150278Y-73466955D01*
X107150276Y-73466955D01*
X106916930Y-73487370D01*
X106916920Y-73487372D01*
X106690673Y-73547994D01*
X106690666Y-73547996D01*
X106690666Y-73547997D01*
X106478370Y-73646992D01*
X106286490Y-73781348D01*
X106286488Y-73781349D01*
X106286485Y-73781352D01*
X106120860Y-73946977D01*
X106120857Y-73946980D01*
X106120856Y-73946982D01*
X105986500Y-74138862D01*
X105983395Y-74143297D01*
X105981957Y-74142290D01*
X105937087Y-74185066D01*
X105868479Y-74198282D01*
X105803617Y-74172309D01*
X105777979Y-74142722D01*
X105777159Y-74143297D01*
X105774054Y-74138862D01*
X105639698Y-73946982D01*
X105474064Y-73781348D01*
X105282184Y-73646992D01*
X105069888Y-73547997D01*
X105069884Y-73547996D01*
X105069880Y-73547994D01*
X104843633Y-73487372D01*
X104843623Y-73487370D01*
X104610278Y-73466955D01*
X104610276Y-73466955D01*
X104376930Y-73487370D01*
X104376920Y-73487372D01*
X104150673Y-73547994D01*
X104150666Y-73547996D01*
X104150666Y-73547997D01*
X103938370Y-73646992D01*
X103746490Y-73781348D01*
X103746488Y-73781349D01*
X103746485Y-73781352D01*
X103580860Y-73946977D01*
X103580857Y-73946980D01*
X103580856Y-73946982D01*
X103446500Y-74138862D01*
X103443395Y-74143297D01*
X103441957Y-74142290D01*
X103397087Y-74185066D01*
X103328479Y-74198282D01*
X103263617Y-74172309D01*
X103237979Y-74142722D01*
X103237159Y-74143297D01*
X103234054Y-74138862D01*
X103099698Y-73946982D01*
X102934064Y-73781348D01*
X102742184Y-73646992D01*
X102529888Y-73547997D01*
X102529884Y-73547996D01*
X102529880Y-73547994D01*
X102303633Y-73487372D01*
X102303623Y-73487370D01*
X102070278Y-73466955D01*
X102070276Y-73466955D01*
X101836930Y-73487370D01*
X101836920Y-73487372D01*
X101610673Y-73547994D01*
X101610666Y-73547996D01*
X101610666Y-73547997D01*
X101398370Y-73646992D01*
X101206490Y-73781348D01*
X101206488Y-73781349D01*
X101206485Y-73781352D01*
X101040856Y-73946981D01*
X100931221Y-74103555D01*
X100876644Y-74147180D01*
X100807146Y-74154372D01*
X100744791Y-74122849D01*
X100725838Y-74100252D01*
X100630548Y-73954398D01*
X100603632Y-73925159D01*
X100474585Y-73784977D01*
X100322052Y-73666256D01*
X100292868Y-73643541D01*
X100090346Y-73533941D01*
X100090338Y-73533938D01*
X99872551Y-73459171D01*
X99702197Y-73430744D01*
X99645414Y-73421269D01*
X99415140Y-73421269D01*
X99369713Y-73428849D01*
X99188002Y-73459171D01*
X98970215Y-73533938D01*
X98970207Y-73533941D01*
X98767685Y-73643541D01*
X98585971Y-73784975D01*
X98585966Y-73784980D01*
X98430004Y-73954399D01*
X98364085Y-74055297D01*
X98310939Y-74100653D01*
X98241708Y-74110077D01*
X98178372Y-74080575D01*
X98156469Y-74055297D01*
X98090549Y-73954399D01*
X98053381Y-73914024D01*
X97934585Y-73784977D01*
X97782052Y-73666256D01*
X97752868Y-73643541D01*
X97550346Y-73533941D01*
X97550338Y-73533938D01*
X97332551Y-73459171D01*
X97162197Y-73430744D01*
X97105414Y-73421269D01*
X96875140Y-73421269D01*
X96829713Y-73428849D01*
X96648002Y-73459171D01*
X96430215Y-73533938D01*
X96430207Y-73533941D01*
X96227685Y-73643541D01*
X96045971Y-73784975D01*
X96045966Y-73784980D01*
X95890004Y-73954399D01*
X95824085Y-74055297D01*
X95770939Y-74100653D01*
X95701708Y-74110077D01*
X95638372Y-74080575D01*
X95616469Y-74055297D01*
X95550549Y-73954399D01*
X95513381Y-73914024D01*
X95394585Y-73784977D01*
X95242052Y-73666256D01*
X95212868Y-73643541D01*
X95010346Y-73533941D01*
X95010338Y-73533938D01*
X94792551Y-73459171D01*
X94622197Y-73430744D01*
X94565414Y-73421269D01*
X94335140Y-73421269D01*
X94289713Y-73428849D01*
X94108002Y-73459171D01*
X93890215Y-73533938D01*
X93890207Y-73533941D01*
X93687685Y-73643541D01*
X93505971Y-73784975D01*
X93505966Y-73784980D01*
X93350004Y-73954400D01*
X93284084Y-74055297D01*
X93230937Y-74100654D01*
X93161706Y-74110077D01*
X93098370Y-74080574D01*
X93076467Y-74055296D01*
X93010548Y-73954398D01*
X92983631Y-73925159D01*
X92854585Y-73784977D01*
X92702052Y-73666256D01*
X92672868Y-73643541D01*
X92470346Y-73533941D01*
X92470338Y-73533938D01*
X92252551Y-73459171D01*
X92082197Y-73430744D01*
X92025414Y-73421269D01*
X91795140Y-73421269D01*
X91749713Y-73428849D01*
X91568002Y-73459171D01*
X91350215Y-73533938D01*
X91350207Y-73533941D01*
X91147685Y-73643541D01*
X90965971Y-73784975D01*
X90965966Y-73784980D01*
X90810004Y-73954400D01*
X90743785Y-74055755D01*
X90690638Y-74101112D01*
X90621407Y-74110535D01*
X90558072Y-74081032D01*
X90536168Y-74055754D01*
X90513515Y-74021081D01*
X89979226Y-74555371D01*
X89917903Y-74588856D01*
X89848211Y-74583872D01*
X89792278Y-74542000D01*
X89787230Y-74534730D01*
X89752038Y-74479971D01*
X89636675Y-74380010D01*
X89638985Y-74377343D01*
X89604282Y-74337297D01*
X89594335Y-74268139D01*
X89623357Y-74204582D01*
X89629393Y-74198099D01*
X90161236Y-73666256D01*
X90161236Y-73666254D01*
X90132595Y-73643963D01*
X89930144Y-73534401D01*
X89930136Y-73534398D01*
X89712427Y-73459658D01*
X89485372Y-73421769D01*
X89255182Y-73421769D01*
X89028126Y-73459658D01*
X88810417Y-73534398D01*
X88810409Y-73534401D01*
X88607958Y-73643963D01*
X88579316Y-73666254D01*
X88579316Y-73666255D01*
X89111160Y-74198099D01*
X89144645Y-74259422D01*
X89139661Y-74329114D01*
X89102634Y-74378574D01*
X89103879Y-74380010D01*
X88988515Y-74479971D01*
X88953323Y-74534731D01*
X88900519Y-74580486D01*
X88831360Y-74590429D01*
X88767805Y-74561403D01*
X88761327Y-74555372D01*
X88227036Y-74021081D01*
X88204383Y-74055755D01*
X88151237Y-74101111D01*
X88082006Y-74110535D01*
X88018670Y-74081033D01*
X87996766Y-74055754D01*
X87996467Y-74055297D01*
X87930549Y-73954400D01*
X87930548Y-73954398D01*
X87903631Y-73925159D01*
X87774585Y-73784977D01*
X87622052Y-73666256D01*
X87592868Y-73643541D01*
X87390346Y-73533941D01*
X87390338Y-73533938D01*
X87172551Y-73459171D01*
X87002197Y-73430744D01*
X86945414Y-73421269D01*
X86715140Y-73421269D01*
X86669713Y-73428849D01*
X86488002Y-73459171D01*
X86270215Y-73533938D01*
X86270207Y-73533941D01*
X86067685Y-73643541D01*
X85885971Y-73784975D01*
X85885966Y-73784980D01*
X85730004Y-73954399D01*
X85664085Y-74055297D01*
X85610939Y-74100653D01*
X85541708Y-74110077D01*
X85478372Y-74080575D01*
X85456469Y-74055297D01*
X85390549Y-73954399D01*
X85353381Y-73914024D01*
X85234585Y-73784977D01*
X85082052Y-73666256D01*
X85052868Y-73643541D01*
X84850346Y-73533941D01*
X84850338Y-73533938D01*
X84632551Y-73459171D01*
X84462197Y-73430744D01*
X84405414Y-73421269D01*
X84175140Y-73421269D01*
X84129713Y-73428849D01*
X83948002Y-73459171D01*
X83730215Y-73533938D01*
X83730207Y-73533941D01*
X83527685Y-73643541D01*
X83345971Y-73784975D01*
X83345966Y-73784980D01*
X83190004Y-73954399D01*
X83124085Y-74055297D01*
X83070939Y-74100653D01*
X83001708Y-74110077D01*
X82938372Y-74080575D01*
X82916469Y-74055297D01*
X82850549Y-73954399D01*
X82813381Y-73914024D01*
X82694585Y-73784977D01*
X82542052Y-73666256D01*
X82512868Y-73643541D01*
X82310346Y-73533941D01*
X82310338Y-73533938D01*
X82092551Y-73459171D01*
X81922197Y-73430744D01*
X81865414Y-73421269D01*
X81635140Y-73421269D01*
X81589713Y-73428849D01*
X81408002Y-73459171D01*
X81190215Y-73533938D01*
X81190207Y-73533941D01*
X80987685Y-73643541D01*
X80805971Y-73784975D01*
X80805966Y-73784980D01*
X80650005Y-73954398D01*
X80524059Y-74147174D01*
X80431559Y-74358054D01*
X80375030Y-74581284D01*
X80358122Y-74785325D01*
X80332969Y-74850510D01*
X80276567Y-74891748D01*
X80206823Y-74895946D01*
X80146865Y-74862766D01*
X75349169Y-70065070D01*
X75315684Y-70003747D01*
X75315014Y-69958028D01*
X75314863Y-69958014D01*
X75314993Y-69956605D01*
X75314964Y-69954591D01*
X75315389Y-69952314D01*
X75315392Y-69952305D01*
X75335920Y-69730769D01*
X75327040Y-69634942D01*
X75315392Y-69509233D01*
X75315391Y-69509231D01*
X75312454Y-69498909D01*
X75254506Y-69295241D01*
X75254501Y-69295230D01*
X75155338Y-69096085D01*
X75155333Y-69096077D01*
X75021256Y-68918530D01*
X74856839Y-68768645D01*
X74856837Y-68768643D01*
X74667681Y-68651523D01*
X74667675Y-68651521D01*
X74483061Y-68580001D01*
X77434532Y-68580001D01*
X77454364Y-68806686D01*
X77454366Y-68806697D01*
X77513258Y-69026488D01*
X77513261Y-69026497D01*
X77609431Y-69232732D01*
X77609432Y-69232734D01*
X77739954Y-69419141D01*
X77900858Y-69580045D01*
X77943205Y-69609696D01*
X78087266Y-69710568D01*
X78293504Y-69806739D01*
X78513308Y-69865635D01*
X78683216Y-69880500D01*
X78796784Y-69880500D01*
X78966692Y-69865635D01*
X79186496Y-69806739D01*
X79392734Y-69710568D01*
X79579139Y-69580047D01*
X79740047Y-69419139D01*
X79870568Y-69232734D01*
X79966739Y-69026496D01*
X80025635Y-68806692D01*
X80045468Y-68580000D01*
X80025635Y-68353308D01*
X79966739Y-68133504D01*
X79870568Y-67927266D01*
X79740047Y-67740861D01*
X79740045Y-67740858D01*
X79579141Y-67579954D01*
X79392734Y-67449432D01*
X79392732Y-67449431D01*
X79186497Y-67353261D01*
X79186488Y-67353258D01*
X78966697Y-67294366D01*
X78966687Y-67294364D01*
X78796784Y-67279500D01*
X78683216Y-67279500D01*
X78513312Y-67294364D01*
X78513302Y-67294366D01*
X78293511Y-67353258D01*
X78293502Y-67353261D01*
X78087267Y-67449431D01*
X78087265Y-67449432D01*
X77900858Y-67579954D01*
X77739954Y-67740858D01*
X77609432Y-67927265D01*
X77609431Y-67927267D01*
X77513261Y-68133502D01*
X77513258Y-68133511D01*
X77454366Y-68353302D01*
X77454364Y-68353313D01*
X77434532Y-68579998D01*
X77434532Y-68580001D01*
X74483061Y-68580001D01*
X74460217Y-68571151D01*
X74241520Y-68530269D01*
X74019034Y-68530269D01*
X73800337Y-68571151D01*
X73669141Y-68621976D01*
X73592878Y-68651521D01*
X73592872Y-68651523D01*
X73403716Y-68768643D01*
X73403714Y-68768645D01*
X73239297Y-68918530D01*
X73105220Y-69096077D01*
X73105215Y-69096085D01*
X73006052Y-69295230D01*
X73006046Y-69295245D01*
X72945162Y-69509231D01*
X72945161Y-69509233D01*
X72924634Y-69730768D01*
X72924634Y-69730769D01*
X72945161Y-69952304D01*
X72945162Y-69952306D01*
X73006046Y-70166292D01*
X73006052Y-70166307D01*
X73105215Y-70365452D01*
X73105220Y-70365460D01*
X73239297Y-70543007D01*
X73403714Y-70692892D01*
X73403716Y-70692894D01*
X73592872Y-70810014D01*
X73592873Y-70810014D01*
X73592876Y-70810016D01*
X73800337Y-70890387D01*
X74019034Y-70931269D01*
X74019036Y-70931269D01*
X74241518Y-70931269D01*
X74241520Y-70931269D01*
X74349706Y-70911045D01*
X74419220Y-70918076D01*
X74460171Y-70945253D01*
X80028505Y-76513588D01*
X80061990Y-76574911D01*
X80057006Y-76644603D01*
X80015134Y-76700536D01*
X79949670Y-76724953D01*
X79940824Y-76725269D01*
X76980730Y-76725269D01*
X76913691Y-76705584D01*
X76893049Y-76688950D01*
X70269169Y-70065070D01*
X70235684Y-70003747D01*
X70235014Y-69958028D01*
X70234863Y-69958014D01*
X70234993Y-69956605D01*
X70234964Y-69954591D01*
X70235389Y-69952314D01*
X70235392Y-69952305D01*
X70255920Y-69730769D01*
X70247040Y-69634942D01*
X70235392Y-69509233D01*
X70235391Y-69509231D01*
X70232454Y-69498909D01*
X70174506Y-69295241D01*
X70174501Y-69295230D01*
X70075338Y-69096085D01*
X70075333Y-69096077D01*
X69941256Y-68918530D01*
X69776839Y-68768645D01*
X69776837Y-68768643D01*
X69587681Y-68651523D01*
X69587675Y-68651521D01*
X69380217Y-68571151D01*
X69161520Y-68530269D01*
X68939034Y-68530269D01*
X68720337Y-68571151D01*
X68589141Y-68621976D01*
X68512878Y-68651521D01*
X68512872Y-68651523D01*
X68323716Y-68768643D01*
X68323714Y-68768645D01*
X68159297Y-68918530D01*
X68025220Y-69096077D01*
X68025215Y-69096085D01*
X67926052Y-69295230D01*
X67926046Y-69295245D01*
X67865162Y-69509231D01*
X67865161Y-69509233D01*
X67844634Y-69730768D01*
X67844634Y-69730769D01*
X63995151Y-69730769D01*
X63995151Y-64900769D01*
X67873782Y-64900769D01*
X67926516Y-65086118D01*
X68025645Y-65285194D01*
X68159668Y-65462669D01*
X68324015Y-65612490D01*
X68513097Y-65729566D01*
X68513099Y-65729567D01*
X68720472Y-65809904D01*
X68800277Y-65824821D01*
X68800277Y-65108667D01*
X68819962Y-65041628D01*
X68872766Y-64995873D01*
X68941924Y-64985929D01*
X68964536Y-64991384D01*
X68991872Y-65000769D01*
X69079281Y-65000769D01*
X69079282Y-65000769D01*
X69155867Y-64987989D01*
X69225232Y-64996371D01*
X69279054Y-65040924D01*
X69300245Y-65107502D01*
X69300277Y-65110298D01*
X69300277Y-65824821D01*
X69380081Y-65809904D01*
X69587454Y-65729567D01*
X69587456Y-65729566D01*
X69776538Y-65612490D01*
X69940885Y-65462669D01*
X70074908Y-65285194D01*
X70174037Y-65086118D01*
X70226772Y-64900769D01*
X72953782Y-64900769D01*
X73006516Y-65086118D01*
X73105645Y-65285194D01*
X73239668Y-65462669D01*
X73404015Y-65612490D01*
X73593097Y-65729566D01*
X73593099Y-65729567D01*
X73800472Y-65809904D01*
X73880277Y-65824821D01*
X73880277Y-65108667D01*
X73899962Y-65041628D01*
X73952766Y-64995873D01*
X74021924Y-64985929D01*
X74044536Y-64991384D01*
X74071872Y-65000769D01*
X74159281Y-65000769D01*
X74159282Y-65000769D01*
X74235867Y-64987989D01*
X74305232Y-64996371D01*
X74359054Y-65040924D01*
X74380245Y-65107502D01*
X74380277Y-65110298D01*
X74380277Y-65824821D01*
X74460081Y-65809904D01*
X74667454Y-65729567D01*
X74667456Y-65729566D01*
X74856538Y-65612490D01*
X75020885Y-65462669D01*
X75154908Y-65285194D01*
X75254037Y-65086118D01*
X75306772Y-64900769D01*
X74592324Y-64900769D01*
X74525285Y-64881084D01*
X74479530Y-64828280D01*
X74469586Y-64759122D01*
X74472119Y-64746326D01*
X74474256Y-64737883D01*
X74474259Y-64737877D01*
X74483905Y-64621467D01*
X74467126Y-64555207D01*
X74469752Y-64485388D01*
X74509708Y-64428071D01*
X74574309Y-64401455D01*
X74587332Y-64400769D01*
X75306772Y-64400769D01*
X75254037Y-64215419D01*
X75154908Y-64016343D01*
X75020885Y-63838868D01*
X74856538Y-63689047D01*
X74667456Y-63571971D01*
X74667454Y-63571970D01*
X74460076Y-63491633D01*
X74380277Y-63476715D01*
X74380277Y-64192870D01*
X74360592Y-64259909D01*
X74307788Y-64305664D01*
X74238630Y-64315608D01*
X74216015Y-64310152D01*
X74188683Y-64300769D01*
X74188682Y-64300769D01*
X74101272Y-64300769D01*
X74101271Y-64300769D01*
X74024685Y-64313548D01*
X73955320Y-64305165D01*
X73901499Y-64260612D01*
X73880308Y-64194033D01*
X73880277Y-64191239D01*
X73880277Y-63476715D01*
X73800477Y-63491633D01*
X73593099Y-63571970D01*
X73593097Y-63571971D01*
X73404015Y-63689047D01*
X73239668Y-63838868D01*
X73105645Y-64016343D01*
X73006516Y-64215419D01*
X72953782Y-64400769D01*
X73668230Y-64400769D01*
X73735269Y-64420454D01*
X73781024Y-64473258D01*
X73790968Y-64542416D01*
X73788435Y-64555212D01*
X73786294Y-64563665D01*
X73776648Y-64680068D01*
X73776648Y-64680071D01*
X73776649Y-64680071D01*
X73791287Y-64737877D01*
X73793428Y-64746329D01*
X73790802Y-64816150D01*
X73750846Y-64873467D01*
X73686245Y-64900083D01*
X73673222Y-64900769D01*
X72953782Y-64900769D01*
X70226772Y-64900769D01*
X69512324Y-64900769D01*
X69445285Y-64881084D01*
X69399530Y-64828280D01*
X69389586Y-64759122D01*
X69392119Y-64746326D01*
X69394256Y-64737883D01*
X69394259Y-64737877D01*
X69403905Y-64621467D01*
X69387126Y-64555207D01*
X69389752Y-64485388D01*
X69429708Y-64428071D01*
X69494309Y-64401455D01*
X69507332Y-64400769D01*
X70226772Y-64400769D01*
X70174037Y-64215419D01*
X70074908Y-64016343D01*
X69940885Y-63838868D01*
X69776538Y-63689047D01*
X69587456Y-63571971D01*
X69587454Y-63571970D01*
X69380076Y-63491633D01*
X69300277Y-63476715D01*
X69300277Y-64192870D01*
X69280592Y-64259909D01*
X69227788Y-64305664D01*
X69158630Y-64315608D01*
X69136015Y-64310152D01*
X69108683Y-64300769D01*
X69108682Y-64300769D01*
X69021272Y-64300769D01*
X69021271Y-64300769D01*
X68944685Y-64313548D01*
X68875320Y-64305165D01*
X68821499Y-64260612D01*
X68800308Y-64194033D01*
X68800277Y-64191239D01*
X68800277Y-63476715D01*
X68720477Y-63491633D01*
X68513099Y-63571970D01*
X68513097Y-63571971D01*
X68324015Y-63689047D01*
X68159668Y-63838868D01*
X68025645Y-64016343D01*
X67926516Y-64215419D01*
X67873782Y-64400769D01*
X68588230Y-64400769D01*
X68655269Y-64420454D01*
X68701024Y-64473258D01*
X68710968Y-64542416D01*
X68708435Y-64555212D01*
X68706294Y-64563665D01*
X68696648Y-64680068D01*
X68696648Y-64680071D01*
X68696649Y-64680071D01*
X68711287Y-64737877D01*
X68713428Y-64746329D01*
X68710802Y-64816150D01*
X68670846Y-64873467D01*
X68606245Y-64900083D01*
X68593222Y-64900769D01*
X67873782Y-64900769D01*
X63995151Y-64900769D01*
X63995151Y-59766971D01*
X63995249Y-59763495D01*
X64001610Y-59650190D01*
X64006414Y-59570769D01*
X80406463Y-59570769D01*
X80426878Y-59804115D01*
X80426880Y-59804125D01*
X80487502Y-60030372D01*
X80487504Y-60030376D01*
X80487505Y-60030380D01*
X80586500Y-60242676D01*
X80720856Y-60434556D01*
X80886490Y-60600190D01*
X81078370Y-60734546D01*
X81290666Y-60833541D01*
X81516926Y-60894167D01*
X81703606Y-60910499D01*
X81750276Y-60914583D01*
X81750277Y-60914583D01*
X81750278Y-60914583D01*
X81789168Y-60911180D01*
X81983628Y-60894167D01*
X82209888Y-60833541D01*
X82422184Y-60734546D01*
X82614064Y-60600190D01*
X82779698Y-60434556D01*
X82914054Y-60242676D01*
X82914054Y-60242674D01*
X82917159Y-60238241D01*
X82918600Y-60239250D01*
X82963449Y-60196481D01*
X83032055Y-60183253D01*
X83096922Y-60209216D01*
X83122571Y-60238817D01*
X83123395Y-60238241D01*
X83126499Y-60242674D01*
X83126500Y-60242676D01*
X83260856Y-60434556D01*
X83426490Y-60600190D01*
X83618370Y-60734546D01*
X83830666Y-60833541D01*
X84056926Y-60894167D01*
X84243606Y-60910499D01*
X84290276Y-60914583D01*
X84290277Y-60914583D01*
X84290278Y-60914583D01*
X84309051Y-60912940D01*
X84523628Y-60894167D01*
X84592520Y-60875707D01*
X84616513Y-60869278D01*
X84686363Y-60870940D01*
X84736289Y-60901371D01*
X87974227Y-64139310D01*
X87984052Y-64151573D01*
X87984273Y-64151391D01*
X87989244Y-64157400D01*
X88010073Y-64176959D01*
X88039665Y-64204748D01*
X88060559Y-64225642D01*
X88066041Y-64229895D01*
X88070473Y-64233679D01*
X88104448Y-64265584D01*
X88122006Y-64275236D01*
X88138265Y-64285917D01*
X88154094Y-64298195D01*
X88196868Y-64316704D01*
X88202086Y-64319260D01*
X88242938Y-64341719D01*
X88262346Y-64346702D01*
X88280747Y-64353002D01*
X88299134Y-64360959D01*
X88342518Y-64367830D01*
X88345149Y-64368247D01*
X88350869Y-64369431D01*
X88396011Y-64381022D01*
X88416046Y-64381022D01*
X88435444Y-64382548D01*
X88455224Y-64385681D01*
X88455225Y-64385682D01*
X88455225Y-64385681D01*
X88455226Y-64385682D01*
X88501613Y-64381297D01*
X88507452Y-64381022D01*
X103595453Y-64381022D01*
X103662492Y-64400707D01*
X103708247Y-64453511D01*
X103718773Y-64517979D01*
X103704817Y-64650769D01*
X103724603Y-64839025D01*
X103724604Y-64839028D01*
X103783095Y-65019046D01*
X103783098Y-65019053D01*
X103877744Y-65182985D01*
X103921049Y-65231079D01*
X103952927Y-65266484D01*
X103983157Y-65329475D01*
X103984777Y-65349456D01*
X103984777Y-67108024D01*
X103983052Y-67123641D01*
X103983338Y-67123668D01*
X103982603Y-67131434D01*
X103984777Y-67200583D01*
X103984777Y-67230112D01*
X103984778Y-67230129D01*
X103985645Y-67237000D01*
X103986103Y-67242819D01*
X103987567Y-67289393D01*
X103987568Y-67289396D01*
X103993157Y-67308636D01*
X103997101Y-67327680D01*
X103999613Y-67347561D01*
X104016767Y-67390888D01*
X104018659Y-67396416D01*
X104031659Y-67441159D01*
X104036551Y-67449432D01*
X104041857Y-67458403D01*
X104050415Y-67475872D01*
X104057791Y-67494501D01*
X104085175Y-67532192D01*
X104088383Y-67537076D01*
X104112104Y-67577185D01*
X104112110Y-67577193D01*
X104126267Y-67591349D01*
X104138904Y-67606144D01*
X104150683Y-67622356D01*
X104178050Y-67644996D01*
X104186586Y-67652057D01*
X104190897Y-67655979D01*
X105453447Y-68918530D01*
X105866582Y-69331665D01*
X105876407Y-69343928D01*
X105876628Y-69343746D01*
X105881599Y-69349755D01*
X105907602Y-69374172D01*
X105932020Y-69397103D01*
X105952914Y-69417997D01*
X105958396Y-69422250D01*
X105962828Y-69426034D01*
X105996803Y-69457939D01*
X106014361Y-69467591D01*
X106030618Y-69478270D01*
X106046449Y-69490550D01*
X106066122Y-69499063D01*
X106089218Y-69509059D01*
X106094462Y-69511627D01*
X106135293Y-69534074D01*
X106147908Y-69537312D01*
X106154690Y-69539054D01*
X106173104Y-69545358D01*
X106191489Y-69553315D01*
X106237542Y-69560609D01*
X106243211Y-69561783D01*
X106288366Y-69573377D01*
X106308401Y-69573377D01*
X106327798Y-69574903D01*
X106347581Y-69578037D01*
X106393968Y-69573652D01*
X106399807Y-69573377D01*
X108663644Y-69573377D01*
X108730683Y-69593062D01*
X108776438Y-69645866D01*
X108786964Y-69710336D01*
X108784817Y-69730769D01*
X108804603Y-69919025D01*
X108804604Y-69919028D01*
X108863095Y-70099046D01*
X108863098Y-70099053D01*
X108957744Y-70262985D01*
X109001049Y-70311079D01*
X109032927Y-70346484D01*
X109063157Y-70409475D01*
X109064777Y-70429456D01*
X109064777Y-72188024D01*
X109063052Y-72203641D01*
X109063338Y-72203668D01*
X109062603Y-72211434D01*
X109064777Y-72280583D01*
X109064777Y-72310112D01*
X109064778Y-72310129D01*
X109065645Y-72317000D01*
X109066103Y-72322819D01*
X109067567Y-72369393D01*
X109067568Y-72369396D01*
X109073157Y-72388636D01*
X109077101Y-72407680D01*
X109079613Y-72427560D01*
X109096767Y-72470888D01*
X109098659Y-72476416D01*
X109111658Y-72521157D01*
X109121857Y-72538403D01*
X109130415Y-72555872D01*
X109137791Y-72574501D01*
X109165175Y-72612192D01*
X109168383Y-72617076D01*
X109192104Y-72657185D01*
X109192110Y-72657193D01*
X109206267Y-72671349D01*
X109218905Y-72686145D01*
X109230682Y-72702355D01*
X109230683Y-72702356D01*
X109266586Y-72732057D01*
X109270897Y-72735979D01*
X109329141Y-72794223D01*
X109329142Y-72794224D01*
X109338967Y-72806488D01*
X109339188Y-72806306D01*
X109344158Y-72812313D01*
X109344161Y-72812316D01*
X109344162Y-72812317D01*
X109394599Y-72859681D01*
X109415478Y-72880560D01*
X109420952Y-72884806D01*
X109425390Y-72888596D01*
X109459366Y-72920502D01*
X109459370Y-72920504D01*
X109476921Y-72930153D01*
X109493179Y-72940832D01*
X109509012Y-72953114D01*
X109530963Y-72962612D01*
X109551785Y-72971623D01*
X109557029Y-72974192D01*
X109597856Y-72996637D01*
X109617260Y-73001619D01*
X109635658Y-73007918D01*
X109654053Y-73015878D01*
X109700077Y-73023166D01*
X109705780Y-73024347D01*
X109750929Y-73035940D01*
X109770964Y-73035940D01*
X109790361Y-73037466D01*
X109810144Y-73040600D01*
X109856531Y-73036215D01*
X109862370Y-73035940D01*
X132097181Y-73035940D01*
X132112801Y-73037664D01*
X132112828Y-73037379D01*
X132120584Y-73038111D01*
X132120591Y-73038113D01*
X132189738Y-73035940D01*
X132219274Y-73035940D01*
X132226152Y-73035070D01*
X132231965Y-73034612D01*
X132278551Y-73033149D01*
X132297793Y-73027557D01*
X132316836Y-73023614D01*
X132336716Y-73021104D01*
X132380046Y-73003947D01*
X132385570Y-73002057D01*
X132389320Y-73000967D01*
X132430314Y-72989058D01*
X132447553Y-72978862D01*
X132465027Y-72970302D01*
X132483651Y-72962928D01*
X132483651Y-72962927D01*
X132483656Y-72962926D01*
X132521373Y-72935522D01*
X132526229Y-72932332D01*
X132566344Y-72908610D01*
X132580513Y-72894439D01*
X132595303Y-72881808D01*
X132611511Y-72870034D01*
X132641223Y-72834116D01*
X132645136Y-72829816D01*
X137054801Y-68420152D01*
X137067055Y-68410337D01*
X137066872Y-68410115D01*
X137072879Y-68405143D01*
X137072890Y-68405137D01*
X137103788Y-68372233D01*
X137120240Y-68354715D01*
X137130684Y-68344269D01*
X137141133Y-68333822D01*
X137145392Y-68328329D01*
X137149165Y-68323912D01*
X137181075Y-68289933D01*
X137190728Y-68272371D01*
X137201402Y-68256121D01*
X137213686Y-68240287D01*
X137232193Y-68197518D01*
X137234762Y-68192275D01*
X137257209Y-68151444D01*
X137257210Y-68151443D01*
X137262190Y-68132042D01*
X137268491Y-68113639D01*
X137276451Y-68095247D01*
X137283743Y-68049200D01*
X137284924Y-68043503D01*
X137296513Y-67998370D01*
X137296513Y-67978333D01*
X137298040Y-67958933D01*
X137301173Y-67939155D01*
X137296788Y-67892766D01*
X137296513Y-67886928D01*
X137296513Y-59544998D01*
X137298237Y-59529384D01*
X137297951Y-59529357D01*
X137298685Y-59521594D01*
X137296513Y-59452464D01*
X137296513Y-59422912D01*
X137296513Y-59422911D01*
X137295642Y-59416020D01*
X137295185Y-59410206D01*
X137293722Y-59363633D01*
X137288135Y-59344405D01*
X137284187Y-59325345D01*
X137283734Y-59321756D01*
X137281677Y-59305469D01*
X137264520Y-59262136D01*
X137262632Y-59256620D01*
X137249632Y-59211873D01*
X137239431Y-59194624D01*
X137230873Y-59177155D01*
X137223499Y-59158529D01*
X137223496Y-59158525D01*
X137223496Y-59158524D01*
X137196111Y-59120832D01*
X137192903Y-59115948D01*
X137169185Y-59075843D01*
X137169176Y-59075832D01*
X137155018Y-59061674D01*
X137142383Y-59046881D01*
X137130606Y-59030673D01*
X137094706Y-59000974D01*
X137090394Y-58997051D01*
X136758518Y-58665174D01*
X136725033Y-58603852D01*
X136722881Y-58590474D01*
X136705232Y-58422550D01*
X136646737Y-58242522D01*
X136552091Y-58078590D01*
X136425429Y-57937918D01*
X136402258Y-57921083D01*
X136272292Y-57826657D01*
X136272287Y-57826654D01*
X136099365Y-57749663D01*
X136099360Y-57749661D01*
X135953558Y-57718671D01*
X135914204Y-57710306D01*
X135724912Y-57710306D01*
X135692455Y-57717204D01*
X135539755Y-57749661D01*
X135539750Y-57749663D01*
X135366828Y-57826654D01*
X135366823Y-57826657D01*
X135213687Y-57937917D01*
X135087024Y-58078591D01*
X134992379Y-58242521D01*
X134992376Y-58242528D01*
X134938939Y-58406992D01*
X134933884Y-58422550D01*
X134914098Y-58610806D01*
X134933884Y-58799062D01*
X134933885Y-58799065D01*
X134992376Y-58979083D01*
X134992379Y-58979090D01*
X135087025Y-59143022D01*
X135191833Y-59259423D01*
X135213687Y-59283694D01*
X135366823Y-59394954D01*
X135366828Y-59394957D01*
X135539750Y-59471948D01*
X135539755Y-59471950D01*
X135724912Y-59511306D01*
X135784105Y-59511306D01*
X135851144Y-59530991D01*
X135871781Y-59547620D01*
X136009195Y-59685033D01*
X136042679Y-59746354D01*
X136045513Y-59772713D01*
X136045513Y-67608898D01*
X136025828Y-67675937D01*
X136009194Y-67696579D01*
X131957152Y-71748621D01*
X131895829Y-71782106D01*
X131869471Y-71784940D01*
X110439777Y-71784940D01*
X110372738Y-71765255D01*
X110326983Y-71712451D01*
X110315777Y-71660940D01*
X110315777Y-70429456D01*
X110335462Y-70362417D01*
X110347627Y-70346484D01*
X110366168Y-70325891D01*
X110422810Y-70262985D01*
X110517456Y-70099053D01*
X110575951Y-69919025D01*
X110595737Y-69730769D01*
X110593589Y-69710336D01*
X110606158Y-69641610D01*
X110653889Y-69590586D01*
X110716910Y-69573377D01*
X114169606Y-69573377D01*
X114236645Y-69593062D01*
X114257287Y-69609696D01*
X115012313Y-70364723D01*
X115045798Y-70426046D01*
X115047953Y-70439442D01*
X115056243Y-70518321D01*
X115065601Y-70607350D01*
X115065602Y-70607353D01*
X115124093Y-70787371D01*
X115124096Y-70787378D01*
X115218742Y-70951310D01*
X115345404Y-71091981D01*
X115345404Y-71091982D01*
X115498540Y-71203242D01*
X115498545Y-71203245D01*
X115671467Y-71280236D01*
X115671472Y-71280238D01*
X115856629Y-71319594D01*
X115856630Y-71319594D01*
X116045919Y-71319594D01*
X116045921Y-71319594D01*
X116231078Y-71280238D01*
X116404005Y-71203245D01*
X116557146Y-71091982D01*
X116683808Y-70951310D01*
X116778454Y-70787378D01*
X116836949Y-70607350D01*
X116856735Y-70419094D01*
X116836949Y-70230838D01*
X116778454Y-70050810D01*
X116683808Y-69886878D01*
X116557146Y-69746206D01*
X116557145Y-69746205D01*
X116404009Y-69634945D01*
X116404004Y-69634942D01*
X116231082Y-69557951D01*
X116231077Y-69557949D01*
X116085276Y-69526959D01*
X116045921Y-69518594D01*
X116045920Y-69518594D01*
X115986727Y-69518594D01*
X115919688Y-69498909D01*
X115899046Y-69482275D01*
X115443268Y-69026497D01*
X115187578Y-68770806D01*
X127294098Y-68770806D01*
X127313884Y-68959062D01*
X127313885Y-68959065D01*
X127372376Y-69139083D01*
X127372379Y-69139090D01*
X127467025Y-69303022D01*
X127593686Y-69443693D01*
X127593687Y-69443694D01*
X127746823Y-69554954D01*
X127746828Y-69554957D01*
X127919750Y-69631948D01*
X127919755Y-69631950D01*
X128104912Y-69671306D01*
X128104913Y-69671306D01*
X128294202Y-69671306D01*
X128294204Y-69671306D01*
X128479361Y-69631950D01*
X128652288Y-69554957D01*
X128805429Y-69443694D01*
X128932091Y-69303022D01*
X129026737Y-69139090D01*
X129085232Y-68959062D01*
X129102879Y-68791150D01*
X129129462Y-68726540D01*
X129138509Y-68716444D01*
X131123346Y-66731607D01*
X131135600Y-66721792D01*
X131135417Y-66721570D01*
X131141424Y-66716598D01*
X131141435Y-66716592D01*
X131172333Y-66683688D01*
X131188785Y-66666170D01*
X131199229Y-66655724D01*
X131209678Y-66645277D01*
X131213937Y-66639784D01*
X131217710Y-66635367D01*
X131249620Y-66601388D01*
X131259271Y-66583830D01*
X131269954Y-66567567D01*
X131282231Y-66551742D01*
X131300743Y-66508959D01*
X131303296Y-66503747D01*
X131325755Y-66462898D01*
X131330738Y-66443486D01*
X131337039Y-66425086D01*
X131344995Y-66406702D01*
X131352287Y-66360658D01*
X131353464Y-66354977D01*
X131365058Y-66309825D01*
X131365058Y-66289789D01*
X131366585Y-66270388D01*
X131369718Y-66250609D01*
X131369718Y-66250606D01*
X131368580Y-66238574D01*
X131365330Y-66204200D01*
X131365057Y-66198405D01*
X131365057Y-61849491D01*
X131384742Y-61782453D01*
X131396909Y-61766518D01*
X131472088Y-61683026D01*
X131472089Y-61683023D01*
X131472091Y-61683022D01*
X131566737Y-61519090D01*
X131625232Y-61339062D01*
X131645018Y-61150806D01*
X131625232Y-60962550D01*
X131566737Y-60782522D01*
X131472091Y-60618590D01*
X131345429Y-60477918D01*
X131345428Y-60477917D01*
X131192292Y-60366657D01*
X131192287Y-60366654D01*
X131019365Y-60289663D01*
X131019360Y-60289661D01*
X130873559Y-60258671D01*
X130834204Y-60250306D01*
X130644912Y-60250306D01*
X130612455Y-60257204D01*
X130459755Y-60289661D01*
X130459750Y-60289663D01*
X130286828Y-60366654D01*
X130286823Y-60366657D01*
X130133687Y-60477917D01*
X130007024Y-60618591D01*
X129912379Y-60782521D01*
X129912376Y-60782528D01*
X129853885Y-60962546D01*
X129853884Y-60962550D01*
X129834098Y-61150806D01*
X129853884Y-61339062D01*
X129853885Y-61339065D01*
X129912376Y-61519083D01*
X129912379Y-61519090D01*
X130007024Y-61683021D01*
X130082207Y-61766521D01*
X130112437Y-61829513D01*
X130114057Y-61849493D01*
X130114057Y-65920353D01*
X130094372Y-65987392D01*
X130077738Y-66008034D01*
X128251786Y-67833987D01*
X128190463Y-67867472D01*
X128164105Y-67870306D01*
X128104912Y-67870306D01*
X128094087Y-67872607D01*
X127919755Y-67909661D01*
X127919750Y-67909663D01*
X127746828Y-67986654D01*
X127746823Y-67986657D01*
X127593687Y-68097917D01*
X127467024Y-68238591D01*
X127372379Y-68402521D01*
X127372376Y-68402528D01*
X127314712Y-68580001D01*
X127313884Y-68582550D01*
X127294098Y-68770806D01*
X115187578Y-68770806D01*
X114980861Y-68564089D01*
X114971038Y-68551827D01*
X114970817Y-68552011D01*
X114965844Y-68546000D01*
X114949092Y-68530269D01*
X114915422Y-68498650D01*
X114904976Y-68488204D01*
X114894533Y-68477760D01*
X114889044Y-68473502D01*
X114884619Y-68469724D01*
X114850640Y-68437815D01*
X114850638Y-68437813D01*
X114850635Y-68437812D01*
X114833087Y-68428165D01*
X114816821Y-68417481D01*
X114800991Y-68405202D01*
X114758226Y-68386695D01*
X114752980Y-68384125D01*
X114712151Y-68361680D01*
X114712150Y-68361679D01*
X114692751Y-68356699D01*
X114674339Y-68350395D01*
X114655956Y-68342439D01*
X114655950Y-68342437D01*
X114609932Y-68335149D01*
X114604210Y-68333964D01*
X114559079Y-68322377D01*
X114559077Y-68322377D01*
X114539042Y-68322377D01*
X114519644Y-68320850D01*
X114512220Y-68319674D01*
X114499863Y-68317717D01*
X114499862Y-68317717D01*
X114453474Y-68322102D01*
X114447636Y-68322377D01*
X107337425Y-68322377D01*
X107270386Y-68302692D01*
X107224631Y-68249888D01*
X107214687Y-68180730D01*
X107243712Y-68117174D01*
X107302490Y-68079400D01*
X107311640Y-68077087D01*
X107430080Y-68051913D01*
X107603007Y-67974920D01*
X107756148Y-67863657D01*
X107882810Y-67722985D01*
X107919401Y-67659606D01*
X107969967Y-67611392D01*
X108026788Y-67597607D01*
X115303862Y-67597607D01*
X115370901Y-67617292D01*
X115396010Y-67638633D01*
X115401736Y-67644992D01*
X115401740Y-67644996D01*
X115554875Y-67756255D01*
X115554880Y-67756258D01*
X115727802Y-67833249D01*
X115727807Y-67833251D01*
X115912964Y-67872607D01*
X115912965Y-67872607D01*
X116102254Y-67872607D01*
X116102256Y-67872607D01*
X116287413Y-67833251D01*
X116460340Y-67756258D01*
X116613481Y-67644995D01*
X116740143Y-67504323D01*
X116834789Y-67340391D01*
X116893284Y-67160363D01*
X116913070Y-66972107D01*
X116893284Y-66783851D01*
X116834789Y-66603823D01*
X116740143Y-66439891D01*
X116613481Y-66299219D01*
X116613480Y-66299218D01*
X116460344Y-66187958D01*
X116460339Y-66187955D01*
X116287417Y-66110964D01*
X116287412Y-66110962D01*
X116141610Y-66079972D01*
X116102256Y-66071607D01*
X115912964Y-66071607D01*
X115880507Y-66078505D01*
X115727807Y-66110962D01*
X115727802Y-66110964D01*
X115554880Y-66187955D01*
X115554875Y-66187958D01*
X115401740Y-66299217D01*
X115401736Y-66299221D01*
X115396010Y-66305581D01*
X115336523Y-66342228D01*
X115303862Y-66346607D01*
X107494580Y-66346607D01*
X107444145Y-66335887D01*
X107430079Y-66329624D01*
X107284277Y-66298634D01*
X107244923Y-66290269D01*
X107055631Y-66290269D01*
X107023174Y-66297167D01*
X106870474Y-66329624D01*
X106870469Y-66329626D01*
X106697547Y-66406617D01*
X106697542Y-66406620D01*
X106544406Y-66517880D01*
X106417743Y-66658554D01*
X106323098Y-66822484D01*
X106323095Y-66822491D01*
X106264604Y-67002509D01*
X106264603Y-67002513D01*
X106244817Y-67190769D01*
X106264603Y-67379025D01*
X106264604Y-67379028D01*
X106323095Y-67559046D01*
X106323098Y-67559053D01*
X106417744Y-67722985D01*
X106517028Y-67833251D01*
X106544406Y-67863657D01*
X106697542Y-67974917D01*
X106697547Y-67974920D01*
X106870469Y-68051911D01*
X106870474Y-68051913D01*
X106988910Y-68077087D01*
X107050392Y-68110279D01*
X107084168Y-68171442D01*
X107079516Y-68241157D01*
X107037912Y-68297289D01*
X106972564Y-68322018D01*
X106963129Y-68322377D01*
X106677837Y-68322377D01*
X106610798Y-68302692D01*
X106590156Y-68286058D01*
X105272096Y-66967997D01*
X105238611Y-66906674D01*
X105235777Y-66880316D01*
X105235777Y-66187955D01*
X105235777Y-65349452D01*
X105255461Y-65282417D01*
X105267627Y-65266483D01*
X105342810Y-65182985D01*
X105437456Y-65019053D01*
X105495951Y-64839025D01*
X105515737Y-64650769D01*
X105501780Y-64517980D01*
X105514349Y-64449254D01*
X105562081Y-64398230D01*
X105625101Y-64381022D01*
X125742781Y-64381022D01*
X125758401Y-64382746D01*
X125758428Y-64382461D01*
X125766184Y-64383193D01*
X125766191Y-64383195D01*
X125835338Y-64381022D01*
X125864874Y-64381022D01*
X125871752Y-64380152D01*
X125877565Y-64379694D01*
X125924151Y-64378231D01*
X125943393Y-64372639D01*
X125962436Y-64368696D01*
X125982316Y-64366186D01*
X126025646Y-64349029D01*
X126031170Y-64347139D01*
X126034920Y-64346049D01*
X126075914Y-64334140D01*
X126093153Y-64323944D01*
X126110627Y-64315384D01*
X126129251Y-64308010D01*
X126129251Y-64308009D01*
X126129256Y-64308008D01*
X126166973Y-64280604D01*
X126171829Y-64277414D01*
X126211944Y-64253692D01*
X126226113Y-64239521D01*
X126240903Y-64226890D01*
X126257111Y-64215116D01*
X126286823Y-64179198D01*
X126290736Y-64174898D01*
X127373368Y-63092267D01*
X127434690Y-63058784D01*
X127504382Y-63063768D01*
X127560315Y-63105640D01*
X127584732Y-63171104D01*
X127585048Y-63179950D01*
X127585048Y-65002617D01*
X127565363Y-65069656D01*
X127553198Y-65085589D01*
X127478014Y-65169089D01*
X127383369Y-65333020D01*
X127383366Y-65333027D01*
X127324875Y-65513045D01*
X127324874Y-65513049D01*
X127305088Y-65701305D01*
X127324874Y-65889561D01*
X127324875Y-65889564D01*
X127383366Y-66069582D01*
X127383369Y-66069589D01*
X127478015Y-66233521D01*
X127587363Y-66354964D01*
X127604677Y-66374193D01*
X127757813Y-66485453D01*
X127757818Y-66485456D01*
X127930740Y-66562447D01*
X127930745Y-66562449D01*
X128115902Y-66601805D01*
X128115903Y-66601805D01*
X128305192Y-66601805D01*
X128305194Y-66601805D01*
X128490351Y-66562449D01*
X128663278Y-66485456D01*
X128816419Y-66374193D01*
X128943081Y-66233521D01*
X129037727Y-66069589D01*
X129096222Y-65889561D01*
X129116008Y-65701305D01*
X129096222Y-65513049D01*
X129037727Y-65333021D01*
X128943081Y-65169089D01*
X128943081Y-65169088D01*
X128867898Y-65085589D01*
X128837668Y-65022597D01*
X128836048Y-65002617D01*
X128836048Y-61908477D01*
X128837772Y-61892857D01*
X128837487Y-61892831D01*
X128838219Y-61885075D01*
X128838221Y-61885068D01*
X128836048Y-61815920D01*
X128836048Y-61786385D01*
X128835179Y-61779507D01*
X128834720Y-61773678D01*
X128833257Y-61727107D01*
X128827670Y-61707879D01*
X128823722Y-61688819D01*
X128821212Y-61668943D01*
X128821211Y-61668941D01*
X128821211Y-61668939D01*
X128804060Y-61625622D01*
X128802167Y-61620093D01*
X128789166Y-61575344D01*
X128789164Y-61575341D01*
X128778971Y-61558106D01*
X128770409Y-61540629D01*
X128763035Y-61522005D01*
X128763034Y-61522003D01*
X128735627Y-61484280D01*
X128732436Y-61479421D01*
X128708720Y-61439318D01*
X128708713Y-61439309D01*
X128694554Y-61425150D01*
X128681916Y-61410354D01*
X128670142Y-61394148D01*
X128634236Y-61364444D01*
X128629924Y-61360521D01*
X128271387Y-61001984D01*
X128261563Y-60989721D01*
X128261342Y-60989905D01*
X128256367Y-60983890D01*
X128229620Y-60958773D01*
X128205946Y-60936542D01*
X128195500Y-60926096D01*
X128185057Y-60915652D01*
X128179568Y-60911394D01*
X128175143Y-60907616D01*
X128141164Y-60875707D01*
X128141162Y-60875705D01*
X128141159Y-60875704D01*
X128123611Y-60866057D01*
X128107345Y-60855373D01*
X128091518Y-60843096D01*
X128091517Y-60843095D01*
X128091515Y-60843094D01*
X128048750Y-60824587D01*
X128043504Y-60822017D01*
X128002675Y-60799572D01*
X128002674Y-60799571D01*
X127983275Y-60794591D01*
X127964863Y-60788287D01*
X127946480Y-60780331D01*
X127946474Y-60780329D01*
X127900456Y-60773041D01*
X127894734Y-60771856D01*
X127849603Y-60760269D01*
X127849601Y-60760269D01*
X127829566Y-60760269D01*
X127810168Y-60758742D01*
X127802744Y-60757566D01*
X127790387Y-60755609D01*
X127790386Y-60755609D01*
X127743998Y-60759994D01*
X127738160Y-60760269D01*
X126213336Y-60760269D01*
X126146297Y-60740584D01*
X126125655Y-60723950D01*
X124783151Y-59381445D01*
X124773328Y-59369183D01*
X124773107Y-59369367D01*
X124768134Y-59363356D01*
X124740513Y-59337418D01*
X124717712Y-59316006D01*
X124707173Y-59305467D01*
X124696823Y-59295116D01*
X124691334Y-59290858D01*
X124686909Y-59287080D01*
X124652930Y-59255171D01*
X124652928Y-59255169D01*
X124652925Y-59255168D01*
X124635377Y-59245521D01*
X124619111Y-59234837D01*
X124603281Y-59222558D01*
X124560516Y-59204051D01*
X124555270Y-59201481D01*
X124514441Y-59179036D01*
X124514440Y-59179035D01*
X124495041Y-59174055D01*
X124476629Y-59167751D01*
X124458246Y-59159795D01*
X124458240Y-59159793D01*
X124412222Y-59152505D01*
X124406500Y-59151320D01*
X124361369Y-59139733D01*
X124361367Y-59139733D01*
X124341332Y-59139733D01*
X124321934Y-59138206D01*
X124314510Y-59137030D01*
X124302153Y-59135073D01*
X124302152Y-59135073D01*
X124255764Y-59139458D01*
X124249926Y-59139733D01*
X120578399Y-59139733D01*
X120511360Y-59120048D01*
X120486251Y-59098707D01*
X120480524Y-59092347D01*
X120480520Y-59092343D01*
X120327385Y-58981084D01*
X120327380Y-58981081D01*
X120154458Y-58904090D01*
X120154453Y-58904088D01*
X120008652Y-58873098D01*
X119969297Y-58864733D01*
X119780005Y-58864733D01*
X119747548Y-58871631D01*
X119594848Y-58904088D01*
X119594843Y-58904090D01*
X119421921Y-58981081D01*
X119421916Y-58981084D01*
X119268780Y-59092344D01*
X119142117Y-59233018D01*
X119047472Y-59396948D01*
X119047469Y-59396955D01*
X118998514Y-59547624D01*
X118988977Y-59576977D01*
X118969191Y-59765233D01*
X118988977Y-59953489D01*
X118988978Y-59953492D01*
X119047469Y-60133510D01*
X119047472Y-60133517D01*
X119142118Y-60297449D01*
X119243836Y-60410418D01*
X119268780Y-60438121D01*
X119421916Y-60549381D01*
X119421921Y-60549384D01*
X119594843Y-60626375D01*
X119594848Y-60626377D01*
X119780005Y-60665733D01*
X119780006Y-60665733D01*
X119969295Y-60665733D01*
X119969297Y-60665733D01*
X120154454Y-60626377D01*
X120327381Y-60549384D01*
X120480522Y-60438121D01*
X120483732Y-60434556D01*
X120486251Y-60431759D01*
X120545738Y-60395112D01*
X120578399Y-60390733D01*
X123971896Y-60390733D01*
X124038935Y-60410418D01*
X124059577Y-60427052D01*
X125402081Y-61769557D01*
X125411906Y-61781820D01*
X125412127Y-61781638D01*
X125417098Y-61787647D01*
X125432269Y-61801893D01*
X125467519Y-61834995D01*
X125488413Y-61855889D01*
X125493895Y-61860142D01*
X125498327Y-61863926D01*
X125532302Y-61895831D01*
X125549860Y-61905483D01*
X125566117Y-61916162D01*
X125581948Y-61928442D01*
X125601621Y-61936955D01*
X125624717Y-61946951D01*
X125629961Y-61949519D01*
X125670792Y-61971966D01*
X125683407Y-61975204D01*
X125690189Y-61976946D01*
X125708603Y-61983250D01*
X125726988Y-61991207D01*
X125773041Y-61998501D01*
X125778710Y-61999675D01*
X125823865Y-62011269D01*
X125843900Y-62011269D01*
X125863297Y-62012795D01*
X125883080Y-62015929D01*
X125929467Y-62011544D01*
X125935306Y-62011269D01*
X126385823Y-62011269D01*
X126452862Y-62030954D01*
X126498617Y-62083758D01*
X126508561Y-62152916D01*
X126479536Y-62216472D01*
X126473504Y-62222950D01*
X125602752Y-63093703D01*
X125541429Y-63127188D01*
X125515071Y-63130022D01*
X88785483Y-63130022D01*
X88718444Y-63110337D01*
X88697802Y-63093703D01*
X86729709Y-61125610D01*
X86696224Y-61064287D01*
X86701208Y-60994595D01*
X86743080Y-60938662D01*
X86808544Y-60914245D01*
X86828196Y-60914400D01*
X86830277Y-60914583D01*
X87063628Y-60894167D01*
X87289888Y-60833541D01*
X87502184Y-60734546D01*
X87694064Y-60600190D01*
X87859698Y-60434556D01*
X87994054Y-60242676D01*
X87994054Y-60242674D01*
X87997159Y-60238241D01*
X87998600Y-60239250D01*
X88043449Y-60196481D01*
X88112055Y-60183253D01*
X88176922Y-60209216D01*
X88202571Y-60238817D01*
X88203395Y-60238241D01*
X88206499Y-60242674D01*
X88206500Y-60242676D01*
X88340856Y-60434556D01*
X88506490Y-60600190D01*
X88698370Y-60734546D01*
X88910666Y-60833541D01*
X89136926Y-60894167D01*
X89323606Y-60910499D01*
X89370276Y-60914583D01*
X89370277Y-60914583D01*
X89370278Y-60914583D01*
X89409168Y-60911180D01*
X89603628Y-60894167D01*
X89829888Y-60833541D01*
X90042184Y-60734546D01*
X90234064Y-60600190D01*
X90399698Y-60434556D01*
X90534054Y-60242676D01*
X90534054Y-60242674D01*
X90537159Y-60238241D01*
X90538600Y-60239250D01*
X90583449Y-60196481D01*
X90652055Y-60183253D01*
X90716922Y-60209216D01*
X90742571Y-60238817D01*
X90743395Y-60238241D01*
X90746499Y-60242674D01*
X90746500Y-60242676D01*
X90880856Y-60434556D01*
X91046490Y-60600190D01*
X91238370Y-60734546D01*
X91450666Y-60833541D01*
X91676926Y-60894167D01*
X91863606Y-60910499D01*
X91910276Y-60914583D01*
X91910277Y-60914583D01*
X91910278Y-60914583D01*
X91949168Y-60911180D01*
X92143628Y-60894167D01*
X92369888Y-60833541D01*
X92582184Y-60734546D01*
X92774064Y-60600190D01*
X92939698Y-60434556D01*
X93074054Y-60242676D01*
X93074054Y-60242674D01*
X93077159Y-60238241D01*
X93078600Y-60239250D01*
X93123449Y-60196481D01*
X93192055Y-60183253D01*
X93256922Y-60209216D01*
X93282571Y-60238817D01*
X93283395Y-60238241D01*
X93286499Y-60242674D01*
X93286500Y-60242676D01*
X93420856Y-60434556D01*
X93586490Y-60600190D01*
X93778370Y-60734546D01*
X93990666Y-60833541D01*
X94216926Y-60894167D01*
X94403606Y-60910499D01*
X94450276Y-60914583D01*
X94450277Y-60914583D01*
X94450278Y-60914583D01*
X94489168Y-60911180D01*
X94683628Y-60894167D01*
X94909888Y-60833541D01*
X95122184Y-60734546D01*
X95314064Y-60600190D01*
X95479698Y-60434556D01*
X95614054Y-60242676D01*
X95614054Y-60242674D01*
X95617159Y-60238241D01*
X95618600Y-60239250D01*
X95663449Y-60196481D01*
X95732055Y-60183253D01*
X95796922Y-60209216D01*
X95822571Y-60238817D01*
X95823395Y-60238241D01*
X95826499Y-60242674D01*
X95826500Y-60242676D01*
X95960856Y-60434556D01*
X96126490Y-60600190D01*
X96318370Y-60734546D01*
X96530666Y-60833541D01*
X96756926Y-60894167D01*
X96943606Y-60910499D01*
X96990276Y-60914583D01*
X96990277Y-60914583D01*
X96990278Y-60914583D01*
X97029168Y-60911180D01*
X97223628Y-60894167D01*
X97449888Y-60833541D01*
X97662184Y-60734546D01*
X97854064Y-60600190D01*
X98019698Y-60434556D01*
X98154054Y-60242676D01*
X98154054Y-60242674D01*
X98157159Y-60238241D01*
X98158600Y-60239250D01*
X98203449Y-60196481D01*
X98272055Y-60183253D01*
X98336922Y-60209216D01*
X98362571Y-60238817D01*
X98363395Y-60238241D01*
X98366499Y-60242674D01*
X98366500Y-60242676D01*
X98500856Y-60434556D01*
X98666490Y-60600190D01*
X98858370Y-60734546D01*
X99070666Y-60833541D01*
X99296926Y-60894167D01*
X99483606Y-60910499D01*
X99530276Y-60914583D01*
X99530277Y-60914583D01*
X99530278Y-60914583D01*
X99569168Y-60911180D01*
X99763628Y-60894167D01*
X99989888Y-60833541D01*
X100202184Y-60734546D01*
X100394064Y-60600190D01*
X100559698Y-60434556D01*
X100694054Y-60242676D01*
X100694054Y-60242674D01*
X100697159Y-60238241D01*
X100698600Y-60239250D01*
X100743449Y-60196481D01*
X100812055Y-60183253D01*
X100876922Y-60209216D01*
X100902571Y-60238817D01*
X100903395Y-60238241D01*
X100906499Y-60242674D01*
X100906500Y-60242676D01*
X101040856Y-60434556D01*
X101206490Y-60600190D01*
X101398370Y-60734546D01*
X101610666Y-60833541D01*
X101836926Y-60894167D01*
X102023606Y-60910499D01*
X102070276Y-60914583D01*
X102070277Y-60914583D01*
X102070278Y-60914583D01*
X102109168Y-60911180D01*
X102303628Y-60894167D01*
X102529888Y-60833541D01*
X102742184Y-60734546D01*
X102934064Y-60600190D01*
X103099698Y-60434556D01*
X103234054Y-60242676D01*
X103234054Y-60242674D01*
X103237159Y-60238241D01*
X103238600Y-60239250D01*
X103283449Y-60196481D01*
X103352055Y-60183253D01*
X103416922Y-60209216D01*
X103442571Y-60238817D01*
X103443395Y-60238241D01*
X103446499Y-60242674D01*
X103446500Y-60242676D01*
X103580856Y-60434556D01*
X103746490Y-60600190D01*
X103938370Y-60734546D01*
X104150666Y-60833541D01*
X104376926Y-60894167D01*
X104563606Y-60910499D01*
X104610276Y-60914583D01*
X104610277Y-60914583D01*
X104610278Y-60914583D01*
X104649168Y-60911180D01*
X104843628Y-60894167D01*
X105069888Y-60833541D01*
X105282184Y-60734546D01*
X105474064Y-60600190D01*
X105639698Y-60434556D01*
X105774054Y-60242676D01*
X105774054Y-60242674D01*
X105777159Y-60238241D01*
X105778600Y-60239250D01*
X105823449Y-60196481D01*
X105892055Y-60183253D01*
X105956922Y-60209216D01*
X105982571Y-60238817D01*
X105983395Y-60238241D01*
X105986499Y-60242674D01*
X105986500Y-60242676D01*
X106120856Y-60434556D01*
X106286490Y-60600190D01*
X106478370Y-60734546D01*
X106690666Y-60833541D01*
X106916926Y-60894167D01*
X107103606Y-60910499D01*
X107150276Y-60914583D01*
X107150277Y-60914583D01*
X107150278Y-60914583D01*
X107189168Y-60911180D01*
X107383628Y-60894167D01*
X107609888Y-60833541D01*
X107822184Y-60734546D01*
X108014064Y-60600190D01*
X108179698Y-60434556D01*
X108314054Y-60242676D01*
X108314054Y-60242674D01*
X108317159Y-60238241D01*
X108318600Y-60239250D01*
X108363449Y-60196481D01*
X108432055Y-60183253D01*
X108496922Y-60209216D01*
X108522571Y-60238817D01*
X108523395Y-60238241D01*
X108526499Y-60242674D01*
X108526500Y-60242676D01*
X108660856Y-60434556D01*
X108826490Y-60600190D01*
X109018370Y-60734546D01*
X109230666Y-60833541D01*
X109456926Y-60894167D01*
X109643606Y-60910499D01*
X109690276Y-60914583D01*
X109690277Y-60914583D01*
X109690278Y-60914583D01*
X109729168Y-60911180D01*
X109923628Y-60894167D01*
X110149888Y-60833541D01*
X110362184Y-60734546D01*
X110554064Y-60600190D01*
X110719698Y-60434556D01*
X110854054Y-60242676D01*
X110854054Y-60242674D01*
X110857159Y-60238241D01*
X110858600Y-60239250D01*
X110903449Y-60196481D01*
X110972055Y-60183253D01*
X111036922Y-60209216D01*
X111062571Y-60238817D01*
X111063395Y-60238241D01*
X111066499Y-60242674D01*
X111066500Y-60242676D01*
X111200856Y-60434556D01*
X111366490Y-60600190D01*
X111558370Y-60734546D01*
X111770666Y-60833541D01*
X111996926Y-60894167D01*
X112183606Y-60910499D01*
X112230276Y-60914583D01*
X112230277Y-60914583D01*
X112230278Y-60914583D01*
X112269168Y-60911180D01*
X112463628Y-60894167D01*
X112689888Y-60833541D01*
X112902184Y-60734546D01*
X113094064Y-60600190D01*
X113259698Y-60434556D01*
X113394054Y-60242676D01*
X113394054Y-60242674D01*
X113397159Y-60238241D01*
X113398600Y-60239250D01*
X113443449Y-60196481D01*
X113512055Y-60183253D01*
X113576922Y-60209216D01*
X113602571Y-60238817D01*
X113603395Y-60238241D01*
X113606499Y-60242674D01*
X113606500Y-60242676D01*
X113740856Y-60434556D01*
X113906490Y-60600190D01*
X114098370Y-60734546D01*
X114310666Y-60833541D01*
X114536926Y-60894167D01*
X114723606Y-60910499D01*
X114770276Y-60914583D01*
X114770277Y-60914583D01*
X114770278Y-60914583D01*
X114809168Y-60911180D01*
X115003628Y-60894167D01*
X115229888Y-60833541D01*
X115442184Y-60734546D01*
X115634064Y-60600190D01*
X115799698Y-60434556D01*
X115934054Y-60242676D01*
X116033049Y-60030380D01*
X116093675Y-59804120D01*
X116114091Y-59570769D01*
X116093675Y-59337418D01*
X116040632Y-59139458D01*
X116033051Y-59111165D01*
X116033050Y-59111164D01*
X116033049Y-59111158D01*
X115934054Y-58898862D01*
X115799698Y-58706982D01*
X115634064Y-58541348D01*
X115442184Y-58406992D01*
X115229888Y-58307997D01*
X115229884Y-58307996D01*
X115229880Y-58307994D01*
X115003633Y-58247372D01*
X115003623Y-58247370D01*
X114770278Y-58226955D01*
X114770276Y-58226955D01*
X114536930Y-58247370D01*
X114536920Y-58247372D01*
X114310673Y-58307994D01*
X114310666Y-58307996D01*
X114310666Y-58307997D01*
X114098370Y-58406992D01*
X113906490Y-58541348D01*
X113906488Y-58541349D01*
X113906485Y-58541352D01*
X113740860Y-58706977D01*
X113740857Y-58706980D01*
X113740856Y-58706982D01*
X113606500Y-58898862D01*
X113603395Y-58903297D01*
X113601957Y-58902290D01*
X113557087Y-58945066D01*
X113488479Y-58958282D01*
X113423617Y-58932309D01*
X113397979Y-58902722D01*
X113397159Y-58903297D01*
X113394054Y-58898862D01*
X113259698Y-58706982D01*
X113094064Y-58541348D01*
X112902184Y-58406992D01*
X112689888Y-58307997D01*
X112689884Y-58307996D01*
X112689880Y-58307994D01*
X112463633Y-58247372D01*
X112463623Y-58247370D01*
X112230278Y-58226955D01*
X112230276Y-58226955D01*
X111996930Y-58247370D01*
X111996920Y-58247372D01*
X111770673Y-58307994D01*
X111770666Y-58307996D01*
X111770666Y-58307997D01*
X111558370Y-58406992D01*
X111366490Y-58541348D01*
X111366488Y-58541349D01*
X111366485Y-58541352D01*
X111200860Y-58706977D01*
X111200857Y-58706980D01*
X111200856Y-58706982D01*
X111066500Y-58898862D01*
X111063395Y-58903297D01*
X111061957Y-58902290D01*
X111017087Y-58945066D01*
X110948479Y-58958282D01*
X110883617Y-58932309D01*
X110857979Y-58902722D01*
X110857159Y-58903297D01*
X110854054Y-58898862D01*
X110719698Y-58706982D01*
X110554064Y-58541348D01*
X110362184Y-58406992D01*
X110149888Y-58307997D01*
X110149884Y-58307996D01*
X110149880Y-58307994D01*
X109923633Y-58247372D01*
X109923623Y-58247370D01*
X109690278Y-58226955D01*
X109690276Y-58226955D01*
X109456930Y-58247370D01*
X109456920Y-58247372D01*
X109230673Y-58307994D01*
X109230666Y-58307996D01*
X109230666Y-58307997D01*
X109018370Y-58406992D01*
X108826490Y-58541348D01*
X108826488Y-58541349D01*
X108826485Y-58541352D01*
X108660860Y-58706977D01*
X108660857Y-58706980D01*
X108660856Y-58706982D01*
X108526500Y-58898862D01*
X108523395Y-58903297D01*
X108521957Y-58902290D01*
X108477087Y-58945066D01*
X108408479Y-58958282D01*
X108343617Y-58932309D01*
X108317979Y-58902722D01*
X108317159Y-58903297D01*
X108314054Y-58898862D01*
X108179698Y-58706982D01*
X108014064Y-58541348D01*
X107822184Y-58406992D01*
X107609888Y-58307997D01*
X107609884Y-58307996D01*
X107609880Y-58307994D01*
X107383633Y-58247372D01*
X107383623Y-58247370D01*
X107150278Y-58226955D01*
X107150276Y-58226955D01*
X106916930Y-58247370D01*
X106916920Y-58247372D01*
X106690673Y-58307994D01*
X106690666Y-58307996D01*
X106690666Y-58307997D01*
X106478370Y-58406992D01*
X106286490Y-58541348D01*
X106286488Y-58541349D01*
X106286485Y-58541352D01*
X106120860Y-58706977D01*
X106120857Y-58706980D01*
X106120856Y-58706982D01*
X105986500Y-58898862D01*
X105983395Y-58903297D01*
X105981957Y-58902290D01*
X105937087Y-58945066D01*
X105868479Y-58958282D01*
X105803617Y-58932309D01*
X105777979Y-58902722D01*
X105777159Y-58903297D01*
X105774054Y-58898862D01*
X105639698Y-58706982D01*
X105474064Y-58541348D01*
X105282184Y-58406992D01*
X105069888Y-58307997D01*
X105069884Y-58307996D01*
X105069880Y-58307994D01*
X104843633Y-58247372D01*
X104843623Y-58247370D01*
X104610278Y-58226955D01*
X104610276Y-58226955D01*
X104376930Y-58247370D01*
X104376920Y-58247372D01*
X104150673Y-58307994D01*
X104150666Y-58307996D01*
X104150666Y-58307997D01*
X103938370Y-58406992D01*
X103746490Y-58541348D01*
X103746488Y-58541349D01*
X103746485Y-58541352D01*
X103580860Y-58706977D01*
X103580857Y-58706980D01*
X103580856Y-58706982D01*
X103446500Y-58898862D01*
X103443395Y-58903297D01*
X103441957Y-58902290D01*
X103397087Y-58945066D01*
X103328479Y-58958282D01*
X103263617Y-58932309D01*
X103237979Y-58902722D01*
X103237159Y-58903297D01*
X103234054Y-58898862D01*
X103099698Y-58706982D01*
X102934064Y-58541348D01*
X102742184Y-58406992D01*
X102529888Y-58307997D01*
X102529884Y-58307996D01*
X102529880Y-58307994D01*
X102303633Y-58247372D01*
X102303623Y-58247370D01*
X102070278Y-58226955D01*
X102070276Y-58226955D01*
X101836930Y-58247370D01*
X101836920Y-58247372D01*
X101610673Y-58307994D01*
X101610666Y-58307996D01*
X101610666Y-58307997D01*
X101398370Y-58406992D01*
X101206490Y-58541348D01*
X101206488Y-58541349D01*
X101206485Y-58541352D01*
X101040860Y-58706977D01*
X101040857Y-58706980D01*
X101040856Y-58706982D01*
X100906500Y-58898862D01*
X100903395Y-58903297D01*
X100901957Y-58902290D01*
X100857087Y-58945066D01*
X100788479Y-58958282D01*
X100723617Y-58932309D01*
X100697979Y-58902722D01*
X100697159Y-58903297D01*
X100694054Y-58898862D01*
X100559698Y-58706982D01*
X100394064Y-58541348D01*
X100202184Y-58406992D01*
X99989888Y-58307997D01*
X99989884Y-58307996D01*
X99989880Y-58307994D01*
X99763633Y-58247372D01*
X99763623Y-58247370D01*
X99530278Y-58226955D01*
X99530276Y-58226955D01*
X99296930Y-58247370D01*
X99296920Y-58247372D01*
X99070673Y-58307994D01*
X99070666Y-58307996D01*
X99070666Y-58307997D01*
X98858370Y-58406992D01*
X98666490Y-58541348D01*
X98666488Y-58541349D01*
X98666485Y-58541352D01*
X98500860Y-58706977D01*
X98500857Y-58706980D01*
X98500856Y-58706982D01*
X98366500Y-58898862D01*
X98363395Y-58903297D01*
X98361957Y-58902290D01*
X98317087Y-58945066D01*
X98248479Y-58958282D01*
X98183617Y-58932309D01*
X98157979Y-58902722D01*
X98157159Y-58903297D01*
X98154054Y-58898862D01*
X98019698Y-58706982D01*
X97854064Y-58541348D01*
X97662184Y-58406992D01*
X97449888Y-58307997D01*
X97449884Y-58307996D01*
X97449880Y-58307994D01*
X97223633Y-58247372D01*
X97223623Y-58247370D01*
X96990278Y-58226955D01*
X96990276Y-58226955D01*
X96756930Y-58247370D01*
X96756920Y-58247372D01*
X96530673Y-58307994D01*
X96530666Y-58307996D01*
X96530666Y-58307997D01*
X96318370Y-58406992D01*
X96126490Y-58541348D01*
X96126488Y-58541349D01*
X96126485Y-58541352D01*
X95960860Y-58706977D01*
X95960857Y-58706980D01*
X95960856Y-58706982D01*
X95826500Y-58898862D01*
X95823395Y-58903297D01*
X95821957Y-58902290D01*
X95777087Y-58945066D01*
X95708479Y-58958282D01*
X95643617Y-58932309D01*
X95617979Y-58902722D01*
X95617159Y-58903297D01*
X95614054Y-58898862D01*
X95479698Y-58706982D01*
X95314064Y-58541348D01*
X95122184Y-58406992D01*
X94909888Y-58307997D01*
X94909884Y-58307996D01*
X94909880Y-58307994D01*
X94683633Y-58247372D01*
X94683623Y-58247370D01*
X94450278Y-58226955D01*
X94450276Y-58226955D01*
X94216930Y-58247370D01*
X94216920Y-58247372D01*
X93990673Y-58307994D01*
X93990666Y-58307996D01*
X93990666Y-58307997D01*
X93778370Y-58406992D01*
X93586490Y-58541348D01*
X93586488Y-58541349D01*
X93586485Y-58541352D01*
X93420860Y-58706977D01*
X93420857Y-58706980D01*
X93420856Y-58706982D01*
X93286500Y-58898862D01*
X93283395Y-58903297D01*
X93281957Y-58902290D01*
X93237087Y-58945066D01*
X93168479Y-58958282D01*
X93103617Y-58932309D01*
X93077979Y-58902722D01*
X93077159Y-58903297D01*
X93074054Y-58898862D01*
X92939698Y-58706982D01*
X92774064Y-58541348D01*
X92582184Y-58406992D01*
X92369888Y-58307997D01*
X92369884Y-58307996D01*
X92369880Y-58307994D01*
X92143633Y-58247372D01*
X92143623Y-58247370D01*
X91910278Y-58226955D01*
X91910276Y-58226955D01*
X91676930Y-58247370D01*
X91676920Y-58247372D01*
X91450673Y-58307994D01*
X91450666Y-58307996D01*
X91450666Y-58307997D01*
X91238370Y-58406992D01*
X91046490Y-58541348D01*
X91046488Y-58541349D01*
X91046485Y-58541352D01*
X90880860Y-58706977D01*
X90880857Y-58706980D01*
X90880856Y-58706982D01*
X90746500Y-58898862D01*
X90743395Y-58903297D01*
X90741957Y-58902290D01*
X90697087Y-58945066D01*
X90628479Y-58958282D01*
X90563617Y-58932309D01*
X90537979Y-58902722D01*
X90537159Y-58903297D01*
X90534054Y-58898862D01*
X90399698Y-58706982D01*
X90234064Y-58541348D01*
X90042184Y-58406992D01*
X89829888Y-58307997D01*
X89829884Y-58307996D01*
X89829880Y-58307994D01*
X89603633Y-58247372D01*
X89603623Y-58247370D01*
X89370278Y-58226955D01*
X89370276Y-58226955D01*
X89136930Y-58247370D01*
X89136920Y-58247372D01*
X88910673Y-58307994D01*
X88910666Y-58307996D01*
X88910666Y-58307997D01*
X88698370Y-58406992D01*
X88506490Y-58541348D01*
X88506488Y-58541349D01*
X88506485Y-58541352D01*
X88340860Y-58706977D01*
X88340857Y-58706980D01*
X88340856Y-58706982D01*
X88206500Y-58898862D01*
X88203395Y-58903297D01*
X88201957Y-58902290D01*
X88157087Y-58945066D01*
X88088479Y-58958282D01*
X88023617Y-58932309D01*
X87997979Y-58902722D01*
X87997159Y-58903297D01*
X87994054Y-58898862D01*
X87859698Y-58706982D01*
X87694064Y-58541348D01*
X87502184Y-58406992D01*
X87289888Y-58307997D01*
X87289884Y-58307996D01*
X87289880Y-58307994D01*
X87063633Y-58247372D01*
X87063623Y-58247370D01*
X86830278Y-58226955D01*
X86830276Y-58226955D01*
X86596930Y-58247370D01*
X86596920Y-58247372D01*
X86370673Y-58307994D01*
X86370666Y-58307996D01*
X86370666Y-58307997D01*
X86158370Y-58406992D01*
X85966490Y-58541348D01*
X85966488Y-58541349D01*
X85966485Y-58541352D01*
X85800860Y-58706977D01*
X85800857Y-58706980D01*
X85800856Y-58706982D01*
X85666500Y-58898862D01*
X85663395Y-58903297D01*
X85661957Y-58902290D01*
X85617087Y-58945066D01*
X85548479Y-58958282D01*
X85483617Y-58932309D01*
X85457979Y-58902722D01*
X85457159Y-58903297D01*
X85454054Y-58898862D01*
X85319698Y-58706982D01*
X85154064Y-58541348D01*
X84962184Y-58406992D01*
X84749888Y-58307997D01*
X84749884Y-58307996D01*
X84749880Y-58307994D01*
X84523633Y-58247372D01*
X84523623Y-58247370D01*
X84290278Y-58226955D01*
X84290276Y-58226955D01*
X84056930Y-58247370D01*
X84056920Y-58247372D01*
X83830673Y-58307994D01*
X83830666Y-58307996D01*
X83830666Y-58307997D01*
X83618370Y-58406992D01*
X83426490Y-58541348D01*
X83426488Y-58541349D01*
X83426485Y-58541352D01*
X83260860Y-58706977D01*
X83260857Y-58706980D01*
X83260856Y-58706982D01*
X83126500Y-58898862D01*
X83123395Y-58903297D01*
X83121957Y-58902290D01*
X83077087Y-58945066D01*
X83008479Y-58958282D01*
X82943617Y-58932309D01*
X82917979Y-58902722D01*
X82917159Y-58903297D01*
X82914054Y-58898862D01*
X82779698Y-58706982D01*
X82614064Y-58541348D01*
X82422184Y-58406992D01*
X82209888Y-58307997D01*
X82209884Y-58307996D01*
X82209880Y-58307994D01*
X81983633Y-58247372D01*
X81983623Y-58247370D01*
X81750278Y-58226955D01*
X81750276Y-58226955D01*
X81516930Y-58247370D01*
X81516920Y-58247372D01*
X81290673Y-58307994D01*
X81290666Y-58307996D01*
X81290666Y-58307997D01*
X81078370Y-58406992D01*
X80886490Y-58541348D01*
X80886488Y-58541349D01*
X80886485Y-58541352D01*
X80720860Y-58706977D01*
X80720857Y-58706980D01*
X80720856Y-58706982D01*
X80586500Y-58898862D01*
X80540719Y-58997041D01*
X80487506Y-59111156D01*
X80487502Y-59111165D01*
X80426880Y-59337412D01*
X80426878Y-59337422D01*
X80406463Y-59570768D01*
X80406463Y-59570769D01*
X64006414Y-59570769D01*
X64008820Y-59530991D01*
X64012056Y-59477493D01*
X64012817Y-59470874D01*
X64035833Y-59335404D01*
X64063231Y-59185898D01*
X64064628Y-59179951D01*
X64103877Y-59043706D01*
X64147962Y-58902236D01*
X64149856Y-58897005D01*
X64204818Y-58764307D01*
X64265102Y-58630363D01*
X64267350Y-58625870D01*
X64337312Y-58499279D01*
X64413101Y-58373910D01*
X64415512Y-58370234D01*
X64498720Y-58252961D01*
X64500420Y-58250680D01*
X64589922Y-58136440D01*
X64592412Y-58133464D01*
X64688239Y-58026231D01*
X64690576Y-58023759D01*
X64793252Y-57921083D01*
X64795703Y-57918767D01*
X64902764Y-57823087D01*
X64905753Y-57820586D01*
X65020389Y-57730775D01*
X65022658Y-57729082D01*
X65139348Y-57646283D01*
X65143121Y-57643808D01*
X65269397Y-57567473D01*
X65335845Y-57530747D01*
X65394878Y-57498119D01*
X65399410Y-57495851D01*
X65535024Y-57434816D01*
X65665915Y-57380596D01*
X65671140Y-57378704D01*
X65815598Y-57333689D01*
X65948757Y-57295324D01*
X65954717Y-57293922D01*
X66109904Y-57265483D01*
X66239641Y-57243438D01*
X66246255Y-57242678D01*
X66437681Y-57231098D01*
X66481989Y-57228608D01*
X66531445Y-57225831D01*
X66534923Y-57225733D01*
X66586458Y-57225733D01*
X66586501Y-57225726D01*
X71273152Y-57225233D01*
X137784118Y-57225233D01*
X137787862Y-57225346D01*
G37*
%TD.AperFunction*%
%TD*%
M02*
