%TF.GenerationSoftware,KiCad,Pcbnew,7.0.7*%
%TF.CreationDate,2023-09-27T12:08:52-04:00*%
%TF.ProjectId,DataCollectionPrototype,44617461-436f-46c6-9c65-6374696f6e50,1*%
%TF.SameCoordinates,Original*%
%TF.FileFunction,Copper,L2,Bot*%
%TF.FilePolarity,Positive*%
%FSLAX46Y46*%
G04 Gerber Fmt 4.6, Leading zero omitted, Abs format (unit mm)*
G04 Created by KiCad (PCBNEW 7.0.7) date 2023-09-27 12:08:52*
%MOMM*%
%LPD*%
G01*
G04 APERTURE LIST*
G04 Aperture macros list*
%AMRoundRect*
0 Rectangle with rounded corners*
0 $1 Rounding radius*
0 $2 $3 $4 $5 $6 $7 $8 $9 X,Y pos of 4 corners*
0 Add a 4 corners polygon primitive as box body*
4,1,4,$2,$3,$4,$5,$6,$7,$8,$9,$2,$3,0*
0 Add four circle primitives for the rounded corners*
1,1,$1+$1,$2,$3*
1,1,$1+$1,$4,$5*
1,1,$1+$1,$6,$7*
1,1,$1+$1,$8,$9*
0 Add four rect primitives between the rounded corners*
20,1,$1+$1,$2,$3,$4,$5,0*
20,1,$1+$1,$4,$5,$6,$7,0*
20,1,$1+$1,$6,$7,$8,$9,0*
20,1,$1+$1,$8,$9,$2,$3,0*%
G04 Aperture macros list end*
%ADD10C,0.100000*%
%ADD11C,0.150000*%
%ADD12C,0.300000*%
%ADD13C,0.400000*%
%TA.AperFunction,SMDPad,CuDef*%
%ADD14R,1.900000X1.400000*%
%TD*%
%TA.AperFunction,SMDPad,CuDef*%
%ADD15R,1.400000X1.800000*%
%TD*%
%TA.AperFunction,SMDPad,CuDef*%
%ADD16R,1.500000X0.700000*%
%TD*%
%TA.AperFunction,ComponentPad*%
%ADD17C,1.400000*%
%TD*%
%TA.AperFunction,ComponentPad*%
%ADD18O,1.400000X1.400000*%
%TD*%
%TA.AperFunction,ComponentPad*%
%ADD19C,1.778000*%
%TD*%
%TA.AperFunction,ComponentPad*%
%ADD20C,1.676400*%
%TD*%
%TA.AperFunction,SMDPad,CuDef*%
%ADD21RoundRect,0.381000X0.381000X-0.762000X0.381000X0.762000X-0.381000X0.762000X-0.381000X-0.762000X0*%
%TD*%
%TA.AperFunction,SMDPad,CuDef*%
%ADD22R,1.100000X1.400000*%
%TD*%
%TA.AperFunction,SMDPad,CuDef*%
%ADD23R,1.200000X0.550000*%
%TD*%
%TA.AperFunction,SMDPad,CuDef*%
%ADD24R,2.032000X0.660400*%
%TD*%
%TA.AperFunction,SMDPad,CuDef*%
%ADD25R,1.950000X1.500000*%
%TD*%
%TA.AperFunction,SMDPad,CuDef*%
%ADD26R,1.200000X1.200000*%
%TD*%
%TA.AperFunction,ViaPad*%
%ADD27C,0.800000*%
%TD*%
%TA.AperFunction,Conductor*%
%ADD28C,0.250000*%
%TD*%
G04 APERTURE END LIST*
D10*
D11*
X90007200Y-104005800D02*
X198007200Y-104005800D01*
X198007200Y-136005800D01*
X90007200Y-136005800D01*
X90007200Y-104005800D01*
D10*
D11*
X10000000Y-10000000D02*
X200007200Y-10000000D01*
X200007200Y-138005800D01*
X10000000Y-138005800D01*
X10000000Y-10000000D01*
D10*
D11*
X12000000Y-12000000D02*
X198007200Y-12000000D01*
X198007200Y-136005800D01*
X12000000Y-136005800D01*
X12000000Y-12000000D01*
D10*
D11*
X60000000Y-12000000D02*
X60000000Y-10000000D01*
D10*
D11*
X110000000Y-12000000D02*
X110000000Y-10000000D01*
D10*
D11*
X160000000Y-12000000D02*
X160000000Y-10000000D01*
D10*
D11*
X36089160Y-11593604D02*
X35346303Y-11593604D01*
X35717731Y-11593604D02*
X35717731Y-10293604D01*
X35717731Y-10293604D02*
X35593922Y-10479319D01*
X35593922Y-10479319D02*
X35470112Y-10603128D01*
X35470112Y-10603128D02*
X35346303Y-10665033D01*
D10*
D11*
X85346303Y-10417414D02*
X85408207Y-10355509D01*
X85408207Y-10355509D02*
X85532017Y-10293604D01*
X85532017Y-10293604D02*
X85841541Y-10293604D01*
X85841541Y-10293604D02*
X85965350Y-10355509D01*
X85965350Y-10355509D02*
X86027255Y-10417414D01*
X86027255Y-10417414D02*
X86089160Y-10541223D01*
X86089160Y-10541223D02*
X86089160Y-10665033D01*
X86089160Y-10665033D02*
X86027255Y-10850747D01*
X86027255Y-10850747D02*
X85284398Y-11593604D01*
X85284398Y-11593604D02*
X86089160Y-11593604D01*
D10*
D11*
X135284398Y-10293604D02*
X136089160Y-10293604D01*
X136089160Y-10293604D02*
X135655826Y-10788842D01*
X135655826Y-10788842D02*
X135841541Y-10788842D01*
X135841541Y-10788842D02*
X135965350Y-10850747D01*
X135965350Y-10850747D02*
X136027255Y-10912652D01*
X136027255Y-10912652D02*
X136089160Y-11036461D01*
X136089160Y-11036461D02*
X136089160Y-11345985D01*
X136089160Y-11345985D02*
X136027255Y-11469795D01*
X136027255Y-11469795D02*
X135965350Y-11531700D01*
X135965350Y-11531700D02*
X135841541Y-11593604D01*
X135841541Y-11593604D02*
X135470112Y-11593604D01*
X135470112Y-11593604D02*
X135346303Y-11531700D01*
X135346303Y-11531700D02*
X135284398Y-11469795D01*
D10*
D11*
X185965350Y-10726938D02*
X185965350Y-11593604D01*
X185655826Y-10231700D02*
X185346303Y-11160271D01*
X185346303Y-11160271D02*
X186151064Y-11160271D01*
D10*
D11*
X60000000Y-136005800D02*
X60000000Y-138005800D01*
D10*
D11*
X110000000Y-136005800D02*
X110000000Y-138005800D01*
D10*
D11*
X160000000Y-136005800D02*
X160000000Y-138005800D01*
D10*
D11*
X36089160Y-137599404D02*
X35346303Y-137599404D01*
X35717731Y-137599404D02*
X35717731Y-136299404D01*
X35717731Y-136299404D02*
X35593922Y-136485119D01*
X35593922Y-136485119D02*
X35470112Y-136608928D01*
X35470112Y-136608928D02*
X35346303Y-136670833D01*
D10*
D11*
X85346303Y-136423214D02*
X85408207Y-136361309D01*
X85408207Y-136361309D02*
X85532017Y-136299404D01*
X85532017Y-136299404D02*
X85841541Y-136299404D01*
X85841541Y-136299404D02*
X85965350Y-136361309D01*
X85965350Y-136361309D02*
X86027255Y-136423214D01*
X86027255Y-136423214D02*
X86089160Y-136547023D01*
X86089160Y-136547023D02*
X86089160Y-136670833D01*
X86089160Y-136670833D02*
X86027255Y-136856547D01*
X86027255Y-136856547D02*
X85284398Y-137599404D01*
X85284398Y-137599404D02*
X86089160Y-137599404D01*
D10*
D11*
X135284398Y-136299404D02*
X136089160Y-136299404D01*
X136089160Y-136299404D02*
X135655826Y-136794642D01*
X135655826Y-136794642D02*
X135841541Y-136794642D01*
X135841541Y-136794642D02*
X135965350Y-136856547D01*
X135965350Y-136856547D02*
X136027255Y-136918452D01*
X136027255Y-136918452D02*
X136089160Y-137042261D01*
X136089160Y-137042261D02*
X136089160Y-137351785D01*
X136089160Y-137351785D02*
X136027255Y-137475595D01*
X136027255Y-137475595D02*
X135965350Y-137537500D01*
X135965350Y-137537500D02*
X135841541Y-137599404D01*
X135841541Y-137599404D02*
X135470112Y-137599404D01*
X135470112Y-137599404D02*
X135346303Y-137537500D01*
X135346303Y-137537500D02*
X135284398Y-137475595D01*
D10*
D11*
X185965350Y-136732738D02*
X185965350Y-137599404D01*
X185655826Y-136237500D02*
X185346303Y-137166071D01*
X185346303Y-137166071D02*
X186151064Y-137166071D01*
D10*
D11*
X10000000Y-60000000D02*
X12000000Y-60000000D01*
D10*
D11*
X10000000Y-110000000D02*
X12000000Y-110000000D01*
D10*
D11*
X10690476Y-35222176D02*
X11309523Y-35222176D01*
X10566666Y-35593604D02*
X10999999Y-34293604D01*
X10999999Y-34293604D02*
X11433333Y-35593604D01*
D10*
D11*
X11092857Y-84912652D02*
X11278571Y-84974557D01*
X11278571Y-84974557D02*
X11340476Y-85036461D01*
X11340476Y-85036461D02*
X11402380Y-85160271D01*
X11402380Y-85160271D02*
X11402380Y-85345985D01*
X11402380Y-85345985D02*
X11340476Y-85469795D01*
X11340476Y-85469795D02*
X11278571Y-85531700D01*
X11278571Y-85531700D02*
X11154761Y-85593604D01*
X11154761Y-85593604D02*
X10659523Y-85593604D01*
X10659523Y-85593604D02*
X10659523Y-84293604D01*
X10659523Y-84293604D02*
X11092857Y-84293604D01*
X11092857Y-84293604D02*
X11216666Y-84355509D01*
X11216666Y-84355509D02*
X11278571Y-84417414D01*
X11278571Y-84417414D02*
X11340476Y-84541223D01*
X11340476Y-84541223D02*
X11340476Y-84665033D01*
X11340476Y-84665033D02*
X11278571Y-84788842D01*
X11278571Y-84788842D02*
X11216666Y-84850747D01*
X11216666Y-84850747D02*
X11092857Y-84912652D01*
X11092857Y-84912652D02*
X10659523Y-84912652D01*
D10*
D11*
X11402380Y-135469795D02*
X11340476Y-135531700D01*
X11340476Y-135531700D02*
X11154761Y-135593604D01*
X11154761Y-135593604D02*
X11030952Y-135593604D01*
X11030952Y-135593604D02*
X10845238Y-135531700D01*
X10845238Y-135531700D02*
X10721428Y-135407890D01*
X10721428Y-135407890D02*
X10659523Y-135284080D01*
X10659523Y-135284080D02*
X10597619Y-135036461D01*
X10597619Y-135036461D02*
X10597619Y-134850747D01*
X10597619Y-134850747D02*
X10659523Y-134603128D01*
X10659523Y-134603128D02*
X10721428Y-134479319D01*
X10721428Y-134479319D02*
X10845238Y-134355509D01*
X10845238Y-134355509D02*
X11030952Y-134293604D01*
X11030952Y-134293604D02*
X11154761Y-134293604D01*
X11154761Y-134293604D02*
X11340476Y-134355509D01*
X11340476Y-134355509D02*
X11402380Y-134417414D01*
D10*
D11*
X200007200Y-60000000D02*
X198007200Y-60000000D01*
D10*
D11*
X200007200Y-110000000D02*
X198007200Y-110000000D01*
D10*
D11*
X198697676Y-35222176D02*
X199316723Y-35222176D01*
X198573866Y-35593604D02*
X199007199Y-34293604D01*
X199007199Y-34293604D02*
X199440533Y-35593604D01*
D10*
D11*
X199100057Y-84912652D02*
X199285771Y-84974557D01*
X199285771Y-84974557D02*
X199347676Y-85036461D01*
X199347676Y-85036461D02*
X199409580Y-85160271D01*
X199409580Y-85160271D02*
X199409580Y-85345985D01*
X199409580Y-85345985D02*
X199347676Y-85469795D01*
X199347676Y-85469795D02*
X199285771Y-85531700D01*
X199285771Y-85531700D02*
X199161961Y-85593604D01*
X199161961Y-85593604D02*
X198666723Y-85593604D01*
X198666723Y-85593604D02*
X198666723Y-84293604D01*
X198666723Y-84293604D02*
X199100057Y-84293604D01*
X199100057Y-84293604D02*
X199223866Y-84355509D01*
X199223866Y-84355509D02*
X199285771Y-84417414D01*
X199285771Y-84417414D02*
X199347676Y-84541223D01*
X199347676Y-84541223D02*
X199347676Y-84665033D01*
X199347676Y-84665033D02*
X199285771Y-84788842D01*
X199285771Y-84788842D02*
X199223866Y-84850747D01*
X199223866Y-84850747D02*
X199100057Y-84912652D01*
X199100057Y-84912652D02*
X198666723Y-84912652D01*
D10*
D11*
X199409580Y-135469795D02*
X199347676Y-135531700D01*
X199347676Y-135531700D02*
X199161961Y-135593604D01*
X199161961Y-135593604D02*
X199038152Y-135593604D01*
X199038152Y-135593604D02*
X198852438Y-135531700D01*
X198852438Y-135531700D02*
X198728628Y-135407890D01*
X198728628Y-135407890D02*
X198666723Y-135284080D01*
X198666723Y-135284080D02*
X198604819Y-135036461D01*
X198604819Y-135036461D02*
X198604819Y-134850747D01*
X198604819Y-134850747D02*
X198666723Y-134603128D01*
X198666723Y-134603128D02*
X198728628Y-134479319D01*
X198728628Y-134479319D02*
X198852438Y-134355509D01*
X198852438Y-134355509D02*
X199038152Y-134293604D01*
X199038152Y-134293604D02*
X199161961Y-134293604D01*
X199161961Y-134293604D02*
X199347676Y-134355509D01*
X199347676Y-134355509D02*
X199409580Y-134417414D01*
D10*
D11*
X113463026Y-131791928D02*
X113463026Y-130291928D01*
X113463026Y-130291928D02*
X113820169Y-130291928D01*
X113820169Y-130291928D02*
X114034455Y-130363357D01*
X114034455Y-130363357D02*
X114177312Y-130506214D01*
X114177312Y-130506214D02*
X114248741Y-130649071D01*
X114248741Y-130649071D02*
X114320169Y-130934785D01*
X114320169Y-130934785D02*
X114320169Y-131149071D01*
X114320169Y-131149071D02*
X114248741Y-131434785D01*
X114248741Y-131434785D02*
X114177312Y-131577642D01*
X114177312Y-131577642D02*
X114034455Y-131720500D01*
X114034455Y-131720500D02*
X113820169Y-131791928D01*
X113820169Y-131791928D02*
X113463026Y-131791928D01*
X115605884Y-131791928D02*
X115605884Y-131006214D01*
X115605884Y-131006214D02*
X115534455Y-130863357D01*
X115534455Y-130863357D02*
X115391598Y-130791928D01*
X115391598Y-130791928D02*
X115105884Y-130791928D01*
X115105884Y-130791928D02*
X114963026Y-130863357D01*
X115605884Y-131720500D02*
X115463026Y-131791928D01*
X115463026Y-131791928D02*
X115105884Y-131791928D01*
X115105884Y-131791928D02*
X114963026Y-131720500D01*
X114963026Y-131720500D02*
X114891598Y-131577642D01*
X114891598Y-131577642D02*
X114891598Y-131434785D01*
X114891598Y-131434785D02*
X114963026Y-131291928D01*
X114963026Y-131291928D02*
X115105884Y-131220500D01*
X115105884Y-131220500D02*
X115463026Y-131220500D01*
X115463026Y-131220500D02*
X115605884Y-131149071D01*
X116105884Y-130791928D02*
X116677312Y-130791928D01*
X116320169Y-130291928D02*
X116320169Y-131577642D01*
X116320169Y-131577642D02*
X116391598Y-131720500D01*
X116391598Y-131720500D02*
X116534455Y-131791928D01*
X116534455Y-131791928D02*
X116677312Y-131791928D01*
X117748741Y-131720500D02*
X117605884Y-131791928D01*
X117605884Y-131791928D02*
X117320170Y-131791928D01*
X117320170Y-131791928D02*
X117177312Y-131720500D01*
X117177312Y-131720500D02*
X117105884Y-131577642D01*
X117105884Y-131577642D02*
X117105884Y-131006214D01*
X117105884Y-131006214D02*
X117177312Y-130863357D01*
X117177312Y-130863357D02*
X117320170Y-130791928D01*
X117320170Y-130791928D02*
X117605884Y-130791928D01*
X117605884Y-130791928D02*
X117748741Y-130863357D01*
X117748741Y-130863357D02*
X117820170Y-131006214D01*
X117820170Y-131006214D02*
X117820170Y-131149071D01*
X117820170Y-131149071D02*
X117105884Y-131291928D01*
X118463026Y-131649071D02*
X118534455Y-131720500D01*
X118534455Y-131720500D02*
X118463026Y-131791928D01*
X118463026Y-131791928D02*
X118391598Y-131720500D01*
X118391598Y-131720500D02*
X118463026Y-131649071D01*
X118463026Y-131649071D02*
X118463026Y-131791928D01*
X118463026Y-130863357D02*
X118534455Y-130934785D01*
X118534455Y-130934785D02*
X118463026Y-131006214D01*
X118463026Y-131006214D02*
X118391598Y-130934785D01*
X118391598Y-130934785D02*
X118463026Y-130863357D01*
X118463026Y-130863357D02*
X118463026Y-131006214D01*
X120391598Y-131791928D02*
X120677312Y-131791928D01*
X120677312Y-131791928D02*
X120820169Y-131720500D01*
X120820169Y-131720500D02*
X120891598Y-131649071D01*
X120891598Y-131649071D02*
X121034455Y-131434785D01*
X121034455Y-131434785D02*
X121105884Y-131149071D01*
X121105884Y-131149071D02*
X121105884Y-130577642D01*
X121105884Y-130577642D02*
X121034455Y-130434785D01*
X121034455Y-130434785D02*
X120963027Y-130363357D01*
X120963027Y-130363357D02*
X120820169Y-130291928D01*
X120820169Y-130291928D02*
X120534455Y-130291928D01*
X120534455Y-130291928D02*
X120391598Y-130363357D01*
X120391598Y-130363357D02*
X120320169Y-130434785D01*
X120320169Y-130434785D02*
X120248741Y-130577642D01*
X120248741Y-130577642D02*
X120248741Y-130934785D01*
X120248741Y-130934785D02*
X120320169Y-131077642D01*
X120320169Y-131077642D02*
X120391598Y-131149071D01*
X120391598Y-131149071D02*
X120534455Y-131220500D01*
X120534455Y-131220500D02*
X120820169Y-131220500D01*
X120820169Y-131220500D02*
X120963027Y-131149071D01*
X120963027Y-131149071D02*
X121034455Y-131077642D01*
X121034455Y-131077642D02*
X121105884Y-130934785D01*
X122820169Y-130220500D02*
X121534455Y-132149071D01*
X123248741Y-130434785D02*
X123320169Y-130363357D01*
X123320169Y-130363357D02*
X123463027Y-130291928D01*
X123463027Y-130291928D02*
X123820169Y-130291928D01*
X123820169Y-130291928D02*
X123963027Y-130363357D01*
X123963027Y-130363357D02*
X124034455Y-130434785D01*
X124034455Y-130434785D02*
X124105884Y-130577642D01*
X124105884Y-130577642D02*
X124105884Y-130720500D01*
X124105884Y-130720500D02*
X124034455Y-130934785D01*
X124034455Y-130934785D02*
X123177312Y-131791928D01*
X123177312Y-131791928D02*
X124105884Y-131791928D01*
X125391598Y-130791928D02*
X125391598Y-131791928D01*
X125034455Y-130220500D02*
X124677312Y-131291928D01*
X124677312Y-131291928D02*
X125605883Y-131291928D01*
X127248740Y-130220500D02*
X125963026Y-132149071D01*
X127677312Y-130434785D02*
X127748740Y-130363357D01*
X127748740Y-130363357D02*
X127891598Y-130291928D01*
X127891598Y-130291928D02*
X128248740Y-130291928D01*
X128248740Y-130291928D02*
X128391598Y-130363357D01*
X128391598Y-130363357D02*
X128463026Y-130434785D01*
X128463026Y-130434785D02*
X128534455Y-130577642D01*
X128534455Y-130577642D02*
X128534455Y-130720500D01*
X128534455Y-130720500D02*
X128463026Y-130934785D01*
X128463026Y-130934785D02*
X127605883Y-131791928D01*
X127605883Y-131791928D02*
X128534455Y-131791928D01*
X129463026Y-130291928D02*
X129605883Y-130291928D01*
X129605883Y-130291928D02*
X129748740Y-130363357D01*
X129748740Y-130363357D02*
X129820169Y-130434785D01*
X129820169Y-130434785D02*
X129891597Y-130577642D01*
X129891597Y-130577642D02*
X129963026Y-130863357D01*
X129963026Y-130863357D02*
X129963026Y-131220500D01*
X129963026Y-131220500D02*
X129891597Y-131506214D01*
X129891597Y-131506214D02*
X129820169Y-131649071D01*
X129820169Y-131649071D02*
X129748740Y-131720500D01*
X129748740Y-131720500D02*
X129605883Y-131791928D01*
X129605883Y-131791928D02*
X129463026Y-131791928D01*
X129463026Y-131791928D02*
X129320169Y-131720500D01*
X129320169Y-131720500D02*
X129248740Y-131649071D01*
X129248740Y-131649071D02*
X129177311Y-131506214D01*
X129177311Y-131506214D02*
X129105883Y-131220500D01*
X129105883Y-131220500D02*
X129105883Y-130863357D01*
X129105883Y-130863357D02*
X129177311Y-130577642D01*
X129177311Y-130577642D02*
X129248740Y-130434785D01*
X129248740Y-130434785D02*
X129320169Y-130363357D01*
X129320169Y-130363357D02*
X129463026Y-130291928D01*
X130534454Y-130434785D02*
X130605882Y-130363357D01*
X130605882Y-130363357D02*
X130748740Y-130291928D01*
X130748740Y-130291928D02*
X131105882Y-130291928D01*
X131105882Y-130291928D02*
X131248740Y-130363357D01*
X131248740Y-130363357D02*
X131320168Y-130434785D01*
X131320168Y-130434785D02*
X131391597Y-130577642D01*
X131391597Y-130577642D02*
X131391597Y-130720500D01*
X131391597Y-130720500D02*
X131320168Y-130934785D01*
X131320168Y-130934785D02*
X130463025Y-131791928D01*
X130463025Y-131791928D02*
X131391597Y-131791928D01*
X131891596Y-130291928D02*
X132820168Y-130291928D01*
X132820168Y-130291928D02*
X132320168Y-130863357D01*
X132320168Y-130863357D02*
X132534453Y-130863357D01*
X132534453Y-130863357D02*
X132677311Y-130934785D01*
X132677311Y-130934785D02*
X132748739Y-131006214D01*
X132748739Y-131006214D02*
X132820168Y-131149071D01*
X132820168Y-131149071D02*
X132820168Y-131506214D01*
X132820168Y-131506214D02*
X132748739Y-131649071D01*
X132748739Y-131649071D02*
X132677311Y-131720500D01*
X132677311Y-131720500D02*
X132534453Y-131791928D01*
X132534453Y-131791928D02*
X132105882Y-131791928D01*
X132105882Y-131791928D02*
X131963025Y-131720500D01*
X131963025Y-131720500D02*
X131891596Y-131649071D01*
D10*
D11*
X90007200Y-132505800D02*
X198007200Y-132505800D01*
D10*
D11*
X91463026Y-134591928D02*
X91463026Y-133091928D01*
X92320169Y-134591928D02*
X91677312Y-133734785D01*
X92320169Y-133091928D02*
X91463026Y-133949071D01*
X92963026Y-134591928D02*
X92963026Y-133591928D01*
X92963026Y-133091928D02*
X92891598Y-133163357D01*
X92891598Y-133163357D02*
X92963026Y-133234785D01*
X92963026Y-133234785D02*
X93034455Y-133163357D01*
X93034455Y-133163357D02*
X92963026Y-133091928D01*
X92963026Y-133091928D02*
X92963026Y-133234785D01*
X94534455Y-134449071D02*
X94463027Y-134520500D01*
X94463027Y-134520500D02*
X94248741Y-134591928D01*
X94248741Y-134591928D02*
X94105884Y-134591928D01*
X94105884Y-134591928D02*
X93891598Y-134520500D01*
X93891598Y-134520500D02*
X93748741Y-134377642D01*
X93748741Y-134377642D02*
X93677312Y-134234785D01*
X93677312Y-134234785D02*
X93605884Y-133949071D01*
X93605884Y-133949071D02*
X93605884Y-133734785D01*
X93605884Y-133734785D02*
X93677312Y-133449071D01*
X93677312Y-133449071D02*
X93748741Y-133306214D01*
X93748741Y-133306214D02*
X93891598Y-133163357D01*
X93891598Y-133163357D02*
X94105884Y-133091928D01*
X94105884Y-133091928D02*
X94248741Y-133091928D01*
X94248741Y-133091928D02*
X94463027Y-133163357D01*
X94463027Y-133163357D02*
X94534455Y-133234785D01*
X95820170Y-134591928D02*
X95820170Y-133806214D01*
X95820170Y-133806214D02*
X95748741Y-133663357D01*
X95748741Y-133663357D02*
X95605884Y-133591928D01*
X95605884Y-133591928D02*
X95320170Y-133591928D01*
X95320170Y-133591928D02*
X95177312Y-133663357D01*
X95820170Y-134520500D02*
X95677312Y-134591928D01*
X95677312Y-134591928D02*
X95320170Y-134591928D01*
X95320170Y-134591928D02*
X95177312Y-134520500D01*
X95177312Y-134520500D02*
X95105884Y-134377642D01*
X95105884Y-134377642D02*
X95105884Y-134234785D01*
X95105884Y-134234785D02*
X95177312Y-134091928D01*
X95177312Y-134091928D02*
X95320170Y-134020500D01*
X95320170Y-134020500D02*
X95677312Y-134020500D01*
X95677312Y-134020500D02*
X95820170Y-133949071D01*
X97177313Y-134591928D02*
X97177313Y-133091928D01*
X97177313Y-134520500D02*
X97034455Y-134591928D01*
X97034455Y-134591928D02*
X96748741Y-134591928D01*
X96748741Y-134591928D02*
X96605884Y-134520500D01*
X96605884Y-134520500D02*
X96534455Y-134449071D01*
X96534455Y-134449071D02*
X96463027Y-134306214D01*
X96463027Y-134306214D02*
X96463027Y-133877642D01*
X96463027Y-133877642D02*
X96534455Y-133734785D01*
X96534455Y-133734785D02*
X96605884Y-133663357D01*
X96605884Y-133663357D02*
X96748741Y-133591928D01*
X96748741Y-133591928D02*
X97034455Y-133591928D01*
X97034455Y-133591928D02*
X97177313Y-133663357D01*
X99034455Y-133806214D02*
X99534455Y-133806214D01*
X99748741Y-134591928D02*
X99034455Y-134591928D01*
X99034455Y-134591928D02*
X99034455Y-133091928D01*
X99034455Y-133091928D02*
X99748741Y-133091928D01*
X100391598Y-134449071D02*
X100463027Y-134520500D01*
X100463027Y-134520500D02*
X100391598Y-134591928D01*
X100391598Y-134591928D02*
X100320170Y-134520500D01*
X100320170Y-134520500D02*
X100391598Y-134449071D01*
X100391598Y-134449071D02*
X100391598Y-134591928D01*
X101105884Y-134591928D02*
X101105884Y-133091928D01*
X101105884Y-133091928D02*
X101463027Y-133091928D01*
X101463027Y-133091928D02*
X101677313Y-133163357D01*
X101677313Y-133163357D02*
X101820170Y-133306214D01*
X101820170Y-133306214D02*
X101891599Y-133449071D01*
X101891599Y-133449071D02*
X101963027Y-133734785D01*
X101963027Y-133734785D02*
X101963027Y-133949071D01*
X101963027Y-133949071D02*
X101891599Y-134234785D01*
X101891599Y-134234785D02*
X101820170Y-134377642D01*
X101820170Y-134377642D02*
X101677313Y-134520500D01*
X101677313Y-134520500D02*
X101463027Y-134591928D01*
X101463027Y-134591928D02*
X101105884Y-134591928D01*
X102605884Y-134449071D02*
X102677313Y-134520500D01*
X102677313Y-134520500D02*
X102605884Y-134591928D01*
X102605884Y-134591928D02*
X102534456Y-134520500D01*
X102534456Y-134520500D02*
X102605884Y-134449071D01*
X102605884Y-134449071D02*
X102605884Y-134591928D01*
X103248742Y-134163357D02*
X103963028Y-134163357D01*
X103105885Y-134591928D02*
X103605885Y-133091928D01*
X103605885Y-133091928D02*
X104105885Y-134591928D01*
X104605884Y-134449071D02*
X104677313Y-134520500D01*
X104677313Y-134520500D02*
X104605884Y-134591928D01*
X104605884Y-134591928D02*
X104534456Y-134520500D01*
X104534456Y-134520500D02*
X104605884Y-134449071D01*
X104605884Y-134449071D02*
X104605884Y-134591928D01*
X107605884Y-134591928D02*
X107605884Y-133091928D01*
X107748742Y-134020500D02*
X108177313Y-134591928D01*
X108177313Y-133591928D02*
X107605884Y-134163357D01*
X108820170Y-134591928D02*
X108820170Y-133591928D01*
X108820170Y-133091928D02*
X108748742Y-133163357D01*
X108748742Y-133163357D02*
X108820170Y-133234785D01*
X108820170Y-133234785D02*
X108891599Y-133163357D01*
X108891599Y-133163357D02*
X108820170Y-133091928D01*
X108820170Y-133091928D02*
X108820170Y-133234785D01*
X110177314Y-134520500D02*
X110034456Y-134591928D01*
X110034456Y-134591928D02*
X109748742Y-134591928D01*
X109748742Y-134591928D02*
X109605885Y-134520500D01*
X109605885Y-134520500D02*
X109534456Y-134449071D01*
X109534456Y-134449071D02*
X109463028Y-134306214D01*
X109463028Y-134306214D02*
X109463028Y-133877642D01*
X109463028Y-133877642D02*
X109534456Y-133734785D01*
X109534456Y-133734785D02*
X109605885Y-133663357D01*
X109605885Y-133663357D02*
X109748742Y-133591928D01*
X109748742Y-133591928D02*
X110034456Y-133591928D01*
X110034456Y-133591928D02*
X110177314Y-133663357D01*
X111463028Y-134591928D02*
X111463028Y-133806214D01*
X111463028Y-133806214D02*
X111391599Y-133663357D01*
X111391599Y-133663357D02*
X111248742Y-133591928D01*
X111248742Y-133591928D02*
X110963028Y-133591928D01*
X110963028Y-133591928D02*
X110820170Y-133663357D01*
X111463028Y-134520500D02*
X111320170Y-134591928D01*
X111320170Y-134591928D02*
X110963028Y-134591928D01*
X110963028Y-134591928D02*
X110820170Y-134520500D01*
X110820170Y-134520500D02*
X110748742Y-134377642D01*
X110748742Y-134377642D02*
X110748742Y-134234785D01*
X110748742Y-134234785D02*
X110820170Y-134091928D01*
X110820170Y-134091928D02*
X110963028Y-134020500D01*
X110963028Y-134020500D02*
X111320170Y-134020500D01*
X111320170Y-134020500D02*
X111463028Y-133949071D01*
X112820171Y-134591928D02*
X112820171Y-133091928D01*
X112820171Y-134520500D02*
X112677313Y-134591928D01*
X112677313Y-134591928D02*
X112391599Y-134591928D01*
X112391599Y-134591928D02*
X112248742Y-134520500D01*
X112248742Y-134520500D02*
X112177313Y-134449071D01*
X112177313Y-134449071D02*
X112105885Y-134306214D01*
X112105885Y-134306214D02*
X112105885Y-133877642D01*
X112105885Y-133877642D02*
X112177313Y-133734785D01*
X112177313Y-133734785D02*
X112248742Y-133663357D01*
X112248742Y-133663357D02*
X112391599Y-133591928D01*
X112391599Y-133591928D02*
X112677313Y-133591928D01*
X112677313Y-133591928D02*
X112820171Y-133663357D01*
X114534456Y-133091928D02*
X115534456Y-133091928D01*
X115534456Y-133091928D02*
X114891599Y-134591928D01*
X116105884Y-134449071D02*
X116177313Y-134520500D01*
X116177313Y-134520500D02*
X116105884Y-134591928D01*
X116105884Y-134591928D02*
X116034456Y-134520500D01*
X116034456Y-134520500D02*
X116105884Y-134449071D01*
X116105884Y-134449071D02*
X116105884Y-134591928D01*
X117105885Y-133091928D02*
X117248742Y-133091928D01*
X117248742Y-133091928D02*
X117391599Y-133163357D01*
X117391599Y-133163357D02*
X117463028Y-133234785D01*
X117463028Y-133234785D02*
X117534456Y-133377642D01*
X117534456Y-133377642D02*
X117605885Y-133663357D01*
X117605885Y-133663357D02*
X117605885Y-134020500D01*
X117605885Y-134020500D02*
X117534456Y-134306214D01*
X117534456Y-134306214D02*
X117463028Y-134449071D01*
X117463028Y-134449071D02*
X117391599Y-134520500D01*
X117391599Y-134520500D02*
X117248742Y-134591928D01*
X117248742Y-134591928D02*
X117105885Y-134591928D01*
X117105885Y-134591928D02*
X116963028Y-134520500D01*
X116963028Y-134520500D02*
X116891599Y-134449071D01*
X116891599Y-134449071D02*
X116820170Y-134306214D01*
X116820170Y-134306214D02*
X116748742Y-134020500D01*
X116748742Y-134020500D02*
X116748742Y-133663357D01*
X116748742Y-133663357D02*
X116820170Y-133377642D01*
X116820170Y-133377642D02*
X116891599Y-133234785D01*
X116891599Y-133234785D02*
X116963028Y-133163357D01*
X116963028Y-133163357D02*
X117105885Y-133091928D01*
X118248741Y-134449071D02*
X118320170Y-134520500D01*
X118320170Y-134520500D02*
X118248741Y-134591928D01*
X118248741Y-134591928D02*
X118177313Y-134520500D01*
X118177313Y-134520500D02*
X118248741Y-134449071D01*
X118248741Y-134449071D02*
X118248741Y-134591928D01*
X118820170Y-133091928D02*
X119820170Y-133091928D01*
X119820170Y-133091928D02*
X119177313Y-134591928D01*
D10*
D11*
X90007200Y-129505800D02*
X198007200Y-129505800D01*
D10*
D12*
X177418853Y-131784128D02*
X176918853Y-131069842D01*
X176561710Y-131784128D02*
X176561710Y-130284128D01*
X176561710Y-130284128D02*
X177133139Y-130284128D01*
X177133139Y-130284128D02*
X177275996Y-130355557D01*
X177275996Y-130355557D02*
X177347425Y-130426985D01*
X177347425Y-130426985D02*
X177418853Y-130569842D01*
X177418853Y-130569842D02*
X177418853Y-130784128D01*
X177418853Y-130784128D02*
X177347425Y-130926985D01*
X177347425Y-130926985D02*
X177275996Y-130998414D01*
X177275996Y-130998414D02*
X177133139Y-131069842D01*
X177133139Y-131069842D02*
X176561710Y-131069842D01*
X178633139Y-131712700D02*
X178490282Y-131784128D01*
X178490282Y-131784128D02*
X178204568Y-131784128D01*
X178204568Y-131784128D02*
X178061710Y-131712700D01*
X178061710Y-131712700D02*
X177990282Y-131569842D01*
X177990282Y-131569842D02*
X177990282Y-130998414D01*
X177990282Y-130998414D02*
X178061710Y-130855557D01*
X178061710Y-130855557D02*
X178204568Y-130784128D01*
X178204568Y-130784128D02*
X178490282Y-130784128D01*
X178490282Y-130784128D02*
X178633139Y-130855557D01*
X178633139Y-130855557D02*
X178704568Y-130998414D01*
X178704568Y-130998414D02*
X178704568Y-131141271D01*
X178704568Y-131141271D02*
X177990282Y-131284128D01*
X179204567Y-130784128D02*
X179561710Y-131784128D01*
X179561710Y-131784128D02*
X179918853Y-130784128D01*
X180490281Y-131641271D02*
X180561710Y-131712700D01*
X180561710Y-131712700D02*
X180490281Y-131784128D01*
X180490281Y-131784128D02*
X180418853Y-131712700D01*
X180418853Y-131712700D02*
X180490281Y-131641271D01*
X180490281Y-131641271D02*
X180490281Y-131784128D01*
X180490281Y-130855557D02*
X180561710Y-130926985D01*
X180561710Y-130926985D02*
X180490281Y-130998414D01*
X180490281Y-130998414D02*
X180418853Y-130926985D01*
X180418853Y-130926985D02*
X180490281Y-130855557D01*
X180490281Y-130855557D02*
X180490281Y-130998414D01*
X183133139Y-131784128D02*
X182275996Y-131784128D01*
X182704567Y-131784128D02*
X182704567Y-130284128D01*
X182704567Y-130284128D02*
X182561710Y-130498414D01*
X182561710Y-130498414D02*
X182418853Y-130641271D01*
X182418853Y-130641271D02*
X182275996Y-130712700D01*
D10*
D11*
X91391598Y-131720500D02*
X91605884Y-131791928D01*
X91605884Y-131791928D02*
X91963026Y-131791928D01*
X91963026Y-131791928D02*
X92105884Y-131720500D01*
X92105884Y-131720500D02*
X92177312Y-131649071D01*
X92177312Y-131649071D02*
X92248741Y-131506214D01*
X92248741Y-131506214D02*
X92248741Y-131363357D01*
X92248741Y-131363357D02*
X92177312Y-131220500D01*
X92177312Y-131220500D02*
X92105884Y-131149071D01*
X92105884Y-131149071D02*
X91963026Y-131077642D01*
X91963026Y-131077642D02*
X91677312Y-131006214D01*
X91677312Y-131006214D02*
X91534455Y-130934785D01*
X91534455Y-130934785D02*
X91463026Y-130863357D01*
X91463026Y-130863357D02*
X91391598Y-130720500D01*
X91391598Y-130720500D02*
X91391598Y-130577642D01*
X91391598Y-130577642D02*
X91463026Y-130434785D01*
X91463026Y-130434785D02*
X91534455Y-130363357D01*
X91534455Y-130363357D02*
X91677312Y-130291928D01*
X91677312Y-130291928D02*
X92034455Y-130291928D01*
X92034455Y-130291928D02*
X92248741Y-130363357D01*
X92891597Y-131791928D02*
X92891597Y-130791928D01*
X92891597Y-130291928D02*
X92820169Y-130363357D01*
X92820169Y-130363357D02*
X92891597Y-130434785D01*
X92891597Y-130434785D02*
X92963026Y-130363357D01*
X92963026Y-130363357D02*
X92891597Y-130291928D01*
X92891597Y-130291928D02*
X92891597Y-130434785D01*
X93463026Y-130791928D02*
X94248741Y-130791928D01*
X94248741Y-130791928D02*
X93463026Y-131791928D01*
X93463026Y-131791928D02*
X94248741Y-131791928D01*
X95391598Y-131720500D02*
X95248741Y-131791928D01*
X95248741Y-131791928D02*
X94963027Y-131791928D01*
X94963027Y-131791928D02*
X94820169Y-131720500D01*
X94820169Y-131720500D02*
X94748741Y-131577642D01*
X94748741Y-131577642D02*
X94748741Y-131006214D01*
X94748741Y-131006214D02*
X94820169Y-130863357D01*
X94820169Y-130863357D02*
X94963027Y-130791928D01*
X94963027Y-130791928D02*
X95248741Y-130791928D01*
X95248741Y-130791928D02*
X95391598Y-130863357D01*
X95391598Y-130863357D02*
X95463027Y-131006214D01*
X95463027Y-131006214D02*
X95463027Y-131149071D01*
X95463027Y-131149071D02*
X94748741Y-131291928D01*
X96105883Y-131649071D02*
X96177312Y-131720500D01*
X96177312Y-131720500D02*
X96105883Y-131791928D01*
X96105883Y-131791928D02*
X96034455Y-131720500D01*
X96034455Y-131720500D02*
X96105883Y-131649071D01*
X96105883Y-131649071D02*
X96105883Y-131791928D01*
X96105883Y-130863357D02*
X96177312Y-130934785D01*
X96177312Y-130934785D02*
X96105883Y-131006214D01*
X96105883Y-131006214D02*
X96034455Y-130934785D01*
X96034455Y-130934785D02*
X96105883Y-130863357D01*
X96105883Y-130863357D02*
X96105883Y-131006214D01*
X97891598Y-131363357D02*
X98605884Y-131363357D01*
X97748741Y-131791928D02*
X98248741Y-130291928D01*
X98248741Y-130291928D02*
X98748741Y-131791928D01*
X99963026Y-130291928D02*
X99248740Y-130291928D01*
X99248740Y-130291928D02*
X99177312Y-131006214D01*
X99177312Y-131006214D02*
X99248740Y-130934785D01*
X99248740Y-130934785D02*
X99391598Y-130863357D01*
X99391598Y-130863357D02*
X99748740Y-130863357D01*
X99748740Y-130863357D02*
X99891598Y-130934785D01*
X99891598Y-130934785D02*
X99963026Y-131006214D01*
X99963026Y-131006214D02*
X100034455Y-131149071D01*
X100034455Y-131149071D02*
X100034455Y-131506214D01*
X100034455Y-131506214D02*
X99963026Y-131649071D01*
X99963026Y-131649071D02*
X99891598Y-131720500D01*
X99891598Y-131720500D02*
X99748740Y-131791928D01*
X99748740Y-131791928D02*
X99391598Y-131791928D01*
X99391598Y-131791928D02*
X99248740Y-131720500D01*
X99248740Y-131720500D02*
X99177312Y-131649071D01*
D10*
D11*
X176463026Y-134591928D02*
X176463026Y-133091928D01*
X177820170Y-134591928D02*
X177820170Y-133091928D01*
X177820170Y-134520500D02*
X177677312Y-134591928D01*
X177677312Y-134591928D02*
X177391598Y-134591928D01*
X177391598Y-134591928D02*
X177248741Y-134520500D01*
X177248741Y-134520500D02*
X177177312Y-134449071D01*
X177177312Y-134449071D02*
X177105884Y-134306214D01*
X177105884Y-134306214D02*
X177105884Y-133877642D01*
X177105884Y-133877642D02*
X177177312Y-133734785D01*
X177177312Y-133734785D02*
X177248741Y-133663357D01*
X177248741Y-133663357D02*
X177391598Y-133591928D01*
X177391598Y-133591928D02*
X177677312Y-133591928D01*
X177677312Y-133591928D02*
X177820170Y-133663357D01*
X178534455Y-134449071D02*
X178605884Y-134520500D01*
X178605884Y-134520500D02*
X178534455Y-134591928D01*
X178534455Y-134591928D02*
X178463027Y-134520500D01*
X178463027Y-134520500D02*
X178534455Y-134449071D01*
X178534455Y-134449071D02*
X178534455Y-134591928D01*
X178534455Y-133663357D02*
X178605884Y-133734785D01*
X178605884Y-133734785D02*
X178534455Y-133806214D01*
X178534455Y-133806214D02*
X178463027Y-133734785D01*
X178463027Y-133734785D02*
X178534455Y-133663357D01*
X178534455Y-133663357D02*
X178534455Y-133806214D01*
X181177313Y-134591928D02*
X180320170Y-134591928D01*
X180748741Y-134591928D02*
X180748741Y-133091928D01*
X180748741Y-133091928D02*
X180605884Y-133306214D01*
X180605884Y-133306214D02*
X180463027Y-133449071D01*
X180463027Y-133449071D02*
X180320170Y-133520500D01*
X182891598Y-133020500D02*
X181605884Y-134949071D01*
X184177313Y-134591928D02*
X183320170Y-134591928D01*
X183748741Y-134591928D02*
X183748741Y-133091928D01*
X183748741Y-133091928D02*
X183605884Y-133306214D01*
X183605884Y-133306214D02*
X183463027Y-133449071D01*
X183463027Y-133449071D02*
X183320170Y-133520500D01*
D10*
D11*
X90007200Y-125505800D02*
X198007200Y-125505800D01*
D10*
D13*
X91698928Y-126210238D02*
X92841785Y-126210238D01*
X92020357Y-128210238D02*
X92270357Y-126210238D01*
X93258452Y-128210238D02*
X93425119Y-126876904D01*
X93508452Y-126210238D02*
X93401309Y-126305476D01*
X93401309Y-126305476D02*
X93484643Y-126400714D01*
X93484643Y-126400714D02*
X93591786Y-126305476D01*
X93591786Y-126305476D02*
X93508452Y-126210238D01*
X93508452Y-126210238D02*
X93484643Y-126400714D01*
X94091786Y-126876904D02*
X94853690Y-126876904D01*
X94460833Y-126210238D02*
X94246548Y-127924523D01*
X94246548Y-127924523D02*
X94317976Y-128115000D01*
X94317976Y-128115000D02*
X94496548Y-128210238D01*
X94496548Y-128210238D02*
X94687024Y-128210238D01*
X95639405Y-128210238D02*
X95460833Y-128115000D01*
X95460833Y-128115000D02*
X95389405Y-127924523D01*
X95389405Y-127924523D02*
X95603690Y-126210238D01*
X97175119Y-128115000D02*
X96972738Y-128210238D01*
X96972738Y-128210238D02*
X96591785Y-128210238D01*
X96591785Y-128210238D02*
X96413214Y-128115000D01*
X96413214Y-128115000D02*
X96341785Y-127924523D01*
X96341785Y-127924523D02*
X96437024Y-127162619D01*
X96437024Y-127162619D02*
X96556071Y-126972142D01*
X96556071Y-126972142D02*
X96758452Y-126876904D01*
X96758452Y-126876904D02*
X97139404Y-126876904D01*
X97139404Y-126876904D02*
X97317976Y-126972142D01*
X97317976Y-126972142D02*
X97389404Y-127162619D01*
X97389404Y-127162619D02*
X97365595Y-127353095D01*
X97365595Y-127353095D02*
X96389404Y-127543571D01*
X98139405Y-128019761D02*
X98222738Y-128115000D01*
X98222738Y-128115000D02*
X98115595Y-128210238D01*
X98115595Y-128210238D02*
X98032262Y-128115000D01*
X98032262Y-128115000D02*
X98139405Y-128019761D01*
X98139405Y-128019761D02*
X98115595Y-128210238D01*
X98270357Y-126972142D02*
X98353690Y-127067380D01*
X98353690Y-127067380D02*
X98246548Y-127162619D01*
X98246548Y-127162619D02*
X98163214Y-127067380D01*
X98163214Y-127067380D02*
X98270357Y-126972142D01*
X98270357Y-126972142D02*
X98246548Y-127162619D01*
X100591786Y-128210238D02*
X100841786Y-126210238D01*
X100841786Y-126210238D02*
X101317977Y-126210238D01*
X101317977Y-126210238D02*
X101591786Y-126305476D01*
X101591786Y-126305476D02*
X101758453Y-126495952D01*
X101758453Y-126495952D02*
X101829881Y-126686428D01*
X101829881Y-126686428D02*
X101877501Y-127067380D01*
X101877501Y-127067380D02*
X101841786Y-127353095D01*
X101841786Y-127353095D02*
X101698929Y-127734047D01*
X101698929Y-127734047D02*
X101579881Y-127924523D01*
X101579881Y-127924523D02*
X101365596Y-128115000D01*
X101365596Y-128115000D02*
X101067977Y-128210238D01*
X101067977Y-128210238D02*
X100591786Y-128210238D01*
X103448929Y-128210238D02*
X103579881Y-127162619D01*
X103579881Y-127162619D02*
X103508453Y-126972142D01*
X103508453Y-126972142D02*
X103329881Y-126876904D01*
X103329881Y-126876904D02*
X102948929Y-126876904D01*
X102948929Y-126876904D02*
X102746548Y-126972142D01*
X103460834Y-128115000D02*
X103258453Y-128210238D01*
X103258453Y-128210238D02*
X102782262Y-128210238D01*
X102782262Y-128210238D02*
X102603691Y-128115000D01*
X102603691Y-128115000D02*
X102532262Y-127924523D01*
X102532262Y-127924523D02*
X102556072Y-127734047D01*
X102556072Y-127734047D02*
X102675120Y-127543571D01*
X102675120Y-127543571D02*
X102877501Y-127448333D01*
X102877501Y-127448333D02*
X103353691Y-127448333D01*
X103353691Y-127448333D02*
X103556072Y-127353095D01*
X104282263Y-126876904D02*
X105044167Y-126876904D01*
X104651310Y-126210238D02*
X104437025Y-127924523D01*
X104437025Y-127924523D02*
X104508453Y-128115000D01*
X104508453Y-128115000D02*
X104687025Y-128210238D01*
X104687025Y-128210238D02*
X104877501Y-128210238D01*
X106401310Y-128210238D02*
X106532262Y-127162619D01*
X106532262Y-127162619D02*
X106460834Y-126972142D01*
X106460834Y-126972142D02*
X106282262Y-126876904D01*
X106282262Y-126876904D02*
X105901310Y-126876904D01*
X105901310Y-126876904D02*
X105698929Y-126972142D01*
X106413215Y-128115000D02*
X106210834Y-128210238D01*
X106210834Y-128210238D02*
X105734643Y-128210238D01*
X105734643Y-128210238D02*
X105556072Y-128115000D01*
X105556072Y-128115000D02*
X105484643Y-127924523D01*
X105484643Y-127924523D02*
X105508453Y-127734047D01*
X105508453Y-127734047D02*
X105627501Y-127543571D01*
X105627501Y-127543571D02*
X105829882Y-127448333D01*
X105829882Y-127448333D02*
X106306072Y-127448333D01*
X106306072Y-127448333D02*
X106508453Y-127353095D01*
X110044168Y-128019761D02*
X109937025Y-128115000D01*
X109937025Y-128115000D02*
X109639406Y-128210238D01*
X109639406Y-128210238D02*
X109448930Y-128210238D01*
X109448930Y-128210238D02*
X109175120Y-128115000D01*
X109175120Y-128115000D02*
X109008454Y-127924523D01*
X109008454Y-127924523D02*
X108937025Y-127734047D01*
X108937025Y-127734047D02*
X108889406Y-127353095D01*
X108889406Y-127353095D02*
X108925120Y-127067380D01*
X108925120Y-127067380D02*
X109067977Y-126686428D01*
X109067977Y-126686428D02*
X109187025Y-126495952D01*
X109187025Y-126495952D02*
X109401311Y-126305476D01*
X109401311Y-126305476D02*
X109698930Y-126210238D01*
X109698930Y-126210238D02*
X109889406Y-126210238D01*
X109889406Y-126210238D02*
X110163216Y-126305476D01*
X110163216Y-126305476D02*
X110246549Y-126400714D01*
X111163216Y-128210238D02*
X110984644Y-128115000D01*
X110984644Y-128115000D02*
X110901311Y-128019761D01*
X110901311Y-128019761D02*
X110829882Y-127829285D01*
X110829882Y-127829285D02*
X110901311Y-127257857D01*
X110901311Y-127257857D02*
X111020358Y-127067380D01*
X111020358Y-127067380D02*
X111127501Y-126972142D01*
X111127501Y-126972142D02*
X111329882Y-126876904D01*
X111329882Y-126876904D02*
X111615596Y-126876904D01*
X111615596Y-126876904D02*
X111794168Y-126972142D01*
X111794168Y-126972142D02*
X111877501Y-127067380D01*
X111877501Y-127067380D02*
X111948930Y-127257857D01*
X111948930Y-127257857D02*
X111877501Y-127829285D01*
X111877501Y-127829285D02*
X111758454Y-128019761D01*
X111758454Y-128019761D02*
X111651311Y-128115000D01*
X111651311Y-128115000D02*
X111448930Y-128210238D01*
X111448930Y-128210238D02*
X111163216Y-128210238D01*
X112972740Y-128210238D02*
X112794168Y-128115000D01*
X112794168Y-128115000D02*
X112722740Y-127924523D01*
X112722740Y-127924523D02*
X112937025Y-126210238D01*
X114020359Y-128210238D02*
X113841787Y-128115000D01*
X113841787Y-128115000D02*
X113770359Y-127924523D01*
X113770359Y-127924523D02*
X113984644Y-126210238D01*
X115556073Y-128115000D02*
X115353692Y-128210238D01*
X115353692Y-128210238D02*
X114972739Y-128210238D01*
X114972739Y-128210238D02*
X114794168Y-128115000D01*
X114794168Y-128115000D02*
X114722739Y-127924523D01*
X114722739Y-127924523D02*
X114817978Y-127162619D01*
X114817978Y-127162619D02*
X114937025Y-126972142D01*
X114937025Y-126972142D02*
X115139406Y-126876904D01*
X115139406Y-126876904D02*
X115520358Y-126876904D01*
X115520358Y-126876904D02*
X115698930Y-126972142D01*
X115698930Y-126972142D02*
X115770358Y-127162619D01*
X115770358Y-127162619D02*
X115746549Y-127353095D01*
X115746549Y-127353095D02*
X114770358Y-127543571D01*
X117365597Y-128115000D02*
X117163216Y-128210238D01*
X117163216Y-128210238D02*
X116782264Y-128210238D01*
X116782264Y-128210238D02*
X116603692Y-128115000D01*
X116603692Y-128115000D02*
X116520359Y-128019761D01*
X116520359Y-128019761D02*
X116448930Y-127829285D01*
X116448930Y-127829285D02*
X116520359Y-127257857D01*
X116520359Y-127257857D02*
X116639406Y-127067380D01*
X116639406Y-127067380D02*
X116746549Y-126972142D01*
X116746549Y-126972142D02*
X116948930Y-126876904D01*
X116948930Y-126876904D02*
X117329883Y-126876904D01*
X117329883Y-126876904D02*
X117508454Y-126972142D01*
X118091788Y-126876904D02*
X118853692Y-126876904D01*
X118460835Y-126210238D02*
X118246550Y-127924523D01*
X118246550Y-127924523D02*
X118317978Y-128115000D01*
X118317978Y-128115000D02*
X118496550Y-128210238D01*
X118496550Y-128210238D02*
X118687026Y-128210238D01*
X119353692Y-128210238D02*
X119520359Y-126876904D01*
X119603692Y-126210238D02*
X119496549Y-126305476D01*
X119496549Y-126305476D02*
X119579883Y-126400714D01*
X119579883Y-126400714D02*
X119687026Y-126305476D01*
X119687026Y-126305476D02*
X119603692Y-126210238D01*
X119603692Y-126210238D02*
X119579883Y-126400714D01*
X120591788Y-128210238D02*
X120413216Y-128115000D01*
X120413216Y-128115000D02*
X120329883Y-128019761D01*
X120329883Y-128019761D02*
X120258454Y-127829285D01*
X120258454Y-127829285D02*
X120329883Y-127257857D01*
X120329883Y-127257857D02*
X120448930Y-127067380D01*
X120448930Y-127067380D02*
X120556073Y-126972142D01*
X120556073Y-126972142D02*
X120758454Y-126876904D01*
X120758454Y-126876904D02*
X121044168Y-126876904D01*
X121044168Y-126876904D02*
X121222740Y-126972142D01*
X121222740Y-126972142D02*
X121306073Y-127067380D01*
X121306073Y-127067380D02*
X121377502Y-127257857D01*
X121377502Y-127257857D02*
X121306073Y-127829285D01*
X121306073Y-127829285D02*
X121187026Y-128019761D01*
X121187026Y-128019761D02*
X121079883Y-128115000D01*
X121079883Y-128115000D02*
X120877502Y-128210238D01*
X120877502Y-128210238D02*
X120591788Y-128210238D01*
X122282264Y-126876904D02*
X122115597Y-128210238D01*
X122258454Y-127067380D02*
X122365597Y-126972142D01*
X122365597Y-126972142D02*
X122567978Y-126876904D01*
X122567978Y-126876904D02*
X122853692Y-126876904D01*
X122853692Y-126876904D02*
X123032264Y-126972142D01*
X123032264Y-126972142D02*
X123103692Y-127162619D01*
X123103692Y-127162619D02*
X122972740Y-128210238D01*
X125448931Y-128210238D02*
X125698931Y-126210238D01*
X125698931Y-126210238D02*
X126460836Y-126210238D01*
X126460836Y-126210238D02*
X126639407Y-126305476D01*
X126639407Y-126305476D02*
X126722741Y-126400714D01*
X126722741Y-126400714D02*
X126794169Y-126591190D01*
X126794169Y-126591190D02*
X126758455Y-126876904D01*
X126758455Y-126876904D02*
X126639407Y-127067380D01*
X126639407Y-127067380D02*
X126532265Y-127162619D01*
X126532265Y-127162619D02*
X126329884Y-127257857D01*
X126329884Y-127257857D02*
X125567979Y-127257857D01*
X127448931Y-128210238D02*
X127615598Y-126876904D01*
X127567979Y-127257857D02*
X127687026Y-127067380D01*
X127687026Y-127067380D02*
X127794169Y-126972142D01*
X127794169Y-126972142D02*
X127996550Y-126876904D01*
X127996550Y-126876904D02*
X128187026Y-126876904D01*
X128972741Y-128210238D02*
X128794169Y-128115000D01*
X128794169Y-128115000D02*
X128710836Y-128019761D01*
X128710836Y-128019761D02*
X128639407Y-127829285D01*
X128639407Y-127829285D02*
X128710836Y-127257857D01*
X128710836Y-127257857D02*
X128829883Y-127067380D01*
X128829883Y-127067380D02*
X128937026Y-126972142D01*
X128937026Y-126972142D02*
X129139407Y-126876904D01*
X129139407Y-126876904D02*
X129425121Y-126876904D01*
X129425121Y-126876904D02*
X129603693Y-126972142D01*
X129603693Y-126972142D02*
X129687026Y-127067380D01*
X129687026Y-127067380D02*
X129758455Y-127257857D01*
X129758455Y-127257857D02*
X129687026Y-127829285D01*
X129687026Y-127829285D02*
X129567979Y-128019761D01*
X129567979Y-128019761D02*
X129460836Y-128115000D01*
X129460836Y-128115000D02*
X129258455Y-128210238D01*
X129258455Y-128210238D02*
X128972741Y-128210238D01*
X130377503Y-126876904D02*
X131139407Y-126876904D01*
X130746550Y-126210238D02*
X130532265Y-127924523D01*
X130532265Y-127924523D02*
X130603693Y-128115000D01*
X130603693Y-128115000D02*
X130782265Y-128210238D01*
X130782265Y-128210238D02*
X130972741Y-128210238D01*
X131925122Y-128210238D02*
X131746550Y-128115000D01*
X131746550Y-128115000D02*
X131663217Y-128019761D01*
X131663217Y-128019761D02*
X131591788Y-127829285D01*
X131591788Y-127829285D02*
X131663217Y-127257857D01*
X131663217Y-127257857D02*
X131782264Y-127067380D01*
X131782264Y-127067380D02*
X131889407Y-126972142D01*
X131889407Y-126972142D02*
X132091788Y-126876904D01*
X132091788Y-126876904D02*
X132377502Y-126876904D01*
X132377502Y-126876904D02*
X132556074Y-126972142D01*
X132556074Y-126972142D02*
X132639407Y-127067380D01*
X132639407Y-127067380D02*
X132710836Y-127257857D01*
X132710836Y-127257857D02*
X132639407Y-127829285D01*
X132639407Y-127829285D02*
X132520360Y-128019761D01*
X132520360Y-128019761D02*
X132413217Y-128115000D01*
X132413217Y-128115000D02*
X132210836Y-128210238D01*
X132210836Y-128210238D02*
X131925122Y-128210238D01*
X133329884Y-126876904D02*
X134091788Y-126876904D01*
X133698931Y-126210238D02*
X133484646Y-127924523D01*
X133484646Y-127924523D02*
X133556074Y-128115000D01*
X133556074Y-128115000D02*
X133734646Y-128210238D01*
X133734646Y-128210238D02*
X133925122Y-128210238D01*
X134567979Y-126876904D02*
X134877503Y-128210238D01*
X135520360Y-126876904D02*
X134877503Y-128210238D01*
X134877503Y-128210238D02*
X134627503Y-128686428D01*
X134627503Y-128686428D02*
X134520360Y-128781666D01*
X134520360Y-128781666D02*
X134317979Y-128876904D01*
X136282265Y-126876904D02*
X136032265Y-128876904D01*
X136270360Y-126972142D02*
X136472741Y-126876904D01*
X136472741Y-126876904D02*
X136853693Y-126876904D01*
X136853693Y-126876904D02*
X137032265Y-126972142D01*
X137032265Y-126972142D02*
X137115598Y-127067380D01*
X137115598Y-127067380D02*
X137187027Y-127257857D01*
X137187027Y-127257857D02*
X137115598Y-127829285D01*
X137115598Y-127829285D02*
X136996551Y-128019761D01*
X136996551Y-128019761D02*
X136889408Y-128115000D01*
X136889408Y-128115000D02*
X136687027Y-128210238D01*
X136687027Y-128210238D02*
X136306074Y-128210238D01*
X136306074Y-128210238D02*
X136127503Y-128115000D01*
X138698932Y-128115000D02*
X138496551Y-128210238D01*
X138496551Y-128210238D02*
X138115598Y-128210238D01*
X138115598Y-128210238D02*
X137937027Y-128115000D01*
X137937027Y-128115000D02*
X137865598Y-127924523D01*
X137865598Y-127924523D02*
X137960837Y-127162619D01*
X137960837Y-127162619D02*
X138079884Y-126972142D01*
X138079884Y-126972142D02*
X138282265Y-126876904D01*
X138282265Y-126876904D02*
X138663217Y-126876904D01*
X138663217Y-126876904D02*
X138841789Y-126972142D01*
X138841789Y-126972142D02*
X138913217Y-127162619D01*
X138913217Y-127162619D02*
X138889408Y-127353095D01*
X138889408Y-127353095D02*
X137913217Y-127543571D01*
D10*
D11*
X91963026Y-123606214D02*
X91463026Y-123606214D01*
X91463026Y-124391928D02*
X91463026Y-122891928D01*
X91463026Y-122891928D02*
X92177312Y-122891928D01*
X92748740Y-124391928D02*
X92748740Y-123391928D01*
X92748740Y-122891928D02*
X92677312Y-122963357D01*
X92677312Y-122963357D02*
X92748740Y-123034785D01*
X92748740Y-123034785D02*
X92820169Y-122963357D01*
X92820169Y-122963357D02*
X92748740Y-122891928D01*
X92748740Y-122891928D02*
X92748740Y-123034785D01*
X93677312Y-124391928D02*
X93534455Y-124320500D01*
X93534455Y-124320500D02*
X93463026Y-124177642D01*
X93463026Y-124177642D02*
X93463026Y-122891928D01*
X94820169Y-124320500D02*
X94677312Y-124391928D01*
X94677312Y-124391928D02*
X94391598Y-124391928D01*
X94391598Y-124391928D02*
X94248740Y-124320500D01*
X94248740Y-124320500D02*
X94177312Y-124177642D01*
X94177312Y-124177642D02*
X94177312Y-123606214D01*
X94177312Y-123606214D02*
X94248740Y-123463357D01*
X94248740Y-123463357D02*
X94391598Y-123391928D01*
X94391598Y-123391928D02*
X94677312Y-123391928D01*
X94677312Y-123391928D02*
X94820169Y-123463357D01*
X94820169Y-123463357D02*
X94891598Y-123606214D01*
X94891598Y-123606214D02*
X94891598Y-123749071D01*
X94891598Y-123749071D02*
X94177312Y-123891928D01*
X95534454Y-124249071D02*
X95605883Y-124320500D01*
X95605883Y-124320500D02*
X95534454Y-124391928D01*
X95534454Y-124391928D02*
X95463026Y-124320500D01*
X95463026Y-124320500D02*
X95534454Y-124249071D01*
X95534454Y-124249071D02*
X95534454Y-124391928D01*
X95534454Y-123463357D02*
X95605883Y-123534785D01*
X95605883Y-123534785D02*
X95534454Y-123606214D01*
X95534454Y-123606214D02*
X95463026Y-123534785D01*
X95463026Y-123534785D02*
X95534454Y-123463357D01*
X95534454Y-123463357D02*
X95534454Y-123606214D01*
X97391597Y-124391928D02*
X97391597Y-122891928D01*
X97391597Y-122891928D02*
X97748740Y-122891928D01*
X97748740Y-122891928D02*
X97963026Y-122963357D01*
X97963026Y-122963357D02*
X98105883Y-123106214D01*
X98105883Y-123106214D02*
X98177312Y-123249071D01*
X98177312Y-123249071D02*
X98248740Y-123534785D01*
X98248740Y-123534785D02*
X98248740Y-123749071D01*
X98248740Y-123749071D02*
X98177312Y-124034785D01*
X98177312Y-124034785D02*
X98105883Y-124177642D01*
X98105883Y-124177642D02*
X97963026Y-124320500D01*
X97963026Y-124320500D02*
X97748740Y-124391928D01*
X97748740Y-124391928D02*
X97391597Y-124391928D01*
X99534455Y-124391928D02*
X99534455Y-123606214D01*
X99534455Y-123606214D02*
X99463026Y-123463357D01*
X99463026Y-123463357D02*
X99320169Y-123391928D01*
X99320169Y-123391928D02*
X99034455Y-123391928D01*
X99034455Y-123391928D02*
X98891597Y-123463357D01*
X99534455Y-124320500D02*
X99391597Y-124391928D01*
X99391597Y-124391928D02*
X99034455Y-124391928D01*
X99034455Y-124391928D02*
X98891597Y-124320500D01*
X98891597Y-124320500D02*
X98820169Y-124177642D01*
X98820169Y-124177642D02*
X98820169Y-124034785D01*
X98820169Y-124034785D02*
X98891597Y-123891928D01*
X98891597Y-123891928D02*
X99034455Y-123820500D01*
X99034455Y-123820500D02*
X99391597Y-123820500D01*
X99391597Y-123820500D02*
X99534455Y-123749071D01*
X100034455Y-123391928D02*
X100605883Y-123391928D01*
X100248740Y-122891928D02*
X100248740Y-124177642D01*
X100248740Y-124177642D02*
X100320169Y-124320500D01*
X100320169Y-124320500D02*
X100463026Y-124391928D01*
X100463026Y-124391928D02*
X100605883Y-124391928D01*
X101748741Y-124391928D02*
X101748741Y-123606214D01*
X101748741Y-123606214D02*
X101677312Y-123463357D01*
X101677312Y-123463357D02*
X101534455Y-123391928D01*
X101534455Y-123391928D02*
X101248741Y-123391928D01*
X101248741Y-123391928D02*
X101105883Y-123463357D01*
X101748741Y-124320500D02*
X101605883Y-124391928D01*
X101605883Y-124391928D02*
X101248741Y-124391928D01*
X101248741Y-124391928D02*
X101105883Y-124320500D01*
X101105883Y-124320500D02*
X101034455Y-124177642D01*
X101034455Y-124177642D02*
X101034455Y-124034785D01*
X101034455Y-124034785D02*
X101105883Y-123891928D01*
X101105883Y-123891928D02*
X101248741Y-123820500D01*
X101248741Y-123820500D02*
X101605883Y-123820500D01*
X101605883Y-123820500D02*
X101748741Y-123749071D01*
X103320169Y-124249071D02*
X103248741Y-124320500D01*
X103248741Y-124320500D02*
X103034455Y-124391928D01*
X103034455Y-124391928D02*
X102891598Y-124391928D01*
X102891598Y-124391928D02*
X102677312Y-124320500D01*
X102677312Y-124320500D02*
X102534455Y-124177642D01*
X102534455Y-124177642D02*
X102463026Y-124034785D01*
X102463026Y-124034785D02*
X102391598Y-123749071D01*
X102391598Y-123749071D02*
X102391598Y-123534785D01*
X102391598Y-123534785D02*
X102463026Y-123249071D01*
X102463026Y-123249071D02*
X102534455Y-123106214D01*
X102534455Y-123106214D02*
X102677312Y-122963357D01*
X102677312Y-122963357D02*
X102891598Y-122891928D01*
X102891598Y-122891928D02*
X103034455Y-122891928D01*
X103034455Y-122891928D02*
X103248741Y-122963357D01*
X103248741Y-122963357D02*
X103320169Y-123034785D01*
X104177312Y-124391928D02*
X104034455Y-124320500D01*
X104034455Y-124320500D02*
X103963026Y-124249071D01*
X103963026Y-124249071D02*
X103891598Y-124106214D01*
X103891598Y-124106214D02*
X103891598Y-123677642D01*
X103891598Y-123677642D02*
X103963026Y-123534785D01*
X103963026Y-123534785D02*
X104034455Y-123463357D01*
X104034455Y-123463357D02*
X104177312Y-123391928D01*
X104177312Y-123391928D02*
X104391598Y-123391928D01*
X104391598Y-123391928D02*
X104534455Y-123463357D01*
X104534455Y-123463357D02*
X104605884Y-123534785D01*
X104605884Y-123534785D02*
X104677312Y-123677642D01*
X104677312Y-123677642D02*
X104677312Y-124106214D01*
X104677312Y-124106214D02*
X104605884Y-124249071D01*
X104605884Y-124249071D02*
X104534455Y-124320500D01*
X104534455Y-124320500D02*
X104391598Y-124391928D01*
X104391598Y-124391928D02*
X104177312Y-124391928D01*
X105534455Y-124391928D02*
X105391598Y-124320500D01*
X105391598Y-124320500D02*
X105320169Y-124177642D01*
X105320169Y-124177642D02*
X105320169Y-122891928D01*
X106320169Y-124391928D02*
X106177312Y-124320500D01*
X106177312Y-124320500D02*
X106105883Y-124177642D01*
X106105883Y-124177642D02*
X106105883Y-122891928D01*
X107463026Y-124320500D02*
X107320169Y-124391928D01*
X107320169Y-124391928D02*
X107034455Y-124391928D01*
X107034455Y-124391928D02*
X106891597Y-124320500D01*
X106891597Y-124320500D02*
X106820169Y-124177642D01*
X106820169Y-124177642D02*
X106820169Y-123606214D01*
X106820169Y-123606214D02*
X106891597Y-123463357D01*
X106891597Y-123463357D02*
X107034455Y-123391928D01*
X107034455Y-123391928D02*
X107320169Y-123391928D01*
X107320169Y-123391928D02*
X107463026Y-123463357D01*
X107463026Y-123463357D02*
X107534455Y-123606214D01*
X107534455Y-123606214D02*
X107534455Y-123749071D01*
X107534455Y-123749071D02*
X106820169Y-123891928D01*
X108820169Y-124320500D02*
X108677311Y-124391928D01*
X108677311Y-124391928D02*
X108391597Y-124391928D01*
X108391597Y-124391928D02*
X108248740Y-124320500D01*
X108248740Y-124320500D02*
X108177311Y-124249071D01*
X108177311Y-124249071D02*
X108105883Y-124106214D01*
X108105883Y-124106214D02*
X108105883Y-123677642D01*
X108105883Y-123677642D02*
X108177311Y-123534785D01*
X108177311Y-123534785D02*
X108248740Y-123463357D01*
X108248740Y-123463357D02*
X108391597Y-123391928D01*
X108391597Y-123391928D02*
X108677311Y-123391928D01*
X108677311Y-123391928D02*
X108820169Y-123463357D01*
X109248740Y-123391928D02*
X109820168Y-123391928D01*
X109463025Y-122891928D02*
X109463025Y-124177642D01*
X109463025Y-124177642D02*
X109534454Y-124320500D01*
X109534454Y-124320500D02*
X109677311Y-124391928D01*
X109677311Y-124391928D02*
X109820168Y-124391928D01*
X110320168Y-124391928D02*
X110320168Y-123391928D01*
X110320168Y-122891928D02*
X110248740Y-122963357D01*
X110248740Y-122963357D02*
X110320168Y-123034785D01*
X110320168Y-123034785D02*
X110391597Y-122963357D01*
X110391597Y-122963357D02*
X110320168Y-122891928D01*
X110320168Y-122891928D02*
X110320168Y-123034785D01*
X111248740Y-124391928D02*
X111105883Y-124320500D01*
X111105883Y-124320500D02*
X111034454Y-124249071D01*
X111034454Y-124249071D02*
X110963026Y-124106214D01*
X110963026Y-124106214D02*
X110963026Y-123677642D01*
X110963026Y-123677642D02*
X111034454Y-123534785D01*
X111034454Y-123534785D02*
X111105883Y-123463357D01*
X111105883Y-123463357D02*
X111248740Y-123391928D01*
X111248740Y-123391928D02*
X111463026Y-123391928D01*
X111463026Y-123391928D02*
X111605883Y-123463357D01*
X111605883Y-123463357D02*
X111677312Y-123534785D01*
X111677312Y-123534785D02*
X111748740Y-123677642D01*
X111748740Y-123677642D02*
X111748740Y-124106214D01*
X111748740Y-124106214D02*
X111677312Y-124249071D01*
X111677312Y-124249071D02*
X111605883Y-124320500D01*
X111605883Y-124320500D02*
X111463026Y-124391928D01*
X111463026Y-124391928D02*
X111248740Y-124391928D01*
X112391597Y-123391928D02*
X112391597Y-124391928D01*
X112391597Y-123534785D02*
X112463026Y-123463357D01*
X112463026Y-123463357D02*
X112605883Y-123391928D01*
X112605883Y-123391928D02*
X112820169Y-123391928D01*
X112820169Y-123391928D02*
X112963026Y-123463357D01*
X112963026Y-123463357D02*
X113034455Y-123606214D01*
X113034455Y-123606214D02*
X113034455Y-124391928D01*
X113748740Y-124391928D02*
X113748740Y-122891928D01*
X113748740Y-122891928D02*
X114320169Y-122891928D01*
X114320169Y-122891928D02*
X114463026Y-122963357D01*
X114463026Y-122963357D02*
X114534455Y-123034785D01*
X114534455Y-123034785D02*
X114605883Y-123177642D01*
X114605883Y-123177642D02*
X114605883Y-123391928D01*
X114605883Y-123391928D02*
X114534455Y-123534785D01*
X114534455Y-123534785D02*
X114463026Y-123606214D01*
X114463026Y-123606214D02*
X114320169Y-123677642D01*
X114320169Y-123677642D02*
X113748740Y-123677642D01*
X115248740Y-124391928D02*
X115248740Y-123391928D01*
X115248740Y-123677642D02*
X115320169Y-123534785D01*
X115320169Y-123534785D02*
X115391598Y-123463357D01*
X115391598Y-123463357D02*
X115534455Y-123391928D01*
X115534455Y-123391928D02*
X115677312Y-123391928D01*
X116391597Y-124391928D02*
X116248740Y-124320500D01*
X116248740Y-124320500D02*
X116177311Y-124249071D01*
X116177311Y-124249071D02*
X116105883Y-124106214D01*
X116105883Y-124106214D02*
X116105883Y-123677642D01*
X116105883Y-123677642D02*
X116177311Y-123534785D01*
X116177311Y-123534785D02*
X116248740Y-123463357D01*
X116248740Y-123463357D02*
X116391597Y-123391928D01*
X116391597Y-123391928D02*
X116605883Y-123391928D01*
X116605883Y-123391928D02*
X116748740Y-123463357D01*
X116748740Y-123463357D02*
X116820169Y-123534785D01*
X116820169Y-123534785D02*
X116891597Y-123677642D01*
X116891597Y-123677642D02*
X116891597Y-124106214D01*
X116891597Y-124106214D02*
X116820169Y-124249071D01*
X116820169Y-124249071D02*
X116748740Y-124320500D01*
X116748740Y-124320500D02*
X116605883Y-124391928D01*
X116605883Y-124391928D02*
X116391597Y-124391928D01*
X117320169Y-123391928D02*
X117891597Y-123391928D01*
X117534454Y-122891928D02*
X117534454Y-124177642D01*
X117534454Y-124177642D02*
X117605883Y-124320500D01*
X117605883Y-124320500D02*
X117748740Y-124391928D01*
X117748740Y-124391928D02*
X117891597Y-124391928D01*
X118605883Y-124391928D02*
X118463026Y-124320500D01*
X118463026Y-124320500D02*
X118391597Y-124249071D01*
X118391597Y-124249071D02*
X118320169Y-124106214D01*
X118320169Y-124106214D02*
X118320169Y-123677642D01*
X118320169Y-123677642D02*
X118391597Y-123534785D01*
X118391597Y-123534785D02*
X118463026Y-123463357D01*
X118463026Y-123463357D02*
X118605883Y-123391928D01*
X118605883Y-123391928D02*
X118820169Y-123391928D01*
X118820169Y-123391928D02*
X118963026Y-123463357D01*
X118963026Y-123463357D02*
X119034455Y-123534785D01*
X119034455Y-123534785D02*
X119105883Y-123677642D01*
X119105883Y-123677642D02*
X119105883Y-124106214D01*
X119105883Y-124106214D02*
X119034455Y-124249071D01*
X119034455Y-124249071D02*
X118963026Y-124320500D01*
X118963026Y-124320500D02*
X118820169Y-124391928D01*
X118820169Y-124391928D02*
X118605883Y-124391928D01*
X119534455Y-123391928D02*
X120105883Y-123391928D01*
X119748740Y-122891928D02*
X119748740Y-124177642D01*
X119748740Y-124177642D02*
X119820169Y-124320500D01*
X119820169Y-124320500D02*
X119963026Y-124391928D01*
X119963026Y-124391928D02*
X120105883Y-124391928D01*
X120463026Y-123391928D02*
X120820169Y-124391928D01*
X121177312Y-123391928D02*
X120820169Y-124391928D01*
X120820169Y-124391928D02*
X120677312Y-124749071D01*
X120677312Y-124749071D02*
X120605883Y-124820500D01*
X120605883Y-124820500D02*
X120463026Y-124891928D01*
X121748740Y-123391928D02*
X121748740Y-124891928D01*
X121748740Y-123463357D02*
X121891598Y-123391928D01*
X121891598Y-123391928D02*
X122177312Y-123391928D01*
X122177312Y-123391928D02*
X122320169Y-123463357D01*
X122320169Y-123463357D02*
X122391598Y-123534785D01*
X122391598Y-123534785D02*
X122463026Y-123677642D01*
X122463026Y-123677642D02*
X122463026Y-124106214D01*
X122463026Y-124106214D02*
X122391598Y-124249071D01*
X122391598Y-124249071D02*
X122320169Y-124320500D01*
X122320169Y-124320500D02*
X122177312Y-124391928D01*
X122177312Y-124391928D02*
X121891598Y-124391928D01*
X121891598Y-124391928D02*
X121748740Y-124320500D01*
X123677312Y-124320500D02*
X123534455Y-124391928D01*
X123534455Y-124391928D02*
X123248741Y-124391928D01*
X123248741Y-124391928D02*
X123105883Y-124320500D01*
X123105883Y-124320500D02*
X123034455Y-124177642D01*
X123034455Y-124177642D02*
X123034455Y-123606214D01*
X123034455Y-123606214D02*
X123105883Y-123463357D01*
X123105883Y-123463357D02*
X123248741Y-123391928D01*
X123248741Y-123391928D02*
X123534455Y-123391928D01*
X123534455Y-123391928D02*
X123677312Y-123463357D01*
X123677312Y-123463357D02*
X123748741Y-123606214D01*
X123748741Y-123606214D02*
X123748741Y-123749071D01*
X123748741Y-123749071D02*
X123034455Y-123891928D01*
X124391597Y-124249071D02*
X124463026Y-124320500D01*
X124463026Y-124320500D02*
X124391597Y-124391928D01*
X124391597Y-124391928D02*
X124320169Y-124320500D01*
X124320169Y-124320500D02*
X124391597Y-124249071D01*
X124391597Y-124249071D02*
X124391597Y-124391928D01*
X125105883Y-124391928D02*
X125105883Y-122891928D01*
X125248741Y-123820500D02*
X125677312Y-124391928D01*
X125677312Y-123391928D02*
X125105883Y-123963357D01*
X126320169Y-124391928D02*
X126320169Y-123391928D01*
X126320169Y-122891928D02*
X126248741Y-122963357D01*
X126248741Y-122963357D02*
X126320169Y-123034785D01*
X126320169Y-123034785D02*
X126391598Y-122963357D01*
X126391598Y-122963357D02*
X126320169Y-122891928D01*
X126320169Y-122891928D02*
X126320169Y-123034785D01*
X127677313Y-124320500D02*
X127534455Y-124391928D01*
X127534455Y-124391928D02*
X127248741Y-124391928D01*
X127248741Y-124391928D02*
X127105884Y-124320500D01*
X127105884Y-124320500D02*
X127034455Y-124249071D01*
X127034455Y-124249071D02*
X126963027Y-124106214D01*
X126963027Y-124106214D02*
X126963027Y-123677642D01*
X126963027Y-123677642D02*
X127034455Y-123534785D01*
X127034455Y-123534785D02*
X127105884Y-123463357D01*
X127105884Y-123463357D02*
X127248741Y-123391928D01*
X127248741Y-123391928D02*
X127534455Y-123391928D01*
X127534455Y-123391928D02*
X127677313Y-123463357D01*
X128963027Y-124391928D02*
X128963027Y-123606214D01*
X128963027Y-123606214D02*
X128891598Y-123463357D01*
X128891598Y-123463357D02*
X128748741Y-123391928D01*
X128748741Y-123391928D02*
X128463027Y-123391928D01*
X128463027Y-123391928D02*
X128320169Y-123463357D01*
X128963027Y-124320500D02*
X128820169Y-124391928D01*
X128820169Y-124391928D02*
X128463027Y-124391928D01*
X128463027Y-124391928D02*
X128320169Y-124320500D01*
X128320169Y-124320500D02*
X128248741Y-124177642D01*
X128248741Y-124177642D02*
X128248741Y-124034785D01*
X128248741Y-124034785D02*
X128320169Y-123891928D01*
X128320169Y-123891928D02*
X128463027Y-123820500D01*
X128463027Y-123820500D02*
X128820169Y-123820500D01*
X128820169Y-123820500D02*
X128963027Y-123749071D01*
X130320170Y-124391928D02*
X130320170Y-122891928D01*
X130320170Y-124320500D02*
X130177312Y-124391928D01*
X130177312Y-124391928D02*
X129891598Y-124391928D01*
X129891598Y-124391928D02*
X129748741Y-124320500D01*
X129748741Y-124320500D02*
X129677312Y-124249071D01*
X129677312Y-124249071D02*
X129605884Y-124106214D01*
X129605884Y-124106214D02*
X129605884Y-123677642D01*
X129605884Y-123677642D02*
X129677312Y-123534785D01*
X129677312Y-123534785D02*
X129748741Y-123463357D01*
X129748741Y-123463357D02*
X129891598Y-123391928D01*
X129891598Y-123391928D02*
X130177312Y-123391928D01*
X130177312Y-123391928D02*
X130320170Y-123463357D01*
X130677313Y-124534785D02*
X131820170Y-124534785D01*
X132177312Y-123391928D02*
X132177312Y-124891928D01*
X132177312Y-123463357D02*
X132320170Y-123391928D01*
X132320170Y-123391928D02*
X132605884Y-123391928D01*
X132605884Y-123391928D02*
X132748741Y-123463357D01*
X132748741Y-123463357D02*
X132820170Y-123534785D01*
X132820170Y-123534785D02*
X132891598Y-123677642D01*
X132891598Y-123677642D02*
X132891598Y-124106214D01*
X132891598Y-124106214D02*
X132820170Y-124249071D01*
X132820170Y-124249071D02*
X132748741Y-124320500D01*
X132748741Y-124320500D02*
X132605884Y-124391928D01*
X132605884Y-124391928D02*
X132320170Y-124391928D01*
X132320170Y-124391928D02*
X132177312Y-124320500D01*
X134177313Y-124320500D02*
X134034455Y-124391928D01*
X134034455Y-124391928D02*
X133748741Y-124391928D01*
X133748741Y-124391928D02*
X133605884Y-124320500D01*
X133605884Y-124320500D02*
X133534455Y-124249071D01*
X133534455Y-124249071D02*
X133463027Y-124106214D01*
X133463027Y-124106214D02*
X133463027Y-123677642D01*
X133463027Y-123677642D02*
X133534455Y-123534785D01*
X133534455Y-123534785D02*
X133605884Y-123463357D01*
X133605884Y-123463357D02*
X133748741Y-123391928D01*
X133748741Y-123391928D02*
X134034455Y-123391928D01*
X134034455Y-123391928D02*
X134177313Y-123463357D01*
X134820169Y-124391928D02*
X134820169Y-122891928D01*
X134820169Y-123463357D02*
X134963027Y-123391928D01*
X134963027Y-123391928D02*
X135248741Y-123391928D01*
X135248741Y-123391928D02*
X135391598Y-123463357D01*
X135391598Y-123463357D02*
X135463027Y-123534785D01*
X135463027Y-123534785D02*
X135534455Y-123677642D01*
X135534455Y-123677642D02*
X135534455Y-124106214D01*
X135534455Y-124106214D02*
X135463027Y-124249071D01*
X135463027Y-124249071D02*
X135391598Y-124320500D01*
X135391598Y-124320500D02*
X135248741Y-124391928D01*
X135248741Y-124391928D02*
X134963027Y-124391928D01*
X134963027Y-124391928D02*
X134820169Y-124320500D01*
D10*
D11*
X90007200Y-119505800D02*
X198007200Y-119505800D01*
D10*
D11*
X91391598Y-121620500D02*
X91605884Y-121691928D01*
X91605884Y-121691928D02*
X91963026Y-121691928D01*
X91963026Y-121691928D02*
X92105884Y-121620500D01*
X92105884Y-121620500D02*
X92177312Y-121549071D01*
X92177312Y-121549071D02*
X92248741Y-121406214D01*
X92248741Y-121406214D02*
X92248741Y-121263357D01*
X92248741Y-121263357D02*
X92177312Y-121120500D01*
X92177312Y-121120500D02*
X92105884Y-121049071D01*
X92105884Y-121049071D02*
X91963026Y-120977642D01*
X91963026Y-120977642D02*
X91677312Y-120906214D01*
X91677312Y-120906214D02*
X91534455Y-120834785D01*
X91534455Y-120834785D02*
X91463026Y-120763357D01*
X91463026Y-120763357D02*
X91391598Y-120620500D01*
X91391598Y-120620500D02*
X91391598Y-120477642D01*
X91391598Y-120477642D02*
X91463026Y-120334785D01*
X91463026Y-120334785D02*
X91534455Y-120263357D01*
X91534455Y-120263357D02*
X91677312Y-120191928D01*
X91677312Y-120191928D02*
X92034455Y-120191928D01*
X92034455Y-120191928D02*
X92248741Y-120263357D01*
X92891597Y-121691928D02*
X92891597Y-120191928D01*
X93534455Y-121691928D02*
X93534455Y-120906214D01*
X93534455Y-120906214D02*
X93463026Y-120763357D01*
X93463026Y-120763357D02*
X93320169Y-120691928D01*
X93320169Y-120691928D02*
X93105883Y-120691928D01*
X93105883Y-120691928D02*
X92963026Y-120763357D01*
X92963026Y-120763357D02*
X92891597Y-120834785D01*
X94820169Y-121620500D02*
X94677312Y-121691928D01*
X94677312Y-121691928D02*
X94391598Y-121691928D01*
X94391598Y-121691928D02*
X94248740Y-121620500D01*
X94248740Y-121620500D02*
X94177312Y-121477642D01*
X94177312Y-121477642D02*
X94177312Y-120906214D01*
X94177312Y-120906214D02*
X94248740Y-120763357D01*
X94248740Y-120763357D02*
X94391598Y-120691928D01*
X94391598Y-120691928D02*
X94677312Y-120691928D01*
X94677312Y-120691928D02*
X94820169Y-120763357D01*
X94820169Y-120763357D02*
X94891598Y-120906214D01*
X94891598Y-120906214D02*
X94891598Y-121049071D01*
X94891598Y-121049071D02*
X94177312Y-121191928D01*
X96105883Y-121620500D02*
X95963026Y-121691928D01*
X95963026Y-121691928D02*
X95677312Y-121691928D01*
X95677312Y-121691928D02*
X95534454Y-121620500D01*
X95534454Y-121620500D02*
X95463026Y-121477642D01*
X95463026Y-121477642D02*
X95463026Y-120906214D01*
X95463026Y-120906214D02*
X95534454Y-120763357D01*
X95534454Y-120763357D02*
X95677312Y-120691928D01*
X95677312Y-120691928D02*
X95963026Y-120691928D01*
X95963026Y-120691928D02*
X96105883Y-120763357D01*
X96105883Y-120763357D02*
X96177312Y-120906214D01*
X96177312Y-120906214D02*
X96177312Y-121049071D01*
X96177312Y-121049071D02*
X95463026Y-121191928D01*
X96605883Y-120691928D02*
X97177311Y-120691928D01*
X96820168Y-120191928D02*
X96820168Y-121477642D01*
X96820168Y-121477642D02*
X96891597Y-121620500D01*
X96891597Y-121620500D02*
X97034454Y-121691928D01*
X97034454Y-121691928D02*
X97177311Y-121691928D01*
X97677311Y-121549071D02*
X97748740Y-121620500D01*
X97748740Y-121620500D02*
X97677311Y-121691928D01*
X97677311Y-121691928D02*
X97605883Y-121620500D01*
X97605883Y-121620500D02*
X97677311Y-121549071D01*
X97677311Y-121549071D02*
X97677311Y-121691928D01*
X97677311Y-120763357D02*
X97748740Y-120834785D01*
X97748740Y-120834785D02*
X97677311Y-120906214D01*
X97677311Y-120906214D02*
X97605883Y-120834785D01*
X97605883Y-120834785D02*
X97677311Y-120763357D01*
X97677311Y-120763357D02*
X97677311Y-120906214D01*
D10*
D12*
X91490282Y-118255557D02*
X92204568Y-118255557D01*
X91347425Y-118684128D02*
X91847425Y-117184128D01*
X91847425Y-117184128D02*
X92347425Y-118684128D01*
X92847424Y-118684128D02*
X92847424Y-117684128D01*
X92847424Y-117184128D02*
X92775996Y-117255557D01*
X92775996Y-117255557D02*
X92847424Y-117326985D01*
X92847424Y-117326985D02*
X92918853Y-117255557D01*
X92918853Y-117255557D02*
X92847424Y-117184128D01*
X92847424Y-117184128D02*
X92847424Y-117326985D01*
X94204568Y-118684128D02*
X94204568Y-117184128D01*
X94204568Y-118612700D02*
X94061710Y-118684128D01*
X94061710Y-118684128D02*
X93775996Y-118684128D01*
X93775996Y-118684128D02*
X93633139Y-118612700D01*
X93633139Y-118612700D02*
X93561710Y-118541271D01*
X93561710Y-118541271D02*
X93490282Y-118398414D01*
X93490282Y-118398414D02*
X93490282Y-117969842D01*
X93490282Y-117969842D02*
X93561710Y-117826985D01*
X93561710Y-117826985D02*
X93633139Y-117755557D01*
X93633139Y-117755557D02*
X93775996Y-117684128D01*
X93775996Y-117684128D02*
X94061710Y-117684128D01*
X94061710Y-117684128D02*
X94204568Y-117755557D01*
X95490282Y-118612700D02*
X95347425Y-118684128D01*
X95347425Y-118684128D02*
X95061711Y-118684128D01*
X95061711Y-118684128D02*
X94918853Y-118612700D01*
X94918853Y-118612700D02*
X94847425Y-118469842D01*
X94847425Y-118469842D02*
X94847425Y-117898414D01*
X94847425Y-117898414D02*
X94918853Y-117755557D01*
X94918853Y-117755557D02*
X95061711Y-117684128D01*
X95061711Y-117684128D02*
X95347425Y-117684128D01*
X95347425Y-117684128D02*
X95490282Y-117755557D01*
X95490282Y-117755557D02*
X95561711Y-117898414D01*
X95561711Y-117898414D02*
X95561711Y-118041271D01*
X95561711Y-118041271D02*
X94847425Y-118184128D01*
X96204567Y-117684128D02*
X96204567Y-118684128D01*
X96204567Y-117826985D02*
X96275996Y-117755557D01*
X96275996Y-117755557D02*
X96418853Y-117684128D01*
X96418853Y-117684128D02*
X96633139Y-117684128D01*
X96633139Y-117684128D02*
X96775996Y-117755557D01*
X96775996Y-117755557D02*
X96847425Y-117898414D01*
X96847425Y-117898414D02*
X96847425Y-118684128D01*
X99561710Y-118541271D02*
X99490282Y-118612700D01*
X99490282Y-118612700D02*
X99275996Y-118684128D01*
X99275996Y-118684128D02*
X99133139Y-118684128D01*
X99133139Y-118684128D02*
X98918853Y-118612700D01*
X98918853Y-118612700D02*
X98775996Y-118469842D01*
X98775996Y-118469842D02*
X98704567Y-118326985D01*
X98704567Y-118326985D02*
X98633139Y-118041271D01*
X98633139Y-118041271D02*
X98633139Y-117826985D01*
X98633139Y-117826985D02*
X98704567Y-117541271D01*
X98704567Y-117541271D02*
X98775996Y-117398414D01*
X98775996Y-117398414D02*
X98918853Y-117255557D01*
X98918853Y-117255557D02*
X99133139Y-117184128D01*
X99133139Y-117184128D02*
X99275996Y-117184128D01*
X99275996Y-117184128D02*
X99490282Y-117255557D01*
X99490282Y-117255557D02*
X99561710Y-117326985D01*
X100204567Y-118684128D02*
X100204567Y-117184128D01*
X100847425Y-118684128D02*
X100847425Y-117898414D01*
X100847425Y-117898414D02*
X100775996Y-117755557D01*
X100775996Y-117755557D02*
X100633139Y-117684128D01*
X100633139Y-117684128D02*
X100418853Y-117684128D01*
X100418853Y-117684128D02*
X100275996Y-117755557D01*
X100275996Y-117755557D02*
X100204567Y-117826985D01*
X102133139Y-118612700D02*
X101990282Y-118684128D01*
X101990282Y-118684128D02*
X101704568Y-118684128D01*
X101704568Y-118684128D02*
X101561710Y-118612700D01*
X101561710Y-118612700D02*
X101490282Y-118469842D01*
X101490282Y-118469842D02*
X101490282Y-117898414D01*
X101490282Y-117898414D02*
X101561710Y-117755557D01*
X101561710Y-117755557D02*
X101704568Y-117684128D01*
X101704568Y-117684128D02*
X101990282Y-117684128D01*
X101990282Y-117684128D02*
X102133139Y-117755557D01*
X102133139Y-117755557D02*
X102204568Y-117898414D01*
X102204568Y-117898414D02*
X102204568Y-118041271D01*
X102204568Y-118041271D02*
X101490282Y-118184128D01*
X102847424Y-118684128D02*
X102847424Y-117684128D01*
X102847424Y-117969842D02*
X102918853Y-117826985D01*
X102918853Y-117826985D02*
X102990282Y-117755557D01*
X102990282Y-117755557D02*
X103133139Y-117684128D01*
X103133139Y-117684128D02*
X103275996Y-117684128D01*
X103775995Y-117684128D02*
X103775995Y-118684128D01*
X103775995Y-117826985D02*
X103847424Y-117755557D01*
X103847424Y-117755557D02*
X103990281Y-117684128D01*
X103990281Y-117684128D02*
X104204567Y-117684128D01*
X104204567Y-117684128D02*
X104347424Y-117755557D01*
X104347424Y-117755557D02*
X104418853Y-117898414D01*
X104418853Y-117898414D02*
X104418853Y-118684128D01*
X105133138Y-118684128D02*
X105133138Y-117684128D01*
X105133138Y-117184128D02*
X105061710Y-117255557D01*
X105061710Y-117255557D02*
X105133138Y-117326985D01*
X105133138Y-117326985D02*
X105204567Y-117255557D01*
X105204567Y-117255557D02*
X105133138Y-117184128D01*
X105133138Y-117184128D02*
X105133138Y-117326985D01*
X105775996Y-118612700D02*
X105918853Y-118684128D01*
X105918853Y-118684128D02*
X106204567Y-118684128D01*
X106204567Y-118684128D02*
X106347424Y-118612700D01*
X106347424Y-118612700D02*
X106418853Y-118469842D01*
X106418853Y-118469842D02*
X106418853Y-118398414D01*
X106418853Y-118398414D02*
X106347424Y-118255557D01*
X106347424Y-118255557D02*
X106204567Y-118184128D01*
X106204567Y-118184128D02*
X105990282Y-118184128D01*
X105990282Y-118184128D02*
X105847424Y-118112700D01*
X105847424Y-118112700D02*
X105775996Y-117969842D01*
X105775996Y-117969842D02*
X105775996Y-117898414D01*
X105775996Y-117898414D02*
X105847424Y-117755557D01*
X105847424Y-117755557D02*
X105990282Y-117684128D01*
X105990282Y-117684128D02*
X106204567Y-117684128D01*
X106204567Y-117684128D02*
X106347424Y-117755557D01*
X107061710Y-118684128D02*
X107061710Y-117184128D01*
X107204568Y-118112700D02*
X107633139Y-118684128D01*
X107633139Y-117684128D02*
X107061710Y-118255557D01*
X108847425Y-118612700D02*
X108704568Y-118684128D01*
X108704568Y-118684128D02*
X108418854Y-118684128D01*
X108418854Y-118684128D02*
X108275996Y-118612700D01*
X108275996Y-118612700D02*
X108204568Y-118469842D01*
X108204568Y-118469842D02*
X108204568Y-117898414D01*
X108204568Y-117898414D02*
X108275996Y-117755557D01*
X108275996Y-117755557D02*
X108418854Y-117684128D01*
X108418854Y-117684128D02*
X108704568Y-117684128D01*
X108704568Y-117684128D02*
X108847425Y-117755557D01*
X108847425Y-117755557D02*
X108918854Y-117898414D01*
X108918854Y-117898414D02*
X108918854Y-118041271D01*
X108918854Y-118041271D02*
X108204568Y-118184128D01*
X110775996Y-117184128D02*
X110633139Y-117469842D01*
X111347425Y-117326985D02*
X111418853Y-117255557D01*
X111418853Y-117255557D02*
X111561711Y-117184128D01*
X111561711Y-117184128D02*
X111918853Y-117184128D01*
X111918853Y-117184128D02*
X112061711Y-117255557D01*
X112061711Y-117255557D02*
X112133139Y-117326985D01*
X112133139Y-117326985D02*
X112204568Y-117469842D01*
X112204568Y-117469842D02*
X112204568Y-117612700D01*
X112204568Y-117612700D02*
X112133139Y-117826985D01*
X112133139Y-117826985D02*
X111275996Y-118684128D01*
X111275996Y-118684128D02*
X112204568Y-118684128D01*
X112704567Y-117184128D02*
X113704567Y-117184128D01*
X113704567Y-117184128D02*
X113061710Y-118684128D01*
D10*
D11*
X91963026Y-114906214D02*
X92177312Y-114977642D01*
X92177312Y-114977642D02*
X92248741Y-115049071D01*
X92248741Y-115049071D02*
X92320169Y-115191928D01*
X92320169Y-115191928D02*
X92320169Y-115406214D01*
X92320169Y-115406214D02*
X92248741Y-115549071D01*
X92248741Y-115549071D02*
X92177312Y-115620500D01*
X92177312Y-115620500D02*
X92034455Y-115691928D01*
X92034455Y-115691928D02*
X91463026Y-115691928D01*
X91463026Y-115691928D02*
X91463026Y-114191928D01*
X91463026Y-114191928D02*
X91963026Y-114191928D01*
X91963026Y-114191928D02*
X92105884Y-114263357D01*
X92105884Y-114263357D02*
X92177312Y-114334785D01*
X92177312Y-114334785D02*
X92248741Y-114477642D01*
X92248741Y-114477642D02*
X92248741Y-114620500D01*
X92248741Y-114620500D02*
X92177312Y-114763357D01*
X92177312Y-114763357D02*
X92105884Y-114834785D01*
X92105884Y-114834785D02*
X91963026Y-114906214D01*
X91963026Y-114906214D02*
X91463026Y-114906214D01*
X93605884Y-114691928D02*
X93605884Y-115691928D01*
X92963026Y-114691928D02*
X92963026Y-115477642D01*
X92963026Y-115477642D02*
X93034455Y-115620500D01*
X93034455Y-115620500D02*
X93177312Y-115691928D01*
X93177312Y-115691928D02*
X93391598Y-115691928D01*
X93391598Y-115691928D02*
X93534455Y-115620500D01*
X93534455Y-115620500D02*
X93605884Y-115549071D01*
X94963027Y-115620500D02*
X94820169Y-115691928D01*
X94820169Y-115691928D02*
X94534455Y-115691928D01*
X94534455Y-115691928D02*
X94391598Y-115620500D01*
X94391598Y-115620500D02*
X94320169Y-115549071D01*
X94320169Y-115549071D02*
X94248741Y-115406214D01*
X94248741Y-115406214D02*
X94248741Y-114977642D01*
X94248741Y-114977642D02*
X94320169Y-114834785D01*
X94320169Y-114834785D02*
X94391598Y-114763357D01*
X94391598Y-114763357D02*
X94534455Y-114691928D01*
X94534455Y-114691928D02*
X94820169Y-114691928D01*
X94820169Y-114691928D02*
X94963027Y-114763357D01*
X95605883Y-115691928D02*
X95605883Y-114191928D01*
X95748741Y-115120500D02*
X96177312Y-115691928D01*
X96177312Y-114691928D02*
X95605883Y-115263357D01*
X96820169Y-114691928D02*
X96820169Y-115691928D01*
X96820169Y-114834785D02*
X96891598Y-114763357D01*
X96891598Y-114763357D02*
X97034455Y-114691928D01*
X97034455Y-114691928D02*
X97248741Y-114691928D01*
X97248741Y-114691928D02*
X97391598Y-114763357D01*
X97391598Y-114763357D02*
X97463027Y-114906214D01*
X97463027Y-114906214D02*
X97463027Y-115691928D01*
X98748741Y-115620500D02*
X98605884Y-115691928D01*
X98605884Y-115691928D02*
X98320170Y-115691928D01*
X98320170Y-115691928D02*
X98177312Y-115620500D01*
X98177312Y-115620500D02*
X98105884Y-115477642D01*
X98105884Y-115477642D02*
X98105884Y-114906214D01*
X98105884Y-114906214D02*
X98177312Y-114763357D01*
X98177312Y-114763357D02*
X98320170Y-114691928D01*
X98320170Y-114691928D02*
X98605884Y-114691928D01*
X98605884Y-114691928D02*
X98748741Y-114763357D01*
X98748741Y-114763357D02*
X98820170Y-114906214D01*
X98820170Y-114906214D02*
X98820170Y-115049071D01*
X98820170Y-115049071D02*
X98105884Y-115191928D01*
X99677312Y-115691928D02*
X99534455Y-115620500D01*
X99534455Y-115620500D02*
X99463026Y-115477642D01*
X99463026Y-115477642D02*
X99463026Y-114191928D01*
X100463026Y-115691928D02*
X100320169Y-115620500D01*
X100320169Y-115620500D02*
X100248740Y-115477642D01*
X100248740Y-115477642D02*
X100248740Y-114191928D01*
X102177311Y-114191928D02*
X102177311Y-115406214D01*
X102177311Y-115406214D02*
X102248740Y-115549071D01*
X102248740Y-115549071D02*
X102320169Y-115620500D01*
X102320169Y-115620500D02*
X102463026Y-115691928D01*
X102463026Y-115691928D02*
X102748740Y-115691928D01*
X102748740Y-115691928D02*
X102891597Y-115620500D01*
X102891597Y-115620500D02*
X102963026Y-115549071D01*
X102963026Y-115549071D02*
X103034454Y-115406214D01*
X103034454Y-115406214D02*
X103034454Y-114191928D01*
X103748740Y-114691928D02*
X103748740Y-115691928D01*
X103748740Y-114834785D02*
X103820169Y-114763357D01*
X103820169Y-114763357D02*
X103963026Y-114691928D01*
X103963026Y-114691928D02*
X104177312Y-114691928D01*
X104177312Y-114691928D02*
X104320169Y-114763357D01*
X104320169Y-114763357D02*
X104391598Y-114906214D01*
X104391598Y-114906214D02*
X104391598Y-115691928D01*
X105105883Y-115691928D02*
X105105883Y-114691928D01*
X105105883Y-114191928D02*
X105034455Y-114263357D01*
X105034455Y-114263357D02*
X105105883Y-114334785D01*
X105105883Y-114334785D02*
X105177312Y-114263357D01*
X105177312Y-114263357D02*
X105105883Y-114191928D01*
X105105883Y-114191928D02*
X105105883Y-114334785D01*
X105677312Y-114691928D02*
X106034455Y-115691928D01*
X106034455Y-115691928D02*
X106391598Y-114691928D01*
X107534455Y-115620500D02*
X107391598Y-115691928D01*
X107391598Y-115691928D02*
X107105884Y-115691928D01*
X107105884Y-115691928D02*
X106963026Y-115620500D01*
X106963026Y-115620500D02*
X106891598Y-115477642D01*
X106891598Y-115477642D02*
X106891598Y-114906214D01*
X106891598Y-114906214D02*
X106963026Y-114763357D01*
X106963026Y-114763357D02*
X107105884Y-114691928D01*
X107105884Y-114691928D02*
X107391598Y-114691928D01*
X107391598Y-114691928D02*
X107534455Y-114763357D01*
X107534455Y-114763357D02*
X107605884Y-114906214D01*
X107605884Y-114906214D02*
X107605884Y-115049071D01*
X107605884Y-115049071D02*
X106891598Y-115191928D01*
X108248740Y-115691928D02*
X108248740Y-114691928D01*
X108248740Y-114977642D02*
X108320169Y-114834785D01*
X108320169Y-114834785D02*
X108391598Y-114763357D01*
X108391598Y-114763357D02*
X108534455Y-114691928D01*
X108534455Y-114691928D02*
X108677312Y-114691928D01*
X109105883Y-115620500D02*
X109248740Y-115691928D01*
X109248740Y-115691928D02*
X109534454Y-115691928D01*
X109534454Y-115691928D02*
X109677311Y-115620500D01*
X109677311Y-115620500D02*
X109748740Y-115477642D01*
X109748740Y-115477642D02*
X109748740Y-115406214D01*
X109748740Y-115406214D02*
X109677311Y-115263357D01*
X109677311Y-115263357D02*
X109534454Y-115191928D01*
X109534454Y-115191928D02*
X109320169Y-115191928D01*
X109320169Y-115191928D02*
X109177311Y-115120500D01*
X109177311Y-115120500D02*
X109105883Y-114977642D01*
X109105883Y-114977642D02*
X109105883Y-114906214D01*
X109105883Y-114906214D02*
X109177311Y-114763357D01*
X109177311Y-114763357D02*
X109320169Y-114691928D01*
X109320169Y-114691928D02*
X109534454Y-114691928D01*
X109534454Y-114691928D02*
X109677311Y-114763357D01*
X110391597Y-115691928D02*
X110391597Y-114691928D01*
X110391597Y-114191928D02*
X110320169Y-114263357D01*
X110320169Y-114263357D02*
X110391597Y-114334785D01*
X110391597Y-114334785D02*
X110463026Y-114263357D01*
X110463026Y-114263357D02*
X110391597Y-114191928D01*
X110391597Y-114191928D02*
X110391597Y-114334785D01*
X110891598Y-114691928D02*
X111463026Y-114691928D01*
X111105883Y-114191928D02*
X111105883Y-115477642D01*
X111105883Y-115477642D02*
X111177312Y-115620500D01*
X111177312Y-115620500D02*
X111320169Y-115691928D01*
X111320169Y-115691928D02*
X111463026Y-115691928D01*
X111820169Y-114691928D02*
X112177312Y-115691928D01*
X112534455Y-114691928D02*
X112177312Y-115691928D01*
X112177312Y-115691928D02*
X112034455Y-116049071D01*
X112034455Y-116049071D02*
X111963026Y-116120500D01*
X111963026Y-116120500D02*
X111820169Y-116191928D01*
D10*
D11*
X91463026Y-111906214D02*
X91963026Y-111906214D01*
X92177312Y-112691928D02*
X91463026Y-112691928D01*
X91463026Y-112691928D02*
X91463026Y-111191928D01*
X91463026Y-111191928D02*
X92177312Y-111191928D01*
X93034455Y-112691928D02*
X92891598Y-112620500D01*
X92891598Y-112620500D02*
X92820169Y-112477642D01*
X92820169Y-112477642D02*
X92820169Y-111191928D01*
X94177312Y-112620500D02*
X94034455Y-112691928D01*
X94034455Y-112691928D02*
X93748741Y-112691928D01*
X93748741Y-112691928D02*
X93605883Y-112620500D01*
X93605883Y-112620500D02*
X93534455Y-112477642D01*
X93534455Y-112477642D02*
X93534455Y-111906214D01*
X93534455Y-111906214D02*
X93605883Y-111763357D01*
X93605883Y-111763357D02*
X93748741Y-111691928D01*
X93748741Y-111691928D02*
X94034455Y-111691928D01*
X94034455Y-111691928D02*
X94177312Y-111763357D01*
X94177312Y-111763357D02*
X94248741Y-111906214D01*
X94248741Y-111906214D02*
X94248741Y-112049071D01*
X94248741Y-112049071D02*
X93534455Y-112191928D01*
X95534455Y-112620500D02*
X95391597Y-112691928D01*
X95391597Y-112691928D02*
X95105883Y-112691928D01*
X95105883Y-112691928D02*
X94963026Y-112620500D01*
X94963026Y-112620500D02*
X94891597Y-112549071D01*
X94891597Y-112549071D02*
X94820169Y-112406214D01*
X94820169Y-112406214D02*
X94820169Y-111977642D01*
X94820169Y-111977642D02*
X94891597Y-111834785D01*
X94891597Y-111834785D02*
X94963026Y-111763357D01*
X94963026Y-111763357D02*
X95105883Y-111691928D01*
X95105883Y-111691928D02*
X95391597Y-111691928D01*
X95391597Y-111691928D02*
X95534455Y-111763357D01*
X95963026Y-111691928D02*
X96534454Y-111691928D01*
X96177311Y-111191928D02*
X96177311Y-112477642D01*
X96177311Y-112477642D02*
X96248740Y-112620500D01*
X96248740Y-112620500D02*
X96391597Y-112691928D01*
X96391597Y-112691928D02*
X96534454Y-112691928D01*
X97034454Y-112691928D02*
X97034454Y-111691928D01*
X97034454Y-111977642D02*
X97105883Y-111834785D01*
X97105883Y-111834785D02*
X97177312Y-111763357D01*
X97177312Y-111763357D02*
X97320169Y-111691928D01*
X97320169Y-111691928D02*
X97463026Y-111691928D01*
X97963025Y-112691928D02*
X97963025Y-111691928D01*
X97963025Y-111191928D02*
X97891597Y-111263357D01*
X97891597Y-111263357D02*
X97963025Y-111334785D01*
X97963025Y-111334785D02*
X98034454Y-111263357D01*
X98034454Y-111263357D02*
X97963025Y-111191928D01*
X97963025Y-111191928D02*
X97963025Y-111334785D01*
X99320169Y-112620500D02*
X99177311Y-112691928D01*
X99177311Y-112691928D02*
X98891597Y-112691928D01*
X98891597Y-112691928D02*
X98748740Y-112620500D01*
X98748740Y-112620500D02*
X98677311Y-112549071D01*
X98677311Y-112549071D02*
X98605883Y-112406214D01*
X98605883Y-112406214D02*
X98605883Y-111977642D01*
X98605883Y-111977642D02*
X98677311Y-111834785D01*
X98677311Y-111834785D02*
X98748740Y-111763357D01*
X98748740Y-111763357D02*
X98891597Y-111691928D01*
X98891597Y-111691928D02*
X99177311Y-111691928D01*
X99177311Y-111691928D02*
X99320169Y-111763357D01*
X100605883Y-112691928D02*
X100605883Y-111906214D01*
X100605883Y-111906214D02*
X100534454Y-111763357D01*
X100534454Y-111763357D02*
X100391597Y-111691928D01*
X100391597Y-111691928D02*
X100105883Y-111691928D01*
X100105883Y-111691928D02*
X99963025Y-111763357D01*
X100605883Y-112620500D02*
X100463025Y-112691928D01*
X100463025Y-112691928D02*
X100105883Y-112691928D01*
X100105883Y-112691928D02*
X99963025Y-112620500D01*
X99963025Y-112620500D02*
X99891597Y-112477642D01*
X99891597Y-112477642D02*
X99891597Y-112334785D01*
X99891597Y-112334785D02*
X99963025Y-112191928D01*
X99963025Y-112191928D02*
X100105883Y-112120500D01*
X100105883Y-112120500D02*
X100463025Y-112120500D01*
X100463025Y-112120500D02*
X100605883Y-112049071D01*
X101534454Y-112691928D02*
X101391597Y-112620500D01*
X101391597Y-112620500D02*
X101320168Y-112477642D01*
X101320168Y-112477642D02*
X101320168Y-111191928D01*
X103891597Y-112691928D02*
X103891597Y-111906214D01*
X103891597Y-111906214D02*
X103820168Y-111763357D01*
X103820168Y-111763357D02*
X103677311Y-111691928D01*
X103677311Y-111691928D02*
X103391597Y-111691928D01*
X103391597Y-111691928D02*
X103248739Y-111763357D01*
X103891597Y-112620500D02*
X103748739Y-112691928D01*
X103748739Y-112691928D02*
X103391597Y-112691928D01*
X103391597Y-112691928D02*
X103248739Y-112620500D01*
X103248739Y-112620500D02*
X103177311Y-112477642D01*
X103177311Y-112477642D02*
X103177311Y-112334785D01*
X103177311Y-112334785D02*
X103248739Y-112191928D01*
X103248739Y-112191928D02*
X103391597Y-112120500D01*
X103391597Y-112120500D02*
X103748739Y-112120500D01*
X103748739Y-112120500D02*
X103891597Y-112049071D01*
X104605882Y-111691928D02*
X104605882Y-112691928D01*
X104605882Y-111834785D02*
X104677311Y-111763357D01*
X104677311Y-111763357D02*
X104820168Y-111691928D01*
X104820168Y-111691928D02*
X105034454Y-111691928D01*
X105034454Y-111691928D02*
X105177311Y-111763357D01*
X105177311Y-111763357D02*
X105248740Y-111906214D01*
X105248740Y-111906214D02*
X105248740Y-112691928D01*
X106605883Y-112691928D02*
X106605883Y-111191928D01*
X106605883Y-112620500D02*
X106463025Y-112691928D01*
X106463025Y-112691928D02*
X106177311Y-112691928D01*
X106177311Y-112691928D02*
X106034454Y-112620500D01*
X106034454Y-112620500D02*
X105963025Y-112549071D01*
X105963025Y-112549071D02*
X105891597Y-112406214D01*
X105891597Y-112406214D02*
X105891597Y-111977642D01*
X105891597Y-111977642D02*
X105963025Y-111834785D01*
X105963025Y-111834785D02*
X106034454Y-111763357D01*
X106034454Y-111763357D02*
X106177311Y-111691928D01*
X106177311Y-111691928D02*
X106463025Y-111691928D01*
X106463025Y-111691928D02*
X106605883Y-111763357D01*
X109320168Y-112549071D02*
X109248740Y-112620500D01*
X109248740Y-112620500D02*
X109034454Y-112691928D01*
X109034454Y-112691928D02*
X108891597Y-112691928D01*
X108891597Y-112691928D02*
X108677311Y-112620500D01*
X108677311Y-112620500D02*
X108534454Y-112477642D01*
X108534454Y-112477642D02*
X108463025Y-112334785D01*
X108463025Y-112334785D02*
X108391597Y-112049071D01*
X108391597Y-112049071D02*
X108391597Y-111834785D01*
X108391597Y-111834785D02*
X108463025Y-111549071D01*
X108463025Y-111549071D02*
X108534454Y-111406214D01*
X108534454Y-111406214D02*
X108677311Y-111263357D01*
X108677311Y-111263357D02*
X108891597Y-111191928D01*
X108891597Y-111191928D02*
X109034454Y-111191928D01*
X109034454Y-111191928D02*
X109248740Y-111263357D01*
X109248740Y-111263357D02*
X109320168Y-111334785D01*
X110177311Y-112691928D02*
X110034454Y-112620500D01*
X110034454Y-112620500D02*
X109963025Y-112549071D01*
X109963025Y-112549071D02*
X109891597Y-112406214D01*
X109891597Y-112406214D02*
X109891597Y-111977642D01*
X109891597Y-111977642D02*
X109963025Y-111834785D01*
X109963025Y-111834785D02*
X110034454Y-111763357D01*
X110034454Y-111763357D02*
X110177311Y-111691928D01*
X110177311Y-111691928D02*
X110391597Y-111691928D01*
X110391597Y-111691928D02*
X110534454Y-111763357D01*
X110534454Y-111763357D02*
X110605883Y-111834785D01*
X110605883Y-111834785D02*
X110677311Y-111977642D01*
X110677311Y-111977642D02*
X110677311Y-112406214D01*
X110677311Y-112406214D02*
X110605883Y-112549071D01*
X110605883Y-112549071D02*
X110534454Y-112620500D01*
X110534454Y-112620500D02*
X110391597Y-112691928D01*
X110391597Y-112691928D02*
X110177311Y-112691928D01*
X111320168Y-112691928D02*
X111320168Y-111691928D01*
X111320168Y-111834785D02*
X111391597Y-111763357D01*
X111391597Y-111763357D02*
X111534454Y-111691928D01*
X111534454Y-111691928D02*
X111748740Y-111691928D01*
X111748740Y-111691928D02*
X111891597Y-111763357D01*
X111891597Y-111763357D02*
X111963026Y-111906214D01*
X111963026Y-111906214D02*
X111963026Y-112691928D01*
X111963026Y-111906214D02*
X112034454Y-111763357D01*
X112034454Y-111763357D02*
X112177311Y-111691928D01*
X112177311Y-111691928D02*
X112391597Y-111691928D01*
X112391597Y-111691928D02*
X112534454Y-111763357D01*
X112534454Y-111763357D02*
X112605883Y-111906214D01*
X112605883Y-111906214D02*
X112605883Y-112691928D01*
X113320168Y-111691928D02*
X113320168Y-113191928D01*
X113320168Y-111763357D02*
X113463026Y-111691928D01*
X113463026Y-111691928D02*
X113748740Y-111691928D01*
X113748740Y-111691928D02*
X113891597Y-111763357D01*
X113891597Y-111763357D02*
X113963026Y-111834785D01*
X113963026Y-111834785D02*
X114034454Y-111977642D01*
X114034454Y-111977642D02*
X114034454Y-112406214D01*
X114034454Y-112406214D02*
X113963026Y-112549071D01*
X113963026Y-112549071D02*
X113891597Y-112620500D01*
X113891597Y-112620500D02*
X113748740Y-112691928D01*
X113748740Y-112691928D02*
X113463026Y-112691928D01*
X113463026Y-112691928D02*
X113320168Y-112620500D01*
X115320169Y-111691928D02*
X115320169Y-112691928D01*
X114677311Y-111691928D02*
X114677311Y-112477642D01*
X114677311Y-112477642D02*
X114748740Y-112620500D01*
X114748740Y-112620500D02*
X114891597Y-112691928D01*
X114891597Y-112691928D02*
X115105883Y-112691928D01*
X115105883Y-112691928D02*
X115248740Y-112620500D01*
X115248740Y-112620500D02*
X115320169Y-112549071D01*
X115820169Y-111691928D02*
X116391597Y-111691928D01*
X116034454Y-111191928D02*
X116034454Y-112477642D01*
X116034454Y-112477642D02*
X116105883Y-112620500D01*
X116105883Y-112620500D02*
X116248740Y-112691928D01*
X116248740Y-112691928D02*
X116391597Y-112691928D01*
X117463026Y-112620500D02*
X117320169Y-112691928D01*
X117320169Y-112691928D02*
X117034455Y-112691928D01*
X117034455Y-112691928D02*
X116891597Y-112620500D01*
X116891597Y-112620500D02*
X116820169Y-112477642D01*
X116820169Y-112477642D02*
X116820169Y-111906214D01*
X116820169Y-111906214D02*
X116891597Y-111763357D01*
X116891597Y-111763357D02*
X117034455Y-111691928D01*
X117034455Y-111691928D02*
X117320169Y-111691928D01*
X117320169Y-111691928D02*
X117463026Y-111763357D01*
X117463026Y-111763357D02*
X117534455Y-111906214D01*
X117534455Y-111906214D02*
X117534455Y-112049071D01*
X117534455Y-112049071D02*
X116820169Y-112191928D01*
X118177311Y-112691928D02*
X118177311Y-111691928D01*
X118177311Y-111977642D02*
X118248740Y-111834785D01*
X118248740Y-111834785D02*
X118320169Y-111763357D01*
X118320169Y-111763357D02*
X118463026Y-111691928D01*
X118463026Y-111691928D02*
X118605883Y-111691928D01*
X120248739Y-111906214D02*
X120748739Y-111906214D01*
X120963025Y-112691928D02*
X120248739Y-112691928D01*
X120248739Y-112691928D02*
X120248739Y-111191928D01*
X120248739Y-111191928D02*
X120963025Y-111191928D01*
X121605882Y-111691928D02*
X121605882Y-112691928D01*
X121605882Y-111834785D02*
X121677311Y-111763357D01*
X121677311Y-111763357D02*
X121820168Y-111691928D01*
X121820168Y-111691928D02*
X122034454Y-111691928D01*
X122034454Y-111691928D02*
X122177311Y-111763357D01*
X122177311Y-111763357D02*
X122248740Y-111906214D01*
X122248740Y-111906214D02*
X122248740Y-112691928D01*
X123605883Y-111691928D02*
X123605883Y-112906214D01*
X123605883Y-112906214D02*
X123534454Y-113049071D01*
X123534454Y-113049071D02*
X123463025Y-113120500D01*
X123463025Y-113120500D02*
X123320168Y-113191928D01*
X123320168Y-113191928D02*
X123105883Y-113191928D01*
X123105883Y-113191928D02*
X122963025Y-113120500D01*
X123605883Y-112620500D02*
X123463025Y-112691928D01*
X123463025Y-112691928D02*
X123177311Y-112691928D01*
X123177311Y-112691928D02*
X123034454Y-112620500D01*
X123034454Y-112620500D02*
X122963025Y-112549071D01*
X122963025Y-112549071D02*
X122891597Y-112406214D01*
X122891597Y-112406214D02*
X122891597Y-111977642D01*
X122891597Y-111977642D02*
X122963025Y-111834785D01*
X122963025Y-111834785D02*
X123034454Y-111763357D01*
X123034454Y-111763357D02*
X123177311Y-111691928D01*
X123177311Y-111691928D02*
X123463025Y-111691928D01*
X123463025Y-111691928D02*
X123605883Y-111763357D01*
X124320168Y-112691928D02*
X124320168Y-111691928D01*
X124320168Y-111191928D02*
X124248740Y-111263357D01*
X124248740Y-111263357D02*
X124320168Y-111334785D01*
X124320168Y-111334785D02*
X124391597Y-111263357D01*
X124391597Y-111263357D02*
X124320168Y-111191928D01*
X124320168Y-111191928D02*
X124320168Y-111334785D01*
X125034454Y-111691928D02*
X125034454Y-112691928D01*
X125034454Y-111834785D02*
X125105883Y-111763357D01*
X125105883Y-111763357D02*
X125248740Y-111691928D01*
X125248740Y-111691928D02*
X125463026Y-111691928D01*
X125463026Y-111691928D02*
X125605883Y-111763357D01*
X125605883Y-111763357D02*
X125677312Y-111906214D01*
X125677312Y-111906214D02*
X125677312Y-112691928D01*
X126963026Y-112620500D02*
X126820169Y-112691928D01*
X126820169Y-112691928D02*
X126534455Y-112691928D01*
X126534455Y-112691928D02*
X126391597Y-112620500D01*
X126391597Y-112620500D02*
X126320169Y-112477642D01*
X126320169Y-112477642D02*
X126320169Y-111906214D01*
X126320169Y-111906214D02*
X126391597Y-111763357D01*
X126391597Y-111763357D02*
X126534455Y-111691928D01*
X126534455Y-111691928D02*
X126820169Y-111691928D01*
X126820169Y-111691928D02*
X126963026Y-111763357D01*
X126963026Y-111763357D02*
X127034455Y-111906214D01*
X127034455Y-111906214D02*
X127034455Y-112049071D01*
X127034455Y-112049071D02*
X126320169Y-112191928D01*
X128248740Y-112620500D02*
X128105883Y-112691928D01*
X128105883Y-112691928D02*
X127820169Y-112691928D01*
X127820169Y-112691928D02*
X127677311Y-112620500D01*
X127677311Y-112620500D02*
X127605883Y-112477642D01*
X127605883Y-112477642D02*
X127605883Y-111906214D01*
X127605883Y-111906214D02*
X127677311Y-111763357D01*
X127677311Y-111763357D02*
X127820169Y-111691928D01*
X127820169Y-111691928D02*
X128105883Y-111691928D01*
X128105883Y-111691928D02*
X128248740Y-111763357D01*
X128248740Y-111763357D02*
X128320169Y-111906214D01*
X128320169Y-111906214D02*
X128320169Y-112049071D01*
X128320169Y-112049071D02*
X127605883Y-112191928D01*
X128963025Y-112691928D02*
X128963025Y-111691928D01*
X128963025Y-111977642D02*
X129034454Y-111834785D01*
X129034454Y-111834785D02*
X129105883Y-111763357D01*
X129105883Y-111763357D02*
X129248740Y-111691928D01*
X129248740Y-111691928D02*
X129391597Y-111691928D01*
X129891596Y-112691928D02*
X129891596Y-111691928D01*
X129891596Y-111191928D02*
X129820168Y-111263357D01*
X129820168Y-111263357D02*
X129891596Y-111334785D01*
X129891596Y-111334785D02*
X129963025Y-111263357D01*
X129963025Y-111263357D02*
X129891596Y-111191928D01*
X129891596Y-111191928D02*
X129891596Y-111334785D01*
X130605882Y-111691928D02*
X130605882Y-112691928D01*
X130605882Y-111834785D02*
X130677311Y-111763357D01*
X130677311Y-111763357D02*
X130820168Y-111691928D01*
X130820168Y-111691928D02*
X131034454Y-111691928D01*
X131034454Y-111691928D02*
X131177311Y-111763357D01*
X131177311Y-111763357D02*
X131248740Y-111906214D01*
X131248740Y-111906214D02*
X131248740Y-112691928D01*
X132605883Y-111691928D02*
X132605883Y-112906214D01*
X132605883Y-112906214D02*
X132534454Y-113049071D01*
X132534454Y-113049071D02*
X132463025Y-113120500D01*
X132463025Y-113120500D02*
X132320168Y-113191928D01*
X132320168Y-113191928D02*
X132105883Y-113191928D01*
X132105883Y-113191928D02*
X131963025Y-113120500D01*
X132605883Y-112620500D02*
X132463025Y-112691928D01*
X132463025Y-112691928D02*
X132177311Y-112691928D01*
X132177311Y-112691928D02*
X132034454Y-112620500D01*
X132034454Y-112620500D02*
X131963025Y-112549071D01*
X131963025Y-112549071D02*
X131891597Y-112406214D01*
X131891597Y-112406214D02*
X131891597Y-111977642D01*
X131891597Y-111977642D02*
X131963025Y-111834785D01*
X131963025Y-111834785D02*
X132034454Y-111763357D01*
X132034454Y-111763357D02*
X132177311Y-111691928D01*
X132177311Y-111691928D02*
X132463025Y-111691928D01*
X132463025Y-111691928D02*
X132605883Y-111763357D01*
D10*
D11*
D10*
D11*
D10*
D11*
X110007200Y-129505800D02*
X110007200Y-132505800D01*
D10*
D11*
X174007200Y-129505800D02*
X174007200Y-136005800D01*
D14*
%TO.P,X1,MT2,GND1*%
%TO.N,+5V*%
X136221300Y-73569891D03*
%TO.P,X1,MT1,GND*%
X135321300Y-60369891D03*
D15*
%TO.P,X1,CD2,CARD_DETECT1*%
%TO.N,N/C*%
X122221300Y-67969891D03*
%TO.P,X1,CD1,CARD_DETECT*%
%TO.N,MOSI*%
X122221300Y-61969891D03*
D16*
%TO.P,X1,8,DAT1*%
%TO.N,N/C*%
X132421300Y-61269891D03*
%TO.P,X1,7,DATA_OUT*%
%TO.N,SS*%
X132421300Y-62369891D03*
%TO.P,X1,6,VSS*%
%TO.N,+5V*%
X132821300Y-63469891D03*
%TO.P,X1,5,SCLK*%
%TO.N,RESET*%
X132421300Y-64569891D03*
%TO.P,X1,4,VDD*%
%TO.N,GND*%
X132821300Y-65669891D03*
%TO.P,X1,3,DATA_IN*%
%TO.N,AD1*%
X132421300Y-66769891D03*
%TO.P,X1,2,CS*%
%TO.N,VIN*%
X132021300Y-67869891D03*
%TO.P,X1,1,DAT2*%
%TO.N,N/C*%
X132421300Y-68969891D03*
%TD*%
D17*
%TO.P,R2,1*%
%TO.N,SCL*%
X69050277Y-69730769D03*
D18*
%TO.P,R2,2*%
%TO.N,+5V*%
X69050277Y-64650769D03*
%TD*%
%TO.P,R1,2*%
%TO.N,+5V*%
X74130277Y-64650769D03*
D17*
%TO.P,R1,1*%
%TO.N,SDA*%
X74130277Y-69730769D03*
%TD*%
D19*
%TO.P,U1,1,D1/TX*%
%TO.N,N/C*%
X81750277Y-74810769D03*
D20*
X102070277Y-74810769D03*
X94450277Y-59570769D03*
X96990277Y-59570769D03*
D19*
%TO.P,U1,2,D2/INT0*%
X84290277Y-74810769D03*
D20*
X104610277Y-74810769D03*
X91910277Y-59570769D03*
X99530277Y-59570769D03*
D19*
%TO.P,U1,3,3V3*%
X86830277Y-74810769D03*
D20*
X107150277Y-74810769D03*
X89370277Y-59570769D03*
X102070277Y-59570769D03*
D19*
%TO.P,U1,4,+5V*%
%TO.N,+5V*%
X89370277Y-74810769D03*
D20*
%TO.N,N/C*%
X109690277Y-74810769D03*
%TO.N,DTR*%
X86830277Y-59570769D03*
%TO.N,XTAL1*%
X104610277Y-59570769D03*
D19*
%TO.P,U1,5,GND*%
%TO.N,GND*%
X91910277Y-74810769D03*
D20*
%TO.N,SDA*%
X112230277Y-74810769D03*
%TO.N,SS*%
X84290277Y-59570769D03*
%TO.N,N/C*%
X107150277Y-59570769D03*
D19*
%TO.P,U1,6,GND*%
%TO.N,GND*%
X94450277Y-74810769D03*
D20*
%TO.N,SCL*%
X114770277Y-74810769D03*
%TO.N,XTAL2*%
X81750277Y-59570769D03*
%TO.N,N/C*%
X109690277Y-59570769D03*
D19*
%TO.P,U1,7,D7*%
X96990277Y-74810769D03*
D20*
X112230277Y-59570769D03*
D19*
%TO.P,U1,8,AREF*%
X99530277Y-74810769D03*
D20*
X114770277Y-59570769D03*
%TD*%
D21*
%TO.P,S1,1,VDD*%
%TO.N,+5V*%
X74130277Y-59570769D03*
%TO.P,S1,2,SDA*%
%TO.N,SDA*%
X71590277Y-59570769D03*
%TO.P,S1,3,GND*%
%TO.N,GND*%
X69050277Y-59570769D03*
%TO.P,S1,4,SCL*%
%TO.N,SCL*%
X66510277Y-59570769D03*
%TD*%
D22*
%TO.P,R3,2,2*%
%TO.N,AD0*%
X127002530Y-58610806D03*
%TO.P,R3,1,1*%
%TO.N,VIN*%
X125002530Y-58610806D03*
%TD*%
D23*
%TO.P,IC2,1,VIN*%
%TO.N,SCK*%
X122354651Y-76905233D03*
%TO.P,IC2,2,GND*%
%TO.N,+5V*%
X122354651Y-75955233D03*
%TO.P,IC2,3,EN*%
%TO.N,SCK*%
X122354651Y-75005233D03*
%TO.P,IC2,4,BYP*%
%TO.N,N/C*%
X124954651Y-75005233D03*
%TO.P,IC2,5,VOUT*%
%TO.N,GND*%
X124954651Y-76905233D03*
%TD*%
D24*
%TO.P,IC1,16*%
%TO.N,N/C*%
X112426158Y-61785806D03*
%TO.P,IC1,15,O*%
X112426158Y-63055806D03*
%TO.P,IC1,14,I*%
%TO.N,+5V*%
X112426158Y-64325806D03*
%TO.P,IC1,13*%
%TO.N,N/C*%
X112426158Y-65595806D03*
%TO.P,IC1,12,O*%
X112426158Y-66865806D03*
%TO.P,IC1,11,I*%
%TO.N,+5V*%
X112426158Y-68135806D03*
%TO.P,IC1,10,O*%
%TO.N,AREF*%
X112426158Y-69405806D03*
%TO.P,IC1,9,I*%
%TO.N,XTAL2*%
X112426158Y-70675806D03*
%TO.P,IC1,8,VSS*%
%TO.N,+5V*%
X118572958Y-70675806D03*
%TO.P,IC1,7,I*%
%TO.N,XTAL1*%
X118572958Y-69405806D03*
%TO.P,IC1,6,O*%
%TO.N,VIN*%
X118572958Y-68135806D03*
%TO.P,IC1,5,I*%
%TO.N,DTR*%
X118572958Y-66865806D03*
%TO.P,IC1,4,O*%
%TO.N,AD1*%
X118572958Y-65595806D03*
%TO.P,IC1,3,I*%
%TO.N,XTAL2*%
X118572958Y-64325806D03*
%TO.P,IC1,2,O*%
%TO.N,RESET*%
X118572958Y-63055806D03*
%TO.P,IC1,1,VDD*%
%TO.N,GND*%
X118572958Y-61785806D03*
%TD*%
D22*
%TO.P,C2,1,1*%
%TO.N,SCK*%
X120039558Y-73850806D03*
%TO.P,C2,2,2*%
%TO.N,+5V*%
X118039558Y-73850806D03*
%TD*%
D25*
%TO.P,C1,+,+*%
%TO.N,+5V*%
X130082530Y-76390806D03*
%TO.P,C1,-,-*%
%TO.N,GND*%
X127332530Y-76390806D03*
%TD*%
D26*
%TO.P,ACT1,A,A*%
%TO.N,AREF*%
X132622530Y-58610806D03*
%TO.P,ACT1,C,C*%
%TO.N,AD0*%
X130522530Y-58610806D03*
%TD*%
D27*
%TO.N,GND*%
X119874651Y-59765233D03*
X128210548Y-65701305D03*
%TO.N,+5V*%
X91910277Y-69730769D03*
X124930277Y-69730769D03*
X109690277Y-64650769D03*
X109045936Y-68016845D03*
%TO.N,XTAL1*%
X104610277Y-64650769D03*
X115951275Y-70419094D03*
%TO.N,DTR*%
X107150277Y-67190769D03*
X116007610Y-66972107D03*
%TO.N,SS*%
X127470277Y-62110769D03*
%TO.N,AREF*%
X135819558Y-58610806D03*
X109690277Y-69730769D03*
%TO.N,VIN*%
X130739558Y-61150806D03*
X128199558Y-68770806D03*
%TD*%
D28*
%TO.N,GND*%
X118572958Y-61066926D02*
X119874651Y-59765233D01*
X118572958Y-61785806D02*
X118572958Y-61066926D01*
X128179134Y-65669891D02*
X128144651Y-65669891D01*
X128210548Y-65701305D02*
X128179134Y-65669891D01*
X128241962Y-65669891D02*
X128210548Y-65701305D01*
X132821300Y-65669891D02*
X128241962Y-65669891D01*
%TO.N,+5V*%
X107332012Y-69730769D02*
X109045936Y-68016845D01*
X91910277Y-69730769D02*
X107332012Y-69730769D01*
X109045936Y-65295110D02*
X109690277Y-64650769D01*
X109045936Y-68016845D02*
X109045936Y-65295110D01*
X135321300Y-62110769D02*
X135321300Y-68559191D01*
X132821300Y-63469891D02*
X133962178Y-63469891D01*
X133962178Y-63469891D02*
X135321300Y-62110769D01*
X135321300Y-60369891D02*
X135321300Y-62110769D01*
X133400385Y-76390806D02*
X136221300Y-73569891D01*
X130082530Y-76390806D02*
X133400385Y-76390806D01*
X126319508Y-71120000D02*
X124930277Y-69730769D01*
X132760491Y-71120000D02*
X126319508Y-71120000D01*
X135321300Y-68559191D02*
X132760491Y-71120000D01*
X128769399Y-73569891D02*
X124930277Y-69730769D01*
X136221300Y-73569891D02*
X128769399Y-73569891D01*
X122159595Y-69730769D02*
X124930277Y-69730769D01*
X118039558Y-73850806D02*
X122159595Y-69730769D01*
X119993985Y-75955233D02*
X122354651Y-75955233D01*
X118039558Y-74000806D02*
X119993985Y-75955233D01*
X118039558Y-73850806D02*
X118039558Y-74000806D01*
X118572958Y-73317406D02*
X118039558Y-73850806D01*
X118572958Y-70675806D02*
X118572958Y-73317406D01*
X112426158Y-64325806D02*
X110015240Y-64325806D01*
X110015240Y-64325806D02*
X109690277Y-64650769D01*
X109164897Y-68135806D02*
X112426158Y-68135806D01*
X109045936Y-68016845D02*
X109164897Y-68135806D01*
%TO.N,DTR*%
X107150277Y-67190769D02*
X94450277Y-67190769D01*
X94450277Y-67190769D02*
X86830277Y-59570769D01*
%TO.N,XTAL1*%
X104610277Y-64650769D02*
X104610277Y-59570769D01*
X115863028Y-70419094D02*
X115915976Y-70366146D01*
X115951275Y-70419094D02*
X115863028Y-70419094D01*
X115951275Y-70330847D02*
X115951275Y-70419094D01*
X116876316Y-69405806D02*
X115951275Y-70330847D01*
X118572958Y-69405806D02*
X116876316Y-69405806D01*
%TO.N,DTR*%
X118572958Y-66865806D02*
X116113911Y-66865806D01*
X116113911Y-66865806D02*
X116007610Y-66972107D01*
%TO.N,XTAL2*%
X113594558Y-70675806D02*
X112426158Y-70675806D01*
X114770277Y-69500087D02*
X113594558Y-70675806D01*
X114770277Y-64325806D02*
X114770277Y-69500087D01*
X118572958Y-64325806D02*
X114770277Y-64325806D01*
%TO.N,SS*%
X127729399Y-62369891D02*
X132421300Y-62369891D01*
X127470277Y-62110769D02*
X127729399Y-62369891D01*
%TO.N,XTAL2*%
X87598034Y-71768526D02*
X81750277Y-65920769D01*
X111333438Y-71768526D02*
X87598034Y-71768526D01*
X112426158Y-70675806D02*
X111333438Y-71768526D01*
X81750277Y-65920769D02*
X81750277Y-59570769D01*
%TO.N,AREF*%
X110015240Y-69405806D02*
X109690277Y-69730769D01*
X112426158Y-69405806D02*
X110015240Y-69405806D01*
%TO.N,SDA*%
X71590277Y-67190769D02*
X74130277Y-69730769D01*
X71590277Y-59570769D02*
X71590277Y-67190769D01*
%TO.N,SCL*%
X66510277Y-67190769D02*
X69050277Y-69730769D01*
X66510277Y-59570769D02*
X66510277Y-67190769D01*
%TO.N,+5V*%
X74130277Y-59570769D02*
X74130277Y-64650769D01*
%TO.N,AREF*%
X132622530Y-58610806D02*
X135819558Y-58610806D01*
%TO.N,VIN*%
X127542530Y-61150806D02*
X125002530Y-58610806D01*
X130739558Y-61150806D02*
X127542530Y-61150806D01*
X128199558Y-68770806D02*
X128199558Y-67869891D01*
X128199558Y-67869891D02*
X126662247Y-67869891D01*
X132021300Y-67869891D02*
X128199558Y-67869891D01*
%TO.N,SCK*%
X121200224Y-73850806D02*
X122354651Y-75005233D01*
X120039558Y-73850806D02*
X121200224Y-73850806D01*
X122929651Y-75005233D02*
X122354651Y-75005233D01*
X123279651Y-75355233D02*
X122929651Y-75005233D01*
X123279651Y-76555233D02*
X123279651Y-75355233D01*
X122929651Y-76905233D02*
X123279651Y-76555233D01*
X122354651Y-76905233D02*
X122929651Y-76905233D01*
%TO.N,GND*%
X126818103Y-76905233D02*
X127332530Y-76390806D01*
X124954651Y-76905233D02*
X126818103Y-76905233D01*
%TO.N,AD0*%
X130522530Y-58610806D02*
X127002530Y-58610806D01*
%TO.N,VIN*%
X125023162Y-66230806D02*
X121204158Y-66230806D01*
X121204158Y-66230806D02*
X119299158Y-68135806D01*
X119299158Y-68135806D02*
X118572958Y-68135806D01*
X126662247Y-67869891D02*
X125023162Y-66230806D01*
%TO.N,AD1*%
X125024558Y-65595806D02*
X118572958Y-65595806D01*
X126198643Y-66769891D02*
X125024558Y-65595806D01*
X132421300Y-66769891D02*
X126198643Y-66769891D01*
%TO.N,RESET*%
X119258758Y-63055806D02*
X118572958Y-63055806D01*
X120772843Y-64569891D02*
X119258758Y-63055806D01*
X132421300Y-64569891D02*
X120772843Y-64569891D01*
%TD*%
%TA.AperFunction,Conductor*%
%TO.N,GND*%
G36*
X124238180Y-57244918D02*
G01*
X124283935Y-57297722D01*
X124293879Y-57366880D01*
X124264854Y-57430436D01*
X124214475Y-57465415D01*
X124210199Y-57467009D01*
X124210194Y-57467012D01*
X124094985Y-57553258D01*
X124094982Y-57553261D01*
X124008736Y-57668470D01*
X124008732Y-57668477D01*
X123958438Y-57803323D01*
X123955930Y-57826655D01*
X123952031Y-57862929D01*
X123952030Y-57862941D01*
X123952030Y-59358676D01*
X123952031Y-59358682D01*
X123958438Y-59418289D01*
X124008732Y-59553134D01*
X124008736Y-59553141D01*
X124094982Y-59668350D01*
X124094985Y-59668353D01*
X124210194Y-59754599D01*
X124210201Y-59754603D01*
X124345047Y-59804897D01*
X124345046Y-59804897D01*
X124351974Y-59805641D01*
X124404657Y-59811306D01*
X125267076Y-59811305D01*
X125334115Y-59830989D01*
X125354757Y-59847624D01*
X126819391Y-61312258D01*
X126852876Y-61373581D01*
X126847892Y-61443273D01*
X126823860Y-61482911D01*
X126737743Y-61578554D01*
X126643098Y-61742484D01*
X126643095Y-61742491D01*
X126602525Y-61867354D01*
X126584603Y-61922513D01*
X126564817Y-62110769D01*
X126584603Y-62299025D01*
X126584604Y-62299028D01*
X126643095Y-62479046D01*
X126643098Y-62479053D01*
X126737744Y-62642985D01*
X126864405Y-62783657D01*
X126864406Y-62783657D01*
X127017542Y-62894917D01*
X127017547Y-62894920D01*
X127190469Y-62971911D01*
X127190474Y-62971913D01*
X127375631Y-63011269D01*
X127375632Y-63011269D01*
X127564923Y-63011269D01*
X127626873Y-62998101D01*
X127652654Y-62995391D01*
X127670415Y-62995391D01*
X127689812Y-62996917D01*
X127709595Y-63000051D01*
X127755982Y-62995666D01*
X127761821Y-62995391D01*
X131190265Y-62995391D01*
X131257304Y-63015076D01*
X131289532Y-63045081D01*
X131313749Y-63077432D01*
X131313752Y-63077435D01*
X131313754Y-63077437D01*
X131313757Y-63077439D01*
X131428964Y-63163684D01*
X131428969Y-63163687D01*
X131490133Y-63186499D01*
X131546066Y-63228369D01*
X131570484Y-63293833D01*
X131570800Y-63302681D01*
X131570799Y-63637100D01*
X131551114Y-63704140D01*
X131498310Y-63749895D01*
X131490132Y-63753282D01*
X131428971Y-63776093D01*
X131428964Y-63776097D01*
X131313757Y-63862342D01*
X131313749Y-63862349D01*
X131289532Y-63894701D01*
X131233599Y-63936573D01*
X131190265Y-63944391D01*
X121083295Y-63944391D01*
X121016256Y-63924706D01*
X120995614Y-63908072D01*
X120125776Y-63038233D01*
X120092291Y-62976910D01*
X120089457Y-62950552D01*
X120089457Y-62917761D01*
X121020800Y-62917761D01*
X121020801Y-62917767D01*
X121027208Y-62977374D01*
X121077502Y-63112219D01*
X121077506Y-63112226D01*
X121163752Y-63227435D01*
X121163755Y-63227438D01*
X121278964Y-63313684D01*
X121278971Y-63313688D01*
X121413817Y-63363982D01*
X121413816Y-63363982D01*
X121420744Y-63364726D01*
X121473427Y-63370391D01*
X122969172Y-63370390D01*
X123028783Y-63363982D01*
X123163631Y-63313687D01*
X123278846Y-63227437D01*
X123365096Y-63112222D01*
X123415391Y-62977374D01*
X123421800Y-62917764D01*
X123421799Y-61022019D01*
X123415391Y-60962408D01*
X123406534Y-60938662D01*
X123365097Y-60827562D01*
X123365093Y-60827555D01*
X123278847Y-60712346D01*
X123278844Y-60712343D01*
X123163635Y-60626097D01*
X123163628Y-60626093D01*
X123028782Y-60575799D01*
X123028783Y-60575799D01*
X122969183Y-60569392D01*
X122969181Y-60569391D01*
X122969173Y-60569391D01*
X122969164Y-60569391D01*
X121473429Y-60569391D01*
X121473423Y-60569392D01*
X121413816Y-60575799D01*
X121278971Y-60626093D01*
X121278964Y-60626097D01*
X121163755Y-60712343D01*
X121163752Y-60712346D01*
X121077506Y-60827555D01*
X121077502Y-60827562D01*
X121027208Y-60962408D01*
X121020801Y-61022007D01*
X121020801Y-61022014D01*
X121020800Y-61022026D01*
X121020800Y-62917761D01*
X120089457Y-62917761D01*
X120089457Y-62677735D01*
X120089456Y-62677729D01*
X120089280Y-62676095D01*
X120083049Y-62618123D01*
X120032754Y-62483275D01*
X120032751Y-62483271D01*
X120030808Y-62479712D01*
X120029943Y-62475737D01*
X120029655Y-62474965D01*
X120029766Y-62474923D01*
X120015952Y-62411440D01*
X120030806Y-62360851D01*
X120032308Y-62358099D01*
X120082555Y-62223382D01*
X120082556Y-62223378D01*
X120088957Y-62163850D01*
X120088958Y-62163833D01*
X120088958Y-61407778D01*
X120088957Y-61407761D01*
X120082556Y-61348233D01*
X120082554Y-61348226D01*
X120032312Y-61213519D01*
X120032308Y-61213512D01*
X119946148Y-61098418D01*
X119831050Y-61012254D01*
X119831047Y-61012253D01*
X119818255Y-61007481D01*
X119818254Y-61007481D01*
X118660638Y-62165097D01*
X118599315Y-62198582D01*
X118529623Y-62193598D01*
X118485276Y-62165097D01*
X117327660Y-61007480D01*
X117314870Y-61012252D01*
X117199767Y-61098419D01*
X117113607Y-61213512D01*
X117113603Y-61213519D01*
X117063361Y-61348226D01*
X117063359Y-61348233D01*
X117056958Y-61407761D01*
X117056958Y-62163850D01*
X117063359Y-62223378D01*
X117063361Y-62223385D01*
X117113605Y-62358097D01*
X117115109Y-62360851D01*
X117115776Y-62363916D01*
X117116704Y-62366405D01*
X117116346Y-62366538D01*
X117129962Y-62429123D01*
X117115111Y-62479704D01*
X117113162Y-62483272D01*
X117065371Y-62611409D01*
X117062867Y-62618123D01*
X117056458Y-62677733D01*
X117056458Y-62677740D01*
X117056458Y-62677741D01*
X117056458Y-63433876D01*
X117056459Y-63433882D01*
X117062867Y-63493490D01*
X117077593Y-63532974D01*
X117082577Y-63602665D01*
X117049091Y-63663988D01*
X116987768Y-63697473D01*
X116961411Y-63700306D01*
X114841124Y-63700306D01*
X114817892Y-63698110D01*
X114809865Y-63696579D01*
X114809863Y-63696579D01*
X114800910Y-63697142D01*
X114752552Y-63700184D01*
X114748680Y-63700306D01*
X114730920Y-63700306D01*
X114713309Y-63702531D01*
X114709441Y-63702896D01*
X114677652Y-63704896D01*
X114652136Y-63706502D01*
X114644362Y-63709028D01*
X114621597Y-63714116D01*
X114613495Y-63715139D01*
X114613482Y-63715143D01*
X114560087Y-63736283D01*
X114556431Y-63737598D01*
X114501836Y-63755339D01*
X114501833Y-63755340D01*
X114494929Y-63759721D01*
X114474157Y-63770305D01*
X114466550Y-63773317D01*
X114466539Y-63773323D01*
X114420091Y-63807069D01*
X114416872Y-63809257D01*
X114368400Y-63840019D01*
X114368397Y-63840022D01*
X114362806Y-63845976D01*
X114345306Y-63861405D01*
X114338690Y-63866211D01*
X114338689Y-63866212D01*
X114302089Y-63910452D01*
X114299515Y-63913371D01*
X114260214Y-63955223D01*
X114260212Y-63955226D01*
X114256271Y-63962395D01*
X114243166Y-63981679D01*
X114237954Y-63987979D01*
X114237951Y-63987984D01*
X114213508Y-64039927D01*
X114211741Y-64043395D01*
X114184081Y-64093710D01*
X114181948Y-64099099D01*
X114138965Y-64154183D01*
X114073025Y-64177284D01*
X114005063Y-64161069D01*
X113956657Y-64110684D01*
X113942657Y-64053448D01*
X113942657Y-63947735D01*
X113942656Y-63947729D01*
X113942577Y-63946996D01*
X113936249Y-63888123D01*
X113928228Y-63866618D01*
X113885955Y-63753277D01*
X113884295Y-63750237D01*
X113883558Y-63746850D01*
X113882855Y-63744965D01*
X113883125Y-63744863D01*
X113869441Y-63681965D01*
X113884295Y-63631375D01*
X113885951Y-63628340D01*
X113885954Y-63628337D01*
X113936249Y-63493489D01*
X113942658Y-63433879D01*
X113942657Y-62677734D01*
X113936249Y-62618123D01*
X113885954Y-62483275D01*
X113885952Y-62483272D01*
X113884295Y-62480237D01*
X113883558Y-62476850D01*
X113882855Y-62474965D01*
X113883125Y-62474863D01*
X113869441Y-62411965D01*
X113884295Y-62361375D01*
X113885951Y-62358340D01*
X113885954Y-62358337D01*
X113936249Y-62223489D01*
X113942658Y-62163879D01*
X113942657Y-61407734D01*
X113936249Y-61348123D01*
X113925324Y-61318832D01*
X113885955Y-61213277D01*
X113885951Y-61213270D01*
X113799705Y-61098061D01*
X113799702Y-61098058D01*
X113684493Y-61011812D01*
X113684486Y-61011808D01*
X113549640Y-60961514D01*
X113549641Y-60961514D01*
X113494683Y-60955606D01*
X118209731Y-60955606D01*
X118572958Y-61318832D01*
X118936184Y-60955606D01*
X118209731Y-60955606D01*
X113494683Y-60955606D01*
X113490041Y-60955107D01*
X113490039Y-60955106D01*
X113490031Y-60955106D01*
X113490023Y-60955106D01*
X112980469Y-60955106D01*
X112913430Y-60935421D01*
X112867675Y-60882617D01*
X112857731Y-60813459D01*
X112886756Y-60749903D01*
X112909340Y-60729534D01*
X113094064Y-60600190D01*
X113259698Y-60434556D01*
X113394054Y-60242676D01*
X113394054Y-60242674D01*
X113397159Y-60238241D01*
X113398600Y-60239250D01*
X113443449Y-60196481D01*
X113512055Y-60183253D01*
X113576922Y-60209216D01*
X113602571Y-60238817D01*
X113603395Y-60238241D01*
X113606499Y-60242674D01*
X113606500Y-60242676D01*
X113740856Y-60434556D01*
X113906490Y-60600190D01*
X114098370Y-60734546D01*
X114310666Y-60833541D01*
X114536926Y-60894167D01*
X114723606Y-60910499D01*
X114770276Y-60914583D01*
X114770277Y-60914583D01*
X114770278Y-60914583D01*
X114809168Y-60911180D01*
X115003628Y-60894167D01*
X115229888Y-60833541D01*
X115442184Y-60734546D01*
X115634064Y-60600190D01*
X115799698Y-60434556D01*
X115934054Y-60242676D01*
X116033049Y-60030380D01*
X116093675Y-59804120D01*
X116114091Y-59570769D01*
X116113359Y-59562408D01*
X116101562Y-59427562D01*
X116093675Y-59337418D01*
X116033049Y-59111158D01*
X115934054Y-58898862D01*
X115799698Y-58706982D01*
X115634064Y-58541348D01*
X115442184Y-58406992D01*
X115229888Y-58307997D01*
X115229884Y-58307996D01*
X115229880Y-58307994D01*
X115003633Y-58247372D01*
X115003623Y-58247370D01*
X114770278Y-58226955D01*
X114770276Y-58226955D01*
X114536930Y-58247370D01*
X114536920Y-58247372D01*
X114310673Y-58307994D01*
X114310666Y-58307996D01*
X114310666Y-58307997D01*
X114098370Y-58406992D01*
X113906490Y-58541348D01*
X113906488Y-58541349D01*
X113906485Y-58541352D01*
X113740860Y-58706977D01*
X113740857Y-58706980D01*
X113740856Y-58706982D01*
X113606500Y-58898862D01*
X113603395Y-58903297D01*
X113601957Y-58902290D01*
X113557087Y-58945066D01*
X113488479Y-58958282D01*
X113423617Y-58932309D01*
X113397979Y-58902722D01*
X113397159Y-58903297D01*
X113394054Y-58898862D01*
X113259698Y-58706982D01*
X113094064Y-58541348D01*
X112902184Y-58406992D01*
X112689888Y-58307997D01*
X112689884Y-58307996D01*
X112689880Y-58307994D01*
X112463633Y-58247372D01*
X112463623Y-58247370D01*
X112230278Y-58226955D01*
X112230276Y-58226955D01*
X111996930Y-58247370D01*
X111996920Y-58247372D01*
X111770673Y-58307994D01*
X111770666Y-58307996D01*
X111770666Y-58307997D01*
X111558370Y-58406992D01*
X111366490Y-58541348D01*
X111366488Y-58541349D01*
X111366485Y-58541352D01*
X111200860Y-58706977D01*
X111200857Y-58706980D01*
X111200856Y-58706982D01*
X111066500Y-58898862D01*
X111063395Y-58903297D01*
X111061957Y-58902290D01*
X111017087Y-58945066D01*
X110948479Y-58958282D01*
X110883617Y-58932309D01*
X110857979Y-58902722D01*
X110857159Y-58903297D01*
X110854054Y-58898862D01*
X110719698Y-58706982D01*
X110554064Y-58541348D01*
X110362184Y-58406992D01*
X110149888Y-58307997D01*
X110149884Y-58307996D01*
X110149880Y-58307994D01*
X109923633Y-58247372D01*
X109923623Y-58247370D01*
X109690278Y-58226955D01*
X109690276Y-58226955D01*
X109456930Y-58247370D01*
X109456920Y-58247372D01*
X109230673Y-58307994D01*
X109230666Y-58307996D01*
X109230666Y-58307997D01*
X109018370Y-58406992D01*
X108826490Y-58541348D01*
X108826488Y-58541349D01*
X108826485Y-58541352D01*
X108660860Y-58706977D01*
X108660857Y-58706980D01*
X108660856Y-58706982D01*
X108526500Y-58898862D01*
X108523395Y-58903297D01*
X108521957Y-58902290D01*
X108477087Y-58945066D01*
X108408479Y-58958282D01*
X108343617Y-58932309D01*
X108317979Y-58902722D01*
X108317159Y-58903297D01*
X108314054Y-58898862D01*
X108179698Y-58706982D01*
X108014064Y-58541348D01*
X107822184Y-58406992D01*
X107609888Y-58307997D01*
X107609884Y-58307996D01*
X107609880Y-58307994D01*
X107383633Y-58247372D01*
X107383623Y-58247370D01*
X107150278Y-58226955D01*
X107150276Y-58226955D01*
X106916930Y-58247370D01*
X106916920Y-58247372D01*
X106690673Y-58307994D01*
X106690666Y-58307996D01*
X106690666Y-58307997D01*
X106478370Y-58406992D01*
X106286490Y-58541348D01*
X106286488Y-58541349D01*
X106286485Y-58541352D01*
X106120860Y-58706977D01*
X106120857Y-58706980D01*
X106120856Y-58706982D01*
X105986500Y-58898862D01*
X105983395Y-58903297D01*
X105981957Y-58902290D01*
X105937087Y-58945066D01*
X105868479Y-58958282D01*
X105803617Y-58932309D01*
X105777979Y-58902722D01*
X105777159Y-58903297D01*
X105774054Y-58898862D01*
X105639698Y-58706982D01*
X105474064Y-58541348D01*
X105282184Y-58406992D01*
X105069888Y-58307997D01*
X105069884Y-58307996D01*
X105069880Y-58307994D01*
X104843633Y-58247372D01*
X104843623Y-58247370D01*
X104610278Y-58226955D01*
X104610276Y-58226955D01*
X104376930Y-58247370D01*
X104376920Y-58247372D01*
X104150673Y-58307994D01*
X104150666Y-58307996D01*
X104150666Y-58307997D01*
X103938370Y-58406992D01*
X103746490Y-58541348D01*
X103746488Y-58541349D01*
X103746485Y-58541352D01*
X103580860Y-58706977D01*
X103580857Y-58706980D01*
X103580856Y-58706982D01*
X103446500Y-58898862D01*
X103443395Y-58903297D01*
X103441957Y-58902290D01*
X103397087Y-58945066D01*
X103328479Y-58958282D01*
X103263617Y-58932309D01*
X103237979Y-58902722D01*
X103237159Y-58903297D01*
X103234054Y-58898862D01*
X103099698Y-58706982D01*
X102934064Y-58541348D01*
X102742184Y-58406992D01*
X102529888Y-58307997D01*
X102529884Y-58307996D01*
X102529880Y-58307994D01*
X102303633Y-58247372D01*
X102303623Y-58247370D01*
X102070278Y-58226955D01*
X102070276Y-58226955D01*
X101836930Y-58247370D01*
X101836920Y-58247372D01*
X101610673Y-58307994D01*
X101610666Y-58307996D01*
X101610666Y-58307997D01*
X101398370Y-58406992D01*
X101206490Y-58541348D01*
X101206488Y-58541349D01*
X101206485Y-58541352D01*
X101040860Y-58706977D01*
X101040857Y-58706980D01*
X101040856Y-58706982D01*
X100906500Y-58898862D01*
X100903395Y-58903297D01*
X100901957Y-58902290D01*
X100857087Y-58945066D01*
X100788479Y-58958282D01*
X100723617Y-58932309D01*
X100697979Y-58902722D01*
X100697159Y-58903297D01*
X100694054Y-58898862D01*
X100559698Y-58706982D01*
X100394064Y-58541348D01*
X100202184Y-58406992D01*
X99989888Y-58307997D01*
X99989884Y-58307996D01*
X99989880Y-58307994D01*
X99763633Y-58247372D01*
X99763623Y-58247370D01*
X99530278Y-58226955D01*
X99530276Y-58226955D01*
X99296930Y-58247370D01*
X99296920Y-58247372D01*
X99070673Y-58307994D01*
X99070666Y-58307996D01*
X99070666Y-58307997D01*
X98858370Y-58406992D01*
X98666490Y-58541348D01*
X98666488Y-58541349D01*
X98666485Y-58541352D01*
X98500860Y-58706977D01*
X98500857Y-58706980D01*
X98500856Y-58706982D01*
X98366500Y-58898862D01*
X98363395Y-58903297D01*
X98361957Y-58902290D01*
X98317087Y-58945066D01*
X98248479Y-58958282D01*
X98183617Y-58932309D01*
X98157979Y-58902722D01*
X98157159Y-58903297D01*
X98154054Y-58898862D01*
X98019698Y-58706982D01*
X97854064Y-58541348D01*
X97662184Y-58406992D01*
X97449888Y-58307997D01*
X97449884Y-58307996D01*
X97449880Y-58307994D01*
X97223633Y-58247372D01*
X97223623Y-58247370D01*
X96990278Y-58226955D01*
X96990276Y-58226955D01*
X96756930Y-58247370D01*
X96756920Y-58247372D01*
X96530673Y-58307994D01*
X96530666Y-58307996D01*
X96530666Y-58307997D01*
X96318370Y-58406992D01*
X96126490Y-58541348D01*
X96126488Y-58541349D01*
X96126485Y-58541352D01*
X95960860Y-58706977D01*
X95960857Y-58706980D01*
X95960856Y-58706982D01*
X95826500Y-58898862D01*
X95823395Y-58903297D01*
X95821957Y-58902290D01*
X95777087Y-58945066D01*
X95708479Y-58958282D01*
X95643617Y-58932309D01*
X95617979Y-58902722D01*
X95617159Y-58903297D01*
X95614054Y-58898862D01*
X95479698Y-58706982D01*
X95314064Y-58541348D01*
X95122184Y-58406992D01*
X94909888Y-58307997D01*
X94909884Y-58307996D01*
X94909880Y-58307994D01*
X94683633Y-58247372D01*
X94683623Y-58247370D01*
X94450278Y-58226955D01*
X94450276Y-58226955D01*
X94216930Y-58247370D01*
X94216920Y-58247372D01*
X93990673Y-58307994D01*
X93990666Y-58307996D01*
X93990666Y-58307997D01*
X93778370Y-58406992D01*
X93586490Y-58541348D01*
X93586488Y-58541349D01*
X93586485Y-58541352D01*
X93420860Y-58706977D01*
X93420857Y-58706980D01*
X93420856Y-58706982D01*
X93286500Y-58898862D01*
X93283395Y-58903297D01*
X93281957Y-58902290D01*
X93237087Y-58945066D01*
X93168479Y-58958282D01*
X93103617Y-58932309D01*
X93077979Y-58902722D01*
X93077159Y-58903297D01*
X93074054Y-58898862D01*
X92939698Y-58706982D01*
X92774064Y-58541348D01*
X92582184Y-58406992D01*
X92369888Y-58307997D01*
X92369884Y-58307996D01*
X92369880Y-58307994D01*
X92143633Y-58247372D01*
X92143623Y-58247370D01*
X91910278Y-58226955D01*
X91910276Y-58226955D01*
X91676930Y-58247370D01*
X91676920Y-58247372D01*
X91450673Y-58307994D01*
X91450666Y-58307996D01*
X91450666Y-58307997D01*
X91238370Y-58406992D01*
X91046490Y-58541348D01*
X91046488Y-58541349D01*
X91046485Y-58541352D01*
X90880860Y-58706977D01*
X90880857Y-58706980D01*
X90880856Y-58706982D01*
X90746500Y-58898862D01*
X90743395Y-58903297D01*
X90741957Y-58902290D01*
X90697087Y-58945066D01*
X90628479Y-58958282D01*
X90563617Y-58932309D01*
X90537979Y-58902722D01*
X90537159Y-58903297D01*
X90534054Y-58898862D01*
X90399698Y-58706982D01*
X90234064Y-58541348D01*
X90042184Y-58406992D01*
X89829888Y-58307997D01*
X89829884Y-58307996D01*
X89829880Y-58307994D01*
X89603633Y-58247372D01*
X89603623Y-58247370D01*
X89370278Y-58226955D01*
X89370276Y-58226955D01*
X89136930Y-58247370D01*
X89136920Y-58247372D01*
X88910673Y-58307994D01*
X88910666Y-58307996D01*
X88910666Y-58307997D01*
X88698370Y-58406992D01*
X88506490Y-58541348D01*
X88506488Y-58541349D01*
X88506485Y-58541352D01*
X88340860Y-58706977D01*
X88340857Y-58706980D01*
X88340856Y-58706982D01*
X88206500Y-58898862D01*
X88203395Y-58903297D01*
X88201957Y-58902290D01*
X88157087Y-58945066D01*
X88088479Y-58958282D01*
X88023617Y-58932309D01*
X87997979Y-58902722D01*
X87997159Y-58903297D01*
X87994054Y-58898862D01*
X87859698Y-58706982D01*
X87694064Y-58541348D01*
X87502184Y-58406992D01*
X87289888Y-58307997D01*
X87289884Y-58307996D01*
X87289880Y-58307994D01*
X87063633Y-58247372D01*
X87063623Y-58247370D01*
X86830278Y-58226955D01*
X86830276Y-58226955D01*
X86596930Y-58247370D01*
X86596920Y-58247372D01*
X86370673Y-58307994D01*
X86370666Y-58307996D01*
X86370666Y-58307997D01*
X86158370Y-58406992D01*
X85966490Y-58541348D01*
X85966488Y-58541349D01*
X85966485Y-58541352D01*
X85800860Y-58706977D01*
X85800857Y-58706980D01*
X85800856Y-58706982D01*
X85666500Y-58898862D01*
X85663395Y-58903297D01*
X85661957Y-58902290D01*
X85617087Y-58945066D01*
X85548479Y-58958282D01*
X85483617Y-58932309D01*
X85457979Y-58902722D01*
X85457159Y-58903297D01*
X85454054Y-58898862D01*
X85319698Y-58706982D01*
X85154064Y-58541348D01*
X84962184Y-58406992D01*
X84749888Y-58307997D01*
X84749884Y-58307996D01*
X84749880Y-58307994D01*
X84523633Y-58247372D01*
X84523623Y-58247370D01*
X84290278Y-58226955D01*
X84290276Y-58226955D01*
X84056930Y-58247370D01*
X84056920Y-58247372D01*
X83830673Y-58307994D01*
X83830666Y-58307996D01*
X83830666Y-58307997D01*
X83618370Y-58406992D01*
X83426490Y-58541348D01*
X83426488Y-58541349D01*
X83426485Y-58541352D01*
X83260860Y-58706977D01*
X83260857Y-58706980D01*
X83260856Y-58706982D01*
X83126500Y-58898862D01*
X83123395Y-58903297D01*
X83121957Y-58902290D01*
X83077087Y-58945066D01*
X83008479Y-58958282D01*
X82943617Y-58932309D01*
X82917979Y-58902722D01*
X82917159Y-58903297D01*
X82914054Y-58898862D01*
X82779698Y-58706982D01*
X82614064Y-58541348D01*
X82422184Y-58406992D01*
X82209888Y-58307997D01*
X82209884Y-58307996D01*
X82209880Y-58307994D01*
X81983633Y-58247372D01*
X81983623Y-58247370D01*
X81750278Y-58226955D01*
X81750276Y-58226955D01*
X81516930Y-58247370D01*
X81516920Y-58247372D01*
X81290673Y-58307994D01*
X81290666Y-58307996D01*
X81290666Y-58307997D01*
X81078370Y-58406992D01*
X80886490Y-58541348D01*
X80886488Y-58541349D01*
X80886485Y-58541352D01*
X80720860Y-58706977D01*
X80720857Y-58706980D01*
X80720856Y-58706982D01*
X80703260Y-58732112D01*
X80586500Y-58898862D01*
X80487506Y-59111156D01*
X80487502Y-59111165D01*
X80426880Y-59337412D01*
X80426878Y-59337422D01*
X80406463Y-59570768D01*
X80406463Y-59570769D01*
X80426878Y-59804115D01*
X80426880Y-59804125D01*
X80487502Y-60030372D01*
X80487504Y-60030376D01*
X80487505Y-60030380D01*
X80586500Y-60242676D01*
X80720856Y-60434556D01*
X80886490Y-60600190D01*
X81071901Y-60730016D01*
X81115525Y-60784592D01*
X81124776Y-60831590D01*
X81124777Y-65838024D01*
X81123052Y-65853641D01*
X81123338Y-65853668D01*
X81122603Y-65861434D01*
X81124777Y-65930583D01*
X81124777Y-65960112D01*
X81124778Y-65960129D01*
X81125645Y-65967000D01*
X81126103Y-65972819D01*
X81127567Y-66019393D01*
X81127568Y-66019396D01*
X81133157Y-66038636D01*
X81137101Y-66057680D01*
X81139613Y-66077561D01*
X81152838Y-66110964D01*
X81156767Y-66120888D01*
X81158659Y-66126416D01*
X81170837Y-66168332D01*
X81171659Y-66171159D01*
X81181593Y-66187958D01*
X81181857Y-66188403D01*
X81190415Y-66205872D01*
X81197791Y-66224501D01*
X81225175Y-66262192D01*
X81228383Y-66267076D01*
X81252104Y-66307185D01*
X81252110Y-66307193D01*
X81266267Y-66321349D01*
X81278904Y-66336144D01*
X81290683Y-66352356D01*
X81314432Y-66372003D01*
X81326586Y-66382057D01*
X81330897Y-66385979D01*
X85659591Y-70714674D01*
X87097231Y-72152314D01*
X87107056Y-72164577D01*
X87107277Y-72164395D01*
X87112248Y-72170404D01*
X87133077Y-72189963D01*
X87162669Y-72217752D01*
X87183563Y-72238646D01*
X87189045Y-72242899D01*
X87193477Y-72246683D01*
X87227452Y-72278588D01*
X87245010Y-72288240D01*
X87261269Y-72298921D01*
X87277098Y-72311199D01*
X87319872Y-72329708D01*
X87325090Y-72332264D01*
X87365942Y-72354723D01*
X87385350Y-72359706D01*
X87403751Y-72366006D01*
X87422138Y-72373963D01*
X87465522Y-72380834D01*
X87468153Y-72381251D01*
X87473873Y-72382435D01*
X87519015Y-72394026D01*
X87539050Y-72394026D01*
X87558448Y-72395552D01*
X87578228Y-72398685D01*
X87578229Y-72398686D01*
X87578229Y-72398685D01*
X87578230Y-72398686D01*
X87624617Y-72394301D01*
X87630456Y-72394026D01*
X111250695Y-72394026D01*
X111266315Y-72395750D01*
X111266342Y-72395465D01*
X111274098Y-72396197D01*
X111274105Y-72396199D01*
X111343252Y-72394026D01*
X111372788Y-72394026D01*
X111379666Y-72393156D01*
X111385479Y-72392698D01*
X111432065Y-72391235D01*
X111451307Y-72385643D01*
X111470350Y-72381700D01*
X111490230Y-72379190D01*
X111533560Y-72362033D01*
X111539084Y-72360143D01*
X111542834Y-72359053D01*
X111583828Y-72347144D01*
X111601067Y-72336948D01*
X111618541Y-72328388D01*
X111637165Y-72321014D01*
X111637165Y-72321013D01*
X111637170Y-72321012D01*
X111674887Y-72293608D01*
X111679743Y-72290418D01*
X111719858Y-72266696D01*
X111734027Y-72252525D01*
X111748817Y-72239894D01*
X111765025Y-72228120D01*
X111794737Y-72192202D01*
X111798650Y-72187902D01*
X112443729Y-71542824D01*
X112505053Y-71509339D01*
X112531411Y-71506505D01*
X113490029Y-71506505D01*
X113490030Y-71506505D01*
X113549641Y-71500097D01*
X113684489Y-71449802D01*
X113799704Y-71363552D01*
X113885954Y-71248337D01*
X113885954Y-71248334D01*
X113891269Y-71241236D01*
X113893061Y-71242577D01*
X113918555Y-71213567D01*
X113935993Y-71200898D01*
X113940872Y-71197694D01*
X113945294Y-71195078D01*
X113980978Y-71173976D01*
X113995147Y-71159805D01*
X114009937Y-71147174D01*
X114026145Y-71135400D01*
X114055857Y-71099482D01*
X114059770Y-71095182D01*
X114834617Y-70320335D01*
X114895938Y-70286852D01*
X114965630Y-70291836D01*
X115021563Y-70333708D01*
X115045980Y-70399172D01*
X115045757Y-70412596D01*
X115045815Y-70412596D01*
X115045815Y-70419091D01*
X115045815Y-70419094D01*
X115065601Y-70607350D01*
X115065602Y-70607353D01*
X115124093Y-70787371D01*
X115124096Y-70787378D01*
X115218742Y-70951310D01*
X115279714Y-71019026D01*
X115345404Y-71091982D01*
X115498540Y-71203242D01*
X115498545Y-71203245D01*
X115671467Y-71280236D01*
X115671472Y-71280238D01*
X115856629Y-71319594D01*
X115856630Y-71319594D01*
X116045919Y-71319594D01*
X116045921Y-71319594D01*
X116231078Y-71280238D01*
X116404005Y-71203245D01*
X116557146Y-71091982D01*
X116683808Y-70951310D01*
X116778454Y-70787378D01*
X116814527Y-70676354D01*
X116853964Y-70618681D01*
X116918323Y-70591482D01*
X116987169Y-70603396D01*
X117038645Y-70650640D01*
X117056458Y-70714674D01*
X117056458Y-71053875D01*
X117056459Y-71053882D01*
X117062866Y-71113489D01*
X117113160Y-71248334D01*
X117113164Y-71248341D01*
X117199410Y-71363550D01*
X117199413Y-71363553D01*
X117314622Y-71449799D01*
X117314629Y-71449803D01*
X117359576Y-71466567D01*
X117449475Y-71500097D01*
X117509085Y-71506506D01*
X117823458Y-71506505D01*
X117890497Y-71526189D01*
X117936252Y-71578993D01*
X117947458Y-71630505D01*
X117947458Y-72526306D01*
X117927773Y-72593345D01*
X117874969Y-72639100D01*
X117823458Y-72650306D01*
X117441688Y-72650306D01*
X117441681Y-72650307D01*
X117382074Y-72656714D01*
X117247229Y-72707008D01*
X117247222Y-72707012D01*
X117132013Y-72793258D01*
X117132010Y-72793261D01*
X117045764Y-72908470D01*
X117045760Y-72908477D01*
X116995466Y-73043323D01*
X116989059Y-73102922D01*
X116989058Y-73102941D01*
X116989058Y-74598676D01*
X116989059Y-74598682D01*
X116995466Y-74658289D01*
X117045760Y-74793134D01*
X117045764Y-74793141D01*
X117132010Y-74908350D01*
X117132013Y-74908353D01*
X117247222Y-74994599D01*
X117247229Y-74994603D01*
X117292176Y-75011367D01*
X117382075Y-75044897D01*
X117441685Y-75051306D01*
X118154105Y-75051305D01*
X118221144Y-75070989D01*
X118241785Y-75087623D01*
X118871559Y-75717398D01*
X119493182Y-76339021D01*
X119503007Y-76351284D01*
X119503228Y-76351102D01*
X119508198Y-76357110D01*
X119533409Y-76380784D01*
X119558620Y-76404459D01*
X119579514Y-76425353D01*
X119584996Y-76429606D01*
X119589428Y-76433390D01*
X119623403Y-76465295D01*
X119640961Y-76474947D01*
X119657220Y-76485628D01*
X119673049Y-76497906D01*
X119715823Y-76516415D01*
X119721041Y-76518971D01*
X119761893Y-76541430D01*
X119781301Y-76546413D01*
X119799702Y-76552713D01*
X119818089Y-76560670D01*
X119861473Y-76567541D01*
X119864104Y-76567958D01*
X119869824Y-76569142D01*
X119914966Y-76580733D01*
X119935001Y-76580733D01*
X119954399Y-76582259D01*
X119974179Y-76585392D01*
X119974180Y-76585393D01*
X119974180Y-76585392D01*
X119974181Y-76585393D01*
X120020568Y-76581008D01*
X120026407Y-76580733D01*
X121130151Y-76580733D01*
X121197190Y-76600418D01*
X121242945Y-76653222D01*
X121254151Y-76704733D01*
X121254151Y-77228103D01*
X121254152Y-77228109D01*
X121260559Y-77287716D01*
X121310853Y-77422561D01*
X121310857Y-77422568D01*
X121397103Y-77537777D01*
X121397106Y-77537780D01*
X121512315Y-77624026D01*
X121512322Y-77624030D01*
X121647168Y-77674324D01*
X121647167Y-77674324D01*
X121654095Y-77675068D01*
X121706778Y-77680733D01*
X123002523Y-77680732D01*
X123007174Y-77680232D01*
X124568559Y-77680232D01*
X124568560Y-77680233D01*
X125340742Y-77680233D01*
X125340742Y-77680232D01*
X125301315Y-77640805D01*
X126789636Y-77640805D01*
X126789637Y-77640806D01*
X127875423Y-77640806D01*
X127875423Y-77640805D01*
X127332530Y-77097913D01*
X126789636Y-77640805D01*
X125301315Y-77640805D01*
X124954651Y-77294142D01*
X124568559Y-77680232D01*
X123007174Y-77680232D01*
X123062134Y-77674324D01*
X123196982Y-77624029D01*
X123312197Y-77537779D01*
X123398447Y-77422564D01*
X123398539Y-77422319D01*
X123449419Y-77285901D01*
X123477916Y-77241556D01*
X123642972Y-77076500D01*
X123704293Y-77043018D01*
X123773985Y-77048002D01*
X123829918Y-77089874D01*
X123854335Y-77155338D01*
X123854651Y-77164184D01*
X123854651Y-77228077D01*
X123861052Y-77287605D01*
X123861054Y-77287612D01*
X123911296Y-77422319D01*
X123911297Y-77422321D01*
X123970101Y-77500873D01*
X124565741Y-76905234D01*
X124565741Y-76905232D01*
X123941469Y-76280959D01*
X123907984Y-76219636D01*
X123905151Y-76193287D01*
X123905151Y-76130233D01*
X124568559Y-76130233D01*
X124954651Y-76516324D01*
X125340742Y-76130233D01*
X124568559Y-76130233D01*
X123905151Y-76130233D01*
X123905151Y-75816660D01*
X123924835Y-75749625D01*
X123977639Y-75703870D01*
X124046797Y-75693926D01*
X124103461Y-75717398D01*
X124112315Y-75724026D01*
X124112322Y-75724030D01*
X124247168Y-75774324D01*
X124247167Y-75774324D01*
X124254095Y-75775068D01*
X124306778Y-75780733D01*
X125602523Y-75780732D01*
X125662134Y-75774324D01*
X125690197Y-75763856D01*
X125759887Y-75758873D01*
X125821211Y-75792357D01*
X125854696Y-75853680D01*
X125857530Y-75880039D01*
X125857530Y-76107512D01*
X125866423Y-76109261D01*
X125928405Y-76141510D01*
X125963113Y-76202150D01*
X125959526Y-76271927D01*
X125930180Y-76318612D01*
X125343560Y-76905232D01*
X125343560Y-76905233D01*
X125939199Y-77500873D01*
X125951122Y-77484945D01*
X125854262Y-77277404D01*
X125843748Y-77208330D01*
X125872247Y-77144537D01*
X125878946Y-77137282D01*
X127332530Y-75683699D01*
X127875423Y-75140806D01*
X126309685Y-75140806D01*
X126250157Y-75147207D01*
X126250146Y-75147210D01*
X126222482Y-75157528D01*
X126152790Y-75162512D01*
X126091467Y-75129026D01*
X126057983Y-75067702D01*
X126055150Y-75041351D01*
X126055150Y-74682361D01*
X126048742Y-74622750D01*
X126048705Y-74622652D01*
X125998448Y-74487904D01*
X125998444Y-74487897D01*
X125912198Y-74372688D01*
X125912195Y-74372685D01*
X125796986Y-74286439D01*
X125796979Y-74286435D01*
X125662133Y-74236141D01*
X125662134Y-74236141D01*
X125602534Y-74229734D01*
X125602532Y-74229733D01*
X125602524Y-74229733D01*
X125602515Y-74229733D01*
X124306780Y-74229733D01*
X124306774Y-74229734D01*
X124247167Y-74236141D01*
X124112322Y-74286435D01*
X124112315Y-74286439D01*
X123997106Y-74372685D01*
X123997103Y-74372688D01*
X123910857Y-74487897D01*
X123910853Y-74487904D01*
X123860559Y-74622750D01*
X123855597Y-74668909D01*
X123854152Y-74682356D01*
X123854151Y-74682368D01*
X123854151Y-74745780D01*
X123834466Y-74812819D01*
X123781662Y-74858574D01*
X123712504Y-74868518D01*
X123648948Y-74839493D01*
X123642470Y-74833461D01*
X123477918Y-74668909D01*
X123449417Y-74624560D01*
X123398449Y-74487906D01*
X123398444Y-74487897D01*
X123312198Y-74372688D01*
X123312195Y-74372685D01*
X123196986Y-74286439D01*
X123196979Y-74286435D01*
X123062133Y-74236141D01*
X123062134Y-74236141D01*
X123002534Y-74229734D01*
X123002532Y-74229733D01*
X123002524Y-74229733D01*
X123002516Y-74229733D01*
X122515104Y-74229733D01*
X122448065Y-74210048D01*
X122427423Y-74193414D01*
X121701027Y-73467018D01*
X121691204Y-73454756D01*
X121690983Y-73454940D01*
X121686010Y-73448929D01*
X121686010Y-73448928D01*
X121635588Y-73401579D01*
X121625143Y-73391134D01*
X121614699Y-73380689D01*
X121609210Y-73376431D01*
X121604785Y-73372653D01*
X121570806Y-73340744D01*
X121570804Y-73340742D01*
X121570801Y-73340741D01*
X121553253Y-73331094D01*
X121536987Y-73320410D01*
X121521157Y-73308131D01*
X121478392Y-73289624D01*
X121473146Y-73287054D01*
X121432317Y-73264609D01*
X121432316Y-73264608D01*
X121412917Y-73259628D01*
X121394505Y-73253324D01*
X121376122Y-73245368D01*
X121376116Y-73245366D01*
X121330098Y-73238078D01*
X121324376Y-73236893D01*
X121279245Y-73225306D01*
X121279243Y-73225306D01*
X121259208Y-73225306D01*
X121239810Y-73223779D01*
X121232386Y-73222603D01*
X121220029Y-73220646D01*
X121212231Y-73220401D01*
X121212320Y-73217559D01*
X121156953Y-73206823D01*
X121106441Y-73158550D01*
X121090932Y-73106179D01*
X121090412Y-73106235D01*
X121090105Y-73103387D01*
X121090075Y-73103283D01*
X121090057Y-73102955D01*
X121090057Y-73102934D01*
X121083649Y-73043323D01*
X121042570Y-72933185D01*
X121033355Y-72908477D01*
X121033351Y-72908470D01*
X120947105Y-72793261D01*
X120947102Y-72793258D01*
X120831893Y-72707012D01*
X120831886Y-72707008D01*
X120697040Y-72656714D01*
X120697041Y-72656714D01*
X120637441Y-72650307D01*
X120637439Y-72650306D01*
X120637431Y-72650306D01*
X120637423Y-72650306D01*
X120424009Y-72650306D01*
X120356970Y-72630621D01*
X120311215Y-72577817D01*
X120301271Y-72508659D01*
X120330296Y-72445103D01*
X120336328Y-72438625D01*
X120817773Y-71957181D01*
X122382366Y-70392588D01*
X122443690Y-70359103D01*
X122470048Y-70356269D01*
X124226529Y-70356269D01*
X124293568Y-70375954D01*
X124318677Y-70397295D01*
X124324403Y-70403654D01*
X124324407Y-70403658D01*
X124477542Y-70514917D01*
X124477547Y-70514920D01*
X124650469Y-70591911D01*
X124650474Y-70591913D01*
X124835631Y-70631269D01*
X124894825Y-70631269D01*
X124961864Y-70650954D01*
X124982506Y-70667588D01*
X125818705Y-71503788D01*
X125828530Y-71516051D01*
X125828751Y-71515869D01*
X125833722Y-71521878D01*
X125854551Y-71541437D01*
X125884143Y-71569226D01*
X125905037Y-71590120D01*
X125905039Y-71590122D01*
X127077324Y-72762407D01*
X128268596Y-73953679D01*
X128278421Y-73965942D01*
X128278642Y-73965760D01*
X128283613Y-73971769D01*
X128309616Y-73996186D01*
X128334034Y-74019117D01*
X128354928Y-74040011D01*
X128360410Y-74044264D01*
X128364842Y-74048048D01*
X128398817Y-74079953D01*
X128416375Y-74089605D01*
X128432634Y-74100286D01*
X128448463Y-74112564D01*
X128491237Y-74131073D01*
X128496455Y-74133629D01*
X128537307Y-74156088D01*
X128556715Y-74161071D01*
X128575116Y-74167371D01*
X128593503Y-74175328D01*
X128636887Y-74182199D01*
X128639518Y-74182616D01*
X128645238Y-74183800D01*
X128690380Y-74195391D01*
X128710415Y-74195391D01*
X128729813Y-74196917D01*
X128749593Y-74200050D01*
X128749594Y-74200051D01*
X128749594Y-74200050D01*
X128749595Y-74200051D01*
X128795982Y-74195666D01*
X128801821Y-74195391D01*
X134411847Y-74195391D01*
X134478886Y-74215076D01*
X134524641Y-74267880D01*
X134534585Y-74337038D01*
X134505560Y-74400594D01*
X134499528Y-74407072D01*
X133177613Y-75728987D01*
X133116290Y-75762472D01*
X133089932Y-75765306D01*
X131682029Y-75765306D01*
X131614990Y-75745621D01*
X131569235Y-75692817D01*
X131558029Y-75641306D01*
X131558029Y-75592935D01*
X131558028Y-75592929D01*
X131558027Y-75592922D01*
X131551621Y-75533323D01*
X131547608Y-75522564D01*
X131501327Y-75398477D01*
X131501323Y-75398470D01*
X131415077Y-75283261D01*
X131415074Y-75283258D01*
X131299865Y-75197012D01*
X131299858Y-75197008D01*
X131165012Y-75146714D01*
X131165013Y-75146714D01*
X131105413Y-75140307D01*
X131105411Y-75140306D01*
X131105403Y-75140306D01*
X131105394Y-75140306D01*
X129059659Y-75140306D01*
X129059653Y-75140307D01*
X129000046Y-75146714D01*
X128865201Y-75197008D01*
X128865194Y-75197012D01*
X128749985Y-75283258D01*
X128749982Y-75283261D01*
X128663736Y-75398470D01*
X128663732Y-75398477D01*
X128613438Y-75533323D01*
X128607031Y-75592922D01*
X128607031Y-75592929D01*
X128607030Y-75592941D01*
X128607030Y-75772050D01*
X128587345Y-75839089D01*
X128570711Y-75859731D01*
X128039636Y-76390805D01*
X128039636Y-76390806D01*
X128570711Y-76921880D01*
X128604196Y-76983203D01*
X128607030Y-77009560D01*
X128607030Y-77188675D01*
X128607031Y-77188682D01*
X128613438Y-77248289D01*
X128663732Y-77383134D01*
X128663736Y-77383141D01*
X128749982Y-77498350D01*
X128749985Y-77498353D01*
X128865194Y-77584599D01*
X128865201Y-77584603D01*
X129000047Y-77634897D01*
X129000046Y-77634897D01*
X129006974Y-77635641D01*
X129059657Y-77641306D01*
X131105402Y-77641305D01*
X131165013Y-77634897D01*
X131299861Y-77584602D01*
X131415076Y-77498352D01*
X131501326Y-77383137D01*
X131551621Y-77248289D01*
X131558030Y-77188679D01*
X131558030Y-77140306D01*
X131577715Y-77073267D01*
X131630519Y-77027512D01*
X131682030Y-77016306D01*
X133317642Y-77016306D01*
X133333262Y-77018030D01*
X133333289Y-77017745D01*
X133341045Y-77018477D01*
X133341052Y-77018479D01*
X133410199Y-77016306D01*
X133439735Y-77016306D01*
X133446613Y-77015436D01*
X133452426Y-77014978D01*
X133499012Y-77013515D01*
X133518254Y-77007923D01*
X133537297Y-77003980D01*
X133557177Y-77001470D01*
X133600507Y-76984313D01*
X133606031Y-76982423D01*
X133609781Y-76981333D01*
X133650775Y-76969424D01*
X133668014Y-76959228D01*
X133685488Y-76950668D01*
X133704112Y-76943294D01*
X133704112Y-76943293D01*
X133704117Y-76943292D01*
X133741834Y-76915888D01*
X133746690Y-76912698D01*
X133786805Y-76888976D01*
X133800974Y-76874805D01*
X133815764Y-76862174D01*
X133831972Y-76850400D01*
X133861684Y-76814482D01*
X133865597Y-76810182D01*
X135869071Y-74806709D01*
X135930395Y-74773224D01*
X135956753Y-74770390D01*
X137219171Y-74770390D01*
X137219172Y-74770390D01*
X137278783Y-74763982D01*
X137413631Y-74713687D01*
X137528846Y-74627437D01*
X137615096Y-74512222D01*
X137665391Y-74377374D01*
X137671800Y-74317764D01*
X137671799Y-72822019D01*
X137665391Y-72762408D01*
X137615096Y-72627560D01*
X137615095Y-72627559D01*
X137615093Y-72627555D01*
X137528847Y-72512346D01*
X137528844Y-72512343D01*
X137413635Y-72426097D01*
X137413628Y-72426093D01*
X137278782Y-72375799D01*
X137278783Y-72375799D01*
X137219183Y-72369392D01*
X137219181Y-72369391D01*
X137219173Y-72369391D01*
X137219164Y-72369391D01*
X135223429Y-72369391D01*
X135223423Y-72369392D01*
X135163816Y-72375799D01*
X135028971Y-72426093D01*
X135028964Y-72426097D01*
X134913755Y-72512343D01*
X134913752Y-72512346D01*
X134827506Y-72627555D01*
X134827502Y-72627562D01*
X134777208Y-72762408D01*
X134770801Y-72822007D01*
X134770801Y-72822014D01*
X134770622Y-72825343D01*
X134769365Y-72825275D01*
X134751115Y-72887430D01*
X134698311Y-72933185D01*
X134646800Y-72944391D01*
X129079852Y-72944391D01*
X129012813Y-72924706D01*
X128992171Y-72908072D01*
X128041280Y-71957181D01*
X128007795Y-71895858D01*
X128012779Y-71826166D01*
X128054651Y-71770233D01*
X128120115Y-71745816D01*
X128128961Y-71745500D01*
X132677748Y-71745500D01*
X132693368Y-71747224D01*
X132693395Y-71746939D01*
X132701151Y-71747671D01*
X132701158Y-71747673D01*
X132770305Y-71745500D01*
X132799841Y-71745500D01*
X132806719Y-71744630D01*
X132812532Y-71744172D01*
X132859118Y-71742709D01*
X132878360Y-71737117D01*
X132897403Y-71733174D01*
X132917283Y-71730664D01*
X132960613Y-71713507D01*
X132966137Y-71711617D01*
X132969887Y-71710527D01*
X133010881Y-71698618D01*
X133028120Y-71688422D01*
X133045594Y-71679862D01*
X133064218Y-71672488D01*
X133064218Y-71672487D01*
X133064223Y-71672486D01*
X133101940Y-71645082D01*
X133106796Y-71641892D01*
X133146911Y-71618170D01*
X133161080Y-71603999D01*
X133175870Y-71591368D01*
X133192078Y-71579594D01*
X133221790Y-71543676D01*
X133225703Y-71539376D01*
X135705088Y-69059992D01*
X135717342Y-69050177D01*
X135717159Y-69049955D01*
X135723166Y-69044983D01*
X135723177Y-69044977D01*
X135754075Y-69012073D01*
X135770527Y-68994555D01*
X135780971Y-68984109D01*
X135791420Y-68973662D01*
X135795679Y-68968169D01*
X135799452Y-68963752D01*
X135831362Y-68929773D01*
X135841015Y-68912211D01*
X135851689Y-68895961D01*
X135863973Y-68880127D01*
X135882480Y-68837358D01*
X135885049Y-68832115D01*
X135899023Y-68806697D01*
X135907497Y-68791283D01*
X135912477Y-68771882D01*
X135918778Y-68753479D01*
X135926738Y-68735087D01*
X135934030Y-68689040D01*
X135935211Y-68683343D01*
X135940258Y-68663687D01*
X135946800Y-68638210D01*
X135946800Y-68618173D01*
X135948327Y-68598773D01*
X135949264Y-68592858D01*
X135951460Y-68578995D01*
X135947075Y-68532606D01*
X135946800Y-68526768D01*
X135946800Y-62169752D01*
X135948327Y-62150351D01*
X135951460Y-62130573D01*
X135947075Y-62084184D01*
X135946800Y-62078346D01*
X135946800Y-61694390D01*
X135966485Y-61627351D01*
X136019289Y-61581596D01*
X136070800Y-61570390D01*
X136319171Y-61570390D01*
X136319172Y-61570390D01*
X136378783Y-61563982D01*
X136513631Y-61513687D01*
X136628846Y-61427437D01*
X136715096Y-61312222D01*
X136765391Y-61177374D01*
X136771800Y-61117764D01*
X136771799Y-59622019D01*
X136765391Y-59562408D01*
X136761933Y-59553137D01*
X136715097Y-59427562D01*
X136715093Y-59427555D01*
X136628847Y-59312346D01*
X136595099Y-59287082D01*
X136553229Y-59231148D01*
X136548245Y-59161456D01*
X136562022Y-59125820D01*
X136646737Y-58979090D01*
X136705232Y-58799062D01*
X136725018Y-58610806D01*
X136705232Y-58422550D01*
X136646737Y-58242522D01*
X136552091Y-58078590D01*
X136425429Y-57937918D01*
X136425428Y-57937917D01*
X136272292Y-57826657D01*
X136272287Y-57826654D01*
X136099365Y-57749663D01*
X136099360Y-57749661D01*
X135953558Y-57718671D01*
X135914204Y-57710306D01*
X135724912Y-57710306D01*
X135692455Y-57717204D01*
X135539755Y-57749661D01*
X135539750Y-57749663D01*
X135366828Y-57826654D01*
X135366823Y-57826657D01*
X135213688Y-57937916D01*
X135213684Y-57937920D01*
X135207958Y-57944280D01*
X135148471Y-57980927D01*
X135115810Y-57985306D01*
X133833294Y-57985306D01*
X133766255Y-57965621D01*
X133720500Y-57912817D01*
X133717112Y-57904639D01*
X133666327Y-57768477D01*
X133666323Y-57768470D01*
X133580077Y-57653261D01*
X133580074Y-57653258D01*
X133464865Y-57567012D01*
X133464858Y-57567008D01*
X133330012Y-57516714D01*
X133330013Y-57516714D01*
X133270413Y-57510307D01*
X133270411Y-57510306D01*
X133270403Y-57510306D01*
X133270394Y-57510306D01*
X131974659Y-57510306D01*
X131974653Y-57510307D01*
X131915046Y-57516714D01*
X131780201Y-57567008D01*
X131780194Y-57567012D01*
X131664985Y-57653258D01*
X131660211Y-57658033D01*
X131598888Y-57691518D01*
X131529196Y-57686534D01*
X131484849Y-57658033D01*
X131480074Y-57653258D01*
X131364865Y-57567012D01*
X131364858Y-57567008D01*
X131230012Y-57516714D01*
X131230013Y-57516714D01*
X131170413Y-57510307D01*
X131170411Y-57510306D01*
X131170403Y-57510306D01*
X131170394Y-57510306D01*
X129874659Y-57510306D01*
X129874653Y-57510307D01*
X129815046Y-57516714D01*
X129680201Y-57567008D01*
X129680194Y-57567012D01*
X129564985Y-57653258D01*
X129564982Y-57653261D01*
X129478736Y-57768470D01*
X129478732Y-57768477D01*
X129427948Y-57904639D01*
X129386077Y-57960573D01*
X129320613Y-57984990D01*
X129311766Y-57985306D01*
X128177029Y-57985306D01*
X128109990Y-57965621D01*
X128064235Y-57912817D01*
X128054092Y-57866194D01*
X128053430Y-57866229D01*
X128053384Y-57866235D01*
X128053383Y-57866232D01*
X128053206Y-57866242D01*
X128053029Y-57862941D01*
X128053029Y-57862934D01*
X128046621Y-57803323D01*
X128039827Y-57785108D01*
X127996327Y-57668477D01*
X127996323Y-57668470D01*
X127910077Y-57553261D01*
X127910074Y-57553258D01*
X127794865Y-57467012D01*
X127794860Y-57467009D01*
X127790585Y-57465415D01*
X127734652Y-57423543D01*
X127710235Y-57358079D01*
X127725087Y-57289806D01*
X127774492Y-57240401D01*
X127833919Y-57225233D01*
X137784118Y-57225233D01*
X137787862Y-57225346D01*
X137808205Y-57226576D01*
X137949786Y-57235140D01*
X137956411Y-57235902D01*
X138093064Y-57259122D01*
X138241265Y-57286282D01*
X138247250Y-57287689D01*
X138334036Y-57312694D01*
X138384739Y-57327302D01*
X138524794Y-57370945D01*
X138530026Y-57372838D01*
X138664181Y-57428410D01*
X138746401Y-57465415D01*
X138796494Y-57487960D01*
X138801034Y-57490231D01*
X138929168Y-57561051D01*
X139052741Y-57635755D01*
X139056513Y-57638227D01*
X139175433Y-57722609D01*
X139177725Y-57724318D01*
X139234081Y-57768470D01*
X139290026Y-57812301D01*
X139293104Y-57814877D01*
X139402066Y-57912254D01*
X139404574Y-57914625D01*
X139455570Y-57965621D01*
X139505189Y-58015240D01*
X139507565Y-58017753D01*
X139561932Y-58078591D01*
X139605087Y-58126883D01*
X139607662Y-58129959D01*
X139695297Y-58241816D01*
X139697057Y-58244176D01*
X139781803Y-58363619D01*
X139784296Y-58367421D01*
X139817621Y-58422546D01*
X139858427Y-58490048D01*
X139925165Y-58610805D01*
X139929829Y-58619244D01*
X139932100Y-58623782D01*
X139935074Y-58630389D01*
X139990888Y-58754404D01*
X140047187Y-58890329D01*
X140049100Y-58895612D01*
X140091811Y-59032675D01*
X140132302Y-59173230D01*
X140133710Y-59179221D01*
X140159831Y-59321756D01*
X140184019Y-59464133D01*
X140184782Y-59470778D01*
X140194030Y-59623645D01*
X140194553Y-59632963D01*
X140194651Y-59636442D01*
X140194651Y-76357110D01*
X140194151Y-77543505D01*
X140194054Y-77546957D01*
X140187644Y-77661066D01*
X140177252Y-77832863D01*
X140176488Y-77839511D01*
X140153294Y-77976014D01*
X140126106Y-78124368D01*
X140124697Y-78130359D01*
X140085116Y-78267745D01*
X140041442Y-78407895D01*
X140039529Y-78413179D01*
X139984029Y-78547163D01*
X139924416Y-78679620D01*
X139922140Y-78684168D01*
X139851393Y-78812169D01*
X139776620Y-78935859D01*
X139774125Y-78939664D01*
X139689856Y-79058427D01*
X139688097Y-79060785D01*
X139600046Y-79173174D01*
X139597469Y-79176252D01*
X139500190Y-79285104D01*
X139497801Y-79287631D01*
X139397106Y-79388325D01*
X139394578Y-79390716D01*
X139285555Y-79488141D01*
X139282478Y-79490716D01*
X139170495Y-79578450D01*
X139168135Y-79580210D01*
X139048829Y-79664859D01*
X139045027Y-79667352D01*
X138922251Y-79741574D01*
X138793185Y-79812902D01*
X138788640Y-79815176D01*
X138657874Y-79874030D01*
X138522092Y-79930269D01*
X138516810Y-79932182D01*
X138379599Y-79974939D01*
X138239173Y-80015390D01*
X138233183Y-80016798D01*
X138090522Y-80042943D01*
X137948268Y-80067110D01*
X137941623Y-80067873D01*
X137788493Y-80077137D01*
X137707214Y-80081700D01*
X137654915Y-80084636D01*
X137651446Y-80084733D01*
X74206220Y-80084733D01*
X74139181Y-80065048D01*
X74118539Y-80048414D01*
X68880900Y-74810774D01*
X80356015Y-74810774D01*
X80375030Y-75040253D01*
X80431559Y-75263483D01*
X80524059Y-75474363D01*
X80650005Y-75667139D01*
X80650008Y-75667142D01*
X80805969Y-75836561D01*
X80810632Y-75840190D01*
X80983252Y-75974546D01*
X80987688Y-75977998D01*
X81190208Y-76087597D01*
X81303302Y-76126422D01*
X81408002Y-76162366D01*
X81408004Y-76162366D01*
X81408006Y-76162367D01*
X81635140Y-76200269D01*
X81635141Y-76200269D01*
X81865413Y-76200269D01*
X81865414Y-76200269D01*
X82092548Y-76162367D01*
X82093970Y-76161879D01*
X82153302Y-76141510D01*
X82310346Y-76087597D01*
X82512866Y-75977998D01*
X82694585Y-75836561D01*
X82850546Y-75667142D01*
X82850548Y-75667139D01*
X82916468Y-75566241D01*
X82969614Y-75520884D01*
X83038846Y-75511460D01*
X83102182Y-75540962D01*
X83124086Y-75566241D01*
X83190005Y-75667139D01*
X83190008Y-75667142D01*
X83345969Y-75836561D01*
X83350632Y-75840190D01*
X83523252Y-75974546D01*
X83527688Y-75977998D01*
X83730208Y-76087597D01*
X83843302Y-76126422D01*
X83948002Y-76162366D01*
X83948004Y-76162366D01*
X83948006Y-76162367D01*
X84175140Y-76200269D01*
X84175141Y-76200269D01*
X84405413Y-76200269D01*
X84405414Y-76200269D01*
X84632548Y-76162367D01*
X84633970Y-76161879D01*
X84693302Y-76141510D01*
X84850346Y-76087597D01*
X85052866Y-75977998D01*
X85234585Y-75836561D01*
X85390546Y-75667142D01*
X85390548Y-75667139D01*
X85456468Y-75566241D01*
X85509614Y-75520884D01*
X85578846Y-75511460D01*
X85642182Y-75540962D01*
X85664086Y-75566241D01*
X85730005Y-75667139D01*
X85730008Y-75667142D01*
X85885969Y-75836561D01*
X85890632Y-75840190D01*
X86063252Y-75974546D01*
X86067688Y-75977998D01*
X86270208Y-76087597D01*
X86383302Y-76126422D01*
X86488002Y-76162366D01*
X86488004Y-76162366D01*
X86488006Y-76162367D01*
X86715140Y-76200269D01*
X86715141Y-76200269D01*
X86945413Y-76200269D01*
X86945414Y-76200269D01*
X87172548Y-76162367D01*
X87173970Y-76161879D01*
X87233302Y-76141510D01*
X87390346Y-76087597D01*
X87592866Y-75977998D01*
X87774585Y-75836561D01*
X87930546Y-75667142D01*
X87930548Y-75667139D01*
X87996468Y-75566241D01*
X88049614Y-75520884D01*
X88118846Y-75511460D01*
X88182182Y-75540962D01*
X88204086Y-75566241D01*
X88270005Y-75667139D01*
X88270008Y-75667142D01*
X88425969Y-75836561D01*
X88430632Y-75840190D01*
X88603252Y-75974546D01*
X88607688Y-75977998D01*
X88810208Y-76087597D01*
X88923302Y-76126422D01*
X89028002Y-76162366D01*
X89028004Y-76162366D01*
X89028006Y-76162367D01*
X89255140Y-76200269D01*
X89255141Y-76200269D01*
X89485413Y-76200269D01*
X89485414Y-76200269D01*
X89712548Y-76162367D01*
X89713970Y-76161879D01*
X89773302Y-76141510D01*
X89930346Y-76087597D01*
X89937290Y-76083839D01*
X91344314Y-76083839D01*
X91350399Y-76087132D01*
X91350417Y-76087139D01*
X91568126Y-76161879D01*
X91795182Y-76199769D01*
X92025372Y-76199769D01*
X92252427Y-76161879D01*
X92470142Y-76087137D01*
X92476234Y-76083839D01*
X93884314Y-76083839D01*
X93890399Y-76087132D01*
X93890417Y-76087139D01*
X94108126Y-76161879D01*
X94335182Y-76199769D01*
X94565372Y-76199769D01*
X94792427Y-76161879D01*
X95010142Y-76087137D01*
X95016238Y-76083837D01*
X94450276Y-75517875D01*
X93884314Y-76083837D01*
X93884314Y-76083839D01*
X92476234Y-76083839D01*
X92476238Y-76083837D01*
X91910276Y-75517875D01*
X91344314Y-76083837D01*
X91344314Y-76083839D01*
X89937290Y-76083839D01*
X90132866Y-75977998D01*
X90314585Y-75836561D01*
X90470546Y-75667142D01*
X90596494Y-75474364D01*
X90631600Y-75394330D01*
X90657470Y-75356467D01*
X91200041Y-74813896D01*
X91204795Y-74811299D01*
X91365660Y-74811299D01*
X91386989Y-74827267D01*
X91406555Y-74874506D01*
X91407778Y-74874148D01*
X91450782Y-75020609D01*
X91450783Y-75020611D01*
X91450784Y-75020613D01*
X91528516Y-75141567D01*
X91637177Y-75235721D01*
X91767962Y-75295449D01*
X91841655Y-75306044D01*
X91905210Y-75335068D01*
X91911154Y-75344317D01*
X91922236Y-75329515D01*
X91978898Y-75306044D01*
X92052592Y-75295449D01*
X92183377Y-75235721D01*
X92292038Y-75141567D01*
X92369770Y-75020613D01*
X92402733Y-74908350D01*
X92412776Y-74874148D01*
X92414353Y-74874611D01*
X92439108Y-74820387D01*
X92454271Y-74810639D01*
X92615019Y-74810639D01*
X92620512Y-74813898D01*
X93163953Y-75357338D01*
X93177939Y-75377857D01*
X93182510Y-75377861D01*
X93196444Y-75357493D01*
X93740041Y-74813898D01*
X93744797Y-74811300D01*
X93905658Y-74811300D01*
X93926989Y-74827269D01*
X93946556Y-74874506D01*
X93947778Y-74874148D01*
X93990782Y-75020609D01*
X93990783Y-75020611D01*
X93990784Y-75020613D01*
X94068516Y-75141567D01*
X94177177Y-75235721D01*
X94307962Y-75295449D01*
X94381655Y-75306044D01*
X94445210Y-75335068D01*
X94451154Y-75344317D01*
X94462236Y-75329515D01*
X94518898Y-75306044D01*
X94592592Y-75295449D01*
X94723377Y-75235721D01*
X94832038Y-75141567D01*
X94909770Y-75020613D01*
X94942733Y-74908350D01*
X94952776Y-74874148D01*
X94954352Y-74874610D01*
X94979110Y-74820387D01*
X94994273Y-74810639D01*
X95155017Y-74810639D01*
X95160512Y-74813899D01*
X95703082Y-75356467D01*
X95728957Y-75394338D01*
X95764059Y-75474363D01*
X95890005Y-75667139D01*
X95890008Y-75667142D01*
X96045969Y-75836561D01*
X96050632Y-75840190D01*
X96223252Y-75974546D01*
X96227688Y-75977998D01*
X96430208Y-76087597D01*
X96543302Y-76126422D01*
X96648002Y-76162366D01*
X96648004Y-76162366D01*
X96648006Y-76162367D01*
X96875140Y-76200269D01*
X96875141Y-76200269D01*
X97105413Y-76200269D01*
X97105414Y-76200269D01*
X97332548Y-76162367D01*
X97333970Y-76161879D01*
X97393302Y-76141510D01*
X97550346Y-76087597D01*
X97752866Y-75977998D01*
X97934585Y-75836561D01*
X98090546Y-75667142D01*
X98090548Y-75667139D01*
X98156468Y-75566241D01*
X98209614Y-75520884D01*
X98278846Y-75511460D01*
X98342182Y-75540962D01*
X98364086Y-75566241D01*
X98430005Y-75667139D01*
X98430008Y-75667142D01*
X98585969Y-75836561D01*
X98590632Y-75840190D01*
X98763252Y-75974546D01*
X98767688Y-75977998D01*
X98970208Y-76087597D01*
X99083302Y-76126422D01*
X99188002Y-76162366D01*
X99188004Y-76162366D01*
X99188006Y-76162367D01*
X99415140Y-76200269D01*
X99415141Y-76200269D01*
X99645413Y-76200269D01*
X99645414Y-76200269D01*
X99872548Y-76162367D01*
X99873970Y-76161879D01*
X99933302Y-76141510D01*
X100090346Y-76087597D01*
X100292866Y-75977998D01*
X100474585Y-75836561D01*
X100630546Y-75667142D01*
X100725840Y-75521283D01*
X100778984Y-75475928D01*
X100848215Y-75466504D01*
X100911551Y-75496005D01*
X100931219Y-75517979D01*
X101040856Y-75674556D01*
X101206490Y-75840190D01*
X101398370Y-75974546D01*
X101610666Y-76073541D01*
X101836926Y-76134167D01*
X102023606Y-76150499D01*
X102070276Y-76154583D01*
X102070277Y-76154583D01*
X102070278Y-76154583D01*
X102109168Y-76151180D01*
X102303628Y-76134167D01*
X102529888Y-76073541D01*
X102742184Y-75974546D01*
X102934064Y-75840190D01*
X103099698Y-75674556D01*
X103234054Y-75482676D01*
X103234054Y-75482674D01*
X103237159Y-75478241D01*
X103238600Y-75479250D01*
X103283449Y-75436481D01*
X103352055Y-75423253D01*
X103416922Y-75449216D01*
X103442571Y-75478817D01*
X103443395Y-75478241D01*
X103446499Y-75482674D01*
X103446500Y-75482676D01*
X103580856Y-75674556D01*
X103746490Y-75840190D01*
X103938370Y-75974546D01*
X104150666Y-76073541D01*
X104376926Y-76134167D01*
X104563606Y-76150499D01*
X104610276Y-76154583D01*
X104610277Y-76154583D01*
X104610278Y-76154583D01*
X104649168Y-76151180D01*
X104843628Y-76134167D01*
X105069888Y-76073541D01*
X105282184Y-75974546D01*
X105474064Y-75840190D01*
X105639698Y-75674556D01*
X105774054Y-75482676D01*
X105774054Y-75482674D01*
X105777159Y-75478241D01*
X105778600Y-75479250D01*
X105823449Y-75436481D01*
X105892055Y-75423253D01*
X105956922Y-75449216D01*
X105982571Y-75478817D01*
X105983395Y-75478241D01*
X105986499Y-75482674D01*
X105986500Y-75482676D01*
X106120856Y-75674556D01*
X106286490Y-75840190D01*
X106478370Y-75974546D01*
X106690666Y-76073541D01*
X106916926Y-76134167D01*
X107103606Y-76150499D01*
X107150276Y-76154583D01*
X107150277Y-76154583D01*
X107150278Y-76154583D01*
X107189168Y-76151180D01*
X107383628Y-76134167D01*
X107609888Y-76073541D01*
X107822184Y-75974546D01*
X108014064Y-75840190D01*
X108179698Y-75674556D01*
X108314054Y-75482676D01*
X108314054Y-75482674D01*
X108317159Y-75478241D01*
X108318600Y-75479250D01*
X108363449Y-75436481D01*
X108432055Y-75423253D01*
X108496922Y-75449216D01*
X108522571Y-75478817D01*
X108523395Y-75478241D01*
X108526499Y-75482674D01*
X108526500Y-75482676D01*
X108660856Y-75674556D01*
X108826490Y-75840190D01*
X109018370Y-75974546D01*
X109230666Y-76073541D01*
X109456926Y-76134167D01*
X109643606Y-76150499D01*
X109690276Y-76154583D01*
X109690277Y-76154583D01*
X109690278Y-76154583D01*
X109729168Y-76151180D01*
X109923628Y-76134167D01*
X110149888Y-76073541D01*
X110362184Y-75974546D01*
X110554064Y-75840190D01*
X110719698Y-75674556D01*
X110854054Y-75482676D01*
X110854054Y-75482674D01*
X110857159Y-75478241D01*
X110858600Y-75479250D01*
X110903449Y-75436481D01*
X110972055Y-75423253D01*
X111036922Y-75449216D01*
X111062571Y-75478817D01*
X111063395Y-75478241D01*
X111066499Y-75482674D01*
X111066500Y-75482676D01*
X111200856Y-75674556D01*
X111366490Y-75840190D01*
X111558370Y-75974546D01*
X111770666Y-76073541D01*
X111996926Y-76134167D01*
X112183606Y-76150499D01*
X112230276Y-76154583D01*
X112230277Y-76154583D01*
X112230278Y-76154583D01*
X112269168Y-76151180D01*
X112463628Y-76134167D01*
X112689888Y-76073541D01*
X112902184Y-75974546D01*
X113094064Y-75840190D01*
X113259698Y-75674556D01*
X113394054Y-75482676D01*
X113394054Y-75482674D01*
X113397159Y-75478241D01*
X113398600Y-75479250D01*
X113443449Y-75436481D01*
X113512055Y-75423253D01*
X113576922Y-75449216D01*
X113602571Y-75478817D01*
X113603395Y-75478241D01*
X113606499Y-75482674D01*
X113606500Y-75482676D01*
X113740856Y-75674556D01*
X113906490Y-75840190D01*
X114098370Y-75974546D01*
X114310666Y-76073541D01*
X114536926Y-76134167D01*
X114723606Y-76150499D01*
X114770276Y-76154583D01*
X114770277Y-76154583D01*
X114770278Y-76154583D01*
X114809168Y-76151180D01*
X115003628Y-76134167D01*
X115229888Y-76073541D01*
X115442184Y-75974546D01*
X115634064Y-75840190D01*
X115799698Y-75674556D01*
X115934054Y-75482676D01*
X116033049Y-75270380D01*
X116093675Y-75044120D01*
X116114091Y-74810769D01*
X116114090Y-74810763D01*
X116102857Y-74682368D01*
X116093675Y-74577418D01*
X116033049Y-74351158D01*
X115934054Y-74138862D01*
X115799698Y-73946982D01*
X115634064Y-73781348D01*
X115442184Y-73646992D01*
X115229888Y-73547997D01*
X115229884Y-73547996D01*
X115229880Y-73547994D01*
X115003633Y-73487372D01*
X115003623Y-73487370D01*
X114770278Y-73466955D01*
X114770276Y-73466955D01*
X114536930Y-73487370D01*
X114536920Y-73487372D01*
X114310673Y-73547994D01*
X114310666Y-73547996D01*
X114310666Y-73547997D01*
X114098370Y-73646992D01*
X113906490Y-73781348D01*
X113906488Y-73781349D01*
X113906485Y-73781352D01*
X113740860Y-73946977D01*
X113740857Y-73946980D01*
X113740856Y-73946982D01*
X113611960Y-74131065D01*
X113603395Y-74143297D01*
X113601957Y-74142290D01*
X113557087Y-74185066D01*
X113488479Y-74198282D01*
X113423617Y-74172309D01*
X113397979Y-74142722D01*
X113397159Y-74143297D01*
X113388594Y-74131065D01*
X113259698Y-73946982D01*
X113094064Y-73781348D01*
X112902184Y-73646992D01*
X112689888Y-73547997D01*
X112689884Y-73547996D01*
X112689880Y-73547994D01*
X112463633Y-73487372D01*
X112463623Y-73487370D01*
X112230278Y-73466955D01*
X112230276Y-73466955D01*
X111996930Y-73487370D01*
X111996920Y-73487372D01*
X111770673Y-73547994D01*
X111770666Y-73547996D01*
X111770666Y-73547997D01*
X111558370Y-73646992D01*
X111366490Y-73781348D01*
X111366488Y-73781349D01*
X111366485Y-73781352D01*
X111200860Y-73946977D01*
X111200857Y-73946980D01*
X111200856Y-73946982D01*
X111071960Y-74131065D01*
X111063395Y-74143297D01*
X111061957Y-74142290D01*
X111017087Y-74185066D01*
X110948479Y-74198282D01*
X110883617Y-74172309D01*
X110857979Y-74142722D01*
X110857159Y-74143297D01*
X110848594Y-74131065D01*
X110719698Y-73946982D01*
X110554064Y-73781348D01*
X110362184Y-73646992D01*
X110149888Y-73547997D01*
X110149884Y-73547996D01*
X110149880Y-73547994D01*
X109923633Y-73487372D01*
X109923623Y-73487370D01*
X109690278Y-73466955D01*
X109690276Y-73466955D01*
X109456930Y-73487370D01*
X109456920Y-73487372D01*
X109230673Y-73547994D01*
X109230666Y-73547996D01*
X109230666Y-73547997D01*
X109018370Y-73646992D01*
X108826490Y-73781348D01*
X108826488Y-73781349D01*
X108826485Y-73781352D01*
X108660860Y-73946977D01*
X108660857Y-73946980D01*
X108660856Y-73946982D01*
X108531960Y-74131065D01*
X108523395Y-74143297D01*
X108521957Y-74142290D01*
X108477087Y-74185066D01*
X108408479Y-74198282D01*
X108343617Y-74172309D01*
X108317979Y-74142722D01*
X108317159Y-74143297D01*
X108308594Y-74131065D01*
X108179698Y-73946982D01*
X108014064Y-73781348D01*
X107822184Y-73646992D01*
X107609888Y-73547997D01*
X107609884Y-73547996D01*
X107609880Y-73547994D01*
X107383633Y-73487372D01*
X107383623Y-73487370D01*
X107150278Y-73466955D01*
X107150276Y-73466955D01*
X106916930Y-73487370D01*
X106916920Y-73487372D01*
X106690673Y-73547994D01*
X106690666Y-73547996D01*
X106690666Y-73547997D01*
X106478370Y-73646992D01*
X106286490Y-73781348D01*
X106286488Y-73781349D01*
X106286485Y-73781352D01*
X106120860Y-73946977D01*
X106120857Y-73946980D01*
X106120856Y-73946982D01*
X105991960Y-74131065D01*
X105983395Y-74143297D01*
X105981957Y-74142290D01*
X105937087Y-74185066D01*
X105868479Y-74198282D01*
X105803617Y-74172309D01*
X105777979Y-74142722D01*
X105777159Y-74143297D01*
X105768594Y-74131065D01*
X105639698Y-73946982D01*
X105474064Y-73781348D01*
X105282184Y-73646992D01*
X105069888Y-73547997D01*
X105069884Y-73547996D01*
X105069880Y-73547994D01*
X104843633Y-73487372D01*
X104843623Y-73487370D01*
X104610278Y-73466955D01*
X104610276Y-73466955D01*
X104376930Y-73487370D01*
X104376920Y-73487372D01*
X104150673Y-73547994D01*
X104150666Y-73547996D01*
X104150666Y-73547997D01*
X103938370Y-73646992D01*
X103746490Y-73781348D01*
X103746488Y-73781349D01*
X103746485Y-73781352D01*
X103580860Y-73946977D01*
X103580857Y-73946980D01*
X103580856Y-73946982D01*
X103451960Y-74131065D01*
X103443395Y-74143297D01*
X103441957Y-74142290D01*
X103397087Y-74185066D01*
X103328479Y-74198282D01*
X103263617Y-74172309D01*
X103237979Y-74142722D01*
X103237159Y-74143297D01*
X103228594Y-74131065D01*
X103099698Y-73946982D01*
X102934064Y-73781348D01*
X102742184Y-73646992D01*
X102529888Y-73547997D01*
X102529884Y-73547996D01*
X102529880Y-73547994D01*
X102303633Y-73487372D01*
X102303623Y-73487370D01*
X102070278Y-73466955D01*
X102070276Y-73466955D01*
X101836930Y-73487370D01*
X101836920Y-73487372D01*
X101610673Y-73547994D01*
X101610666Y-73547996D01*
X101610666Y-73547997D01*
X101398370Y-73646992D01*
X101206490Y-73781348D01*
X101206488Y-73781349D01*
X101206485Y-73781352D01*
X101040856Y-73946981D01*
X100931221Y-74103555D01*
X100876644Y-74147180D01*
X100807146Y-74154372D01*
X100744791Y-74122849D01*
X100725838Y-74100252D01*
X100630548Y-73954398D01*
X100603632Y-73925159D01*
X100474585Y-73784977D01*
X100406313Y-73731839D01*
X100292868Y-73643541D01*
X100090346Y-73533941D01*
X100090338Y-73533938D01*
X99872551Y-73459171D01*
X99702197Y-73430744D01*
X99645414Y-73421269D01*
X99415140Y-73421269D01*
X99369713Y-73428849D01*
X99188002Y-73459171D01*
X98970215Y-73533938D01*
X98970207Y-73533941D01*
X98767685Y-73643541D01*
X98585971Y-73784975D01*
X98585966Y-73784980D01*
X98430004Y-73954399D01*
X98364085Y-74055297D01*
X98310939Y-74100653D01*
X98241708Y-74110077D01*
X98178372Y-74080575D01*
X98156469Y-74055297D01*
X98090549Y-73954399D01*
X98053381Y-73914024D01*
X97934585Y-73784977D01*
X97866313Y-73731839D01*
X97752868Y-73643541D01*
X97550346Y-73533941D01*
X97550338Y-73533938D01*
X97332551Y-73459171D01*
X97162197Y-73430744D01*
X97105414Y-73421269D01*
X96875140Y-73421269D01*
X96829713Y-73428849D01*
X96648002Y-73459171D01*
X96430215Y-73533938D01*
X96430207Y-73533941D01*
X96227685Y-73643541D01*
X96045971Y-73784975D01*
X96045966Y-73784980D01*
X95890005Y-73954398D01*
X95764058Y-74147175D01*
X95728955Y-74227201D01*
X95703081Y-74265070D01*
X95160512Y-74807639D01*
X95155017Y-74810639D01*
X94994273Y-74810639D01*
X94994897Y-74810238D01*
X94973564Y-74794268D01*
X94953999Y-74747030D01*
X94952776Y-74747390D01*
X94909771Y-74600928D01*
X94909770Y-74600927D01*
X94909770Y-74600925D01*
X94832038Y-74479971D01*
X94723377Y-74385817D01*
X94704890Y-74377374D01*
X94592593Y-74326089D01*
X94592589Y-74326088D01*
X94518898Y-74315493D01*
X94455343Y-74286468D01*
X94449399Y-74277219D01*
X94438319Y-74292022D01*
X94381656Y-74315493D01*
X94307964Y-74326088D01*
X94307960Y-74326089D01*
X94177178Y-74385816D01*
X94177177Y-74385817D01*
X94068516Y-74479970D01*
X93990782Y-74600928D01*
X93947778Y-74747390D01*
X93946203Y-74746927D01*
X93921434Y-74801163D01*
X93905658Y-74811300D01*
X93744797Y-74811300D01*
X93745533Y-74810898D01*
X93740041Y-74807640D01*
X93196444Y-74264043D01*
X93182510Y-74243675D01*
X93177938Y-74243678D01*
X93163953Y-74264197D01*
X92620512Y-74807640D01*
X92615019Y-74810639D01*
X92454271Y-74810639D01*
X92454895Y-74810238D01*
X92433564Y-74794270D01*
X92414000Y-74747030D01*
X92412776Y-74747390D01*
X92369771Y-74600928D01*
X92369770Y-74600927D01*
X92369770Y-74600925D01*
X92292038Y-74479971D01*
X92183377Y-74385817D01*
X92164890Y-74377374D01*
X92052593Y-74326089D01*
X92052588Y-74326088D01*
X91978898Y-74315493D01*
X91915342Y-74286468D01*
X91909399Y-74277221D01*
X91898320Y-74292022D01*
X91841656Y-74315493D01*
X91767965Y-74326088D01*
X91767960Y-74326089D01*
X91637178Y-74385816D01*
X91637177Y-74385817D01*
X91528516Y-74479970D01*
X91450782Y-74600928D01*
X91407778Y-74747390D01*
X91406203Y-74746927D01*
X91381434Y-74801163D01*
X91365660Y-74811299D01*
X91204795Y-74811299D01*
X91205531Y-74810897D01*
X91200041Y-74807640D01*
X90657470Y-74265069D01*
X90631595Y-74227197D01*
X90626278Y-74215076D01*
X90617644Y-74195391D01*
X90596495Y-74147175D01*
X90470548Y-73954398D01*
X90443632Y-73925159D01*
X90314585Y-73784977D01*
X90246313Y-73731839D01*
X90132868Y-73643541D01*
X89937290Y-73537699D01*
X91344313Y-73537699D01*
X91910276Y-74103661D01*
X92476239Y-73537699D01*
X93884313Y-73537699D01*
X94450276Y-74103662D01*
X95016239Y-73537698D01*
X95010143Y-73534400D01*
X95010140Y-73534399D01*
X94792427Y-73459658D01*
X94565372Y-73421769D01*
X94335182Y-73421769D01*
X94108126Y-73459658D01*
X93890412Y-73534400D01*
X93890406Y-73534402D01*
X93884313Y-73537699D01*
X92476239Y-73537699D01*
X92476238Y-73537698D01*
X92470143Y-73534400D01*
X92470140Y-73534399D01*
X92252427Y-73459658D01*
X92025372Y-73421769D01*
X91795182Y-73421769D01*
X91568126Y-73459658D01*
X91350412Y-73534400D01*
X91350406Y-73534402D01*
X91344313Y-73537699D01*
X89937290Y-73537699D01*
X89930346Y-73533941D01*
X89930338Y-73533938D01*
X89712551Y-73459171D01*
X89542197Y-73430744D01*
X89485414Y-73421269D01*
X89255140Y-73421269D01*
X89209713Y-73428849D01*
X89028002Y-73459171D01*
X88810215Y-73533938D01*
X88810207Y-73533941D01*
X88607685Y-73643541D01*
X88425971Y-73784975D01*
X88425966Y-73784980D01*
X88270004Y-73954400D01*
X88204084Y-74055297D01*
X88150937Y-74100654D01*
X88081706Y-74110077D01*
X88018370Y-74080574D01*
X87996467Y-74055296D01*
X87930548Y-73954398D01*
X87903631Y-73925159D01*
X87774585Y-73784977D01*
X87706313Y-73731839D01*
X87592868Y-73643541D01*
X87390346Y-73533941D01*
X87390338Y-73533938D01*
X87172551Y-73459171D01*
X87002197Y-73430744D01*
X86945414Y-73421269D01*
X86715140Y-73421269D01*
X86669713Y-73428849D01*
X86488002Y-73459171D01*
X86270215Y-73533938D01*
X86270207Y-73533941D01*
X86067685Y-73643541D01*
X85885971Y-73784975D01*
X85885966Y-73784980D01*
X85730004Y-73954399D01*
X85664085Y-74055297D01*
X85610939Y-74100653D01*
X85541708Y-74110077D01*
X85478372Y-74080575D01*
X85456469Y-74055297D01*
X85390549Y-73954399D01*
X85353381Y-73914024D01*
X85234585Y-73784977D01*
X85166313Y-73731839D01*
X85052868Y-73643541D01*
X84850346Y-73533941D01*
X84850338Y-73533938D01*
X84632551Y-73459171D01*
X84462197Y-73430744D01*
X84405414Y-73421269D01*
X84175140Y-73421269D01*
X84129713Y-73428849D01*
X83948002Y-73459171D01*
X83730215Y-73533938D01*
X83730207Y-73533941D01*
X83527685Y-73643541D01*
X83345971Y-73784975D01*
X83345966Y-73784980D01*
X83190004Y-73954399D01*
X83124085Y-74055297D01*
X83070939Y-74100653D01*
X83001708Y-74110077D01*
X82938372Y-74080575D01*
X82916469Y-74055297D01*
X82850549Y-73954399D01*
X82813381Y-73914024D01*
X82694585Y-73784977D01*
X82626313Y-73731839D01*
X82512868Y-73643541D01*
X82310346Y-73533941D01*
X82310338Y-73533938D01*
X82092551Y-73459171D01*
X81922197Y-73430744D01*
X81865414Y-73421269D01*
X81635140Y-73421269D01*
X81589713Y-73428849D01*
X81408002Y-73459171D01*
X81190215Y-73533938D01*
X81190207Y-73533941D01*
X80987685Y-73643541D01*
X80805971Y-73784975D01*
X80805966Y-73784980D01*
X80650005Y-73954398D01*
X80524059Y-74147174D01*
X80431559Y-74358054D01*
X80375030Y-74581284D01*
X80356015Y-74810763D01*
X80356015Y-74810774D01*
X68880900Y-74810774D01*
X64031470Y-69961344D01*
X63997985Y-69900021D01*
X63995151Y-69873663D01*
X63995151Y-59766971D01*
X63995249Y-59763495D01*
X64001610Y-59650190D01*
X64006560Y-59568353D01*
X64012056Y-59477493D01*
X64012817Y-59470874D01*
X64035833Y-59335404D01*
X64063231Y-59185898D01*
X64064628Y-59179951D01*
X64103877Y-59043706D01*
X64147962Y-58902236D01*
X64149856Y-58897005D01*
X64204818Y-58764307D01*
X64219308Y-58732112D01*
X65247777Y-58732112D01*
X65247778Y-59570769D01*
X65247778Y-60409425D01*
X65247778Y-60409426D01*
X65250695Y-60452470D01*
X65250695Y-60452471D01*
X65263913Y-60505621D01*
X65287430Y-60600185D01*
X65296971Y-60638547D01*
X65382158Y-60810312D01*
X65382160Y-60810315D01*
X65502286Y-60959758D01*
X65502287Y-60959759D01*
X65651730Y-61079885D01*
X65651733Y-61079887D01*
X65689098Y-61098418D01*
X65815871Y-61161291D01*
X65867184Y-61208712D01*
X65884777Y-61272379D01*
X65884777Y-67108024D01*
X65883052Y-67123641D01*
X65883338Y-67123668D01*
X65882603Y-67131434D01*
X65884777Y-67200583D01*
X65884777Y-67230112D01*
X65884778Y-67230129D01*
X65885645Y-67237000D01*
X65886103Y-67242819D01*
X65887567Y-67289393D01*
X65887568Y-67289396D01*
X65893157Y-67308636D01*
X65897101Y-67327680D01*
X65899613Y-67347561D01*
X65914513Y-67385196D01*
X65916767Y-67390888D01*
X65918659Y-67396416D01*
X65930837Y-67438332D01*
X65931659Y-67441159D01*
X65936551Y-67449432D01*
X65941857Y-67458403D01*
X65950413Y-67475869D01*
X65957791Y-67494501D01*
X65979081Y-67523805D01*
X65985175Y-67532192D01*
X65988383Y-67537076D01*
X66012104Y-67577185D01*
X66012110Y-67577193D01*
X66026267Y-67591349D01*
X66038904Y-67606144D01*
X66050683Y-67622356D01*
X66070044Y-67638373D01*
X66086586Y-67652057D01*
X66090897Y-67655979D01*
X66961686Y-68526768D01*
X67831384Y-69396466D01*
X67864869Y-69457789D01*
X67865543Y-69503511D01*
X67865691Y-69503525D01*
X67865564Y-69504894D01*
X67865594Y-69506922D01*
X67865161Y-69509234D01*
X67844634Y-69730768D01*
X67844634Y-69730769D01*
X67865161Y-69952304D01*
X67865162Y-69952306D01*
X67926046Y-70166292D01*
X67926052Y-70166307D01*
X68025215Y-70365452D01*
X68025220Y-70365460D01*
X68159297Y-70543007D01*
X68323714Y-70692892D01*
X68323716Y-70692894D01*
X68512872Y-70810014D01*
X68512873Y-70810014D01*
X68512876Y-70810016D01*
X68720337Y-70890387D01*
X68939034Y-70931269D01*
X68939036Y-70931269D01*
X69161518Y-70931269D01*
X69161520Y-70931269D01*
X69380217Y-70890387D01*
X69587678Y-70810016D01*
X69776839Y-70692893D01*
X69941258Y-70543005D01*
X70075335Y-70365458D01*
X70174506Y-70166297D01*
X70235392Y-69952305D01*
X70255920Y-69730769D01*
X70244850Y-69611308D01*
X70235392Y-69509233D01*
X70235391Y-69509231D01*
X70225224Y-69473499D01*
X70174506Y-69295241D01*
X70167963Y-69282101D01*
X70075338Y-69096085D01*
X70075333Y-69096077D01*
X69941256Y-68918530D01*
X69776839Y-68768645D01*
X69776837Y-68768643D01*
X69587681Y-68651523D01*
X69587675Y-68651521D01*
X69380217Y-68571151D01*
X69161520Y-68530269D01*
X68939034Y-68530269D01*
X68894900Y-68538518D01*
X68830848Y-68550492D01*
X68761333Y-68543460D01*
X68720383Y-68516284D01*
X67172096Y-66967997D01*
X67138611Y-66906674D01*
X67135777Y-66880316D01*
X67135777Y-64650769D01*
X67844634Y-64650769D01*
X67865161Y-64872304D01*
X67865162Y-64872306D01*
X67926046Y-65086292D01*
X67926052Y-65086307D01*
X68025215Y-65285452D01*
X68025220Y-65285460D01*
X68159297Y-65463007D01*
X68323714Y-65612892D01*
X68323716Y-65612894D01*
X68512872Y-65730014D01*
X68512873Y-65730014D01*
X68512876Y-65730016D01*
X68720337Y-65810387D01*
X68939034Y-65851269D01*
X68939036Y-65851269D01*
X69161518Y-65851269D01*
X69161520Y-65851269D01*
X69380217Y-65810387D01*
X69587678Y-65730016D01*
X69776839Y-65612893D01*
X69941258Y-65463005D01*
X70075335Y-65285458D01*
X70079332Y-65277432D01*
X70141462Y-65152658D01*
X70174506Y-65086297D01*
X70235392Y-64872305D01*
X70255920Y-64650769D01*
X70235392Y-64429233D01*
X70174506Y-64215241D01*
X70155606Y-64177284D01*
X70075338Y-64016085D01*
X70075333Y-64016077D01*
X69941256Y-63838530D01*
X69776839Y-63688645D01*
X69776837Y-63688643D01*
X69587681Y-63571523D01*
X69587675Y-63571521D01*
X69380217Y-63491151D01*
X69161520Y-63450269D01*
X68939034Y-63450269D01*
X68720337Y-63491151D01*
X68612380Y-63532974D01*
X68512878Y-63571521D01*
X68512872Y-63571523D01*
X68323716Y-63688643D01*
X68323714Y-63688645D01*
X68159297Y-63838530D01*
X68025220Y-64016077D01*
X68025215Y-64016085D01*
X67926052Y-64215230D01*
X67926046Y-64215245D01*
X67865162Y-64429231D01*
X67865161Y-64429233D01*
X67844634Y-64650768D01*
X67844634Y-64650769D01*
X67135777Y-64650769D01*
X67135777Y-61272379D01*
X67155462Y-61205340D01*
X67204682Y-61161291D01*
X67331784Y-61098255D01*
X68229897Y-61098255D01*
X68363674Y-61164603D01*
X68549638Y-61210850D01*
X68549635Y-61210850D01*
X68592669Y-61213769D01*
X69507883Y-61213768D01*
X69550910Y-61210851D01*
X69550911Y-61210851D01*
X69736879Y-61164603D01*
X69870655Y-61098255D01*
X69870655Y-61098254D01*
X69050277Y-60277876D01*
X68229897Y-61098254D01*
X68229897Y-61098255D01*
X67331784Y-61098255D01*
X67368824Y-61079885D01*
X67518267Y-60959759D01*
X67638393Y-60810316D01*
X67723584Y-60638544D01*
X67769858Y-60452473D01*
X67772777Y-60409426D01*
X67772776Y-60192521D01*
X67792460Y-60125484D01*
X67809095Y-60104842D01*
X68343169Y-59570770D01*
X69757384Y-59570770D01*
X70291458Y-60104844D01*
X70324943Y-60166167D01*
X70327777Y-60192524D01*
X70327778Y-60409425D01*
X70327778Y-60409426D01*
X70330695Y-60452470D01*
X70330695Y-60452471D01*
X70343913Y-60505621D01*
X70367430Y-60600185D01*
X70376971Y-60638547D01*
X70462158Y-60810312D01*
X70462160Y-60810315D01*
X70582286Y-60959758D01*
X70582287Y-60959759D01*
X70731730Y-61079885D01*
X70731733Y-61079887D01*
X70769098Y-61098418D01*
X70895871Y-61161291D01*
X70947184Y-61208712D01*
X70964777Y-61272379D01*
X70964777Y-67108024D01*
X70963052Y-67123641D01*
X70963338Y-67123668D01*
X70962603Y-67131434D01*
X70964777Y-67200583D01*
X70964777Y-67230112D01*
X70964778Y-67230129D01*
X70965645Y-67237000D01*
X70966103Y-67242819D01*
X70967567Y-67289393D01*
X70967568Y-67289396D01*
X70973157Y-67308636D01*
X70977101Y-67327680D01*
X70979613Y-67347561D01*
X70994513Y-67385196D01*
X70996767Y-67390888D01*
X70998659Y-67396416D01*
X71010837Y-67438332D01*
X71011659Y-67441159D01*
X71016551Y-67449432D01*
X71021857Y-67458403D01*
X71030413Y-67475869D01*
X71037791Y-67494501D01*
X71059081Y-67523805D01*
X71065175Y-67532192D01*
X71068383Y-67537076D01*
X71092104Y-67577185D01*
X71092110Y-67577193D01*
X71106267Y-67591349D01*
X71118904Y-67606144D01*
X71130683Y-67622356D01*
X71150044Y-67638373D01*
X71166586Y-67652057D01*
X71170897Y-67655979D01*
X72041686Y-68526768D01*
X72911384Y-69396466D01*
X72944869Y-69457789D01*
X72945543Y-69503511D01*
X72945691Y-69503525D01*
X72945564Y-69504894D01*
X72945594Y-69506922D01*
X72945161Y-69509234D01*
X72924634Y-69730768D01*
X72924634Y-69730769D01*
X72945161Y-69952304D01*
X72945162Y-69952306D01*
X73006046Y-70166292D01*
X73006052Y-70166307D01*
X73105215Y-70365452D01*
X73105220Y-70365460D01*
X73239297Y-70543007D01*
X73403714Y-70692892D01*
X73403716Y-70692894D01*
X73592872Y-70810014D01*
X73592873Y-70810014D01*
X73592876Y-70810016D01*
X73800337Y-70890387D01*
X74019034Y-70931269D01*
X74019036Y-70931269D01*
X74241518Y-70931269D01*
X74241520Y-70931269D01*
X74460217Y-70890387D01*
X74667678Y-70810016D01*
X74856839Y-70692893D01*
X75021258Y-70543005D01*
X75155335Y-70365458D01*
X75254506Y-70166297D01*
X75315392Y-69952305D01*
X75335920Y-69730769D01*
X75324850Y-69611308D01*
X75315392Y-69509233D01*
X75315391Y-69509231D01*
X75305224Y-69473499D01*
X75254506Y-69295241D01*
X75247963Y-69282101D01*
X75155338Y-69096085D01*
X75155333Y-69096077D01*
X75021256Y-68918530D01*
X74856839Y-68768645D01*
X74856837Y-68768643D01*
X74667681Y-68651523D01*
X74667675Y-68651521D01*
X74483061Y-68580001D01*
X77434532Y-68580001D01*
X77454364Y-68806686D01*
X77454366Y-68806697D01*
X77513258Y-69026488D01*
X77513261Y-69026497D01*
X77609431Y-69232732D01*
X77609432Y-69232734D01*
X77739954Y-69419141D01*
X77900858Y-69580045D01*
X77900861Y-69580047D01*
X78087266Y-69710568D01*
X78293504Y-69806739D01*
X78513308Y-69865635D01*
X78683216Y-69880500D01*
X78796784Y-69880500D01*
X78966692Y-69865635D01*
X79186496Y-69806739D01*
X79392734Y-69710568D01*
X79579139Y-69580047D01*
X79740047Y-69419139D01*
X79870568Y-69232734D01*
X79966739Y-69026496D01*
X80025635Y-68806692D01*
X80045468Y-68580000D01*
X80044898Y-68573490D01*
X80029745Y-68400287D01*
X80025635Y-68353308D01*
X79966739Y-68133504D01*
X79870568Y-67927266D01*
X79751866Y-67757741D01*
X79740045Y-67740858D01*
X79579141Y-67579954D01*
X79392734Y-67449432D01*
X79392732Y-67449431D01*
X79186497Y-67353261D01*
X79186488Y-67353258D01*
X78966697Y-67294366D01*
X78966687Y-67294364D01*
X78796784Y-67279500D01*
X78683216Y-67279500D01*
X78513312Y-67294364D01*
X78513302Y-67294366D01*
X78293511Y-67353258D01*
X78293502Y-67353261D01*
X78087267Y-67449431D01*
X78087265Y-67449432D01*
X77900858Y-67579954D01*
X77739954Y-67740858D01*
X77609432Y-67927265D01*
X77609431Y-67927267D01*
X77513261Y-68133502D01*
X77513258Y-68133511D01*
X77454366Y-68353302D01*
X77454364Y-68353313D01*
X77434532Y-68579998D01*
X77434532Y-68580001D01*
X74483061Y-68580001D01*
X74460217Y-68571151D01*
X74241520Y-68530269D01*
X74019034Y-68530269D01*
X73974900Y-68538518D01*
X73910848Y-68550492D01*
X73841333Y-68543460D01*
X73800383Y-68516284D01*
X72252096Y-66967997D01*
X72218611Y-66906674D01*
X72215777Y-66880316D01*
X72215777Y-61272379D01*
X72235462Y-61205340D01*
X72284682Y-61161291D01*
X72448824Y-61079885D01*
X72598267Y-60959759D01*
X72718393Y-60810316D01*
X72738608Y-60769557D01*
X72749189Y-60748222D01*
X72796610Y-60696909D01*
X72864245Y-60679379D01*
X72930620Y-60701199D01*
X72971365Y-60748222D01*
X73002158Y-60810312D01*
X73002160Y-60810315D01*
X73122286Y-60959758D01*
X73122287Y-60959759D01*
X73271730Y-61079885D01*
X73271733Y-61079887D01*
X73309098Y-61098418D01*
X73435871Y-61161291D01*
X73487184Y-61208712D01*
X73504777Y-61272379D01*
X73504777Y-63557002D01*
X73485092Y-63624041D01*
X73446055Y-63662429D01*
X73403713Y-63688646D01*
X73239297Y-63838530D01*
X73105220Y-64016077D01*
X73105215Y-64016085D01*
X73006052Y-64215230D01*
X73006046Y-64215245D01*
X72945162Y-64429231D01*
X72945161Y-64429233D01*
X72924634Y-64650768D01*
X72924634Y-64650769D01*
X72945161Y-64872304D01*
X72945162Y-64872306D01*
X73006046Y-65086292D01*
X73006052Y-65086307D01*
X73105215Y-65285452D01*
X73105220Y-65285460D01*
X73239297Y-65463007D01*
X73403714Y-65612892D01*
X73403716Y-65612894D01*
X73592872Y-65730014D01*
X73592873Y-65730014D01*
X73592876Y-65730016D01*
X73800337Y-65810387D01*
X74019034Y-65851269D01*
X74019036Y-65851269D01*
X74241518Y-65851269D01*
X74241520Y-65851269D01*
X74460217Y-65810387D01*
X74667678Y-65730016D01*
X74856839Y-65612893D01*
X75021258Y-65463005D01*
X75155335Y-65285458D01*
X75159332Y-65277432D01*
X75221462Y-65152658D01*
X75254506Y-65086297D01*
X75315392Y-64872305D01*
X75335920Y-64650769D01*
X75315392Y-64429233D01*
X75254506Y-64215241D01*
X75235606Y-64177284D01*
X75155338Y-64016085D01*
X75155333Y-64016077D01*
X75021256Y-63838530D01*
X74856840Y-63688646D01*
X74856839Y-63688645D01*
X74814499Y-63662429D01*
X74767864Y-63610400D01*
X74755777Y-63557002D01*
X74755777Y-61272379D01*
X74775462Y-61205340D01*
X74824682Y-61161291D01*
X74988824Y-61079885D01*
X75138267Y-60959759D01*
X75258393Y-60810316D01*
X75343584Y-60638544D01*
X75389858Y-60452473D01*
X75392777Y-60409426D01*
X75392776Y-58732113D01*
X75389858Y-58689065D01*
X75343584Y-58502994D01*
X75312510Y-58440338D01*
X75258395Y-58331225D01*
X75258393Y-58331222D01*
X75138267Y-58181779D01*
X75138266Y-58181778D01*
X74988823Y-58061652D01*
X74988820Y-58061650D01*
X74817055Y-57976463D01*
X74817053Y-57976462D01*
X74817052Y-57976462D01*
X74759145Y-57962061D01*
X74630985Y-57930188D01*
X74587935Y-57927269D01*
X74587934Y-57927269D01*
X73672621Y-57927270D01*
X73672620Y-57927270D01*
X73629575Y-57930187D01*
X73629574Y-57930187D01*
X73443498Y-57976463D01*
X73271733Y-58061650D01*
X73271730Y-58061652D01*
X73122287Y-58181778D01*
X73122286Y-58181779D01*
X73002160Y-58331222D01*
X72971365Y-58393316D01*
X72923944Y-58444628D01*
X72856309Y-58462157D01*
X72789934Y-58440338D01*
X72749189Y-58393316D01*
X72718393Y-58331222D01*
X72598267Y-58181779D01*
X72598266Y-58181778D01*
X72448823Y-58061652D01*
X72448820Y-58061650D01*
X72277055Y-57976463D01*
X72277053Y-57976462D01*
X72277052Y-57976462D01*
X72219145Y-57962061D01*
X72090985Y-57930188D01*
X72047935Y-57927269D01*
X72047934Y-57927269D01*
X71132621Y-57927270D01*
X71132620Y-57927270D01*
X71089575Y-57930187D01*
X71089574Y-57930187D01*
X70903498Y-57976463D01*
X70731733Y-58061650D01*
X70731730Y-58061652D01*
X70582287Y-58181778D01*
X70582286Y-58181779D01*
X70462160Y-58331222D01*
X70462158Y-58331225D01*
X70376971Y-58502990D01*
X70330696Y-58689060D01*
X70327777Y-58732111D01*
X70327777Y-58949012D01*
X70308092Y-59016051D01*
X70291458Y-59036693D01*
X69757384Y-59570768D01*
X69757384Y-59570770D01*
X68343169Y-59570770D01*
X68343170Y-59570769D01*
X68343170Y-59570768D01*
X67809095Y-59036693D01*
X67775610Y-58975370D01*
X67772776Y-58949012D01*
X67772776Y-58732112D01*
X67771803Y-58717763D01*
X67769858Y-58689065D01*
X67723584Y-58502994D01*
X67692510Y-58440338D01*
X67638395Y-58331225D01*
X67638393Y-58331222D01*
X67518267Y-58181779D01*
X67518266Y-58181778D01*
X67368823Y-58061652D01*
X67368820Y-58061650D01*
X67331784Y-58043282D01*
X68229896Y-58043282D01*
X69050277Y-58863662D01*
X69050278Y-58863662D01*
X69870656Y-58043282D01*
X69736879Y-57976934D01*
X69550915Y-57930687D01*
X69550918Y-57930687D01*
X69507885Y-57927769D01*
X68592671Y-57927770D01*
X68549643Y-57930686D01*
X68549642Y-57930686D01*
X68363674Y-57976934D01*
X68363673Y-57976935D01*
X68229896Y-58043281D01*
X68229896Y-58043282D01*
X67331784Y-58043282D01*
X67197055Y-57976463D01*
X67197053Y-57976462D01*
X67197052Y-57976462D01*
X67139145Y-57962061D01*
X67010985Y-57930188D01*
X66967935Y-57927269D01*
X66967934Y-57927269D01*
X66052621Y-57927270D01*
X66052620Y-57927270D01*
X66009575Y-57930187D01*
X66009574Y-57930187D01*
X65823498Y-57976463D01*
X65651733Y-58061650D01*
X65651730Y-58061652D01*
X65502287Y-58181778D01*
X65502286Y-58181779D01*
X65382160Y-58331222D01*
X65382158Y-58331225D01*
X65296971Y-58502990D01*
X65250696Y-58689060D01*
X65250696Y-58689065D01*
X65247777Y-58732112D01*
X64219308Y-58732112D01*
X64265102Y-58630363D01*
X64267350Y-58625870D01*
X64337312Y-58499279D01*
X64413101Y-58373910D01*
X64415512Y-58370234D01*
X64498720Y-58252961D01*
X64500420Y-58250680D01*
X64589922Y-58136440D01*
X64592412Y-58133464D01*
X64688239Y-58026231D01*
X64690576Y-58023759D01*
X64793252Y-57921083D01*
X64795703Y-57918767D01*
X64902764Y-57823087D01*
X64905753Y-57820586D01*
X65020389Y-57730775D01*
X65022658Y-57729082D01*
X65139348Y-57646283D01*
X65143121Y-57643808D01*
X65269397Y-57567473D01*
X65372827Y-57510307D01*
X65394878Y-57498119D01*
X65399410Y-57495851D01*
X65535024Y-57434816D01*
X65665915Y-57380596D01*
X65671140Y-57378704D01*
X65815598Y-57333689D01*
X65948757Y-57295324D01*
X65954717Y-57293922D01*
X66109904Y-57265483D01*
X66239641Y-57243438D01*
X66246255Y-57242678D01*
X66437681Y-57231098D01*
X66481989Y-57228608D01*
X66531445Y-57225831D01*
X66534923Y-57225733D01*
X66586458Y-57225733D01*
X66586501Y-57225726D01*
X71273152Y-57225233D01*
X124171141Y-57225233D01*
X124238180Y-57244918D01*
G37*
%TD.AperFunction*%
%TA.AperFunction,Conductor*%
G36*
X131257304Y-65215076D02*
G01*
X131289532Y-65245081D01*
X131313749Y-65277432D01*
X131313752Y-65277435D01*
X131313754Y-65277437D01*
X131342395Y-65298878D01*
X131428964Y-65363684D01*
X131428973Y-65363689D01*
X131490632Y-65386686D01*
X131546566Y-65428556D01*
X131570984Y-65494020D01*
X131571300Y-65502868D01*
X131571300Y-65836913D01*
X131551615Y-65903952D01*
X131498811Y-65949707D01*
X131490634Y-65953095D01*
X131428969Y-65976094D01*
X131428964Y-65976097D01*
X131313757Y-66062342D01*
X131313749Y-66062349D01*
X131289532Y-66094701D01*
X131233599Y-66136573D01*
X131190265Y-66144391D01*
X126509095Y-66144391D01*
X126442056Y-66124706D01*
X126421414Y-66108072D01*
X125720415Y-65407072D01*
X125686930Y-65345749D01*
X125691914Y-65276057D01*
X125733786Y-65220124D01*
X125799250Y-65195707D01*
X125808096Y-65195391D01*
X131190265Y-65195391D01*
X131257304Y-65215076D01*
G37*
%TD.AperFunction*%
%TA.AperFunction,Conductor*%
G36*
X133326804Y-65428615D02*
G01*
X133377942Y-65476225D01*
X133395222Y-65543924D01*
X133373158Y-65610219D01*
X133358983Y-65627180D01*
X133316275Y-65669889D01*
X133316275Y-65669890D01*
X133358985Y-65712600D01*
X133392470Y-65773923D01*
X133387486Y-65843615D01*
X133345614Y-65899548D01*
X133280150Y-65923965D01*
X133258051Y-65923571D01*
X133219173Y-65919391D01*
X133219167Y-65919391D01*
X132627187Y-65919391D01*
X132560148Y-65899706D01*
X132539506Y-65883072D01*
X132414005Y-65757571D01*
X132380520Y-65696248D01*
X132385504Y-65626556D01*
X132414005Y-65582208D01*
X132539506Y-65456708D01*
X132600829Y-65423224D01*
X132627183Y-65420390D01*
X133219172Y-65420390D01*
X133219173Y-65420389D01*
X133219187Y-65420389D01*
X133246109Y-65417494D01*
X133258045Y-65416211D01*
X133326804Y-65428615D01*
G37*
%TD.AperFunction*%
%TD*%
M02*
